G04 MADE WITH FRITZING*
G04 WWW.FRITZING.ORG*
G04 DOUBLE SIDED*
G04 HOLES PLATED*
G04 CONTOUR ON CENTER OF CONTOUR VECTOR*
%ASAXBY*%
%FSLAX23Y23*%
%MOIN*%
%OFA0B0*%
%SFA1.0B1.0*%
%ADD10R,0.043307X0.027559*%
%ADD11R,0.055118X0.059055*%
%ADD12R,0.059055X0.055118*%
%ADD13R,0.048000X0.088000*%
%ADD14R,0.141732X0.086614*%
%ADD15R,0.001000X0.001000*%
%LNPASTEMASK1*%
G90*
G70*
G54D10*
X878Y206D03*
X531Y210D03*
X669Y210D03*
X669Y35D03*
X531Y35D03*
G54D11*
X992Y1337D03*
X1073Y1337D03*
G54D12*
X399Y295D03*
X399Y376D03*
G54D11*
X811Y1392D03*
X892Y1392D03*
G54D13*
X968Y300D03*
X1059Y300D03*
X1150Y300D03*
G54D14*
X1059Y544D03*
G36*
X719Y219D02*
X762Y219D01*
X762Y192D01*
X719Y192D01*
X719Y219D01*
G37*
D02*
G36*
X856Y44D02*
X900Y44D01*
X900Y17D01*
X856Y17D01*
X856Y44D01*
G37*
D02*
G36*
X719Y44D02*
X762Y44D01*
X762Y17D01*
X719Y17D01*
X719Y44D01*
G37*
D02*
G54D15*
X319Y1335D02*
X364Y1335D01*
X400Y1335D02*
X446Y1335D01*
X476Y1335D02*
X522Y1335D01*
X555Y1335D02*
X601Y1335D01*
X634Y1335D02*
X679Y1335D01*
X713Y1335D02*
X758Y1335D01*
X791Y1335D02*
X837Y1335D01*
X870Y1335D02*
X916Y1335D01*
X318Y1334D02*
X365Y1334D01*
X400Y1334D02*
X446Y1334D01*
X476Y1334D02*
X522Y1334D01*
X555Y1334D02*
X601Y1334D01*
X634Y1334D02*
X680Y1334D01*
X712Y1334D02*
X758Y1334D01*
X791Y1334D02*
X837Y1334D01*
X870Y1334D02*
X916Y1334D01*
X318Y1333D02*
X365Y1333D01*
X400Y1333D02*
X446Y1333D01*
X476Y1333D02*
X522Y1333D01*
X555Y1333D02*
X601Y1333D01*
X634Y1333D02*
X680Y1333D01*
X712Y1333D02*
X758Y1333D01*
X791Y1333D02*
X837Y1333D01*
X870Y1333D02*
X916Y1333D01*
X318Y1332D02*
X365Y1332D01*
X400Y1332D02*
X446Y1332D01*
X476Y1332D02*
X522Y1332D01*
X555Y1332D02*
X601Y1332D01*
X634Y1332D02*
X680Y1332D01*
X712Y1332D02*
X758Y1332D01*
X791Y1332D02*
X837Y1332D01*
X870Y1332D02*
X916Y1332D01*
X318Y1331D02*
X365Y1331D01*
X400Y1331D02*
X446Y1331D01*
X476Y1331D02*
X522Y1331D01*
X555Y1331D02*
X601Y1331D01*
X634Y1331D02*
X680Y1331D01*
X712Y1331D02*
X758Y1331D01*
X791Y1331D02*
X837Y1331D01*
X870Y1331D02*
X916Y1331D01*
X318Y1330D02*
X365Y1330D01*
X400Y1330D02*
X446Y1330D01*
X476Y1330D02*
X522Y1330D01*
X555Y1330D02*
X601Y1330D01*
X634Y1330D02*
X680Y1330D01*
X712Y1330D02*
X758Y1330D01*
X791Y1330D02*
X837Y1330D01*
X870Y1330D02*
X916Y1330D01*
X318Y1329D02*
X365Y1329D01*
X400Y1329D02*
X446Y1329D01*
X476Y1329D02*
X522Y1329D01*
X555Y1329D02*
X601Y1329D01*
X634Y1329D02*
X680Y1329D01*
X712Y1329D02*
X758Y1329D01*
X791Y1329D02*
X837Y1329D01*
X870Y1329D02*
X916Y1329D01*
X318Y1328D02*
X365Y1328D01*
X400Y1328D02*
X446Y1328D01*
X476Y1328D02*
X522Y1328D01*
X555Y1328D02*
X601Y1328D01*
X634Y1328D02*
X680Y1328D01*
X712Y1328D02*
X758Y1328D01*
X791Y1328D02*
X837Y1328D01*
X870Y1328D02*
X916Y1328D01*
X318Y1327D02*
X365Y1327D01*
X400Y1327D02*
X446Y1327D01*
X476Y1327D02*
X522Y1327D01*
X555Y1327D02*
X601Y1327D01*
X634Y1327D02*
X680Y1327D01*
X712Y1327D02*
X758Y1327D01*
X791Y1327D02*
X837Y1327D01*
X870Y1327D02*
X916Y1327D01*
X318Y1326D02*
X365Y1326D01*
X400Y1326D02*
X446Y1326D01*
X476Y1326D02*
X522Y1326D01*
X555Y1326D02*
X601Y1326D01*
X634Y1326D02*
X680Y1326D01*
X712Y1326D02*
X758Y1326D01*
X791Y1326D02*
X837Y1326D01*
X870Y1326D02*
X916Y1326D01*
X318Y1325D02*
X365Y1325D01*
X400Y1325D02*
X446Y1325D01*
X476Y1325D02*
X522Y1325D01*
X555Y1325D02*
X601Y1325D01*
X634Y1325D02*
X680Y1325D01*
X712Y1325D02*
X758Y1325D01*
X791Y1325D02*
X837Y1325D01*
X870Y1325D02*
X916Y1325D01*
X318Y1324D02*
X365Y1324D01*
X400Y1324D02*
X446Y1324D01*
X476Y1324D02*
X522Y1324D01*
X555Y1324D02*
X601Y1324D01*
X634Y1324D02*
X680Y1324D01*
X712Y1324D02*
X758Y1324D01*
X791Y1324D02*
X837Y1324D01*
X870Y1324D02*
X916Y1324D01*
X318Y1323D02*
X365Y1323D01*
X400Y1323D02*
X446Y1323D01*
X476Y1323D02*
X522Y1323D01*
X555Y1323D02*
X601Y1323D01*
X634Y1323D02*
X680Y1323D01*
X712Y1323D02*
X758Y1323D01*
X791Y1323D02*
X837Y1323D01*
X870Y1323D02*
X916Y1323D01*
X318Y1322D02*
X365Y1322D01*
X400Y1322D02*
X446Y1322D01*
X476Y1322D02*
X522Y1322D01*
X555Y1322D02*
X601Y1322D01*
X634Y1322D02*
X680Y1322D01*
X712Y1322D02*
X758Y1322D01*
X791Y1322D02*
X837Y1322D01*
X870Y1322D02*
X916Y1322D01*
X318Y1321D02*
X365Y1321D01*
X400Y1321D02*
X446Y1321D01*
X476Y1321D02*
X522Y1321D01*
X555Y1321D02*
X601Y1321D01*
X634Y1321D02*
X680Y1321D01*
X712Y1321D02*
X758Y1321D01*
X791Y1321D02*
X837Y1321D01*
X870Y1321D02*
X916Y1321D01*
X318Y1320D02*
X365Y1320D01*
X400Y1320D02*
X446Y1320D01*
X476Y1320D02*
X522Y1320D01*
X555Y1320D02*
X601Y1320D01*
X634Y1320D02*
X680Y1320D01*
X712Y1320D02*
X758Y1320D01*
X791Y1320D02*
X837Y1320D01*
X870Y1320D02*
X916Y1320D01*
X318Y1319D02*
X365Y1319D01*
X400Y1319D02*
X446Y1319D01*
X476Y1319D02*
X522Y1319D01*
X555Y1319D02*
X601Y1319D01*
X634Y1319D02*
X680Y1319D01*
X712Y1319D02*
X758Y1319D01*
X791Y1319D02*
X837Y1319D01*
X870Y1319D02*
X916Y1319D01*
X318Y1318D02*
X365Y1318D01*
X400Y1318D02*
X446Y1318D01*
X476Y1318D02*
X522Y1318D01*
X555Y1318D02*
X601Y1318D01*
X634Y1318D02*
X680Y1318D01*
X712Y1318D02*
X758Y1318D01*
X791Y1318D02*
X837Y1318D01*
X870Y1318D02*
X916Y1318D01*
X318Y1317D02*
X365Y1317D01*
X400Y1317D02*
X446Y1317D01*
X476Y1317D02*
X522Y1317D01*
X555Y1317D02*
X601Y1317D01*
X634Y1317D02*
X680Y1317D01*
X712Y1317D02*
X758Y1317D01*
X791Y1317D02*
X837Y1317D01*
X870Y1317D02*
X916Y1317D01*
X318Y1316D02*
X365Y1316D01*
X400Y1316D02*
X446Y1316D01*
X476Y1316D02*
X522Y1316D01*
X555Y1316D02*
X601Y1316D01*
X634Y1316D02*
X680Y1316D01*
X712Y1316D02*
X758Y1316D01*
X791Y1316D02*
X837Y1316D01*
X870Y1316D02*
X916Y1316D01*
X318Y1315D02*
X365Y1315D01*
X400Y1315D02*
X446Y1315D01*
X476Y1315D02*
X522Y1315D01*
X555Y1315D02*
X601Y1315D01*
X634Y1315D02*
X680Y1315D01*
X712Y1315D02*
X758Y1315D01*
X791Y1315D02*
X837Y1315D01*
X870Y1315D02*
X916Y1315D01*
X318Y1314D02*
X365Y1314D01*
X400Y1314D02*
X446Y1314D01*
X476Y1314D02*
X522Y1314D01*
X555Y1314D02*
X601Y1314D01*
X634Y1314D02*
X680Y1314D01*
X712Y1314D02*
X758Y1314D01*
X791Y1314D02*
X837Y1314D01*
X870Y1314D02*
X916Y1314D01*
X318Y1313D02*
X365Y1313D01*
X400Y1313D02*
X446Y1313D01*
X476Y1313D02*
X522Y1313D01*
X555Y1313D02*
X601Y1313D01*
X634Y1313D02*
X680Y1313D01*
X712Y1313D02*
X758Y1313D01*
X791Y1313D02*
X837Y1313D01*
X870Y1313D02*
X916Y1313D01*
X318Y1312D02*
X365Y1312D01*
X400Y1312D02*
X446Y1312D01*
X476Y1312D02*
X522Y1312D01*
X555Y1312D02*
X601Y1312D01*
X634Y1312D02*
X680Y1312D01*
X712Y1312D02*
X758Y1312D01*
X791Y1312D02*
X837Y1312D01*
X870Y1312D02*
X916Y1312D01*
X318Y1311D02*
X365Y1311D01*
X400Y1311D02*
X446Y1311D01*
X476Y1311D02*
X522Y1311D01*
X555Y1311D02*
X601Y1311D01*
X634Y1311D02*
X680Y1311D01*
X712Y1311D02*
X758Y1311D01*
X791Y1311D02*
X837Y1311D01*
X870Y1311D02*
X916Y1311D01*
X318Y1310D02*
X365Y1310D01*
X400Y1310D02*
X446Y1310D01*
X476Y1310D02*
X522Y1310D01*
X555Y1310D02*
X601Y1310D01*
X634Y1310D02*
X680Y1310D01*
X712Y1310D02*
X758Y1310D01*
X791Y1310D02*
X837Y1310D01*
X870Y1310D02*
X916Y1310D01*
X318Y1309D02*
X365Y1309D01*
X400Y1309D02*
X446Y1309D01*
X476Y1309D02*
X522Y1309D01*
X555Y1309D02*
X601Y1309D01*
X634Y1309D02*
X680Y1309D01*
X712Y1309D02*
X758Y1309D01*
X791Y1309D02*
X837Y1309D01*
X870Y1309D02*
X916Y1309D01*
X318Y1308D02*
X365Y1308D01*
X400Y1308D02*
X446Y1308D01*
X476Y1308D02*
X522Y1308D01*
X555Y1308D02*
X601Y1308D01*
X634Y1308D02*
X680Y1308D01*
X712Y1308D02*
X758Y1308D01*
X791Y1308D02*
X837Y1308D01*
X870Y1308D02*
X916Y1308D01*
X318Y1307D02*
X365Y1307D01*
X400Y1307D02*
X446Y1307D01*
X476Y1307D02*
X522Y1307D01*
X555Y1307D02*
X601Y1307D01*
X634Y1307D02*
X680Y1307D01*
X712Y1307D02*
X758Y1307D01*
X791Y1307D02*
X837Y1307D01*
X870Y1307D02*
X916Y1307D01*
X318Y1306D02*
X365Y1306D01*
X400Y1306D02*
X446Y1306D01*
X476Y1306D02*
X522Y1306D01*
X555Y1306D02*
X601Y1306D01*
X634Y1306D02*
X680Y1306D01*
X712Y1306D02*
X758Y1306D01*
X791Y1306D02*
X837Y1306D01*
X870Y1306D02*
X916Y1306D01*
X318Y1305D02*
X365Y1305D01*
X400Y1305D02*
X446Y1305D01*
X476Y1305D02*
X522Y1305D01*
X555Y1305D02*
X601Y1305D01*
X634Y1305D02*
X680Y1305D01*
X712Y1305D02*
X758Y1305D01*
X791Y1305D02*
X837Y1305D01*
X870Y1305D02*
X916Y1305D01*
X318Y1304D02*
X365Y1304D01*
X400Y1304D02*
X446Y1304D01*
X476Y1304D02*
X522Y1304D01*
X555Y1304D02*
X601Y1304D01*
X634Y1304D02*
X680Y1304D01*
X712Y1304D02*
X758Y1304D01*
X791Y1304D02*
X837Y1304D01*
X870Y1304D02*
X916Y1304D01*
X318Y1303D02*
X365Y1303D01*
X400Y1303D02*
X446Y1303D01*
X476Y1303D02*
X522Y1303D01*
X555Y1303D02*
X601Y1303D01*
X634Y1303D02*
X680Y1303D01*
X712Y1303D02*
X758Y1303D01*
X791Y1303D02*
X837Y1303D01*
X870Y1303D02*
X916Y1303D01*
X318Y1302D02*
X365Y1302D01*
X400Y1302D02*
X446Y1302D01*
X476Y1302D02*
X522Y1302D01*
X555Y1302D02*
X601Y1302D01*
X634Y1302D02*
X680Y1302D01*
X712Y1302D02*
X758Y1302D01*
X791Y1302D02*
X837Y1302D01*
X870Y1302D02*
X916Y1302D01*
X318Y1301D02*
X365Y1301D01*
X400Y1301D02*
X446Y1301D01*
X476Y1301D02*
X522Y1301D01*
X555Y1301D02*
X601Y1301D01*
X634Y1301D02*
X680Y1301D01*
X712Y1301D02*
X758Y1301D01*
X791Y1301D02*
X837Y1301D01*
X870Y1301D02*
X916Y1301D01*
X318Y1300D02*
X365Y1300D01*
X400Y1300D02*
X446Y1300D01*
X476Y1300D02*
X522Y1300D01*
X555Y1300D02*
X601Y1300D01*
X634Y1300D02*
X680Y1300D01*
X712Y1300D02*
X758Y1300D01*
X791Y1300D02*
X837Y1300D01*
X870Y1300D02*
X916Y1300D01*
X318Y1299D02*
X365Y1299D01*
X400Y1299D02*
X446Y1299D01*
X476Y1299D02*
X522Y1299D01*
X555Y1299D02*
X601Y1299D01*
X634Y1299D02*
X680Y1299D01*
X712Y1299D02*
X758Y1299D01*
X791Y1299D02*
X837Y1299D01*
X870Y1299D02*
X916Y1299D01*
X318Y1298D02*
X365Y1298D01*
X400Y1298D02*
X446Y1298D01*
X476Y1298D02*
X522Y1298D01*
X555Y1298D02*
X601Y1298D01*
X634Y1298D02*
X680Y1298D01*
X712Y1298D02*
X758Y1298D01*
X791Y1298D02*
X837Y1298D01*
X870Y1298D02*
X916Y1298D01*
X318Y1297D02*
X365Y1297D01*
X400Y1297D02*
X446Y1297D01*
X476Y1297D02*
X522Y1297D01*
X555Y1297D02*
X601Y1297D01*
X634Y1297D02*
X680Y1297D01*
X712Y1297D02*
X758Y1297D01*
X791Y1297D02*
X837Y1297D01*
X870Y1297D02*
X916Y1297D01*
X318Y1296D02*
X365Y1296D01*
X400Y1296D02*
X446Y1296D01*
X476Y1296D02*
X522Y1296D01*
X555Y1296D02*
X601Y1296D01*
X634Y1296D02*
X680Y1296D01*
X712Y1296D02*
X758Y1296D01*
X791Y1296D02*
X837Y1296D01*
X870Y1296D02*
X916Y1296D01*
X318Y1295D02*
X365Y1295D01*
X400Y1295D02*
X446Y1295D01*
X476Y1295D02*
X522Y1295D01*
X555Y1295D02*
X601Y1295D01*
X634Y1295D02*
X680Y1295D01*
X712Y1295D02*
X758Y1295D01*
X791Y1295D02*
X837Y1295D01*
X870Y1295D02*
X916Y1295D01*
X318Y1294D02*
X365Y1294D01*
X400Y1294D02*
X446Y1294D01*
X476Y1294D02*
X522Y1294D01*
X555Y1294D02*
X601Y1294D01*
X634Y1294D02*
X680Y1294D01*
X712Y1294D02*
X758Y1294D01*
X791Y1294D02*
X837Y1294D01*
X870Y1294D02*
X916Y1294D01*
X318Y1293D02*
X365Y1293D01*
X400Y1293D02*
X446Y1293D01*
X476Y1293D02*
X522Y1293D01*
X555Y1293D02*
X601Y1293D01*
X634Y1293D02*
X680Y1293D01*
X712Y1293D02*
X758Y1293D01*
X791Y1293D02*
X837Y1293D01*
X870Y1293D02*
X916Y1293D01*
X318Y1292D02*
X365Y1292D01*
X400Y1292D02*
X446Y1292D01*
X476Y1292D02*
X522Y1292D01*
X555Y1292D02*
X601Y1292D01*
X634Y1292D02*
X680Y1292D01*
X712Y1292D02*
X758Y1292D01*
X791Y1292D02*
X837Y1292D01*
X870Y1292D02*
X916Y1292D01*
X318Y1291D02*
X365Y1291D01*
X400Y1291D02*
X446Y1291D01*
X476Y1291D02*
X522Y1291D01*
X555Y1291D02*
X601Y1291D01*
X634Y1291D02*
X680Y1291D01*
X712Y1291D02*
X758Y1291D01*
X791Y1291D02*
X837Y1291D01*
X870Y1291D02*
X916Y1291D01*
X318Y1290D02*
X365Y1290D01*
X400Y1290D02*
X446Y1290D01*
X476Y1290D02*
X522Y1290D01*
X555Y1290D02*
X601Y1290D01*
X634Y1290D02*
X680Y1290D01*
X712Y1290D02*
X758Y1290D01*
X791Y1290D02*
X837Y1290D01*
X870Y1290D02*
X916Y1290D01*
X318Y1289D02*
X365Y1289D01*
X400Y1289D02*
X446Y1289D01*
X476Y1289D02*
X522Y1289D01*
X555Y1289D02*
X601Y1289D01*
X634Y1289D02*
X680Y1289D01*
X712Y1289D02*
X758Y1289D01*
X791Y1289D02*
X837Y1289D01*
X870Y1289D02*
X916Y1289D01*
X318Y1288D02*
X365Y1288D01*
X400Y1288D02*
X446Y1288D01*
X476Y1288D02*
X522Y1288D01*
X555Y1288D02*
X601Y1288D01*
X634Y1288D02*
X680Y1288D01*
X712Y1288D02*
X758Y1288D01*
X791Y1288D02*
X837Y1288D01*
X870Y1288D02*
X916Y1288D01*
X318Y1287D02*
X365Y1287D01*
X400Y1287D02*
X446Y1287D01*
X476Y1287D02*
X522Y1287D01*
X555Y1287D02*
X601Y1287D01*
X634Y1287D02*
X680Y1287D01*
X712Y1287D02*
X758Y1287D01*
X791Y1287D02*
X837Y1287D01*
X870Y1287D02*
X916Y1287D01*
X318Y1286D02*
X365Y1286D01*
X400Y1286D02*
X446Y1286D01*
X476Y1286D02*
X522Y1286D01*
X555Y1286D02*
X601Y1286D01*
X634Y1286D02*
X680Y1286D01*
X712Y1286D02*
X758Y1286D01*
X791Y1286D02*
X837Y1286D01*
X870Y1286D02*
X916Y1286D01*
X318Y1285D02*
X365Y1285D01*
X400Y1285D02*
X446Y1285D01*
X476Y1285D02*
X522Y1285D01*
X555Y1285D02*
X601Y1285D01*
X634Y1285D02*
X680Y1285D01*
X712Y1285D02*
X758Y1285D01*
X791Y1285D02*
X837Y1285D01*
X870Y1285D02*
X916Y1285D01*
X318Y1284D02*
X365Y1284D01*
X400Y1284D02*
X446Y1284D01*
X476Y1284D02*
X522Y1284D01*
X555Y1284D02*
X601Y1284D01*
X634Y1284D02*
X680Y1284D01*
X712Y1284D02*
X758Y1284D01*
X791Y1284D02*
X837Y1284D01*
X870Y1284D02*
X916Y1284D01*
X318Y1283D02*
X365Y1283D01*
X400Y1283D02*
X446Y1283D01*
X476Y1283D02*
X522Y1283D01*
X555Y1283D02*
X601Y1283D01*
X634Y1283D02*
X680Y1283D01*
X712Y1283D02*
X758Y1283D01*
X791Y1283D02*
X837Y1283D01*
X870Y1283D02*
X916Y1283D01*
X318Y1282D02*
X365Y1282D01*
X400Y1282D02*
X446Y1282D01*
X476Y1282D02*
X522Y1282D01*
X555Y1282D02*
X601Y1282D01*
X634Y1282D02*
X680Y1282D01*
X712Y1282D02*
X758Y1282D01*
X791Y1282D02*
X837Y1282D01*
X870Y1282D02*
X916Y1282D01*
X318Y1281D02*
X365Y1281D01*
X400Y1281D02*
X446Y1281D01*
X476Y1281D02*
X522Y1281D01*
X555Y1281D02*
X601Y1281D01*
X634Y1281D02*
X680Y1281D01*
X712Y1281D02*
X758Y1281D01*
X791Y1281D02*
X837Y1281D01*
X870Y1281D02*
X916Y1281D01*
X318Y1280D02*
X365Y1280D01*
X400Y1280D02*
X446Y1280D01*
X476Y1280D02*
X522Y1280D01*
X555Y1280D02*
X601Y1280D01*
X634Y1280D02*
X680Y1280D01*
X712Y1280D02*
X758Y1280D01*
X791Y1280D02*
X837Y1280D01*
X870Y1280D02*
X916Y1280D01*
X318Y1279D02*
X365Y1279D01*
X400Y1279D02*
X421Y1279D01*
X424Y1279D02*
X446Y1279D01*
X476Y1279D02*
X498Y1279D01*
X501Y1279D02*
X522Y1279D01*
X555Y1279D02*
X577Y1279D01*
X579Y1279D02*
X601Y1279D01*
X634Y1279D02*
X680Y1279D01*
X712Y1279D02*
X758Y1279D01*
X791Y1279D02*
X813Y1279D01*
X816Y1279D02*
X837Y1279D01*
X870Y1279D02*
X892Y1279D01*
X894Y1279D02*
X916Y1279D01*
X318Y1278D02*
X336Y1278D01*
X347Y1278D02*
X365Y1278D01*
X400Y1278D02*
X417Y1278D01*
X428Y1278D02*
X446Y1278D01*
X476Y1278D02*
X494Y1278D01*
X505Y1278D02*
X522Y1278D01*
X555Y1278D02*
X573Y1278D01*
X583Y1278D02*
X601Y1278D01*
X634Y1278D02*
X651Y1278D01*
X662Y1278D02*
X680Y1278D01*
X712Y1278D02*
X730Y1278D01*
X741Y1278D02*
X758Y1278D01*
X791Y1278D02*
X809Y1278D01*
X820Y1278D02*
X837Y1278D01*
X870Y1278D02*
X887Y1278D01*
X898Y1278D02*
X916Y1278D01*
X318Y1277D02*
X334Y1277D01*
X349Y1277D02*
X365Y1277D01*
X400Y1277D02*
X415Y1277D01*
X430Y1277D02*
X446Y1277D01*
X476Y1277D02*
X492Y1277D01*
X506Y1277D02*
X522Y1277D01*
X555Y1277D02*
X571Y1277D01*
X585Y1277D02*
X601Y1277D01*
X634Y1277D02*
X649Y1277D01*
X664Y1277D02*
X680Y1277D01*
X712Y1277D02*
X728Y1277D01*
X742Y1277D02*
X758Y1277D01*
X791Y1277D02*
X807Y1277D01*
X821Y1277D02*
X837Y1277D01*
X870Y1277D02*
X886Y1277D01*
X900Y1277D02*
X916Y1277D01*
X318Y1276D02*
X333Y1276D01*
X350Y1276D02*
X365Y1276D01*
X400Y1276D02*
X414Y1276D01*
X431Y1276D02*
X446Y1276D01*
X476Y1276D02*
X491Y1276D01*
X508Y1276D02*
X522Y1276D01*
X555Y1276D02*
X569Y1276D01*
X586Y1276D02*
X601Y1276D01*
X634Y1276D02*
X648Y1276D01*
X665Y1276D02*
X680Y1276D01*
X712Y1276D02*
X727Y1276D01*
X744Y1276D02*
X758Y1276D01*
X791Y1276D02*
X806Y1276D01*
X823Y1276D02*
X837Y1276D01*
X870Y1276D02*
X884Y1276D01*
X901Y1276D02*
X916Y1276D01*
X318Y1275D02*
X332Y1275D01*
X351Y1275D02*
X365Y1275D01*
X400Y1275D02*
X413Y1275D01*
X432Y1275D02*
X446Y1275D01*
X476Y1275D02*
X490Y1275D01*
X509Y1275D02*
X522Y1275D01*
X555Y1275D02*
X568Y1275D01*
X587Y1275D02*
X601Y1275D01*
X634Y1275D02*
X647Y1275D01*
X666Y1275D02*
X680Y1275D01*
X712Y1275D02*
X726Y1275D01*
X745Y1275D02*
X758Y1275D01*
X791Y1275D02*
X805Y1275D01*
X824Y1275D02*
X837Y1275D01*
X870Y1275D02*
X883Y1275D01*
X902Y1275D02*
X916Y1275D01*
X318Y1274D02*
X331Y1274D01*
X352Y1274D02*
X365Y1274D01*
X400Y1274D02*
X412Y1274D01*
X433Y1274D02*
X446Y1274D01*
X476Y1274D02*
X489Y1274D01*
X510Y1274D02*
X522Y1274D01*
X555Y1274D02*
X568Y1274D01*
X588Y1274D02*
X601Y1274D01*
X634Y1274D02*
X646Y1274D01*
X667Y1274D02*
X680Y1274D01*
X712Y1274D02*
X725Y1274D01*
X746Y1274D02*
X758Y1274D01*
X791Y1274D02*
X804Y1274D01*
X824Y1274D02*
X837Y1274D01*
X870Y1274D02*
X883Y1274D01*
X903Y1274D02*
X916Y1274D01*
X318Y1273D02*
X331Y1273D01*
X353Y1273D02*
X365Y1273D01*
X400Y1273D02*
X412Y1273D01*
X434Y1273D02*
X446Y1273D01*
X476Y1273D02*
X488Y1273D01*
X510Y1273D02*
X522Y1273D01*
X555Y1273D02*
X567Y1273D01*
X589Y1273D02*
X601Y1273D01*
X634Y1273D02*
X646Y1273D01*
X668Y1273D02*
X680Y1273D01*
X712Y1273D02*
X724Y1273D01*
X746Y1273D02*
X758Y1273D01*
X791Y1273D02*
X803Y1273D01*
X825Y1273D02*
X837Y1273D01*
X870Y1273D02*
X882Y1273D01*
X904Y1273D02*
X916Y1273D01*
X318Y1272D02*
X330Y1272D01*
X353Y1272D02*
X365Y1272D01*
X400Y1272D02*
X411Y1272D01*
X434Y1272D02*
X446Y1272D01*
X476Y1272D02*
X488Y1272D01*
X511Y1272D02*
X522Y1272D01*
X555Y1272D02*
X566Y1272D01*
X589Y1272D02*
X601Y1272D01*
X634Y1272D02*
X645Y1272D01*
X668Y1272D02*
X680Y1272D01*
X712Y1272D02*
X724Y1272D01*
X747Y1272D02*
X758Y1272D01*
X791Y1272D02*
X803Y1272D01*
X826Y1272D02*
X837Y1272D01*
X870Y1272D02*
X881Y1272D01*
X904Y1272D02*
X916Y1272D01*
X318Y1271D02*
X330Y1271D01*
X354Y1271D02*
X365Y1271D01*
X400Y1271D02*
X411Y1271D01*
X435Y1271D02*
X446Y1271D01*
X476Y1271D02*
X487Y1271D01*
X511Y1271D02*
X522Y1271D01*
X555Y1271D02*
X566Y1271D01*
X590Y1271D02*
X601Y1271D01*
X634Y1271D02*
X645Y1271D01*
X669Y1271D02*
X680Y1271D01*
X712Y1271D02*
X723Y1271D01*
X747Y1271D02*
X758Y1271D01*
X791Y1271D02*
X802Y1271D01*
X826Y1271D02*
X837Y1271D01*
X870Y1271D02*
X881Y1271D01*
X905Y1271D02*
X916Y1271D01*
X318Y1270D02*
X329Y1270D01*
X354Y1270D02*
X365Y1270D01*
X400Y1270D02*
X410Y1270D01*
X435Y1270D02*
X446Y1270D01*
X476Y1270D02*
X487Y1270D01*
X511Y1270D02*
X522Y1270D01*
X555Y1270D02*
X566Y1270D01*
X590Y1270D02*
X601Y1270D01*
X634Y1270D02*
X644Y1270D01*
X669Y1270D02*
X680Y1270D01*
X712Y1270D02*
X723Y1270D01*
X748Y1270D02*
X758Y1270D01*
X791Y1270D02*
X802Y1270D01*
X826Y1270D02*
X837Y1270D01*
X870Y1270D02*
X881Y1270D01*
X905Y1270D02*
X916Y1270D01*
X318Y1269D02*
X329Y1269D01*
X354Y1269D02*
X365Y1269D01*
X400Y1269D02*
X410Y1269D01*
X435Y1269D02*
X446Y1269D01*
X476Y1269D02*
X487Y1269D01*
X512Y1269D02*
X522Y1269D01*
X555Y1269D02*
X565Y1269D01*
X590Y1269D02*
X601Y1269D01*
X634Y1269D02*
X644Y1269D01*
X669Y1269D02*
X680Y1269D01*
X712Y1269D02*
X723Y1269D01*
X748Y1269D02*
X758Y1269D01*
X791Y1269D02*
X802Y1269D01*
X827Y1269D02*
X837Y1269D01*
X870Y1269D02*
X880Y1269D01*
X905Y1269D02*
X916Y1269D01*
X318Y1268D02*
X329Y1268D01*
X354Y1268D02*
X365Y1268D01*
X400Y1268D02*
X410Y1268D01*
X435Y1268D02*
X446Y1268D01*
X476Y1268D02*
X487Y1268D01*
X512Y1268D02*
X522Y1268D01*
X555Y1268D02*
X565Y1268D01*
X590Y1268D02*
X601Y1268D01*
X634Y1268D02*
X644Y1268D01*
X669Y1268D02*
X680Y1268D01*
X712Y1268D02*
X723Y1268D01*
X748Y1268D02*
X758Y1268D01*
X791Y1268D02*
X802Y1268D01*
X827Y1268D02*
X837Y1268D01*
X870Y1268D02*
X880Y1268D01*
X905Y1268D02*
X916Y1268D01*
X318Y1267D02*
X329Y1267D01*
X354Y1267D02*
X365Y1267D01*
X400Y1267D02*
X410Y1267D01*
X435Y1267D02*
X446Y1267D01*
X476Y1267D02*
X487Y1267D01*
X512Y1267D02*
X522Y1267D01*
X555Y1267D02*
X565Y1267D01*
X590Y1267D02*
X601Y1267D01*
X634Y1267D02*
X644Y1267D01*
X669Y1267D02*
X680Y1267D01*
X712Y1267D02*
X723Y1267D01*
X748Y1267D02*
X758Y1267D01*
X791Y1267D02*
X801Y1267D01*
X827Y1267D02*
X837Y1267D01*
X870Y1267D02*
X880Y1267D01*
X906Y1267D02*
X916Y1267D01*
X318Y1266D02*
X329Y1266D01*
X354Y1266D02*
X365Y1266D01*
X400Y1266D02*
X410Y1266D01*
X435Y1266D02*
X446Y1266D01*
X476Y1266D02*
X487Y1266D01*
X512Y1266D02*
X522Y1266D01*
X555Y1266D02*
X565Y1266D01*
X590Y1266D02*
X601Y1266D01*
X634Y1266D02*
X644Y1266D01*
X669Y1266D02*
X680Y1266D01*
X712Y1266D02*
X723Y1266D01*
X748Y1266D02*
X758Y1266D01*
X791Y1266D02*
X802Y1266D01*
X827Y1266D02*
X837Y1266D01*
X870Y1266D02*
X880Y1266D01*
X905Y1266D02*
X916Y1266D01*
X318Y1265D02*
X329Y1265D01*
X354Y1265D02*
X365Y1265D01*
X400Y1265D02*
X410Y1265D01*
X435Y1265D02*
X446Y1265D01*
X476Y1265D02*
X487Y1265D01*
X512Y1265D02*
X522Y1265D01*
X555Y1265D02*
X565Y1265D01*
X590Y1265D02*
X601Y1265D01*
X634Y1265D02*
X644Y1265D01*
X669Y1265D02*
X680Y1265D01*
X712Y1265D02*
X723Y1265D01*
X748Y1265D02*
X758Y1265D01*
X791Y1265D02*
X802Y1265D01*
X827Y1265D02*
X837Y1265D01*
X870Y1265D02*
X880Y1265D01*
X905Y1265D02*
X916Y1265D01*
X318Y1264D02*
X329Y1264D01*
X354Y1264D02*
X365Y1264D01*
X400Y1264D02*
X410Y1264D01*
X435Y1264D02*
X446Y1264D01*
X476Y1264D02*
X487Y1264D01*
X511Y1264D02*
X522Y1264D01*
X555Y1264D02*
X566Y1264D01*
X590Y1264D02*
X601Y1264D01*
X634Y1264D02*
X644Y1264D01*
X669Y1264D02*
X680Y1264D01*
X712Y1264D02*
X723Y1264D01*
X748Y1264D02*
X758Y1264D01*
X791Y1264D02*
X802Y1264D01*
X826Y1264D02*
X837Y1264D01*
X870Y1264D02*
X881Y1264D01*
X905Y1264D02*
X916Y1264D01*
X318Y1263D02*
X330Y1263D01*
X354Y1263D02*
X365Y1263D01*
X400Y1263D02*
X411Y1263D01*
X435Y1263D02*
X446Y1263D01*
X476Y1263D02*
X487Y1263D01*
X511Y1263D02*
X522Y1263D01*
X555Y1263D02*
X566Y1263D01*
X590Y1263D02*
X601Y1263D01*
X634Y1263D02*
X645Y1263D01*
X669Y1263D02*
X680Y1263D01*
X712Y1263D02*
X723Y1263D01*
X747Y1263D02*
X758Y1263D01*
X791Y1263D02*
X802Y1263D01*
X826Y1263D02*
X837Y1263D01*
X870Y1263D02*
X881Y1263D01*
X905Y1263D02*
X916Y1263D01*
X318Y1262D02*
X330Y1262D01*
X353Y1262D02*
X365Y1262D01*
X400Y1262D02*
X411Y1262D01*
X434Y1262D02*
X446Y1262D01*
X476Y1262D02*
X488Y1262D01*
X511Y1262D02*
X522Y1262D01*
X555Y1262D02*
X566Y1262D01*
X589Y1262D02*
X601Y1262D01*
X634Y1262D02*
X645Y1262D01*
X668Y1262D02*
X680Y1262D01*
X712Y1262D02*
X724Y1262D01*
X747Y1262D02*
X758Y1262D01*
X791Y1262D02*
X803Y1262D01*
X826Y1262D02*
X837Y1262D01*
X870Y1262D02*
X881Y1262D01*
X904Y1262D02*
X916Y1262D01*
X318Y1261D02*
X331Y1261D01*
X353Y1261D02*
X365Y1261D01*
X400Y1261D02*
X412Y1261D01*
X434Y1261D02*
X446Y1261D01*
X476Y1261D02*
X488Y1261D01*
X510Y1261D02*
X522Y1261D01*
X555Y1261D02*
X567Y1261D01*
X589Y1261D02*
X601Y1261D01*
X634Y1261D02*
X646Y1261D01*
X668Y1261D02*
X680Y1261D01*
X712Y1261D02*
X724Y1261D01*
X746Y1261D02*
X758Y1261D01*
X791Y1261D02*
X803Y1261D01*
X825Y1261D02*
X837Y1261D01*
X870Y1261D02*
X882Y1261D01*
X904Y1261D02*
X916Y1261D01*
X318Y1260D02*
X331Y1260D01*
X352Y1260D02*
X365Y1260D01*
X400Y1260D02*
X412Y1260D01*
X433Y1260D02*
X446Y1260D01*
X476Y1260D02*
X489Y1260D01*
X510Y1260D02*
X522Y1260D01*
X555Y1260D02*
X567Y1260D01*
X588Y1260D02*
X601Y1260D01*
X634Y1260D02*
X646Y1260D01*
X667Y1260D02*
X680Y1260D01*
X712Y1260D02*
X725Y1260D01*
X746Y1260D02*
X758Y1260D01*
X791Y1260D02*
X804Y1260D01*
X825Y1260D02*
X837Y1260D01*
X870Y1260D02*
X883Y1260D01*
X903Y1260D02*
X916Y1260D01*
X318Y1259D02*
X332Y1259D01*
X351Y1259D02*
X365Y1259D01*
X400Y1259D02*
X413Y1259D01*
X432Y1259D02*
X446Y1259D01*
X476Y1259D02*
X490Y1259D01*
X509Y1259D02*
X522Y1259D01*
X555Y1259D02*
X568Y1259D01*
X588Y1259D02*
X601Y1259D01*
X634Y1259D02*
X647Y1259D01*
X666Y1259D02*
X680Y1259D01*
X712Y1259D02*
X726Y1259D01*
X745Y1259D02*
X758Y1259D01*
X791Y1259D02*
X804Y1259D01*
X824Y1259D02*
X837Y1259D01*
X870Y1259D02*
X883Y1259D01*
X903Y1259D02*
X916Y1259D01*
X318Y1258D02*
X333Y1258D01*
X350Y1258D02*
X365Y1258D01*
X400Y1258D02*
X414Y1258D01*
X431Y1258D02*
X446Y1258D01*
X476Y1258D02*
X491Y1258D01*
X508Y1258D02*
X522Y1258D01*
X555Y1258D02*
X569Y1258D01*
X587Y1258D02*
X601Y1258D01*
X634Y1258D02*
X648Y1258D01*
X665Y1258D02*
X680Y1258D01*
X712Y1258D02*
X727Y1258D01*
X744Y1258D02*
X758Y1258D01*
X791Y1258D02*
X805Y1258D01*
X823Y1258D02*
X837Y1258D01*
X870Y1258D02*
X884Y1258D01*
X902Y1258D02*
X916Y1258D01*
X318Y1257D02*
X334Y1257D01*
X349Y1257D02*
X365Y1257D01*
X400Y1257D02*
X415Y1257D01*
X430Y1257D02*
X446Y1257D01*
X476Y1257D02*
X492Y1257D01*
X507Y1257D02*
X522Y1257D01*
X555Y1257D02*
X570Y1257D01*
X585Y1257D02*
X601Y1257D01*
X634Y1257D02*
X649Y1257D01*
X664Y1257D02*
X680Y1257D01*
X712Y1257D02*
X728Y1257D01*
X743Y1257D02*
X758Y1257D01*
X791Y1257D02*
X807Y1257D01*
X821Y1257D02*
X837Y1257D01*
X870Y1257D02*
X886Y1257D01*
X900Y1257D02*
X916Y1257D01*
X318Y1256D02*
X336Y1256D01*
X347Y1256D02*
X365Y1256D01*
X400Y1256D02*
X417Y1256D01*
X428Y1256D02*
X446Y1256D01*
X476Y1256D02*
X494Y1256D01*
X505Y1256D02*
X522Y1256D01*
X555Y1256D02*
X572Y1256D01*
X584Y1256D02*
X601Y1256D01*
X634Y1256D02*
X651Y1256D01*
X662Y1256D02*
X680Y1256D01*
X712Y1256D02*
X730Y1256D01*
X741Y1256D02*
X758Y1256D01*
X791Y1256D02*
X808Y1256D01*
X820Y1256D02*
X837Y1256D01*
X870Y1256D02*
X887Y1256D01*
X899Y1256D02*
X916Y1256D01*
X318Y1255D02*
X339Y1255D01*
X344Y1255D02*
X365Y1255D01*
X400Y1255D02*
X420Y1255D01*
X425Y1255D02*
X446Y1255D01*
X476Y1255D02*
X497Y1255D01*
X502Y1255D02*
X522Y1255D01*
X555Y1255D02*
X575Y1255D01*
X581Y1255D02*
X601Y1255D01*
X634Y1255D02*
X654Y1255D01*
X659Y1255D02*
X680Y1255D01*
X712Y1255D02*
X733Y1255D01*
X738Y1255D02*
X758Y1255D01*
X791Y1255D02*
X812Y1255D01*
X816Y1255D02*
X837Y1255D01*
X870Y1255D02*
X891Y1255D01*
X895Y1255D02*
X916Y1255D01*
X318Y1254D02*
X365Y1254D01*
X400Y1254D02*
X446Y1254D01*
X476Y1254D02*
X522Y1254D01*
X555Y1254D02*
X601Y1254D01*
X634Y1254D02*
X680Y1254D01*
X712Y1254D02*
X758Y1254D01*
X791Y1254D02*
X837Y1254D01*
X870Y1254D02*
X916Y1254D01*
X318Y1253D02*
X365Y1253D01*
X400Y1253D02*
X446Y1253D01*
X476Y1253D02*
X522Y1253D01*
X555Y1253D02*
X601Y1253D01*
X634Y1253D02*
X680Y1253D01*
X712Y1253D02*
X758Y1253D01*
X791Y1253D02*
X837Y1253D01*
X870Y1253D02*
X916Y1253D01*
X318Y1252D02*
X365Y1252D01*
X400Y1252D02*
X446Y1252D01*
X476Y1252D02*
X522Y1252D01*
X555Y1252D02*
X601Y1252D01*
X634Y1252D02*
X680Y1252D01*
X712Y1252D02*
X758Y1252D01*
X791Y1252D02*
X837Y1252D01*
X870Y1252D02*
X916Y1252D01*
X318Y1251D02*
X365Y1251D01*
X400Y1251D02*
X446Y1251D01*
X476Y1251D02*
X522Y1251D01*
X555Y1251D02*
X601Y1251D01*
X634Y1251D02*
X680Y1251D01*
X712Y1251D02*
X758Y1251D01*
X791Y1251D02*
X837Y1251D01*
X870Y1251D02*
X916Y1251D01*
X318Y1250D02*
X365Y1250D01*
X400Y1250D02*
X446Y1250D01*
X476Y1250D02*
X522Y1250D01*
X555Y1250D02*
X601Y1250D01*
X634Y1250D02*
X680Y1250D01*
X712Y1250D02*
X758Y1250D01*
X791Y1250D02*
X837Y1250D01*
X870Y1250D02*
X916Y1250D01*
X318Y1249D02*
X365Y1249D01*
X400Y1249D02*
X446Y1249D01*
X476Y1249D02*
X522Y1249D01*
X555Y1249D02*
X601Y1249D01*
X634Y1249D02*
X680Y1249D01*
X712Y1249D02*
X758Y1249D01*
X791Y1249D02*
X837Y1249D01*
X870Y1249D02*
X916Y1249D01*
X318Y1248D02*
X365Y1248D01*
X400Y1248D02*
X446Y1248D01*
X476Y1248D02*
X522Y1248D01*
X555Y1248D02*
X601Y1248D01*
X634Y1248D02*
X680Y1248D01*
X712Y1248D02*
X758Y1248D01*
X791Y1248D02*
X837Y1248D01*
X870Y1248D02*
X916Y1248D01*
X319Y1247D02*
X365Y1247D01*
X400Y1247D02*
X446Y1247D01*
X476Y1247D02*
X522Y1247D01*
X555Y1247D02*
X601Y1247D01*
X634Y1247D02*
X680Y1247D01*
X712Y1247D02*
X758Y1247D01*
X791Y1247D02*
X837Y1247D01*
X870Y1247D02*
X916Y1247D01*
X319Y715D02*
X365Y715D01*
X400Y715D02*
X446Y715D01*
X476Y715D02*
X522Y715D01*
X555Y715D02*
X601Y715D01*
X634Y715D02*
X680Y715D01*
X712Y715D02*
X758Y715D01*
X791Y715D02*
X837Y715D01*
X870Y715D02*
X916Y715D01*
X319Y714D02*
X365Y714D01*
X400Y714D02*
X446Y714D01*
X476Y714D02*
X522Y714D01*
X555Y714D02*
X601Y714D01*
X634Y714D02*
X680Y714D01*
X712Y714D02*
X759Y714D01*
X791Y714D02*
X837Y714D01*
X870Y714D02*
X916Y714D01*
X319Y713D02*
X365Y713D01*
X400Y713D02*
X446Y713D01*
X476Y713D02*
X522Y713D01*
X555Y713D02*
X601Y713D01*
X634Y713D02*
X680Y713D01*
X712Y713D02*
X759Y713D01*
X791Y713D02*
X837Y713D01*
X870Y713D02*
X916Y713D01*
X319Y712D02*
X365Y712D01*
X400Y712D02*
X446Y712D01*
X476Y712D02*
X522Y712D01*
X555Y712D02*
X601Y712D01*
X634Y712D02*
X680Y712D01*
X712Y712D02*
X759Y712D01*
X791Y712D02*
X837Y712D01*
X870Y712D02*
X916Y712D01*
X319Y711D02*
X365Y711D01*
X400Y711D02*
X446Y711D01*
X476Y711D02*
X522Y711D01*
X555Y711D02*
X601Y711D01*
X634Y711D02*
X680Y711D01*
X712Y711D02*
X759Y711D01*
X791Y711D02*
X837Y711D01*
X870Y711D02*
X916Y711D01*
X319Y710D02*
X365Y710D01*
X400Y710D02*
X446Y710D01*
X476Y710D02*
X522Y710D01*
X555Y710D02*
X601Y710D01*
X634Y710D02*
X680Y710D01*
X712Y710D02*
X759Y710D01*
X791Y710D02*
X837Y710D01*
X870Y710D02*
X916Y710D01*
X319Y709D02*
X365Y709D01*
X400Y709D02*
X446Y709D01*
X476Y709D02*
X522Y709D01*
X555Y709D02*
X601Y709D01*
X634Y709D02*
X680Y709D01*
X712Y709D02*
X759Y709D01*
X791Y709D02*
X837Y709D01*
X870Y709D02*
X916Y709D01*
X319Y708D02*
X365Y708D01*
X400Y708D02*
X446Y708D01*
X476Y708D02*
X522Y708D01*
X555Y708D02*
X601Y708D01*
X634Y708D02*
X680Y708D01*
X712Y708D02*
X759Y708D01*
X791Y708D02*
X837Y708D01*
X870Y708D02*
X916Y708D01*
X319Y707D02*
X339Y707D01*
X344Y707D02*
X365Y707D01*
X400Y707D02*
X420Y707D01*
X425Y707D02*
X446Y707D01*
X476Y707D02*
X497Y707D01*
X502Y707D02*
X522Y707D01*
X555Y707D02*
X575Y707D01*
X580Y707D02*
X601Y707D01*
X634Y707D02*
X654Y707D01*
X659Y707D02*
X680Y707D01*
X712Y707D02*
X733Y707D01*
X738Y707D02*
X759Y707D01*
X791Y707D02*
X812Y707D01*
X817Y707D02*
X837Y707D01*
X870Y707D02*
X890Y707D01*
X895Y707D02*
X916Y707D01*
X319Y706D02*
X336Y706D01*
X347Y706D02*
X365Y706D01*
X400Y706D02*
X417Y706D01*
X428Y706D02*
X446Y706D01*
X476Y706D02*
X494Y706D01*
X505Y706D02*
X522Y706D01*
X555Y706D02*
X572Y706D01*
X584Y706D02*
X601Y706D01*
X634Y706D02*
X651Y706D01*
X662Y706D02*
X680Y706D01*
X712Y706D02*
X730Y706D01*
X741Y706D02*
X759Y706D01*
X791Y706D02*
X808Y706D01*
X820Y706D02*
X837Y706D01*
X870Y706D02*
X887Y706D01*
X899Y706D02*
X916Y706D01*
X319Y705D02*
X334Y705D01*
X349Y705D02*
X365Y705D01*
X400Y705D02*
X415Y705D01*
X430Y705D02*
X446Y705D01*
X476Y705D02*
X492Y705D01*
X507Y705D02*
X522Y705D01*
X555Y705D02*
X571Y705D01*
X585Y705D02*
X601Y705D01*
X634Y705D02*
X649Y705D01*
X664Y705D02*
X680Y705D01*
X712Y705D02*
X728Y705D01*
X743Y705D02*
X759Y705D01*
X791Y705D02*
X807Y705D01*
X822Y705D02*
X837Y705D01*
X870Y705D02*
X885Y705D01*
X900Y705D02*
X916Y705D01*
X319Y704D02*
X333Y704D01*
X350Y704D02*
X365Y704D01*
X400Y704D02*
X414Y704D01*
X431Y704D02*
X446Y704D01*
X476Y704D02*
X491Y704D01*
X508Y704D02*
X522Y704D01*
X555Y704D02*
X569Y704D01*
X587Y704D02*
X601Y704D01*
X634Y704D02*
X648Y704D01*
X665Y704D02*
X680Y704D01*
X712Y704D02*
X727Y704D01*
X744Y704D02*
X759Y704D01*
X791Y704D02*
X805Y704D01*
X823Y704D02*
X837Y704D01*
X870Y704D02*
X884Y704D01*
X902Y704D02*
X916Y704D01*
X319Y703D02*
X332Y703D01*
X351Y703D02*
X365Y703D01*
X400Y703D02*
X413Y703D01*
X432Y703D02*
X446Y703D01*
X476Y703D02*
X490Y703D01*
X509Y703D02*
X522Y703D01*
X555Y703D02*
X568Y703D01*
X588Y703D02*
X601Y703D01*
X634Y703D02*
X647Y703D01*
X666Y703D02*
X680Y703D01*
X712Y703D02*
X726Y703D01*
X745Y703D02*
X759Y703D01*
X791Y703D02*
X805Y703D01*
X824Y703D02*
X837Y703D01*
X870Y703D02*
X883Y703D01*
X903Y703D02*
X916Y703D01*
X319Y702D02*
X331Y702D01*
X352Y702D02*
X365Y702D01*
X400Y702D02*
X412Y702D01*
X433Y702D02*
X446Y702D01*
X476Y702D02*
X489Y702D01*
X510Y702D02*
X522Y702D01*
X555Y702D02*
X567Y702D01*
X588Y702D02*
X601Y702D01*
X634Y702D02*
X646Y702D01*
X667Y702D02*
X680Y702D01*
X712Y702D02*
X725Y702D01*
X746Y702D02*
X759Y702D01*
X791Y702D02*
X804Y702D01*
X825Y702D02*
X837Y702D01*
X870Y702D02*
X882Y702D01*
X903Y702D02*
X916Y702D01*
X319Y701D02*
X331Y701D01*
X353Y701D02*
X365Y701D01*
X400Y701D02*
X412Y701D01*
X434Y701D02*
X446Y701D01*
X476Y701D02*
X488Y701D01*
X510Y701D02*
X522Y701D01*
X555Y701D02*
X567Y701D01*
X589Y701D02*
X601Y701D01*
X634Y701D02*
X646Y701D01*
X668Y701D02*
X680Y701D01*
X712Y701D02*
X724Y701D01*
X746Y701D02*
X759Y701D01*
X791Y701D02*
X803Y701D01*
X825Y701D02*
X837Y701D01*
X870Y701D02*
X882Y701D01*
X904Y701D02*
X916Y701D01*
X319Y700D02*
X330Y700D01*
X353Y700D02*
X365Y700D01*
X400Y700D02*
X411Y700D01*
X434Y700D02*
X446Y700D01*
X476Y700D02*
X488Y700D01*
X511Y700D02*
X522Y700D01*
X555Y700D02*
X566Y700D01*
X590Y700D02*
X601Y700D01*
X634Y700D02*
X645Y700D01*
X668Y700D02*
X680Y700D01*
X712Y700D02*
X724Y700D01*
X747Y700D02*
X759Y700D01*
X791Y700D02*
X803Y700D01*
X826Y700D02*
X837Y700D01*
X870Y700D02*
X881Y700D01*
X904Y700D02*
X916Y700D01*
X319Y699D02*
X330Y699D01*
X354Y699D02*
X365Y699D01*
X400Y699D02*
X411Y699D01*
X435Y699D02*
X446Y699D01*
X476Y699D02*
X487Y699D01*
X511Y699D02*
X522Y699D01*
X555Y699D02*
X566Y699D01*
X590Y699D02*
X601Y699D01*
X634Y699D02*
X645Y699D01*
X669Y699D02*
X680Y699D01*
X712Y699D02*
X723Y699D01*
X747Y699D02*
X759Y699D01*
X791Y699D02*
X802Y699D01*
X826Y699D02*
X837Y699D01*
X870Y699D02*
X881Y699D01*
X905Y699D02*
X916Y699D01*
X319Y698D02*
X329Y698D01*
X354Y698D02*
X365Y698D01*
X400Y698D02*
X410Y698D01*
X435Y698D02*
X446Y698D01*
X476Y698D02*
X487Y698D01*
X511Y698D02*
X522Y698D01*
X555Y698D02*
X566Y698D01*
X590Y698D02*
X601Y698D01*
X634Y698D02*
X644Y698D01*
X669Y698D02*
X680Y698D01*
X712Y698D02*
X723Y698D01*
X748Y698D02*
X759Y698D01*
X791Y698D02*
X802Y698D01*
X826Y698D02*
X837Y698D01*
X870Y698D02*
X881Y698D01*
X905Y698D02*
X916Y698D01*
X319Y697D02*
X329Y697D01*
X354Y697D02*
X365Y697D01*
X400Y697D02*
X410Y697D01*
X435Y697D02*
X446Y697D01*
X476Y697D02*
X487Y697D01*
X512Y697D02*
X522Y697D01*
X555Y697D02*
X565Y697D01*
X590Y697D02*
X601Y697D01*
X634Y697D02*
X644Y697D01*
X669Y697D02*
X680Y697D01*
X712Y697D02*
X723Y697D01*
X748Y697D02*
X759Y697D01*
X791Y697D02*
X802Y697D01*
X827Y697D02*
X837Y697D01*
X870Y697D02*
X880Y697D01*
X905Y697D02*
X916Y697D01*
X319Y696D02*
X329Y696D01*
X354Y696D02*
X365Y696D01*
X400Y696D02*
X410Y696D01*
X435Y696D02*
X446Y696D01*
X476Y696D02*
X487Y696D01*
X512Y696D02*
X522Y696D01*
X555Y696D02*
X565Y696D01*
X591Y696D02*
X601Y696D01*
X634Y696D02*
X644Y696D01*
X669Y696D02*
X680Y696D01*
X712Y696D02*
X723Y696D01*
X748Y696D02*
X759Y696D01*
X791Y696D02*
X802Y696D01*
X827Y696D02*
X837Y696D01*
X870Y696D02*
X880Y696D01*
X905Y696D02*
X916Y696D01*
X319Y695D02*
X329Y695D01*
X354Y695D02*
X365Y695D01*
X400Y695D02*
X410Y695D01*
X435Y695D02*
X446Y695D01*
X476Y695D02*
X487Y695D01*
X512Y695D02*
X522Y695D01*
X555Y695D02*
X565Y695D01*
X591Y695D02*
X601Y695D01*
X634Y695D02*
X644Y695D01*
X669Y695D02*
X680Y695D01*
X712Y695D02*
X723Y695D01*
X748Y695D02*
X759Y695D01*
X791Y695D02*
X802Y695D01*
X827Y695D02*
X837Y695D01*
X870Y695D02*
X880Y695D01*
X906Y695D02*
X916Y695D01*
X319Y694D02*
X329Y694D01*
X354Y694D02*
X365Y694D01*
X400Y694D02*
X410Y694D01*
X435Y694D02*
X446Y694D01*
X476Y694D02*
X487Y694D01*
X512Y694D02*
X522Y694D01*
X555Y694D02*
X565Y694D01*
X590Y694D02*
X601Y694D01*
X634Y694D02*
X644Y694D01*
X669Y694D02*
X680Y694D01*
X712Y694D02*
X723Y694D01*
X748Y694D02*
X759Y694D01*
X791Y694D02*
X802Y694D01*
X827Y694D02*
X837Y694D01*
X870Y694D02*
X880Y694D01*
X905Y694D02*
X916Y694D01*
X319Y693D02*
X329Y693D01*
X354Y693D02*
X365Y693D01*
X400Y693D02*
X410Y693D01*
X435Y693D02*
X446Y693D01*
X476Y693D02*
X487Y693D01*
X512Y693D02*
X522Y693D01*
X555Y693D02*
X565Y693D01*
X590Y693D02*
X601Y693D01*
X634Y693D02*
X644Y693D01*
X669Y693D02*
X680Y693D01*
X712Y693D02*
X723Y693D01*
X748Y693D02*
X759Y693D01*
X791Y693D02*
X802Y693D01*
X827Y693D02*
X837Y693D01*
X870Y693D02*
X880Y693D01*
X905Y693D02*
X916Y693D01*
X319Y692D02*
X330Y692D01*
X354Y692D02*
X365Y692D01*
X400Y692D02*
X410Y692D01*
X435Y692D02*
X446Y692D01*
X476Y692D02*
X487Y692D01*
X511Y692D02*
X522Y692D01*
X555Y692D02*
X566Y692D01*
X590Y692D02*
X601Y692D01*
X634Y692D02*
X645Y692D01*
X669Y692D02*
X680Y692D01*
X712Y692D02*
X723Y692D01*
X748Y692D02*
X759Y692D01*
X791Y692D02*
X802Y692D01*
X826Y692D02*
X837Y692D01*
X870Y692D02*
X881Y692D01*
X905Y692D02*
X916Y692D01*
X319Y691D02*
X330Y691D01*
X354Y691D02*
X365Y691D01*
X400Y691D02*
X411Y691D01*
X435Y691D02*
X446Y691D01*
X476Y691D02*
X487Y691D01*
X511Y691D02*
X522Y691D01*
X555Y691D02*
X566Y691D01*
X590Y691D02*
X601Y691D01*
X634Y691D02*
X645Y691D01*
X669Y691D02*
X680Y691D01*
X712Y691D02*
X723Y691D01*
X747Y691D02*
X759Y691D01*
X791Y691D02*
X802Y691D01*
X826Y691D02*
X837Y691D01*
X870Y691D02*
X881Y691D01*
X905Y691D02*
X916Y691D01*
X319Y690D02*
X330Y690D01*
X353Y690D02*
X365Y690D01*
X400Y690D02*
X411Y690D01*
X434Y690D02*
X446Y690D01*
X476Y690D02*
X488Y690D01*
X511Y690D02*
X522Y690D01*
X555Y690D02*
X566Y690D01*
X589Y690D02*
X601Y690D01*
X634Y690D02*
X645Y690D01*
X668Y690D02*
X680Y690D01*
X712Y690D02*
X724Y690D01*
X747Y690D02*
X759Y690D01*
X791Y690D02*
X803Y690D01*
X826Y690D02*
X837Y690D01*
X870Y690D02*
X881Y690D01*
X904Y690D02*
X916Y690D01*
X319Y689D02*
X331Y689D01*
X353Y689D02*
X365Y689D01*
X400Y689D02*
X412Y689D01*
X434Y689D02*
X446Y689D01*
X476Y689D02*
X488Y689D01*
X510Y689D02*
X522Y689D01*
X555Y689D02*
X567Y689D01*
X589Y689D02*
X601Y689D01*
X634Y689D02*
X646Y689D01*
X668Y689D02*
X680Y689D01*
X712Y689D02*
X724Y689D01*
X746Y689D02*
X759Y689D01*
X791Y689D02*
X803Y689D01*
X825Y689D02*
X837Y689D01*
X870Y689D02*
X882Y689D01*
X904Y689D02*
X916Y689D01*
X319Y688D02*
X331Y688D01*
X352Y688D02*
X365Y688D01*
X400Y688D02*
X412Y688D01*
X433Y688D02*
X446Y688D01*
X476Y688D02*
X489Y688D01*
X510Y688D02*
X522Y688D01*
X555Y688D02*
X568Y688D01*
X588Y688D02*
X601Y688D01*
X634Y688D02*
X646Y688D01*
X667Y688D02*
X680Y688D01*
X712Y688D02*
X725Y688D01*
X746Y688D02*
X759Y688D01*
X791Y688D02*
X804Y688D01*
X824Y688D02*
X837Y688D01*
X870Y688D02*
X883Y688D01*
X903Y688D02*
X916Y688D01*
X319Y687D02*
X332Y687D01*
X351Y687D02*
X365Y687D01*
X400Y687D02*
X413Y687D01*
X432Y687D02*
X446Y687D01*
X476Y687D02*
X490Y687D01*
X509Y687D02*
X522Y687D01*
X555Y687D02*
X568Y687D01*
X587Y687D02*
X601Y687D01*
X634Y687D02*
X647Y687D01*
X666Y687D02*
X680Y687D01*
X712Y687D02*
X726Y687D01*
X745Y687D02*
X759Y687D01*
X791Y687D02*
X805Y687D01*
X824Y687D02*
X837Y687D01*
X870Y687D02*
X883Y687D01*
X902Y687D02*
X916Y687D01*
X319Y686D02*
X333Y686D01*
X350Y686D02*
X365Y686D01*
X400Y686D02*
X414Y686D01*
X431Y686D02*
X446Y686D01*
X476Y686D02*
X491Y686D01*
X508Y686D02*
X522Y686D01*
X555Y686D02*
X569Y686D01*
X586Y686D02*
X601Y686D01*
X634Y686D02*
X648Y686D01*
X665Y686D02*
X680Y686D01*
X712Y686D02*
X727Y686D01*
X744Y686D02*
X759Y686D01*
X791Y686D02*
X806Y686D01*
X823Y686D02*
X837Y686D01*
X870Y686D02*
X884Y686D01*
X901Y686D02*
X916Y686D01*
X319Y685D02*
X334Y685D01*
X349Y685D02*
X365Y685D01*
X400Y685D02*
X415Y685D01*
X430Y685D02*
X446Y685D01*
X476Y685D02*
X492Y685D01*
X506Y685D02*
X522Y685D01*
X555Y685D02*
X571Y685D01*
X585Y685D02*
X601Y685D01*
X634Y685D02*
X650Y685D01*
X664Y685D02*
X680Y685D01*
X712Y685D02*
X728Y685D01*
X743Y685D02*
X759Y685D01*
X791Y685D02*
X807Y685D01*
X821Y685D02*
X837Y685D01*
X870Y685D02*
X886Y685D01*
X900Y685D02*
X916Y685D01*
X319Y684D02*
X336Y684D01*
X347Y684D02*
X365Y684D01*
X400Y684D02*
X417Y684D01*
X428Y684D02*
X446Y684D01*
X476Y684D02*
X494Y684D01*
X505Y684D02*
X522Y684D01*
X555Y684D02*
X573Y684D01*
X583Y684D02*
X601Y684D01*
X634Y684D02*
X651Y684D01*
X662Y684D02*
X680Y684D01*
X712Y684D02*
X730Y684D01*
X741Y684D02*
X759Y684D01*
X791Y684D02*
X809Y684D01*
X820Y684D02*
X837Y684D01*
X870Y684D02*
X888Y684D01*
X898Y684D02*
X916Y684D01*
X319Y683D02*
X340Y683D01*
X343Y683D02*
X365Y683D01*
X400Y683D02*
X421Y683D01*
X424Y683D02*
X446Y683D01*
X476Y683D02*
X498Y683D01*
X500Y683D02*
X522Y683D01*
X555Y683D02*
X577Y683D01*
X579Y683D02*
X601Y683D01*
X634Y683D02*
X656Y683D01*
X658Y683D02*
X680Y683D01*
X712Y683D02*
X734Y683D01*
X736Y683D02*
X759Y683D01*
X791Y683D02*
X813Y683D01*
X815Y683D02*
X837Y683D01*
X870Y683D02*
X892Y683D01*
X894Y683D02*
X916Y683D01*
X319Y682D02*
X365Y682D01*
X400Y682D02*
X446Y682D01*
X476Y682D02*
X522Y682D01*
X555Y682D02*
X601Y682D01*
X634Y682D02*
X680Y682D01*
X712Y682D02*
X759Y682D01*
X791Y682D02*
X837Y682D01*
X870Y682D02*
X916Y682D01*
X319Y681D02*
X365Y681D01*
X400Y681D02*
X446Y681D01*
X476Y681D02*
X522Y681D01*
X555Y681D02*
X601Y681D01*
X634Y681D02*
X680Y681D01*
X712Y681D02*
X759Y681D01*
X791Y681D02*
X837Y681D01*
X870Y681D02*
X916Y681D01*
X319Y680D02*
X365Y680D01*
X400Y680D02*
X446Y680D01*
X476Y680D02*
X522Y680D01*
X555Y680D02*
X601Y680D01*
X634Y680D02*
X680Y680D01*
X712Y680D02*
X759Y680D01*
X791Y680D02*
X837Y680D01*
X870Y680D02*
X916Y680D01*
X319Y679D02*
X365Y679D01*
X400Y679D02*
X446Y679D01*
X476Y679D02*
X522Y679D01*
X555Y679D02*
X601Y679D01*
X634Y679D02*
X680Y679D01*
X712Y679D02*
X759Y679D01*
X791Y679D02*
X837Y679D01*
X870Y679D02*
X916Y679D01*
X319Y678D02*
X365Y678D01*
X400Y678D02*
X446Y678D01*
X476Y678D02*
X522Y678D01*
X555Y678D02*
X601Y678D01*
X634Y678D02*
X680Y678D01*
X712Y678D02*
X759Y678D01*
X791Y678D02*
X837Y678D01*
X870Y678D02*
X916Y678D01*
X319Y677D02*
X365Y677D01*
X400Y677D02*
X446Y677D01*
X476Y677D02*
X522Y677D01*
X555Y677D02*
X601Y677D01*
X634Y677D02*
X680Y677D01*
X712Y677D02*
X759Y677D01*
X791Y677D02*
X837Y677D01*
X870Y677D02*
X916Y677D01*
X319Y676D02*
X365Y676D01*
X400Y676D02*
X446Y676D01*
X476Y676D02*
X522Y676D01*
X555Y676D02*
X601Y676D01*
X634Y676D02*
X680Y676D01*
X712Y676D02*
X759Y676D01*
X791Y676D02*
X837Y676D01*
X870Y676D02*
X916Y676D01*
X319Y675D02*
X365Y675D01*
X400Y675D02*
X446Y675D01*
X476Y675D02*
X522Y675D01*
X555Y675D02*
X601Y675D01*
X634Y675D02*
X680Y675D01*
X712Y675D02*
X759Y675D01*
X791Y675D02*
X837Y675D01*
X870Y675D02*
X916Y675D01*
X319Y674D02*
X365Y674D01*
X400Y674D02*
X446Y674D01*
X476Y674D02*
X522Y674D01*
X555Y674D02*
X601Y674D01*
X634Y674D02*
X680Y674D01*
X712Y674D02*
X759Y674D01*
X791Y674D02*
X837Y674D01*
X870Y674D02*
X916Y674D01*
X319Y673D02*
X365Y673D01*
X400Y673D02*
X446Y673D01*
X476Y673D02*
X522Y673D01*
X555Y673D02*
X601Y673D01*
X634Y673D02*
X680Y673D01*
X712Y673D02*
X759Y673D01*
X791Y673D02*
X837Y673D01*
X870Y673D02*
X916Y673D01*
X319Y672D02*
X365Y672D01*
X400Y672D02*
X446Y672D01*
X476Y672D02*
X522Y672D01*
X555Y672D02*
X601Y672D01*
X634Y672D02*
X680Y672D01*
X712Y672D02*
X759Y672D01*
X791Y672D02*
X837Y672D01*
X870Y672D02*
X916Y672D01*
X319Y671D02*
X365Y671D01*
X400Y671D02*
X446Y671D01*
X476Y671D02*
X522Y671D01*
X555Y671D02*
X601Y671D01*
X634Y671D02*
X680Y671D01*
X712Y671D02*
X759Y671D01*
X791Y671D02*
X837Y671D01*
X870Y671D02*
X916Y671D01*
X319Y670D02*
X365Y670D01*
X400Y670D02*
X446Y670D01*
X476Y670D02*
X522Y670D01*
X555Y670D02*
X601Y670D01*
X634Y670D02*
X680Y670D01*
X712Y670D02*
X759Y670D01*
X791Y670D02*
X837Y670D01*
X870Y670D02*
X916Y670D01*
X319Y669D02*
X365Y669D01*
X400Y669D02*
X446Y669D01*
X476Y669D02*
X522Y669D01*
X555Y669D02*
X601Y669D01*
X634Y669D02*
X680Y669D01*
X712Y669D02*
X759Y669D01*
X791Y669D02*
X837Y669D01*
X870Y669D02*
X916Y669D01*
X319Y668D02*
X365Y668D01*
X400Y668D02*
X446Y668D01*
X476Y668D02*
X522Y668D01*
X555Y668D02*
X601Y668D01*
X634Y668D02*
X680Y668D01*
X712Y668D02*
X759Y668D01*
X791Y668D02*
X837Y668D01*
X870Y668D02*
X916Y668D01*
X319Y667D02*
X365Y667D01*
X400Y667D02*
X446Y667D01*
X476Y667D02*
X522Y667D01*
X555Y667D02*
X601Y667D01*
X634Y667D02*
X680Y667D01*
X712Y667D02*
X759Y667D01*
X791Y667D02*
X837Y667D01*
X870Y667D02*
X916Y667D01*
X319Y666D02*
X365Y666D01*
X400Y666D02*
X446Y666D01*
X476Y666D02*
X522Y666D01*
X555Y666D02*
X601Y666D01*
X634Y666D02*
X680Y666D01*
X712Y666D02*
X759Y666D01*
X791Y666D02*
X837Y666D01*
X870Y666D02*
X916Y666D01*
X319Y665D02*
X365Y665D01*
X400Y665D02*
X446Y665D01*
X476Y665D02*
X522Y665D01*
X555Y665D02*
X601Y665D01*
X634Y665D02*
X680Y665D01*
X712Y665D02*
X759Y665D01*
X791Y665D02*
X837Y665D01*
X870Y665D02*
X916Y665D01*
X319Y664D02*
X365Y664D01*
X400Y664D02*
X446Y664D01*
X476Y664D02*
X522Y664D01*
X555Y664D02*
X601Y664D01*
X634Y664D02*
X680Y664D01*
X712Y664D02*
X759Y664D01*
X791Y664D02*
X837Y664D01*
X870Y664D02*
X916Y664D01*
X319Y663D02*
X365Y663D01*
X400Y663D02*
X446Y663D01*
X476Y663D02*
X522Y663D01*
X555Y663D02*
X601Y663D01*
X634Y663D02*
X680Y663D01*
X712Y663D02*
X759Y663D01*
X791Y663D02*
X837Y663D01*
X870Y663D02*
X916Y663D01*
X319Y662D02*
X365Y662D01*
X400Y662D02*
X446Y662D01*
X476Y662D02*
X522Y662D01*
X555Y662D02*
X601Y662D01*
X634Y662D02*
X680Y662D01*
X712Y662D02*
X759Y662D01*
X791Y662D02*
X837Y662D01*
X870Y662D02*
X916Y662D01*
X319Y661D02*
X365Y661D01*
X400Y661D02*
X446Y661D01*
X476Y661D02*
X522Y661D01*
X555Y661D02*
X601Y661D01*
X634Y661D02*
X680Y661D01*
X712Y661D02*
X759Y661D01*
X791Y661D02*
X837Y661D01*
X870Y661D02*
X916Y661D01*
X319Y660D02*
X365Y660D01*
X400Y660D02*
X446Y660D01*
X476Y660D02*
X522Y660D01*
X555Y660D02*
X601Y660D01*
X634Y660D02*
X680Y660D01*
X712Y660D02*
X759Y660D01*
X791Y660D02*
X837Y660D01*
X870Y660D02*
X916Y660D01*
X319Y659D02*
X365Y659D01*
X400Y659D02*
X446Y659D01*
X476Y659D02*
X522Y659D01*
X555Y659D02*
X601Y659D01*
X634Y659D02*
X680Y659D01*
X712Y659D02*
X759Y659D01*
X791Y659D02*
X837Y659D01*
X870Y659D02*
X916Y659D01*
X319Y658D02*
X365Y658D01*
X400Y658D02*
X446Y658D01*
X476Y658D02*
X522Y658D01*
X555Y658D02*
X601Y658D01*
X634Y658D02*
X680Y658D01*
X712Y658D02*
X759Y658D01*
X791Y658D02*
X837Y658D01*
X870Y658D02*
X916Y658D01*
X319Y657D02*
X365Y657D01*
X400Y657D02*
X446Y657D01*
X476Y657D02*
X522Y657D01*
X555Y657D02*
X601Y657D01*
X634Y657D02*
X680Y657D01*
X712Y657D02*
X759Y657D01*
X791Y657D02*
X837Y657D01*
X870Y657D02*
X916Y657D01*
X319Y656D02*
X365Y656D01*
X400Y656D02*
X446Y656D01*
X476Y656D02*
X522Y656D01*
X555Y656D02*
X601Y656D01*
X634Y656D02*
X680Y656D01*
X712Y656D02*
X759Y656D01*
X791Y656D02*
X837Y656D01*
X870Y656D02*
X916Y656D01*
X319Y655D02*
X365Y655D01*
X400Y655D02*
X446Y655D01*
X476Y655D02*
X522Y655D01*
X555Y655D02*
X601Y655D01*
X634Y655D02*
X680Y655D01*
X712Y655D02*
X759Y655D01*
X791Y655D02*
X837Y655D01*
X870Y655D02*
X916Y655D01*
X319Y654D02*
X365Y654D01*
X400Y654D02*
X446Y654D01*
X476Y654D02*
X522Y654D01*
X555Y654D02*
X601Y654D01*
X634Y654D02*
X680Y654D01*
X712Y654D02*
X759Y654D01*
X791Y654D02*
X837Y654D01*
X870Y654D02*
X916Y654D01*
X319Y653D02*
X365Y653D01*
X400Y653D02*
X446Y653D01*
X476Y653D02*
X522Y653D01*
X555Y653D02*
X601Y653D01*
X634Y653D02*
X680Y653D01*
X712Y653D02*
X759Y653D01*
X791Y653D02*
X837Y653D01*
X870Y653D02*
X916Y653D01*
X319Y652D02*
X365Y652D01*
X400Y652D02*
X446Y652D01*
X476Y652D02*
X522Y652D01*
X555Y652D02*
X601Y652D01*
X634Y652D02*
X680Y652D01*
X712Y652D02*
X759Y652D01*
X791Y652D02*
X837Y652D01*
X870Y652D02*
X916Y652D01*
X319Y651D02*
X365Y651D01*
X400Y651D02*
X446Y651D01*
X476Y651D02*
X522Y651D01*
X555Y651D02*
X601Y651D01*
X634Y651D02*
X680Y651D01*
X712Y651D02*
X759Y651D01*
X791Y651D02*
X837Y651D01*
X870Y651D02*
X916Y651D01*
X319Y650D02*
X365Y650D01*
X400Y650D02*
X446Y650D01*
X476Y650D02*
X522Y650D01*
X555Y650D02*
X601Y650D01*
X634Y650D02*
X680Y650D01*
X712Y650D02*
X759Y650D01*
X791Y650D02*
X837Y650D01*
X870Y650D02*
X916Y650D01*
X319Y649D02*
X365Y649D01*
X400Y649D02*
X446Y649D01*
X476Y649D02*
X522Y649D01*
X555Y649D02*
X601Y649D01*
X634Y649D02*
X680Y649D01*
X712Y649D02*
X759Y649D01*
X791Y649D02*
X837Y649D01*
X870Y649D02*
X916Y649D01*
X319Y648D02*
X365Y648D01*
X400Y648D02*
X446Y648D01*
X476Y648D02*
X522Y648D01*
X555Y648D02*
X601Y648D01*
X634Y648D02*
X680Y648D01*
X712Y648D02*
X759Y648D01*
X791Y648D02*
X837Y648D01*
X870Y648D02*
X916Y648D01*
X319Y647D02*
X365Y647D01*
X400Y647D02*
X446Y647D01*
X476Y647D02*
X522Y647D01*
X555Y647D02*
X601Y647D01*
X634Y647D02*
X680Y647D01*
X712Y647D02*
X759Y647D01*
X791Y647D02*
X837Y647D01*
X870Y647D02*
X916Y647D01*
X319Y646D02*
X365Y646D01*
X400Y646D02*
X446Y646D01*
X476Y646D02*
X522Y646D01*
X555Y646D02*
X601Y646D01*
X634Y646D02*
X680Y646D01*
X712Y646D02*
X759Y646D01*
X791Y646D02*
X837Y646D01*
X870Y646D02*
X916Y646D01*
X319Y645D02*
X365Y645D01*
X400Y645D02*
X446Y645D01*
X476Y645D02*
X522Y645D01*
X555Y645D02*
X601Y645D01*
X634Y645D02*
X680Y645D01*
X712Y645D02*
X759Y645D01*
X791Y645D02*
X837Y645D01*
X870Y645D02*
X916Y645D01*
X319Y644D02*
X365Y644D01*
X400Y644D02*
X446Y644D01*
X476Y644D02*
X522Y644D01*
X555Y644D02*
X601Y644D01*
X634Y644D02*
X680Y644D01*
X712Y644D02*
X759Y644D01*
X791Y644D02*
X837Y644D01*
X870Y644D02*
X916Y644D01*
X319Y643D02*
X365Y643D01*
X400Y643D02*
X446Y643D01*
X476Y643D02*
X522Y643D01*
X555Y643D02*
X601Y643D01*
X634Y643D02*
X680Y643D01*
X712Y643D02*
X759Y643D01*
X791Y643D02*
X837Y643D01*
X870Y643D02*
X916Y643D01*
X319Y642D02*
X365Y642D01*
X400Y642D02*
X446Y642D01*
X476Y642D02*
X522Y642D01*
X555Y642D02*
X601Y642D01*
X634Y642D02*
X680Y642D01*
X712Y642D02*
X759Y642D01*
X791Y642D02*
X837Y642D01*
X870Y642D02*
X916Y642D01*
X319Y641D02*
X365Y641D01*
X400Y641D02*
X446Y641D01*
X476Y641D02*
X522Y641D01*
X555Y641D02*
X601Y641D01*
X634Y641D02*
X680Y641D01*
X712Y641D02*
X759Y641D01*
X791Y641D02*
X837Y641D01*
X870Y641D02*
X916Y641D01*
X319Y640D02*
X365Y640D01*
X400Y640D02*
X446Y640D01*
X476Y640D02*
X522Y640D01*
X555Y640D02*
X601Y640D01*
X634Y640D02*
X680Y640D01*
X712Y640D02*
X759Y640D01*
X791Y640D02*
X837Y640D01*
X870Y640D02*
X916Y640D01*
X319Y639D02*
X365Y639D01*
X400Y639D02*
X446Y639D01*
X476Y639D02*
X522Y639D01*
X555Y639D02*
X601Y639D01*
X634Y639D02*
X680Y639D01*
X712Y639D02*
X759Y639D01*
X791Y639D02*
X837Y639D01*
X870Y639D02*
X916Y639D01*
X319Y638D02*
X365Y638D01*
X400Y638D02*
X446Y638D01*
X476Y638D02*
X522Y638D01*
X555Y638D02*
X601Y638D01*
X634Y638D02*
X680Y638D01*
X712Y638D02*
X759Y638D01*
X791Y638D02*
X837Y638D01*
X870Y638D02*
X916Y638D01*
X319Y637D02*
X365Y637D01*
X400Y637D02*
X446Y637D01*
X476Y637D02*
X522Y637D01*
X555Y637D02*
X601Y637D01*
X634Y637D02*
X680Y637D01*
X712Y637D02*
X759Y637D01*
X791Y637D02*
X837Y637D01*
X870Y637D02*
X916Y637D01*
X319Y636D02*
X365Y636D01*
X400Y636D02*
X446Y636D01*
X476Y636D02*
X522Y636D01*
X555Y636D02*
X601Y636D01*
X634Y636D02*
X680Y636D01*
X712Y636D02*
X759Y636D01*
X791Y636D02*
X837Y636D01*
X870Y636D02*
X916Y636D01*
X319Y635D02*
X365Y635D01*
X400Y635D02*
X446Y635D01*
X476Y635D02*
X522Y635D01*
X555Y635D02*
X601Y635D01*
X634Y635D02*
X680Y635D01*
X712Y635D02*
X759Y635D01*
X791Y635D02*
X837Y635D01*
X870Y635D02*
X916Y635D01*
X319Y634D02*
X365Y634D01*
X400Y634D02*
X446Y634D01*
X476Y634D02*
X522Y634D01*
X555Y634D02*
X601Y634D01*
X634Y634D02*
X680Y634D01*
X712Y634D02*
X759Y634D01*
X791Y634D02*
X837Y634D01*
X870Y634D02*
X916Y634D01*
X319Y633D02*
X365Y633D01*
X400Y633D02*
X446Y633D01*
X476Y633D02*
X522Y633D01*
X555Y633D02*
X601Y633D01*
X634Y633D02*
X680Y633D01*
X712Y633D02*
X759Y633D01*
X791Y633D02*
X837Y633D01*
X870Y633D02*
X916Y633D01*
X319Y632D02*
X365Y632D01*
X400Y632D02*
X446Y632D01*
X476Y632D02*
X522Y632D01*
X555Y632D02*
X601Y632D01*
X634Y632D02*
X680Y632D01*
X712Y632D02*
X759Y632D01*
X791Y632D02*
X837Y632D01*
X870Y632D02*
X916Y632D01*
X319Y631D02*
X365Y631D01*
X400Y631D02*
X446Y631D01*
X476Y631D02*
X522Y631D01*
X555Y631D02*
X601Y631D01*
X634Y631D02*
X680Y631D01*
X712Y631D02*
X759Y631D01*
X791Y631D02*
X837Y631D01*
X870Y631D02*
X916Y631D01*
X319Y630D02*
X365Y630D01*
X400Y630D02*
X446Y630D01*
X476Y630D02*
X522Y630D01*
X555Y630D02*
X601Y630D01*
X634Y630D02*
X680Y630D01*
X712Y630D02*
X759Y630D01*
X791Y630D02*
X837Y630D01*
X870Y630D02*
X916Y630D01*
X319Y629D02*
X365Y629D01*
X400Y629D02*
X446Y629D01*
X476Y629D02*
X522Y629D01*
X555Y629D02*
X601Y629D01*
X634Y629D02*
X680Y629D01*
X712Y629D02*
X759Y629D01*
X791Y629D02*
X837Y629D01*
X870Y629D02*
X916Y629D01*
X319Y628D02*
X365Y628D01*
X400Y628D02*
X446Y628D01*
X476Y628D02*
X522Y628D01*
X555Y628D02*
X601Y628D01*
X634Y628D02*
X680Y628D01*
X712Y628D02*
X759Y628D01*
X791Y628D02*
X837Y628D01*
X870Y628D02*
X916Y628D01*
X319Y627D02*
X365Y627D01*
X400Y627D02*
X446Y627D01*
X476Y627D02*
X522Y627D01*
X555Y627D02*
X601Y627D01*
X634Y627D02*
X680Y627D01*
X713Y627D02*
X758Y627D01*
X791Y627D02*
X837Y627D01*
X870Y627D02*
X916Y627D01*
D02*
G04 End of PasteMask1*
M02*