G04 MADE WITH FRITZING*
G04 WWW.FRITZING.ORG*
G04 DOUBLE SIDED*
G04 HOLES PLATED*
G04 CONTOUR ON CENTER OF CONTOUR VECTOR*
%ASAXBY*%
%FSLAX23Y23*%
%MOIN*%
%OFA0B0*%
%SFA1.0B1.0*%
%ADD10C,0.063622*%
%ADD11C,0.080000*%
%ADD12C,0.047244*%
%ADD13C,0.039370*%
%ADD14C,0.069444*%
%ADD15C,0.075000*%
%ADD16C,0.073889*%
%ADD17R,0.063622X0.063622*%
%ADD18R,0.055118X0.059055*%
%ADD19R,0.059055X0.055118*%
%ADD20R,0.080000X0.080000*%
%ADD21C,0.024000*%
%ADD22C,0.020000*%
%ADD23R,0.001000X0.001000*%
%LNCOPPER0*%
G90*
G70*
G54D10*
X838Y555D03*
X738Y555D03*
X638Y555D03*
X1149Y424D03*
X1049Y424D03*
X949Y424D03*
G54D11*
X632Y300D03*
X632Y410D03*
G54D12*
X426Y1208D03*
G54D13*
X874Y155D03*
G54D12*
X424Y751D03*
X500Y752D03*
X579Y748D03*
X656Y743D03*
X880Y746D03*
X738Y746D03*
X816Y743D03*
X341Y1204D03*
X578Y1207D03*
X660Y1206D03*
X735Y1209D03*
X816Y1209D03*
X894Y1210D03*
G54D14*
X186Y109D03*
X186Y209D03*
X186Y309D03*
X186Y109D03*
X186Y209D03*
X186Y309D03*
G54D12*
X501Y1206D03*
G54D15*
X799Y304D03*
X799Y404D03*
G54D16*
X158Y835D03*
X158Y935D03*
X158Y1035D03*
X158Y1135D03*
X158Y835D03*
X158Y935D03*
X158Y1035D03*
X158Y1135D03*
G54D11*
X1031Y100D03*
X1131Y100D03*
G54D17*
X838Y555D03*
X1149Y424D03*
G54D18*
X294Y601D03*
X213Y601D03*
G54D19*
X377Y1033D03*
X377Y1113D03*
G54D20*
X1031Y100D03*
G54D21*
X642Y486D02*
X639Y532D01*
D02*
X895Y486D02*
X642Y486D01*
D02*
X377Y1055D02*
X377Y1091D01*
D02*
X1137Y1216D02*
X1132Y609D01*
D02*
X1132Y609D02*
X895Y486D01*
D02*
X916Y1210D02*
X1137Y1216D01*
D02*
X353Y1116D02*
X192Y1132D01*
D02*
X895Y486D02*
X876Y174D01*
D02*
X452Y1025D02*
X429Y1185D01*
D02*
X401Y1030D02*
X452Y1025D01*
D02*
X275Y202D02*
X293Y577D01*
D02*
X212Y207D02*
X275Y202D01*
D02*
X398Y852D02*
X502Y925D01*
D02*
X502Y925D02*
X501Y1183D01*
D02*
X304Y625D02*
X398Y852D01*
D02*
X188Y335D02*
X211Y577D01*
D02*
X192Y1035D02*
X353Y1033D01*
D02*
X98Y594D02*
X90Y1138D01*
D02*
X90Y1138D02*
X123Y1136D01*
D02*
X191Y600D02*
X98Y594D01*
G54D22*
X772Y332D02*
X827Y332D01*
X827Y277D01*
X772Y277D01*
X772Y332D01*
D02*
G36*
X922Y1171D02*
X922Y1170D01*
X922Y1170D01*
X922Y1169D01*
X923Y1169D01*
X923Y1168D01*
X923Y1168D01*
X923Y1167D01*
X924Y1167D01*
X924Y1167D01*
X924Y1167D01*
X924Y1166D01*
X925Y1166D01*
X925Y1165D01*
X925Y1165D01*
X925Y1164D01*
X926Y1164D01*
X926Y1163D01*
X927Y1163D01*
X927Y1162D01*
X927Y1162D01*
X927Y1161D01*
X928Y1161D01*
X928Y1160D01*
X928Y1160D01*
X928Y1159D01*
X929Y1159D01*
X929Y1159D01*
X929Y1159D01*
X929Y1157D01*
X930Y1157D01*
X930Y1156D01*
X930Y1156D01*
X930Y1156D01*
X931Y1156D01*
X931Y1155D01*
X932Y1155D01*
X932Y1154D01*
X932Y1154D01*
X932Y1153D01*
X933Y1153D01*
X933Y1152D01*
X933Y1152D01*
X933Y1151D01*
X934Y1151D01*
X934Y1150D01*
X934Y1150D01*
X934Y1149D01*
X935Y1149D01*
X935Y1148D01*
X935Y1148D01*
X935Y1147D01*
X936Y1147D01*
X936Y1146D01*
X937Y1146D01*
X937Y1146D01*
X937Y1146D01*
X937Y1145D01*
X938Y1145D01*
X938Y1144D01*
X938Y1144D01*
X938Y1143D01*
X911Y1143D01*
X911Y1142D01*
X909Y1142D01*
X909Y1142D01*
X908Y1142D01*
X908Y1141D01*
X908Y1141D01*
X908Y1141D01*
X907Y1141D01*
X907Y1140D01*
X906Y1140D01*
X906Y1140D01*
X905Y1140D01*
X905Y1139D01*
X904Y1139D01*
X904Y1139D01*
X903Y1139D01*
X903Y1138D01*
X902Y1138D01*
X902Y1138D01*
X901Y1138D01*
X901Y1137D01*
X900Y1137D01*
X900Y1136D01*
X899Y1136D01*
X899Y1136D01*
X898Y1136D01*
X898Y1135D01*
X897Y1135D01*
X897Y1135D01*
X897Y1135D01*
X897Y1134D01*
X896Y1134D01*
X896Y1134D01*
X895Y1134D01*
X895Y1133D01*
X894Y1133D01*
X894Y1133D01*
X893Y1133D01*
X893Y1132D01*
X892Y1132D01*
X892Y1131D01*
X891Y1131D01*
X891Y1131D01*
X890Y1131D01*
X890Y1130D01*
X890Y1130D01*
X890Y1130D01*
X888Y1130D01*
X888Y1129D01*
X887Y1129D01*
X887Y1129D01*
X887Y1129D01*
X887Y1128D01*
X886Y1128D01*
X886Y1128D01*
X885Y1128D01*
X885Y1127D01*
X884Y1127D01*
X884Y1126D01*
X883Y1126D01*
X883Y1126D01*
X882Y1126D01*
X882Y1125D01*
X881Y1125D01*
X881Y1125D01*
X881Y1125D01*
X881Y1124D01*
X880Y1124D01*
X880Y1124D01*
X879Y1124D01*
X879Y1123D01*
X878Y1123D01*
X878Y1123D01*
X878Y1123D01*
X878Y1122D01*
X877Y1122D01*
X877Y1121D01*
X877Y1121D01*
X877Y1121D01*
X876Y1121D01*
X876Y1120D01*
X875Y1120D01*
X875Y1120D01*
X875Y1120D01*
X875Y1119D01*
X874Y1119D01*
X874Y1119D01*
X873Y1119D01*
X873Y1118D01*
X873Y1118D01*
X873Y1117D01*
X872Y1117D01*
X872Y1116D01*
X872Y1116D01*
X872Y1116D01*
X871Y1116D01*
X871Y1115D01*
X871Y1115D01*
X871Y1114D01*
X870Y1114D01*
X870Y1113D01*
X870Y1113D01*
X870Y1113D01*
X869Y1113D01*
X869Y1112D01*
X869Y1112D01*
X869Y1110D01*
X868Y1110D01*
X868Y1109D01*
X867Y1109D01*
X867Y1107D01*
X867Y1107D01*
X867Y1105D01*
X866Y1105D01*
X866Y1095D01*
X867Y1095D01*
X867Y1093D01*
X867Y1093D01*
X867Y1091D01*
X868Y1091D01*
X868Y1089D01*
X869Y1089D01*
X869Y1088D01*
X869Y1088D01*
X869Y1087D01*
X870Y1087D01*
X870Y1086D01*
X870Y1086D01*
X870Y1085D01*
X871Y1085D01*
X871Y1084D01*
X871Y1084D01*
X871Y1083D01*
X872Y1083D01*
X872Y1082D01*
X872Y1082D01*
X872Y1081D01*
X873Y1081D01*
X873Y1080D01*
X873Y1080D01*
X873Y1079D01*
X874Y1079D01*
X874Y1079D01*
X875Y1079D01*
X875Y1078D01*
X875Y1078D01*
X875Y1077D01*
X876Y1077D01*
X876Y1077D01*
X876Y1077D01*
X876Y1076D01*
X877Y1076D01*
X877Y1076D01*
X877Y1076D01*
X877Y1075D01*
X878Y1075D01*
X878Y1074D01*
X878Y1074D01*
X878Y1074D01*
X879Y1074D01*
X879Y1073D01*
X880Y1073D01*
X880Y1073D01*
X880Y1073D01*
X880Y1072D01*
X881Y1072D01*
X881Y1072D01*
X881Y1072D01*
X881Y1071D01*
X882Y1071D01*
X882Y1071D01*
X883Y1071D01*
X883Y1070D01*
X884Y1070D01*
X884Y1069D01*
X885Y1069D01*
X885Y1069D01*
X886Y1069D01*
X886Y1068D01*
X888Y1068D01*
X888Y1068D01*
X890Y1068D01*
X890Y1067D01*
X892Y1067D01*
X892Y1067D01*
X813Y1067D01*
X813Y1068D01*
X813Y1068D01*
X813Y1068D01*
X812Y1068D01*
X812Y1069D01*
X812Y1069D01*
X812Y1071D01*
X811Y1071D01*
X811Y1072D01*
X810Y1072D01*
X810Y1072D01*
X810Y1072D01*
X810Y1073D01*
X809Y1073D01*
X809Y1074D01*
X809Y1074D01*
X809Y1076D01*
X808Y1076D01*
X808Y1076D01*
X808Y1076D01*
X808Y1077D01*
X807Y1077D01*
X807Y1078D01*
X807Y1078D01*
X807Y1079D01*
X806Y1079D01*
X806Y1080D01*
X805Y1080D01*
X805Y1081D01*
X805Y1081D01*
X805Y1082D01*
X804Y1082D01*
X804Y1083D01*
X804Y1083D01*
X804Y1084D01*
X803Y1084D01*
X803Y1085D01*
X803Y1085D01*
X803Y1086D01*
X802Y1086D01*
X802Y1087D01*
X802Y1087D01*
X802Y1088D01*
X801Y1088D01*
X801Y1089D01*
X800Y1089D01*
X800Y1090D01*
X800Y1090D01*
X800Y1090D01*
X799Y1090D01*
X799Y1092D01*
X799Y1092D01*
X799Y1093D01*
X842Y1093D01*
X842Y1103D01*
X843Y1103D01*
X843Y1106D01*
X843Y1106D01*
X843Y1108D01*
X844Y1108D01*
X844Y1110D01*
X844Y1110D01*
X844Y1112D01*
X845Y1112D01*
X845Y1113D01*
X845Y1113D01*
X845Y1114D01*
X846Y1114D01*
X846Y1115D01*
X846Y1115D01*
X846Y1116D01*
X847Y1116D01*
X847Y1117D01*
X847Y1117D01*
X847Y1118D01*
X848Y1118D01*
X848Y1119D01*
X849Y1119D01*
X849Y1120D01*
X849Y1120D01*
X849Y1121D01*
X850Y1121D01*
X850Y1121D01*
X850Y1121D01*
X850Y1123D01*
X851Y1123D01*
X851Y1123D01*
X851Y1123D01*
X851Y1124D01*
X852Y1124D01*
X852Y1124D01*
X852Y1124D01*
X852Y1125D01*
X853Y1125D01*
X853Y1126D01*
X854Y1126D01*
X854Y1126D01*
X854Y1126D01*
X854Y1127D01*
X855Y1127D01*
X855Y1128D01*
X855Y1128D01*
X855Y1128D01*
X856Y1128D01*
X856Y1129D01*
X856Y1129D01*
X856Y1129D01*
X857Y1129D01*
X857Y1130D01*
X857Y1130D01*
X857Y1130D01*
X858Y1130D01*
X858Y1131D01*
X859Y1131D01*
X859Y1131D01*
X859Y1131D01*
X859Y1132D01*
X860Y1132D01*
X860Y1133D01*
X860Y1133D01*
X860Y1133D01*
X861Y1133D01*
X861Y1134D01*
X862Y1134D01*
X862Y1134D01*
X862Y1134D01*
X862Y1135D01*
X863Y1135D01*
X863Y1135D01*
X864Y1135D01*
X864Y1136D01*
X865Y1136D01*
X865Y1136D01*
X865Y1136D01*
X865Y1137D01*
X866Y1137D01*
X866Y1138D01*
X867Y1138D01*
X867Y1138D01*
X867Y1138D01*
X867Y1139D01*
X868Y1139D01*
X868Y1139D01*
X869Y1139D01*
X869Y1140D01*
X870Y1140D01*
X870Y1140D01*
X871Y1140D01*
X871Y1141D01*
X871Y1141D01*
X871Y1141D01*
X872Y1141D01*
X872Y1142D01*
X873Y1142D01*
X873Y1142D01*
X874Y1142D01*
X874Y1143D01*
X875Y1143D01*
X875Y1144D01*
X876Y1144D01*
X876Y1144D01*
X877Y1144D01*
X877Y1145D01*
X878Y1145D01*
X878Y1145D01*
X878Y1145D01*
X878Y1146D01*
X880Y1146D01*
X880Y1146D01*
X880Y1146D01*
X880Y1147D01*
X881Y1147D01*
X881Y1147D01*
X882Y1147D01*
X882Y1148D01*
X883Y1148D01*
X883Y1149D01*
X884Y1149D01*
X884Y1149D01*
X885Y1149D01*
X885Y1150D01*
X886Y1150D01*
X886Y1150D01*
X887Y1150D01*
X887Y1151D01*
X888Y1151D01*
X888Y1151D01*
X888Y1151D01*
X888Y1152D01*
X890Y1152D01*
X890Y1152D01*
X891Y1152D01*
X891Y1153D01*
X891Y1153D01*
X891Y1154D01*
X892Y1154D01*
X892Y1154D01*
X893Y1154D01*
X893Y1155D01*
X894Y1155D01*
X894Y1155D01*
X895Y1155D01*
X895Y1156D01*
X896Y1156D01*
X896Y1156D01*
X897Y1156D01*
X897Y1157D01*
X898Y1157D01*
X898Y1157D01*
X898Y1157D01*
X898Y1158D01*
X899Y1158D01*
X899Y1159D01*
X901Y1159D01*
X901Y1159D01*
X901Y1159D01*
X901Y1160D01*
X902Y1160D01*
X902Y1160D01*
X903Y1160D01*
X903Y1161D01*
X904Y1161D01*
X904Y1161D01*
X905Y1161D01*
X905Y1162D01*
X906Y1162D01*
X906Y1162D01*
X907Y1162D01*
X907Y1163D01*
X908Y1163D01*
X908Y1164D01*
X909Y1164D01*
X909Y1164D01*
X909Y1164D01*
X909Y1165D01*
X911Y1165D01*
X911Y1165D01*
X912Y1165D01*
X912Y1166D01*
X912Y1166D01*
X912Y1166D01*
X913Y1166D01*
X913Y1167D01*
X914Y1167D01*
X914Y1167D01*
X915Y1167D01*
X915Y1168D01*
X916Y1168D01*
X916Y1168D01*
X917Y1168D01*
X917Y1169D01*
X918Y1169D01*
X918Y1170D01*
X919Y1170D01*
X919Y1170D01*
X919Y1170D01*
X919Y1171D01*
X920Y1171D01*
X920Y1171D01*
X922Y1171D01*
G37*
D02*
G36*
X939Y1143D02*
X939Y1142D01*
X939Y1142D01*
X939Y1141D01*
X940Y1141D01*
X940Y1140D01*
X940Y1140D01*
X940Y1139D01*
X941Y1139D01*
X941Y1138D01*
X942Y1138D01*
X942Y1138D01*
X942Y1138D01*
X942Y1136D01*
X943Y1136D01*
X943Y1135D01*
X943Y1135D01*
X943Y1135D01*
X944Y1135D01*
X944Y1134D01*
X944Y1134D01*
X944Y1133D01*
X945Y1133D01*
X945Y1132D01*
X945Y1132D01*
X945Y1131D01*
X946Y1131D01*
X946Y1130D01*
X946Y1130D01*
X946Y1129D01*
X947Y1129D01*
X947Y1128D01*
X948Y1128D01*
X948Y1128D01*
X948Y1128D01*
X948Y1126D01*
X949Y1126D01*
X949Y1125D01*
X949Y1125D01*
X949Y1125D01*
X950Y1125D01*
X950Y1124D01*
X950Y1124D01*
X950Y1123D01*
X951Y1123D01*
X951Y1122D01*
X951Y1122D01*
X951Y1121D01*
X952Y1121D01*
X952Y1120D01*
X953Y1120D01*
X953Y1119D01*
X953Y1119D01*
X953Y1118D01*
X954Y1118D01*
X954Y1117D01*
X954Y1117D01*
X954Y1116D01*
X955Y1116D01*
X955Y1115D01*
X955Y1115D01*
X955Y1114D01*
X956Y1114D01*
X956Y1114D01*
X956Y1114D01*
X956Y1113D01*
X957Y1113D01*
X957Y1112D01*
X958Y1112D01*
X958Y1111D01*
X958Y1111D01*
X958Y1110D01*
X959Y1110D01*
X959Y1109D01*
X959Y1109D01*
X959Y1108D01*
X960Y1108D01*
X960Y1107D01*
X960Y1107D01*
X960Y1107D01*
X961Y1107D01*
X961Y1105D01*
X961Y1105D01*
X961Y1104D01*
X962Y1104D01*
X962Y1104D01*
X963Y1104D01*
X963Y1103D01*
X963Y1103D01*
X963Y1102D01*
X964Y1102D01*
X964Y1101D01*
X964Y1101D01*
X964Y1100D01*
X965Y1100D01*
X965Y1099D01*
X965Y1099D01*
X965Y1098D01*
X966Y1098D01*
X966Y1097D01*
X966Y1097D01*
X966Y1096D01*
X967Y1096D01*
X967Y1095D01*
X967Y1095D01*
X967Y1094D01*
X968Y1094D01*
X968Y1093D01*
X969Y1093D01*
X969Y1093D01*
X969Y1093D01*
X969Y1092D01*
X970Y1092D01*
X970Y1090D01*
X970Y1090D01*
X970Y1090D01*
X971Y1090D01*
X971Y1089D01*
X971Y1089D01*
X971Y1088D01*
X972Y1088D01*
X972Y1087D01*
X972Y1087D01*
X972Y1086D01*
X973Y1086D01*
X973Y1086D01*
X974Y1086D01*
X974Y1084D01*
X974Y1084D01*
X974Y1083D01*
X975Y1083D01*
X975Y1083D01*
X975Y1083D01*
X975Y1082D01*
X976Y1082D01*
X976Y1081D01*
X976Y1081D01*
X976Y1080D01*
X977Y1080D01*
X977Y1079D01*
X977Y1079D01*
X977Y1078D01*
X978Y1078D01*
X978Y1077D01*
X979Y1077D01*
X979Y1076D01*
X979Y1076D01*
X979Y1075D01*
X980Y1075D01*
X980Y1074D01*
X980Y1074D01*
X980Y1073D01*
X981Y1073D01*
X981Y1073D01*
X953Y1073D01*
X953Y1072D01*
X951Y1072D01*
X951Y1072D01*
X950Y1072D01*
X950Y1071D01*
X950Y1071D01*
X950Y1071D01*
X949Y1071D01*
X949Y1070D01*
X948Y1070D01*
X948Y1069D01*
X947Y1069D01*
X947Y1069D01*
X946Y1069D01*
X946Y1068D01*
X945Y1068D01*
X945Y1068D01*
X944Y1068D01*
X944Y1067D01*
X943Y1067D01*
X943Y1067D01*
X895Y1067D01*
X895Y1067D01*
X892Y1067D01*
X892Y1068D01*
X890Y1068D01*
X890Y1068D01*
X889Y1068D01*
X889Y1069D01*
X888Y1069D01*
X888Y1069D01*
X887Y1069D01*
X887Y1070D01*
X886Y1070D01*
X886Y1071D01*
X885Y1071D01*
X885Y1071D01*
X884Y1071D01*
X884Y1072D01*
X883Y1072D01*
X883Y1072D01*
X882Y1072D01*
X882Y1073D01*
X882Y1073D01*
X882Y1073D01*
X881Y1073D01*
X881Y1074D01*
X881Y1074D01*
X881Y1074D01*
X880Y1074D01*
X880Y1075D01*
X880Y1075D01*
X880Y1076D01*
X879Y1076D01*
X879Y1076D01*
X878Y1076D01*
X878Y1077D01*
X878Y1077D01*
X878Y1077D01*
X877Y1077D01*
X877Y1078D01*
X877Y1078D01*
X877Y1079D01*
X876Y1079D01*
X876Y1079D01*
X876Y1079D01*
X876Y1081D01*
X875Y1081D01*
X875Y1081D01*
X875Y1081D01*
X875Y1082D01*
X874Y1082D01*
X874Y1083D01*
X873Y1083D01*
X873Y1084D01*
X873Y1084D01*
X873Y1085D01*
X872Y1085D01*
X872Y1086D01*
X872Y1086D01*
X872Y1087D01*
X871Y1087D01*
X871Y1088D01*
X871Y1088D01*
X871Y1090D01*
X870Y1090D01*
X870Y1092D01*
X870Y1092D01*
X870Y1093D01*
X942Y1093D01*
X942Y1094D01*
X941Y1094D01*
X941Y1094D01*
X940Y1094D01*
X940Y1095D01*
X940Y1095D01*
X940Y1097D01*
X939Y1097D01*
X939Y1097D01*
X939Y1097D01*
X939Y1098D01*
X938Y1098D01*
X938Y1099D01*
X938Y1099D01*
X938Y1100D01*
X937Y1100D01*
X937Y1101D01*
X937Y1101D01*
X937Y1102D01*
X936Y1102D01*
X936Y1103D01*
X935Y1103D01*
X935Y1104D01*
X935Y1104D01*
X935Y1105D01*
X934Y1105D01*
X934Y1105D01*
X934Y1105D01*
X934Y1107D01*
X933Y1107D01*
X933Y1108D01*
X933Y1108D01*
X933Y1108D01*
X932Y1108D01*
X932Y1109D01*
X932Y1109D01*
X932Y1110D01*
X931Y1110D01*
X931Y1111D01*
X930Y1111D01*
X930Y1112D01*
X930Y1112D01*
X930Y1113D01*
X929Y1113D01*
X929Y1114D01*
X929Y1114D01*
X929Y1115D01*
X928Y1115D01*
X928Y1115D01*
X928Y1115D01*
X928Y1116D01*
X927Y1116D01*
X927Y1118D01*
X927Y1118D01*
X927Y1118D01*
X926Y1118D01*
X926Y1119D01*
X925Y1119D01*
X925Y1120D01*
X925Y1120D01*
X925Y1121D01*
X924Y1121D01*
X924Y1122D01*
X924Y1122D01*
X924Y1123D01*
X923Y1123D01*
X923Y1124D01*
X923Y1124D01*
X923Y1125D01*
X922Y1125D01*
X922Y1126D01*
X922Y1126D01*
X922Y1126D01*
X921Y1126D01*
X921Y1128D01*
X920Y1128D01*
X920Y1129D01*
X920Y1129D01*
X920Y1129D01*
X919Y1129D01*
X919Y1130D01*
X919Y1130D01*
X919Y1131D01*
X918Y1131D01*
X918Y1132D01*
X918Y1132D01*
X918Y1133D01*
X917Y1133D01*
X917Y1134D01*
X917Y1134D01*
X917Y1135D01*
X916Y1135D01*
X916Y1136D01*
X916Y1136D01*
X916Y1136D01*
X915Y1136D01*
X915Y1138D01*
X914Y1138D01*
X914Y1139D01*
X914Y1139D01*
X914Y1139D01*
X913Y1139D01*
X913Y1140D01*
X913Y1140D01*
X913Y1141D01*
X912Y1141D01*
X912Y1142D01*
X912Y1142D01*
X912Y1143D01*
X939Y1143D01*
G37*
D02*
G36*
X796Y1093D02*
X796Y1092D01*
X795Y1092D01*
X795Y1092D01*
X794Y1092D01*
X794Y1091D01*
X793Y1091D01*
X793Y1090D01*
X792Y1090D01*
X792Y1090D01*
X792Y1090D01*
X792Y1089D01*
X791Y1089D01*
X791Y1089D01*
X789Y1089D01*
X789Y1088D01*
X788Y1088D01*
X788Y1088D01*
X788Y1088D01*
X788Y1087D01*
X787Y1087D01*
X787Y1087D01*
X786Y1087D01*
X786Y1086D01*
X784Y1086D01*
X784Y1086D01*
X784Y1086D01*
X784Y1085D01*
X783Y1085D01*
X783Y1084D01*
X782Y1084D01*
X782Y1084D01*
X781Y1084D01*
X781Y1083D01*
X780Y1083D01*
X780Y1083D01*
X779Y1083D01*
X779Y1082D01*
X778Y1082D01*
X778Y1082D01*
X777Y1082D01*
X777Y1080D01*
X778Y1080D01*
X778Y1079D01*
X778Y1079D01*
X778Y1078D01*
X779Y1078D01*
X779Y1077D01*
X779Y1077D01*
X779Y1076D01*
X780Y1076D01*
X780Y1075D01*
X781Y1075D01*
X781Y1074D01*
X781Y1074D01*
X781Y1073D01*
X782Y1073D01*
X782Y1072D01*
X782Y1072D01*
X782Y1071D01*
X783Y1071D01*
X783Y1071D01*
X783Y1071D01*
X783Y1069D01*
X784Y1069D01*
X784Y1068D01*
X784Y1068D01*
X784Y1068D01*
X785Y1068D01*
X785Y1067D01*
X786Y1067D01*
X786Y1066D01*
X786Y1066D01*
X786Y1065D01*
X787Y1065D01*
X787Y1064D01*
X787Y1064D01*
X787Y1063D01*
X788Y1063D01*
X788Y1062D01*
X788Y1062D01*
X788Y1061D01*
X789Y1061D01*
X789Y1060D01*
X789Y1060D01*
X789Y1059D01*
X790Y1059D01*
X790Y1058D01*
X791Y1058D01*
X791Y1057D01*
X791Y1057D01*
X791Y1056D01*
X792Y1056D01*
X792Y1055D01*
X792Y1055D01*
X792Y1054D01*
X793Y1054D01*
X793Y1053D01*
X793Y1053D01*
X793Y1052D01*
X794Y1052D01*
X794Y1051D01*
X794Y1051D01*
X794Y1050D01*
X795Y1050D01*
X795Y1050D01*
X795Y1050D01*
X795Y1048D01*
X796Y1048D01*
X796Y1047D01*
X797Y1047D01*
X797Y1046D01*
X797Y1046D01*
X797Y1046D01*
X798Y1046D01*
X798Y1045D01*
X798Y1045D01*
X798Y1043D01*
X799Y1043D01*
X799Y1042D01*
X799Y1042D01*
X799Y1042D01*
X800Y1042D01*
X800Y1041D01*
X800Y1041D01*
X800Y1040D01*
X801Y1040D01*
X801Y1039D01*
X802Y1039D01*
X802Y1038D01*
X802Y1038D01*
X802Y1037D01*
X803Y1037D01*
X803Y1036D01*
X803Y1036D01*
X803Y1035D01*
X804Y1035D01*
X804Y1034D01*
X804Y1034D01*
X804Y1033D01*
X805Y1033D01*
X805Y1032D01*
X805Y1032D01*
X805Y1031D01*
X806Y1031D01*
X806Y1030D01*
X807Y1030D01*
X807Y1029D01*
X807Y1029D01*
X807Y1028D01*
X808Y1028D01*
X808Y1027D01*
X808Y1027D01*
X808Y1026D01*
X809Y1026D01*
X809Y1025D01*
X809Y1025D01*
X809Y1025D01*
X810Y1025D01*
X810Y1024D01*
X810Y1024D01*
X810Y1022D01*
X811Y1022D01*
X811Y1021D01*
X812Y1021D01*
X812Y1021D01*
X812Y1021D01*
X812Y1020D01*
X813Y1020D01*
X813Y1019D01*
X813Y1019D01*
X813Y1017D01*
X814Y1017D01*
X814Y1017D01*
X814Y1017D01*
X814Y1016D01*
X815Y1016D01*
X815Y1015D01*
X815Y1015D01*
X815Y1014D01*
X816Y1014D01*
X816Y1013D01*
X817Y1013D01*
X817Y1012D01*
X817Y1012D01*
X817Y1011D01*
X818Y1011D01*
X818Y1010D01*
X818Y1010D01*
X818Y1009D01*
X819Y1009D01*
X819Y1008D01*
X819Y1008D01*
X819Y1007D01*
X820Y1007D01*
X820Y1006D01*
X820Y1006D01*
X820Y1005D01*
X821Y1005D01*
X821Y1004D01*
X821Y1004D01*
X821Y1003D01*
X822Y1003D01*
X822Y1003D01*
X823Y1003D01*
X823Y1001D01*
X823Y1001D01*
X823Y1000D01*
X824Y1000D01*
X824Y1000D01*
X824Y1000D01*
X824Y999D01*
X825Y999D01*
X825Y998D01*
X825Y998D01*
X825Y996D01*
X826Y996D01*
X826Y996D01*
X826Y996D01*
X826Y995D01*
X827Y995D01*
X827Y994D01*
X828Y994D01*
X828Y993D01*
X828Y993D01*
X828Y992D01*
X829Y992D01*
X829Y991D01*
X829Y991D01*
X829Y990D01*
X830Y990D01*
X830Y989D01*
X830Y989D01*
X830Y988D01*
X831Y988D01*
X831Y987D01*
X831Y987D01*
X831Y986D01*
X832Y986D01*
X832Y985D01*
X833Y985D01*
X833Y984D01*
X833Y984D01*
X833Y983D01*
X834Y983D01*
X834Y982D01*
X834Y982D01*
X834Y982D01*
X835Y982D01*
X835Y980D01*
X835Y980D01*
X835Y979D01*
X836Y979D01*
X836Y978D01*
X836Y978D01*
X836Y978D01*
X837Y978D01*
X837Y977D01*
X838Y977D01*
X838Y975D01*
X838Y975D01*
X838Y974D01*
X839Y974D01*
X839Y974D01*
X839Y974D01*
X839Y973D01*
X840Y973D01*
X840Y972D01*
X840Y972D01*
X840Y971D01*
X841Y971D01*
X841Y970D01*
X841Y970D01*
X841Y969D01*
X842Y969D01*
X842Y968D01*
X843Y968D01*
X843Y967D01*
X843Y967D01*
X843Y966D01*
X844Y966D01*
X844Y965D01*
X844Y965D01*
X844Y964D01*
X845Y964D01*
X845Y963D01*
X845Y963D01*
X845Y962D01*
X846Y962D01*
X846Y961D01*
X846Y961D01*
X846Y960D01*
X847Y960D01*
X847Y959D01*
X847Y959D01*
X847Y958D01*
X848Y958D01*
X848Y957D01*
X849Y957D01*
X849Y957D01*
X849Y957D01*
X849Y956D01*
X850Y956D01*
X850Y954D01*
X850Y954D01*
X850Y953D01*
X851Y953D01*
X851Y953D01*
X851Y953D01*
X851Y952D01*
X852Y952D01*
X852Y951D01*
X852Y951D01*
X852Y949D01*
X853Y949D01*
X853Y949D01*
X854Y949D01*
X854Y948D01*
X854Y948D01*
X854Y947D01*
X855Y947D01*
X855Y946D01*
X855Y946D01*
X855Y945D01*
X856Y945D01*
X856Y944D01*
X856Y944D01*
X856Y943D01*
X857Y943D01*
X857Y942D01*
X857Y942D01*
X857Y941D01*
X858Y941D01*
X858Y940D01*
X859Y940D01*
X859Y939D01*
X859Y939D01*
X859Y938D01*
X860Y938D01*
X860Y937D01*
X860Y937D01*
X860Y937D01*
X807Y937D01*
X807Y936D01*
X802Y936D01*
X802Y936D01*
X799Y936D01*
X799Y935D01*
X797Y935D01*
X797Y935D01*
X794Y935D01*
X794Y934D01*
X793Y934D01*
X793Y933D01*
X791Y933D01*
X791Y933D01*
X790Y933D01*
X790Y932D01*
X788Y932D01*
X788Y932D01*
X787Y932D01*
X787Y931D01*
X786Y931D01*
X786Y931D01*
X785Y931D01*
X785Y930D01*
X784Y930D01*
X784Y930D01*
X783Y930D01*
X783Y929D01*
X782Y929D01*
X782Y928D01*
X781Y928D01*
X781Y928D01*
X781Y928D01*
X781Y927D01*
X779Y927D01*
X779Y927D01*
X779Y927D01*
X779Y926D01*
X778Y926D01*
X778Y926D01*
X777Y926D01*
X777Y925D01*
X777Y925D01*
X777Y925D01*
X776Y925D01*
X776Y924D01*
X776Y924D01*
X776Y923D01*
X774Y923D01*
X774Y923D01*
X774Y923D01*
X774Y922D01*
X773Y922D01*
X773Y922D01*
X773Y922D01*
X773Y921D01*
X772Y921D01*
X772Y921D01*
X772Y921D01*
X772Y920D01*
X771Y920D01*
X771Y919D01*
X771Y919D01*
X771Y918D01*
X770Y918D01*
X770Y918D01*
X770Y918D01*
X770Y917D01*
X769Y917D01*
X769Y917D01*
X768Y917D01*
X768Y916D01*
X768Y916D01*
X768Y915D01*
X767Y915D01*
X767Y915D01*
X767Y915D01*
X767Y914D01*
X766Y914D01*
X766Y913D01*
X766Y913D01*
X766Y912D01*
X765Y912D01*
X765Y911D01*
X765Y911D01*
X765Y910D01*
X764Y910D01*
X764Y909D01*
X763Y909D01*
X763Y908D01*
X763Y908D01*
X763Y907D01*
X762Y907D01*
X762Y906D01*
X762Y906D01*
X762Y905D01*
X761Y905D01*
X761Y903D01*
X761Y903D01*
X761Y902D01*
X760Y902D01*
X760Y900D01*
X760Y900D01*
X760Y899D01*
X759Y899D01*
X759Y897D01*
X758Y897D01*
X758Y895D01*
X758Y895D01*
X758Y893D01*
X757Y893D01*
X757Y890D01*
X757Y890D01*
X757Y886D01*
X756Y886D01*
X756Y881D01*
X756Y881D01*
X756Y862D01*
X855Y862D01*
X855Y860D01*
X855Y860D01*
X855Y855D01*
X854Y855D01*
X854Y853D01*
X854Y853D01*
X854Y850D01*
X853Y850D01*
X853Y848D01*
X852Y848D01*
X852Y846D01*
X852Y846D01*
X852Y844D01*
X851Y844D01*
X851Y843D01*
X851Y843D01*
X851Y842D01*
X850Y842D01*
X850Y841D01*
X850Y841D01*
X850Y839D01*
X849Y839D01*
X849Y838D01*
X849Y838D01*
X849Y837D01*
X848Y837D01*
X848Y836D01*
X847Y836D01*
X847Y835D01*
X847Y835D01*
X847Y834D01*
X846Y834D01*
X846Y833D01*
X846Y833D01*
X846Y833D01*
X845Y833D01*
X845Y832D01*
X845Y832D01*
X845Y831D01*
X844Y831D01*
X844Y831D01*
X844Y831D01*
X844Y830D01*
X843Y830D01*
X843Y829D01*
X843Y829D01*
X843Y829D01*
X761Y829D01*
X761Y808D01*
X762Y808D01*
X762Y807D01*
X763Y807D01*
X763Y807D01*
X765Y807D01*
X765Y806D01*
X766Y806D01*
X766Y806D01*
X767Y806D01*
X767Y805D01*
X769Y805D01*
X769Y805D01*
X771Y805D01*
X771Y804D01*
X772Y804D01*
X772Y803D01*
X774Y803D01*
X774Y803D01*
X776Y803D01*
X776Y802D01*
X778Y802D01*
X778Y802D01*
X780Y802D01*
X780Y801D01*
X782Y801D01*
X782Y801D01*
X784Y801D01*
X784Y800D01*
X788Y800D01*
X788Y800D01*
X791Y800D01*
X791Y799D01*
X795Y799D01*
X795Y798D01*
X800Y798D01*
X800Y798D01*
X747Y798D01*
X747Y1093D01*
X796Y1093D01*
G37*
D02*
G36*
X981Y1073D02*
X981Y1072D01*
X981Y1072D01*
X981Y1072D01*
X982Y1072D01*
X982Y1071D01*
X982Y1071D01*
X982Y1069D01*
X983Y1069D01*
X983Y1069D01*
X984Y1069D01*
X984Y1068D01*
X984Y1068D01*
X984Y1067D01*
X985Y1067D01*
X985Y1066D01*
X985Y1066D01*
X985Y1065D01*
X986Y1065D01*
X986Y1065D01*
X986Y1065D01*
X986Y1063D01*
X987Y1063D01*
X987Y1062D01*
X987Y1062D01*
X987Y1062D01*
X988Y1062D01*
X988Y1061D01*
X989Y1061D01*
X989Y1060D01*
X989Y1060D01*
X989Y1059D01*
X990Y1059D01*
X990Y1058D01*
X990Y1058D01*
X990Y1057D01*
X991Y1057D01*
X991Y1056D01*
X991Y1056D01*
X991Y1055D01*
X992Y1055D01*
X992Y1054D01*
X992Y1054D01*
X992Y1053D01*
X993Y1053D01*
X993Y1052D01*
X993Y1052D01*
X993Y1051D01*
X994Y1051D01*
X994Y1051D01*
X995Y1051D01*
X995Y1050D01*
X967Y1050D01*
X967Y950D01*
X898Y950D01*
X898Y951D01*
X899Y951D01*
X899Y951D01*
X899Y951D01*
X899Y952D01*
X901Y952D01*
X901Y952D01*
X902Y952D01*
X902Y953D01*
X902Y953D01*
X902Y953D01*
X903Y953D01*
X903Y954D01*
X904Y954D01*
X904Y954D01*
X905Y954D01*
X905Y955D01*
X906Y955D01*
X906Y956D01*
X907Y956D01*
X907Y956D01*
X908Y956D01*
X908Y957D01*
X909Y957D01*
X909Y957D01*
X909Y957D01*
X909Y958D01*
X911Y958D01*
X911Y958D01*
X912Y958D01*
X912Y959D01*
X912Y959D01*
X912Y959D01*
X913Y959D01*
X913Y960D01*
X914Y960D01*
X914Y961D01*
X915Y961D01*
X915Y961D01*
X916Y961D01*
X916Y962D01*
X917Y962D01*
X917Y962D01*
X918Y962D01*
X918Y963D01*
X919Y963D01*
X919Y963D01*
X919Y963D01*
X919Y964D01*
X919Y964D01*
X919Y972D01*
X918Y972D01*
X918Y978D01*
X918Y978D01*
X918Y985D01*
X917Y985D01*
X917Y991D01*
X917Y991D01*
X917Y998D01*
X916Y998D01*
X916Y1005D01*
X916Y1005D01*
X916Y1012D01*
X915Y1012D01*
X915Y1020D01*
X914Y1020D01*
X914Y1029D01*
X915Y1029D01*
X915Y1034D01*
X916Y1034D01*
X916Y1037D01*
X916Y1037D01*
X916Y1039D01*
X917Y1039D01*
X917Y1041D01*
X917Y1041D01*
X917Y1042D01*
X918Y1042D01*
X918Y1043D01*
X918Y1043D01*
X918Y1045D01*
X919Y1045D01*
X919Y1046D01*
X919Y1046D01*
X919Y1046D01*
X920Y1046D01*
X920Y1047D01*
X920Y1047D01*
X920Y1048D01*
X921Y1048D01*
X921Y1048D01*
X922Y1048D01*
X922Y1049D01*
X922Y1049D01*
X922Y1050D01*
X923Y1050D01*
X923Y1051D01*
X923Y1051D01*
X923Y1051D01*
X924Y1051D01*
X924Y1052D01*
X924Y1052D01*
X924Y1052D01*
X925Y1052D01*
X925Y1053D01*
X926Y1053D01*
X926Y1053D01*
X927Y1053D01*
X927Y1054D01*
X927Y1054D01*
X927Y1055D01*
X928Y1055D01*
X928Y1055D01*
X929Y1055D01*
X929Y1056D01*
X929Y1056D01*
X929Y1056D01*
X930Y1056D01*
X930Y1057D01*
X931Y1057D01*
X931Y1057D01*
X932Y1057D01*
X932Y1058D01*
X933Y1058D01*
X933Y1058D01*
X933Y1058D01*
X933Y1059D01*
X934Y1059D01*
X934Y1060D01*
X935Y1060D01*
X935Y1060D01*
X936Y1060D01*
X936Y1061D01*
X937Y1061D01*
X937Y1061D01*
X938Y1061D01*
X938Y1062D01*
X939Y1062D01*
X939Y1062D01*
X940Y1062D01*
X940Y1063D01*
X941Y1063D01*
X941Y1063D01*
X942Y1063D01*
X942Y1064D01*
X943Y1064D01*
X943Y1065D01*
X944Y1065D01*
X944Y1065D01*
X944Y1065D01*
X944Y1066D01*
X945Y1066D01*
X945Y1066D01*
X946Y1066D01*
X946Y1067D01*
X947Y1067D01*
X947Y1067D01*
X948Y1067D01*
X948Y1068D01*
X949Y1068D01*
X949Y1068D01*
X950Y1068D01*
X950Y1069D01*
X951Y1069D01*
X951Y1069D01*
X951Y1069D01*
X951Y1070D01*
X953Y1070D01*
X953Y1071D01*
X954Y1071D01*
X954Y1071D01*
X954Y1071D01*
X954Y1073D01*
X981Y1073D01*
G37*
D02*
G36*
X943Y1067D02*
X943Y1066D01*
X814Y1066D01*
X814Y1067D01*
X943Y1067D01*
G37*
D02*
G36*
X943Y1067D02*
X943Y1066D01*
X814Y1066D01*
X814Y1067D01*
X943Y1067D01*
G37*
D02*
G36*
X942Y1066D02*
X942Y1066D01*
X940Y1066D01*
X940Y1065D01*
X940Y1065D01*
X940Y1065D01*
X939Y1065D01*
X939Y1064D01*
X938Y1064D01*
X938Y1063D01*
X937Y1063D01*
X937Y1063D01*
X936Y1063D01*
X936Y1062D01*
X935Y1062D01*
X935Y1062D01*
X934Y1062D01*
X934Y1061D01*
X933Y1061D01*
X933Y1061D01*
X932Y1061D01*
X932Y1060D01*
X932Y1060D01*
X932Y1060D01*
X930Y1060D01*
X930Y1059D01*
X930Y1059D01*
X930Y1058D01*
X929Y1058D01*
X929Y1058D01*
X928Y1058D01*
X928Y1057D01*
X927Y1057D01*
X927Y1057D01*
X927Y1057D01*
X927Y1056D01*
X925Y1056D01*
X925Y1056D01*
X925Y1056D01*
X925Y1055D01*
X924Y1055D01*
X924Y1055D01*
X924Y1055D01*
X924Y1054D01*
X923Y1054D01*
X923Y1053D01*
X923Y1053D01*
X923Y1053D01*
X922Y1053D01*
X922Y1052D01*
X921Y1052D01*
X921Y1052D01*
X869Y1052D01*
X869Y1051D01*
X822Y1051D01*
X822Y1052D01*
X821Y1052D01*
X821Y1053D01*
X821Y1053D01*
X821Y1054D01*
X820Y1054D01*
X820Y1055D01*
X820Y1055D01*
X820Y1056D01*
X819Y1056D01*
X819Y1057D01*
X819Y1057D01*
X819Y1058D01*
X818Y1058D01*
X818Y1059D01*
X818Y1059D01*
X818Y1060D01*
X817Y1060D01*
X817Y1061D01*
X817Y1061D01*
X817Y1062D01*
X816Y1062D01*
X816Y1063D01*
X815Y1063D01*
X815Y1064D01*
X815Y1064D01*
X815Y1065D01*
X814Y1065D01*
X814Y1066D01*
X814Y1066D01*
X814Y1066D01*
X942Y1066D01*
G37*
D02*
G36*
X920Y1052D02*
X920Y1051D01*
X920Y1051D01*
X920Y1050D01*
X919Y1050D01*
X919Y1050D01*
X919Y1050D01*
X919Y1049D01*
X897Y1049D01*
X897Y1048D01*
X894Y1048D01*
X894Y1048D01*
X890Y1048D01*
X890Y1047D01*
X883Y1047D01*
X883Y1048D01*
X879Y1048D01*
X879Y1048D01*
X877Y1048D01*
X877Y1049D01*
X875Y1049D01*
X875Y1050D01*
X873Y1050D01*
X873Y1050D01*
X872Y1050D01*
X872Y1051D01*
X871Y1051D01*
X871Y1051D01*
X870Y1051D01*
X870Y1052D01*
X920Y1052D01*
G37*
D02*
G36*
X870Y1051D02*
X870Y1051D01*
X823Y1051D01*
X823Y1051D01*
X870Y1051D01*
G37*
D02*
G36*
X870Y1051D02*
X870Y1051D01*
X823Y1051D01*
X823Y1051D01*
X870Y1051D01*
G37*
D02*
G36*
X871Y1051D02*
X871Y1050D01*
X823Y1050D01*
X823Y1051D01*
X871Y1051D01*
G37*
D02*
G36*
X871Y1051D02*
X871Y1050D01*
X823Y1050D01*
X823Y1051D01*
X871Y1051D01*
G37*
D02*
G36*
X995Y1050D02*
X995Y1050D01*
X995Y1050D01*
X995Y1048D01*
X996Y1048D01*
X996Y1048D01*
X996Y1048D01*
X996Y1047D01*
X997Y1047D01*
X997Y1046D01*
X997Y1046D01*
X997Y1045D01*
X998Y1045D01*
X998Y1044D01*
X998Y1044D01*
X998Y1043D01*
X999Y1043D01*
X999Y1042D01*
X1000Y1042D01*
X1000Y1041D01*
X1000Y1041D01*
X1000Y1041D01*
X1001Y1041D01*
X1001Y1040D01*
X1001Y1040D01*
X1001Y1039D01*
X1002Y1039D01*
X1002Y1038D01*
X1002Y1038D01*
X1002Y1037D01*
X1003Y1037D01*
X1003Y1036D01*
X1003Y1036D01*
X1003Y1035D01*
X1004Y1035D01*
X1004Y1034D01*
X1005Y1034D01*
X1005Y1033D01*
X1005Y1033D01*
X1005Y1032D01*
X1006Y1032D01*
X1006Y1031D01*
X1006Y1031D01*
X1006Y1030D01*
X1007Y1030D01*
X1007Y1030D01*
X1007Y1030D01*
X1007Y1029D01*
X1008Y1029D01*
X1008Y1027D01*
X1008Y1027D01*
X1008Y1027D01*
X1009Y1027D01*
X1009Y1026D01*
X1010Y1026D01*
X1010Y1025D01*
X1010Y1025D01*
X1010Y1024D01*
X1011Y1024D01*
X1011Y1023D01*
X1011Y1023D01*
X1011Y1022D01*
X1012Y1022D01*
X1012Y1021D01*
X1011Y1021D01*
X1011Y1021D01*
X1010Y1021D01*
X1010Y1020D01*
X1009Y1020D01*
X1009Y1020D01*
X1008Y1020D01*
X1008Y1019D01*
X1007Y1019D01*
X1007Y1019D01*
X1006Y1019D01*
X1006Y1018D01*
X1005Y1018D01*
X1005Y1017D01*
X1005Y1017D01*
X1005Y1017D01*
X1003Y1017D01*
X1003Y1016D01*
X1002Y1016D01*
X1002Y1016D01*
X1002Y1016D01*
X1002Y1015D01*
X1001Y1015D01*
X1001Y1015D01*
X1000Y1015D01*
X1000Y1014D01*
X999Y1014D01*
X999Y1014D01*
X998Y1014D01*
X998Y1013D01*
X997Y1013D01*
X997Y1013D01*
X996Y1013D01*
X996Y1012D01*
X995Y1012D01*
X995Y1011D01*
X995Y1011D01*
X995Y1011D01*
X993Y1011D01*
X993Y1010D01*
X992Y1010D01*
X992Y1010D01*
X992Y1010D01*
X992Y1011D01*
X991Y1011D01*
X991Y1011D01*
X991Y1011D01*
X991Y1013D01*
X990Y1013D01*
X990Y1014D01*
X990Y1014D01*
X990Y1014D01*
X989Y1014D01*
X989Y1015D01*
X989Y1015D01*
X989Y1016D01*
X988Y1016D01*
X988Y1017D01*
X987Y1017D01*
X987Y1018D01*
X987Y1018D01*
X987Y1019D01*
X986Y1019D01*
X986Y1020D01*
X986Y1020D01*
X986Y1021D01*
X985Y1021D01*
X985Y1021D01*
X985Y1021D01*
X985Y1022D01*
X984Y1022D01*
X984Y1024D01*
X984Y1024D01*
X984Y1024D01*
X983Y1024D01*
X983Y1025D01*
X982Y1025D01*
X982Y1026D01*
X982Y1026D01*
X982Y1027D01*
X981Y1027D01*
X981Y1028D01*
X981Y1028D01*
X981Y1029D01*
X980Y1029D01*
X980Y1030D01*
X980Y1030D01*
X980Y1031D01*
X979Y1031D01*
X979Y1032D01*
X979Y1032D01*
X979Y1032D01*
X978Y1032D01*
X978Y1034D01*
X977Y1034D01*
X977Y1035D01*
X977Y1035D01*
X977Y1035D01*
X976Y1035D01*
X976Y1036D01*
X976Y1036D01*
X976Y1037D01*
X975Y1037D01*
X975Y1038D01*
X975Y1038D01*
X975Y1039D01*
X974Y1039D01*
X974Y1040D01*
X974Y1040D01*
X974Y1041D01*
X973Y1041D01*
X973Y1042D01*
X972Y1042D01*
X972Y1042D01*
X972Y1042D01*
X972Y1043D01*
X971Y1043D01*
X971Y1045D01*
X971Y1045D01*
X971Y1045D01*
X970Y1045D01*
X970Y1046D01*
X970Y1046D01*
X970Y1047D01*
X969Y1047D01*
X969Y1048D01*
X969Y1048D01*
X969Y1049D01*
X968Y1049D01*
X968Y1050D01*
X995Y1050D01*
G37*
D02*
G36*
X872Y1050D02*
X872Y1050D01*
X823Y1050D01*
X823Y1050D01*
X872Y1050D01*
G37*
D02*
G36*
X872Y1050D02*
X872Y1050D01*
X823Y1050D01*
X823Y1050D01*
X872Y1050D01*
G37*
D02*
G36*
X873Y1050D02*
X873Y1049D01*
X824Y1049D01*
X824Y1050D01*
X873Y1050D01*
G37*
D02*
G36*
X918Y1049D02*
X918Y1048D01*
X918Y1048D01*
X918Y1047D01*
X917Y1047D01*
X917Y1047D01*
X917Y1047D01*
X917Y1046D01*
X890Y1046D01*
X890Y1047D01*
X895Y1047D01*
X895Y1047D01*
X898Y1047D01*
X898Y1048D01*
X898Y1048D01*
X898Y1049D01*
X918Y1049D01*
G37*
D02*
G36*
X875Y1049D02*
X875Y1048D01*
X824Y1048D01*
X824Y1049D01*
X875Y1049D01*
G37*
D02*
G36*
X877Y1048D02*
X877Y1048D01*
X878Y1048D01*
X878Y1047D01*
X881Y1047D01*
X881Y1047D01*
X889Y1047D01*
X889Y1046D01*
X825Y1046D01*
X825Y1047D01*
X825Y1047D01*
X825Y1047D01*
X824Y1047D01*
X824Y1048D01*
X877Y1048D01*
G37*
D02*
G36*
X917Y1046D02*
X917Y1046D01*
X825Y1046D01*
X825Y1046D01*
X917Y1046D01*
G37*
D02*
G36*
X917Y1046D02*
X917Y1046D01*
X825Y1046D01*
X825Y1046D01*
X917Y1046D01*
G37*
D02*
G36*
X916Y1046D02*
X916Y1045D01*
X916Y1045D01*
X916Y1043D01*
X915Y1043D01*
X915Y1042D01*
X914Y1042D01*
X914Y1041D01*
X914Y1041D01*
X914Y1039D01*
X913Y1039D01*
X913Y1036D01*
X913Y1036D01*
X913Y1031D01*
X912Y1031D01*
X912Y1017D01*
X913Y1017D01*
X913Y1010D01*
X913Y1010D01*
X913Y1004D01*
X914Y1004D01*
X914Y996D01*
X914Y996D01*
X914Y990D01*
X915Y990D01*
X915Y983D01*
X916Y983D01*
X916Y977D01*
X916Y977D01*
X916Y970D01*
X917Y970D01*
X917Y964D01*
X916Y964D01*
X916Y963D01*
X915Y963D01*
X915Y963D01*
X914Y963D01*
X914Y962D01*
X913Y962D01*
X913Y962D01*
X912Y962D01*
X912Y961D01*
X911Y961D01*
X911Y961D01*
X911Y961D01*
X911Y960D01*
X909Y960D01*
X909Y959D01*
X908Y959D01*
X908Y959D01*
X908Y959D01*
X908Y958D01*
X907Y958D01*
X907Y958D01*
X906Y958D01*
X906Y957D01*
X905Y957D01*
X905Y957D01*
X904Y957D01*
X904Y956D01*
X903Y956D01*
X903Y956D01*
X902Y956D01*
X902Y955D01*
X901Y955D01*
X901Y954D01*
X901Y954D01*
X901Y954D01*
X899Y954D01*
X899Y953D01*
X898Y953D01*
X898Y953D01*
X898Y953D01*
X898Y952D01*
X897Y952D01*
X897Y950D01*
X881Y950D01*
X881Y951D01*
X880Y951D01*
X880Y952D01*
X880Y952D01*
X880Y953D01*
X879Y953D01*
X879Y953D01*
X878Y953D01*
X878Y954D01*
X878Y954D01*
X878Y956D01*
X877Y956D01*
X877Y957D01*
X877Y957D01*
X877Y957D01*
X876Y957D01*
X876Y958D01*
X876Y958D01*
X876Y959D01*
X875Y959D01*
X875Y961D01*
X875Y961D01*
X875Y961D01*
X874Y961D01*
X874Y962D01*
X873Y962D01*
X873Y963D01*
X873Y963D01*
X873Y964D01*
X872Y964D01*
X872Y965D01*
X872Y965D01*
X872Y966D01*
X871Y966D01*
X871Y967D01*
X871Y967D01*
X871Y968D01*
X870Y968D01*
X870Y969D01*
X870Y969D01*
X870Y970D01*
X869Y970D01*
X869Y971D01*
X869Y971D01*
X869Y972D01*
X868Y972D01*
X868Y973D01*
X867Y973D01*
X867Y974D01*
X867Y974D01*
X867Y975D01*
X866Y975D01*
X866Y975D01*
X866Y975D01*
X866Y977D01*
X865Y977D01*
X865Y978D01*
X865Y978D01*
X865Y979D01*
X864Y979D01*
X864Y979D01*
X864Y979D01*
X864Y980D01*
X863Y980D01*
X863Y982D01*
X862Y982D01*
X862Y982D01*
X862Y982D01*
X862Y983D01*
X861Y983D01*
X861Y984D01*
X861Y984D01*
X861Y985D01*
X860Y985D01*
X860Y986D01*
X860Y986D01*
X860Y987D01*
X859Y987D01*
X859Y988D01*
X859Y988D01*
X859Y989D01*
X858Y989D01*
X858Y990D01*
X857Y990D01*
X857Y991D01*
X857Y991D01*
X857Y992D01*
X856Y992D01*
X856Y993D01*
X856Y993D01*
X856Y994D01*
X855Y994D01*
X855Y995D01*
X855Y995D01*
X855Y996D01*
X854Y996D01*
X854Y996D01*
X854Y996D01*
X854Y998D01*
X853Y998D01*
X853Y999D01*
X852Y999D01*
X852Y1000D01*
X852Y1000D01*
X852Y1000D01*
X851Y1000D01*
X851Y1001D01*
X851Y1001D01*
X851Y1003D01*
X850Y1003D01*
X850Y1004D01*
X850Y1004D01*
X850Y1004D01*
X849Y1004D01*
X849Y1005D01*
X849Y1005D01*
X849Y1006D01*
X848Y1006D01*
X848Y1008D01*
X847Y1008D01*
X847Y1008D01*
X847Y1008D01*
X847Y1009D01*
X846Y1009D01*
X846Y1010D01*
X846Y1010D01*
X846Y1011D01*
X845Y1011D01*
X845Y1012D01*
X845Y1012D01*
X845Y1013D01*
X844Y1013D01*
X844Y1014D01*
X844Y1014D01*
X844Y1015D01*
X843Y1015D01*
X843Y1016D01*
X843Y1016D01*
X843Y1017D01*
X842Y1017D01*
X842Y1018D01*
X841Y1018D01*
X841Y1019D01*
X841Y1019D01*
X841Y1020D01*
X840Y1020D01*
X840Y1021D01*
X840Y1021D01*
X840Y1022D01*
X839Y1022D01*
X839Y1022D01*
X839Y1022D01*
X839Y1024D01*
X838Y1024D01*
X838Y1025D01*
X838Y1025D01*
X838Y1025D01*
X837Y1025D01*
X837Y1026D01*
X836Y1026D01*
X836Y1027D01*
X836Y1027D01*
X836Y1029D01*
X835Y1029D01*
X835Y1029D01*
X835Y1029D01*
X835Y1030D01*
X834Y1030D01*
X834Y1031D01*
X834Y1031D01*
X834Y1032D01*
X833Y1032D01*
X833Y1033D01*
X833Y1033D01*
X833Y1034D01*
X832Y1034D01*
X832Y1035D01*
X831Y1035D01*
X831Y1036D01*
X831Y1036D01*
X831Y1037D01*
X830Y1037D01*
X830Y1038D01*
X830Y1038D01*
X830Y1039D01*
X829Y1039D01*
X829Y1040D01*
X829Y1040D01*
X829Y1041D01*
X828Y1041D01*
X828Y1042D01*
X828Y1042D01*
X828Y1043D01*
X827Y1043D01*
X827Y1043D01*
X826Y1043D01*
X826Y1045D01*
X826Y1045D01*
X826Y1046D01*
X916Y1046D01*
G37*
D02*
G36*
X967Y950D02*
X967Y949D01*
X881Y949D01*
X881Y950D01*
X967Y950D01*
G37*
D02*
G36*
X967Y950D02*
X967Y949D01*
X881Y949D01*
X881Y950D01*
X967Y950D01*
G37*
D02*
G36*
X967Y949D02*
X967Y935D01*
X930Y935D01*
X930Y934D01*
X929Y934D01*
X929Y933D01*
X928Y933D01*
X928Y933D01*
X927Y933D01*
X927Y932D01*
X926Y932D01*
X926Y932D01*
X925Y932D01*
X925Y931D01*
X924Y931D01*
X924Y931D01*
X923Y931D01*
X923Y930D01*
X922Y930D01*
X922Y930D01*
X921Y930D01*
X921Y929D01*
X920Y929D01*
X920Y928D01*
X919Y928D01*
X919Y928D01*
X917Y928D01*
X917Y927D01*
X916Y927D01*
X916Y927D01*
X913Y927D01*
X913Y926D01*
X904Y926D01*
X904Y927D01*
X902Y927D01*
X902Y927D01*
X901Y927D01*
X901Y928D01*
X900Y928D01*
X900Y928D01*
X899Y928D01*
X899Y929D01*
X898Y929D01*
X898Y930D01*
X897Y930D01*
X897Y930D01*
X897Y930D01*
X897Y931D01*
X896Y931D01*
X896Y931D01*
X895Y931D01*
X895Y932D01*
X894Y932D01*
X894Y932D01*
X894Y932D01*
X894Y933D01*
X893Y933D01*
X893Y933D01*
X893Y933D01*
X893Y934D01*
X892Y934D01*
X892Y935D01*
X892Y935D01*
X892Y935D01*
X891Y935D01*
X891Y936D01*
X891Y936D01*
X891Y936D01*
X890Y936D01*
X890Y937D01*
X890Y937D01*
X890Y938D01*
X889Y938D01*
X889Y938D01*
X888Y938D01*
X888Y939D01*
X888Y939D01*
X888Y940D01*
X887Y940D01*
X887Y941D01*
X887Y941D01*
X887Y941D01*
X886Y941D01*
X886Y942D01*
X886Y942D01*
X886Y943D01*
X885Y943D01*
X885Y944D01*
X885Y944D01*
X885Y944D01*
X884Y944D01*
X884Y946D01*
X883Y946D01*
X883Y946D01*
X883Y946D01*
X883Y947D01*
X882Y947D01*
X882Y948D01*
X882Y948D01*
X882Y949D01*
X881Y949D01*
X881Y949D01*
X967Y949D01*
G37*
D02*
G36*
X860Y937D02*
X860Y936D01*
X861Y936D01*
X861Y936D01*
X861Y936D01*
X861Y935D01*
X862Y935D01*
X862Y934D01*
X862Y934D01*
X862Y933D01*
X863Y933D01*
X863Y932D01*
X864Y932D01*
X864Y931D01*
X864Y931D01*
X864Y930D01*
X865Y930D01*
X865Y930D01*
X865Y930D01*
X865Y929D01*
X866Y929D01*
X866Y928D01*
X866Y928D01*
X866Y927D01*
X867Y927D01*
X867Y926D01*
X867Y926D01*
X867Y926D01*
X868Y926D01*
X868Y925D01*
X869Y925D01*
X869Y924D01*
X869Y924D01*
X869Y923D01*
X870Y923D01*
X870Y923D01*
X870Y923D01*
X870Y922D01*
X871Y922D01*
X871Y922D01*
X871Y922D01*
X871Y921D01*
X872Y921D01*
X872Y920D01*
X872Y920D01*
X872Y920D01*
X873Y920D01*
X873Y919D01*
X873Y919D01*
X873Y918D01*
X874Y918D01*
X874Y918D01*
X875Y918D01*
X875Y917D01*
X875Y917D01*
X875Y917D01*
X876Y917D01*
X876Y916D01*
X876Y916D01*
X876Y916D01*
X877Y916D01*
X877Y915D01*
X877Y915D01*
X877Y915D01*
X878Y915D01*
X878Y914D01*
X878Y914D01*
X878Y914D01*
X879Y914D01*
X879Y913D01*
X880Y913D01*
X880Y912D01*
X881Y912D01*
X881Y912D01*
X881Y912D01*
X881Y911D01*
X882Y911D01*
X882Y911D01*
X883Y911D01*
X883Y910D01*
X883Y910D01*
X883Y910D01*
X885Y910D01*
X885Y909D01*
X885Y909D01*
X885Y909D01*
X886Y909D01*
X886Y908D01*
X887Y908D01*
X887Y907D01*
X888Y907D01*
X888Y907D01*
X890Y907D01*
X890Y906D01*
X891Y906D01*
X891Y906D01*
X892Y906D01*
X892Y905D01*
X894Y905D01*
X894Y905D01*
X896Y905D01*
X896Y904D01*
X898Y904D01*
X898Y904D01*
X870Y904D01*
X870Y905D01*
X870Y905D01*
X870Y906D01*
X869Y906D01*
X869Y907D01*
X869Y907D01*
X869Y908D01*
X868Y908D01*
X868Y909D01*
X867Y909D01*
X867Y910D01*
X867Y910D01*
X867Y910D01*
X866Y910D01*
X866Y911D01*
X866Y911D01*
X866Y912D01*
X865Y912D01*
X865Y913D01*
X865Y913D01*
X865Y914D01*
X864Y914D01*
X864Y914D01*
X864Y914D01*
X864Y915D01*
X863Y915D01*
X863Y916D01*
X862Y916D01*
X862Y916D01*
X862Y916D01*
X862Y917D01*
X861Y917D01*
X861Y917D01*
X861Y917D01*
X861Y918D01*
X860Y918D01*
X860Y918D01*
X860Y918D01*
X860Y919D01*
X859Y919D01*
X859Y920D01*
X859Y920D01*
X859Y920D01*
X858Y920D01*
X858Y921D01*
X857Y921D01*
X857Y921D01*
X857Y921D01*
X857Y922D01*
X856Y922D01*
X856Y922D01*
X856Y922D01*
X856Y923D01*
X855Y923D01*
X855Y923D01*
X854Y923D01*
X854Y924D01*
X854Y924D01*
X854Y925D01*
X853Y925D01*
X853Y925D01*
X852Y925D01*
X852Y926D01*
X851Y926D01*
X851Y926D01*
X851Y926D01*
X851Y927D01*
X850Y927D01*
X850Y927D01*
X849Y927D01*
X849Y928D01*
X848Y928D01*
X848Y928D01*
X847Y928D01*
X847Y929D01*
X846Y929D01*
X846Y930D01*
X845Y930D01*
X845Y930D01*
X844Y930D01*
X844Y931D01*
X843Y931D01*
X843Y931D01*
X841Y931D01*
X841Y932D01*
X840Y932D01*
X840Y932D01*
X839Y932D01*
X839Y933D01*
X837Y933D01*
X837Y933D01*
X835Y933D01*
X835Y934D01*
X834Y934D01*
X834Y935D01*
X831Y935D01*
X831Y935D01*
X829Y935D01*
X829Y936D01*
X825Y936D01*
X825Y936D01*
X820Y936D01*
X820Y937D01*
X860Y937D01*
G37*
D02*
G36*
X967Y935D02*
X967Y904D01*
X911Y904D01*
X911Y904D01*
X914Y904D01*
X914Y905D01*
X916Y905D01*
X916Y905D01*
X918Y905D01*
X918Y906D01*
X920Y906D01*
X920Y906D01*
X922Y906D01*
X922Y907D01*
X923Y907D01*
X923Y907D01*
X924Y907D01*
X924Y908D01*
X925Y908D01*
X925Y909D01*
X927Y909D01*
X927Y909D01*
X928Y909D01*
X928Y910D01*
X929Y910D01*
X929Y910D01*
X930Y910D01*
X930Y911D01*
X931Y911D01*
X931Y911D01*
X932Y911D01*
X932Y912D01*
X933Y912D01*
X933Y912D01*
X934Y912D01*
X934Y913D01*
X935Y913D01*
X935Y914D01*
X936Y914D01*
X936Y914D01*
X937Y914D01*
X937Y915D01*
X938Y915D01*
X938Y915D01*
X939Y915D01*
X939Y916D01*
X940Y916D01*
X940Y916D01*
X941Y916D01*
X941Y917D01*
X942Y917D01*
X942Y917D01*
X941Y917D01*
X941Y918D01*
X940Y918D01*
X940Y920D01*
X940Y920D01*
X940Y921D01*
X939Y921D01*
X939Y921D01*
X939Y921D01*
X939Y922D01*
X938Y922D01*
X938Y923D01*
X938Y923D01*
X938Y924D01*
X937Y924D01*
X937Y925D01*
X937Y925D01*
X937Y926D01*
X936Y926D01*
X936Y927D01*
X935Y927D01*
X935Y928D01*
X935Y928D01*
X935Y929D01*
X934Y929D01*
X934Y930D01*
X934Y930D01*
X934Y931D01*
X933Y931D01*
X933Y932D01*
X933Y932D01*
X933Y933D01*
X932Y933D01*
X932Y934D01*
X932Y934D01*
X932Y935D01*
X967Y935D01*
G37*
D02*
G36*
X967Y904D02*
X967Y903D01*
X871Y903D01*
X871Y904D01*
X967Y904D01*
G37*
D02*
G36*
X967Y904D02*
X967Y903D01*
X871Y903D01*
X871Y904D01*
X967Y904D01*
G37*
D02*
G36*
X967Y903D02*
X967Y798D01*
X818Y798D01*
X818Y798D01*
X823Y798D01*
X823Y799D01*
X826Y799D01*
X826Y800D01*
X829Y800D01*
X829Y800D01*
X831Y800D01*
X831Y801D01*
X834Y801D01*
X834Y801D01*
X835Y801D01*
X835Y802D01*
X837Y802D01*
X837Y802D01*
X839Y802D01*
X839Y803D01*
X840Y803D01*
X840Y803D01*
X841Y803D01*
X841Y804D01*
X843Y804D01*
X843Y805D01*
X844Y805D01*
X844Y805D01*
X845Y805D01*
X845Y806D01*
X846Y806D01*
X846Y806D01*
X847Y806D01*
X847Y807D01*
X848Y807D01*
X848Y807D01*
X849Y807D01*
X849Y808D01*
X850Y808D01*
X850Y808D01*
X851Y808D01*
X851Y809D01*
X851Y809D01*
X851Y810D01*
X852Y810D01*
X852Y810D01*
X853Y810D01*
X853Y811D01*
X854Y811D01*
X854Y811D01*
X855Y811D01*
X855Y812D01*
X855Y812D01*
X855Y812D01*
X856Y812D01*
X856Y813D01*
X856Y813D01*
X856Y813D01*
X857Y813D01*
X857Y814D01*
X858Y814D01*
X858Y815D01*
X859Y815D01*
X859Y815D01*
X859Y815D01*
X859Y816D01*
X860Y816D01*
X860Y816D01*
X860Y816D01*
X860Y817D01*
X861Y817D01*
X861Y817D01*
X861Y817D01*
X861Y818D01*
X862Y818D01*
X862Y818D01*
X862Y818D01*
X862Y819D01*
X863Y819D01*
X863Y820D01*
X864Y820D01*
X864Y821D01*
X864Y821D01*
X864Y821D01*
X865Y821D01*
X865Y822D01*
X865Y822D01*
X865Y823D01*
X866Y823D01*
X866Y823D01*
X866Y823D01*
X866Y824D01*
X867Y824D01*
X867Y825D01*
X867Y825D01*
X867Y826D01*
X868Y826D01*
X868Y827D01*
X869Y827D01*
X869Y828D01*
X869Y828D01*
X869Y828D01*
X870Y828D01*
X870Y829D01*
X870Y829D01*
X870Y831D01*
X871Y831D01*
X871Y832D01*
X871Y832D01*
X871Y833D01*
X872Y833D01*
X872Y834D01*
X872Y834D01*
X872Y836D01*
X873Y836D01*
X873Y837D01*
X873Y837D01*
X873Y838D01*
X874Y838D01*
X874Y840D01*
X875Y840D01*
X875Y842D01*
X875Y842D01*
X875Y843D01*
X876Y843D01*
X876Y845D01*
X876Y845D01*
X876Y848D01*
X877Y848D01*
X877Y851D01*
X877Y851D01*
X877Y855D01*
X878Y855D01*
X878Y863D01*
X878Y863D01*
X878Y870D01*
X878Y870D01*
X878Y878D01*
X877Y878D01*
X877Y882D01*
X877Y882D01*
X877Y885D01*
X876Y885D01*
X876Y888D01*
X876Y888D01*
X876Y890D01*
X875Y890D01*
X875Y893D01*
X875Y893D01*
X875Y894D01*
X874Y894D01*
X874Y896D01*
X873Y896D01*
X873Y897D01*
X873Y897D01*
X873Y899D01*
X872Y899D01*
X872Y900D01*
X872Y900D01*
X872Y901D01*
X871Y901D01*
X871Y902D01*
X871Y902D01*
X871Y903D01*
X967Y903D01*
G37*
D02*
G36*
X842Y829D02*
X842Y828D01*
X841Y828D01*
X841Y828D01*
X841Y828D01*
X841Y827D01*
X840Y827D01*
X840Y827D01*
X840Y827D01*
X840Y826D01*
X839Y826D01*
X839Y826D01*
X838Y826D01*
X838Y825D01*
X838Y825D01*
X838Y824D01*
X836Y824D01*
X836Y824D01*
X836Y824D01*
X836Y823D01*
X835Y823D01*
X835Y823D01*
X834Y823D01*
X834Y822D01*
X833Y822D01*
X833Y822D01*
X831Y822D01*
X831Y821D01*
X830Y821D01*
X830Y821D01*
X829Y821D01*
X829Y820D01*
X828Y820D01*
X828Y819D01*
X826Y819D01*
X826Y819D01*
X824Y819D01*
X824Y818D01*
X821Y818D01*
X821Y818D01*
X819Y818D01*
X819Y817D01*
X814Y817D01*
X814Y817D01*
X801Y817D01*
X801Y817D01*
X796Y817D01*
X796Y818D01*
X792Y818D01*
X792Y818D01*
X789Y818D01*
X789Y819D01*
X787Y819D01*
X787Y819D01*
X784Y819D01*
X784Y820D01*
X783Y820D01*
X783Y821D01*
X781Y821D01*
X781Y821D01*
X779Y821D01*
X779Y822D01*
X777Y822D01*
X777Y822D01*
X776Y822D01*
X776Y823D01*
X774Y823D01*
X774Y823D01*
X773Y823D01*
X773Y824D01*
X771Y824D01*
X771Y824D01*
X770Y824D01*
X770Y825D01*
X769Y825D01*
X769Y826D01*
X767Y826D01*
X767Y826D01*
X766Y826D01*
X766Y827D01*
X765Y827D01*
X765Y827D01*
X764Y827D01*
X764Y828D01*
X763Y828D01*
X763Y828D01*
X762Y828D01*
X762Y829D01*
X842Y829D01*
G37*
D02*
G36*
X967Y798D02*
X967Y797D01*
X747Y797D01*
X747Y798D01*
X967Y798D01*
G37*
D02*
G36*
X967Y798D02*
X967Y797D01*
X747Y797D01*
X747Y798D01*
X967Y798D01*
G37*
D02*
G36*
X967Y797D02*
X967Y789D01*
X747Y789D01*
X747Y797D01*
X967Y797D01*
G37*
D02*
G36*
X818Y918D02*
X818Y917D01*
X822Y917D01*
X822Y917D01*
X825Y917D01*
X825Y916D01*
X827Y916D01*
X827Y916D01*
X829Y916D01*
X829Y915D01*
X830Y915D01*
X830Y915D01*
X831Y915D01*
X831Y914D01*
X833Y914D01*
X833Y914D01*
X834Y914D01*
X834Y913D01*
X835Y913D01*
X835Y912D01*
X836Y912D01*
X836Y912D01*
X837Y912D01*
X837Y911D01*
X838Y911D01*
X838Y911D01*
X839Y911D01*
X839Y910D01*
X839Y910D01*
X839Y910D01*
X840Y910D01*
X840Y909D01*
X841Y909D01*
X841Y909D01*
X841Y909D01*
X841Y908D01*
X842Y908D01*
X842Y907D01*
X843Y907D01*
X843Y907D01*
X843Y907D01*
X843Y906D01*
X844Y906D01*
X844Y906D01*
X844Y906D01*
X844Y905D01*
X845Y905D01*
X845Y904D01*
X845Y904D01*
X845Y904D01*
X846Y904D01*
X846Y903D01*
X846Y903D01*
X846Y902D01*
X847Y902D01*
X847Y901D01*
X847Y901D01*
X847Y900D01*
X848Y900D01*
X848Y900D01*
X849Y900D01*
X849Y899D01*
X849Y899D01*
X849Y897D01*
X850Y897D01*
X850Y896D01*
X850Y896D01*
X850Y895D01*
X851Y895D01*
X851Y894D01*
X851Y894D01*
X851Y893D01*
X852Y893D01*
X852Y891D01*
X852Y891D01*
X852Y889D01*
X853Y889D01*
X853Y886D01*
X854Y886D01*
X854Y884D01*
X854Y884D01*
X854Y879D01*
X778Y879D01*
X778Y884D01*
X778Y884D01*
X778Y888D01*
X779Y888D01*
X779Y891D01*
X779Y891D01*
X779Y893D01*
X780Y893D01*
X780Y895D01*
X781Y895D01*
X781Y896D01*
X781Y896D01*
X781Y897D01*
X782Y897D01*
X782Y899D01*
X782Y899D01*
X782Y900D01*
X783Y900D01*
X783Y901D01*
X783Y901D01*
X783Y902D01*
X784Y902D01*
X784Y902D01*
X784Y902D01*
X784Y904D01*
X785Y904D01*
X785Y904D01*
X786Y904D01*
X786Y905D01*
X786Y905D01*
X786Y906D01*
X787Y906D01*
X787Y906D01*
X787Y906D01*
X787Y907D01*
X788Y907D01*
X788Y907D01*
X788Y907D01*
X788Y908D01*
X789Y908D01*
X789Y909D01*
X789Y909D01*
X789Y909D01*
X790Y909D01*
X790Y910D01*
X791Y910D01*
X791Y910D01*
X791Y910D01*
X791Y911D01*
X792Y911D01*
X792Y911D01*
X793Y911D01*
X793Y912D01*
X793Y912D01*
X793Y912D01*
X794Y912D01*
X794Y913D01*
X795Y913D01*
X795Y914D01*
X796Y914D01*
X796Y914D01*
X797Y914D01*
X797Y915D01*
X798Y915D01*
X798Y915D01*
X799Y915D01*
X799Y916D01*
X801Y916D01*
X801Y916D01*
X803Y916D01*
X803Y917D01*
X805Y917D01*
X805Y917D01*
X809Y917D01*
X809Y918D01*
X818Y918D01*
G37*
D02*
G54D23*
X587Y1452D02*
X593Y1452D01*
X586Y1451D02*
X595Y1451D01*
X585Y1450D02*
X595Y1450D01*
X63Y1449D02*
X66Y1449D01*
X585Y1449D02*
X595Y1449D01*
X638Y1449D02*
X641Y1449D01*
X834Y1449D02*
X836Y1449D01*
X62Y1448D02*
X67Y1448D01*
X585Y1448D02*
X595Y1448D01*
X637Y1448D02*
X642Y1448D01*
X832Y1448D02*
X837Y1448D01*
X61Y1447D02*
X67Y1447D01*
X585Y1447D02*
X595Y1447D01*
X636Y1447D02*
X642Y1447D01*
X832Y1447D02*
X838Y1447D01*
X61Y1446D02*
X68Y1446D01*
X585Y1446D02*
X595Y1446D01*
X636Y1446D02*
X643Y1446D01*
X831Y1446D02*
X838Y1446D01*
X61Y1445D02*
X68Y1445D01*
X585Y1445D02*
X595Y1445D01*
X636Y1445D02*
X643Y1445D01*
X831Y1445D02*
X838Y1445D01*
X61Y1444D02*
X68Y1444D01*
X585Y1444D02*
X595Y1444D01*
X636Y1444D02*
X643Y1444D01*
X831Y1444D02*
X838Y1444D01*
X61Y1443D02*
X68Y1443D01*
X586Y1443D02*
X594Y1443D01*
X636Y1443D02*
X643Y1443D01*
X831Y1443D02*
X838Y1443D01*
X61Y1442D02*
X68Y1442D01*
X587Y1442D02*
X593Y1442D01*
X636Y1442D02*
X643Y1442D01*
X831Y1442D02*
X838Y1442D01*
X61Y1441D02*
X68Y1441D01*
X636Y1441D02*
X643Y1441D01*
X831Y1441D02*
X838Y1441D01*
X61Y1440D02*
X68Y1440D01*
X636Y1440D02*
X643Y1440D01*
X831Y1440D02*
X838Y1440D01*
X61Y1439D02*
X68Y1439D01*
X636Y1439D02*
X643Y1439D01*
X831Y1439D02*
X838Y1439D01*
X61Y1438D02*
X68Y1438D01*
X636Y1438D02*
X643Y1438D01*
X831Y1438D02*
X838Y1438D01*
X61Y1437D02*
X68Y1437D01*
X636Y1437D02*
X643Y1437D01*
X831Y1437D02*
X838Y1437D01*
X61Y1436D02*
X68Y1436D01*
X636Y1436D02*
X643Y1436D01*
X831Y1436D02*
X838Y1436D01*
X61Y1435D02*
X68Y1435D01*
X636Y1435D02*
X643Y1435D01*
X831Y1435D02*
X838Y1435D01*
X61Y1434D02*
X68Y1434D01*
X636Y1434D02*
X643Y1434D01*
X831Y1434D02*
X838Y1434D01*
X37Y1433D02*
X39Y1433D01*
X61Y1433D02*
X68Y1433D01*
X88Y1433D02*
X90Y1433D01*
X118Y1433D02*
X120Y1433D01*
X208Y1433D02*
X221Y1433D01*
X253Y1433D02*
X272Y1433D01*
X363Y1433D02*
X365Y1433D01*
X394Y1433D02*
X395Y1433D01*
X425Y1433D02*
X434Y1433D01*
X449Y1433D02*
X450Y1433D01*
X480Y1433D02*
X489Y1433D01*
X504Y1433D02*
X505Y1433D01*
X538Y1433D02*
X551Y1433D01*
X587Y1433D02*
X604Y1433D01*
X636Y1433D02*
X643Y1433D01*
X652Y1433D02*
X661Y1433D01*
X701Y1433D02*
X709Y1433D01*
X724Y1433D02*
X725Y1433D01*
X756Y1433D02*
X773Y1433D01*
X813Y1433D02*
X822Y1433D01*
X831Y1433D02*
X838Y1433D01*
X868Y1433D02*
X881Y1433D01*
X920Y1433D02*
X931Y1433D01*
X944Y1433D02*
X946Y1433D01*
X1023Y1433D02*
X1025Y1433D01*
X1054Y1433D02*
X1056Y1433D01*
X1079Y1433D02*
X1080Y1433D01*
X1109Y1433D02*
X1111Y1433D01*
X1134Y1433D02*
X1135Y1433D01*
X1164Y1433D02*
X1166Y1433D01*
X36Y1432D02*
X40Y1432D01*
X61Y1432D02*
X68Y1432D01*
X87Y1432D02*
X91Y1432D01*
X117Y1432D02*
X121Y1432D01*
X205Y1432D02*
X224Y1432D01*
X252Y1432D02*
X275Y1432D01*
X362Y1432D02*
X367Y1432D01*
X392Y1432D02*
X397Y1432D01*
X423Y1432D02*
X437Y1432D01*
X447Y1432D02*
X452Y1432D01*
X478Y1432D02*
X492Y1432D01*
X502Y1432D02*
X507Y1432D01*
X535Y1432D02*
X554Y1432D01*
X586Y1432D02*
X606Y1432D01*
X636Y1432D02*
X643Y1432D01*
X649Y1432D02*
X664Y1432D01*
X698Y1432D02*
X712Y1432D01*
X722Y1432D02*
X727Y1432D01*
X753Y1432D02*
X774Y1432D01*
X810Y1432D02*
X825Y1432D01*
X831Y1432D02*
X838Y1432D01*
X865Y1432D02*
X884Y1432D01*
X917Y1432D02*
X932Y1432D01*
X942Y1432D02*
X947Y1432D01*
X1022Y1432D02*
X1026Y1432D01*
X1053Y1432D02*
X1057Y1432D01*
X1077Y1432D02*
X1082Y1432D01*
X1108Y1432D02*
X1112Y1432D01*
X1132Y1432D02*
X1137Y1432D01*
X1163Y1432D02*
X1167Y1432D01*
X35Y1431D02*
X42Y1431D01*
X61Y1431D02*
X68Y1431D01*
X86Y1431D02*
X92Y1431D01*
X116Y1431D02*
X122Y1431D01*
X203Y1431D02*
X225Y1431D01*
X251Y1431D02*
X277Y1431D01*
X361Y1431D02*
X367Y1431D01*
X392Y1431D02*
X397Y1431D01*
X421Y1431D02*
X438Y1431D01*
X447Y1431D02*
X452Y1431D01*
X476Y1431D02*
X494Y1431D01*
X502Y1431D02*
X507Y1431D01*
X533Y1431D02*
X556Y1431D01*
X585Y1431D02*
X606Y1431D01*
X636Y1431D02*
X643Y1431D01*
X647Y1431D02*
X666Y1431D01*
X696Y1431D02*
X714Y1431D01*
X722Y1431D02*
X728Y1431D01*
X751Y1431D02*
X775Y1431D01*
X809Y1431D02*
X827Y1431D01*
X831Y1431D02*
X838Y1431D01*
X864Y1431D02*
X886Y1431D01*
X916Y1431D02*
X933Y1431D01*
X942Y1431D02*
X948Y1431D01*
X1021Y1431D02*
X1027Y1431D01*
X1052Y1431D02*
X1058Y1431D01*
X1076Y1431D02*
X1082Y1431D01*
X1107Y1431D02*
X1113Y1431D01*
X1131Y1431D02*
X1137Y1431D01*
X1162Y1431D02*
X1168Y1431D01*
X35Y1430D02*
X43Y1430D01*
X61Y1430D02*
X68Y1430D01*
X86Y1430D02*
X92Y1430D01*
X116Y1430D02*
X122Y1430D01*
X202Y1430D02*
X227Y1430D01*
X251Y1430D02*
X278Y1430D01*
X361Y1430D02*
X368Y1430D01*
X391Y1430D02*
X398Y1430D01*
X420Y1430D02*
X440Y1430D01*
X446Y1430D02*
X453Y1430D01*
X475Y1430D02*
X495Y1430D01*
X501Y1430D02*
X508Y1430D01*
X532Y1430D02*
X557Y1430D01*
X585Y1430D02*
X607Y1430D01*
X636Y1430D02*
X643Y1430D01*
X646Y1430D02*
X667Y1430D01*
X695Y1430D02*
X715Y1430D01*
X721Y1430D02*
X728Y1430D01*
X750Y1430D02*
X775Y1430D01*
X807Y1430D02*
X828Y1430D01*
X831Y1430D02*
X838Y1430D01*
X862Y1430D02*
X887Y1430D01*
X915Y1430D02*
X934Y1430D01*
X941Y1430D02*
X948Y1430D01*
X1021Y1430D02*
X1027Y1430D01*
X1052Y1430D02*
X1058Y1430D01*
X1076Y1430D02*
X1082Y1430D01*
X1107Y1430D02*
X1113Y1430D01*
X1131Y1430D02*
X1137Y1430D01*
X1162Y1430D02*
X1168Y1430D01*
X35Y1429D02*
X44Y1429D01*
X61Y1429D02*
X68Y1429D01*
X86Y1429D02*
X92Y1429D01*
X116Y1429D02*
X122Y1429D01*
X201Y1429D02*
X228Y1429D01*
X251Y1429D02*
X279Y1429D01*
X361Y1429D02*
X368Y1429D01*
X391Y1429D02*
X398Y1429D01*
X419Y1429D02*
X442Y1429D01*
X446Y1429D02*
X453Y1429D01*
X474Y1429D02*
X497Y1429D01*
X501Y1429D02*
X508Y1429D01*
X531Y1429D02*
X558Y1429D01*
X585Y1429D02*
X607Y1429D01*
X636Y1429D02*
X643Y1429D01*
X645Y1429D02*
X668Y1429D01*
X694Y1429D02*
X717Y1429D01*
X721Y1429D02*
X728Y1429D01*
X749Y1429D02*
X775Y1429D01*
X806Y1429D02*
X838Y1429D01*
X861Y1429D02*
X888Y1429D01*
X914Y1429D02*
X936Y1429D01*
X941Y1429D02*
X948Y1429D01*
X1021Y1429D02*
X1028Y1429D01*
X1052Y1429D02*
X1059Y1429D01*
X1076Y1429D02*
X1083Y1429D01*
X1107Y1429D02*
X1114Y1429D01*
X1131Y1429D02*
X1138Y1429D01*
X1162Y1429D02*
X1169Y1429D01*
X35Y1428D02*
X45Y1428D01*
X61Y1428D02*
X68Y1428D01*
X86Y1428D02*
X93Y1428D01*
X116Y1428D02*
X122Y1428D01*
X200Y1428D02*
X229Y1428D01*
X251Y1428D02*
X280Y1428D01*
X361Y1428D02*
X368Y1428D01*
X391Y1428D02*
X398Y1428D01*
X418Y1428D02*
X443Y1428D01*
X446Y1428D02*
X453Y1428D01*
X473Y1428D02*
X498Y1428D01*
X501Y1428D02*
X508Y1428D01*
X530Y1428D02*
X559Y1428D01*
X585Y1428D02*
X606Y1428D01*
X636Y1428D02*
X669Y1428D01*
X693Y1428D02*
X718Y1428D01*
X721Y1428D02*
X728Y1428D01*
X748Y1428D02*
X775Y1428D01*
X805Y1428D02*
X838Y1428D01*
X860Y1428D02*
X889Y1428D01*
X913Y1428D02*
X937Y1428D01*
X941Y1428D02*
X948Y1428D01*
X1021Y1428D02*
X1028Y1428D01*
X1052Y1428D02*
X1059Y1428D01*
X1076Y1428D02*
X1083Y1428D01*
X1107Y1428D02*
X1114Y1428D01*
X1131Y1428D02*
X1138Y1428D01*
X1162Y1428D02*
X1169Y1428D01*
X36Y1427D02*
X46Y1427D01*
X61Y1427D02*
X68Y1427D01*
X86Y1427D02*
X93Y1427D01*
X116Y1427D02*
X122Y1427D01*
X199Y1427D02*
X230Y1427D01*
X252Y1427D02*
X282Y1427D01*
X361Y1427D02*
X368Y1427D01*
X391Y1427D02*
X398Y1427D01*
X418Y1427D02*
X453Y1427D01*
X473Y1427D02*
X508Y1427D01*
X529Y1427D02*
X560Y1427D01*
X585Y1427D02*
X606Y1427D01*
X636Y1427D02*
X670Y1427D01*
X693Y1427D02*
X728Y1427D01*
X748Y1427D02*
X775Y1427D01*
X804Y1427D02*
X838Y1427D01*
X859Y1427D02*
X890Y1427D01*
X912Y1427D02*
X938Y1427D01*
X941Y1427D02*
X948Y1427D01*
X1021Y1427D02*
X1028Y1427D01*
X1052Y1427D02*
X1059Y1427D01*
X1076Y1427D02*
X1083Y1427D01*
X1107Y1427D02*
X1114Y1427D01*
X1131Y1427D02*
X1138Y1427D01*
X1162Y1427D02*
X1169Y1427D01*
X37Y1426D02*
X47Y1426D01*
X61Y1426D02*
X68Y1426D01*
X86Y1426D02*
X93Y1426D01*
X116Y1426D02*
X122Y1426D01*
X198Y1426D02*
X231Y1426D01*
X253Y1426D02*
X283Y1426D01*
X361Y1426D02*
X368Y1426D01*
X391Y1426D02*
X398Y1426D01*
X417Y1426D02*
X453Y1426D01*
X472Y1426D02*
X508Y1426D01*
X528Y1426D02*
X561Y1426D01*
X585Y1426D02*
X604Y1426D01*
X636Y1426D02*
X671Y1426D01*
X692Y1426D02*
X728Y1426D01*
X747Y1426D02*
X773Y1426D01*
X803Y1426D02*
X838Y1426D01*
X858Y1426D02*
X891Y1426D01*
X912Y1426D02*
X939Y1426D01*
X941Y1426D02*
X948Y1426D01*
X1021Y1426D02*
X1028Y1426D01*
X1052Y1426D02*
X1059Y1426D01*
X1076Y1426D02*
X1083Y1426D01*
X1107Y1426D02*
X1114Y1426D01*
X1131Y1426D02*
X1138Y1426D01*
X1162Y1426D02*
X1169Y1426D01*
X38Y1425D02*
X49Y1425D01*
X61Y1425D02*
X68Y1425D01*
X86Y1425D02*
X93Y1425D01*
X116Y1425D02*
X122Y1425D01*
X197Y1425D02*
X207Y1425D01*
X222Y1425D02*
X231Y1425D01*
X273Y1425D02*
X284Y1425D01*
X361Y1425D02*
X368Y1425D01*
X391Y1425D02*
X398Y1425D01*
X417Y1425D02*
X425Y1425D01*
X435Y1425D02*
X453Y1425D01*
X472Y1425D02*
X480Y1425D01*
X490Y1425D02*
X508Y1425D01*
X527Y1425D02*
X537Y1425D01*
X552Y1425D02*
X561Y1425D01*
X585Y1425D02*
X591Y1425D01*
X636Y1425D02*
X651Y1425D01*
X662Y1425D02*
X672Y1425D01*
X692Y1425D02*
X700Y1425D01*
X710Y1425D02*
X728Y1425D01*
X747Y1425D02*
X755Y1425D01*
X803Y1425D02*
X812Y1425D01*
X823Y1425D02*
X838Y1425D01*
X858Y1425D02*
X867Y1425D01*
X882Y1425D02*
X891Y1425D01*
X912Y1425D02*
X920Y1425D01*
X929Y1425D02*
X948Y1425D01*
X1021Y1425D02*
X1028Y1425D01*
X1052Y1425D02*
X1059Y1425D01*
X1076Y1425D02*
X1083Y1425D01*
X1107Y1425D02*
X1114Y1425D01*
X1131Y1425D02*
X1138Y1425D01*
X1162Y1425D02*
X1169Y1425D01*
X39Y1424D02*
X50Y1424D01*
X61Y1424D02*
X68Y1424D01*
X86Y1424D02*
X93Y1424D01*
X116Y1424D02*
X122Y1424D01*
X197Y1424D02*
X205Y1424D01*
X223Y1424D02*
X232Y1424D01*
X274Y1424D02*
X285Y1424D01*
X361Y1424D02*
X368Y1424D01*
X391Y1424D02*
X398Y1424D01*
X417Y1424D02*
X424Y1424D01*
X436Y1424D02*
X453Y1424D01*
X472Y1424D02*
X479Y1424D01*
X491Y1424D02*
X508Y1424D01*
X527Y1424D02*
X536Y1424D01*
X553Y1424D02*
X562Y1424D01*
X585Y1424D02*
X591Y1424D01*
X636Y1424D02*
X650Y1424D01*
X663Y1424D02*
X672Y1424D01*
X692Y1424D02*
X699Y1424D01*
X711Y1424D02*
X728Y1424D01*
X747Y1424D02*
X754Y1424D01*
X802Y1424D02*
X811Y1424D01*
X824Y1424D02*
X838Y1424D01*
X857Y1424D02*
X866Y1424D01*
X883Y1424D02*
X892Y1424D01*
X911Y1424D02*
X919Y1424D01*
X931Y1424D02*
X948Y1424D01*
X1021Y1424D02*
X1028Y1424D01*
X1052Y1424D02*
X1059Y1424D01*
X1076Y1424D02*
X1083Y1424D01*
X1107Y1424D02*
X1114Y1424D01*
X1131Y1424D02*
X1138Y1424D01*
X1162Y1424D02*
X1169Y1424D01*
X40Y1423D02*
X51Y1423D01*
X61Y1423D02*
X68Y1423D01*
X86Y1423D02*
X93Y1423D01*
X116Y1423D02*
X122Y1423D01*
X196Y1423D02*
X204Y1423D01*
X224Y1423D02*
X232Y1423D01*
X275Y1423D02*
X286Y1423D01*
X361Y1423D02*
X368Y1423D01*
X391Y1423D02*
X398Y1423D01*
X417Y1423D02*
X423Y1423D01*
X438Y1423D02*
X453Y1423D01*
X472Y1423D02*
X478Y1423D01*
X493Y1423D02*
X508Y1423D01*
X527Y1423D02*
X534Y1423D01*
X554Y1423D02*
X562Y1423D01*
X585Y1423D02*
X591Y1423D01*
X636Y1423D02*
X649Y1423D01*
X664Y1423D02*
X672Y1423D01*
X692Y1423D02*
X699Y1423D01*
X713Y1423D02*
X728Y1423D01*
X747Y1423D02*
X754Y1423D01*
X802Y1423D02*
X810Y1423D01*
X825Y1423D02*
X838Y1423D01*
X857Y1423D02*
X865Y1423D01*
X884Y1423D02*
X892Y1423D01*
X911Y1423D02*
X918Y1423D01*
X932Y1423D02*
X948Y1423D01*
X1021Y1423D02*
X1028Y1423D01*
X1052Y1423D02*
X1059Y1423D01*
X1076Y1423D02*
X1083Y1423D01*
X1107Y1423D02*
X1114Y1423D01*
X1131Y1423D02*
X1138Y1423D01*
X1162Y1423D02*
X1169Y1423D01*
X41Y1422D02*
X52Y1422D01*
X61Y1422D02*
X68Y1422D01*
X86Y1422D02*
X93Y1422D01*
X116Y1422D02*
X122Y1422D01*
X196Y1422D02*
X204Y1422D01*
X225Y1422D02*
X232Y1422D01*
X276Y1422D02*
X286Y1422D01*
X361Y1422D02*
X368Y1422D01*
X390Y1422D02*
X398Y1422D01*
X417Y1422D02*
X423Y1422D01*
X439Y1422D02*
X453Y1422D01*
X472Y1422D02*
X478Y1422D01*
X494Y1422D02*
X508Y1422D01*
X526Y1422D02*
X534Y1422D01*
X555Y1422D02*
X563Y1422D01*
X585Y1422D02*
X591Y1422D01*
X636Y1422D02*
X647Y1422D01*
X665Y1422D02*
X673Y1422D01*
X692Y1422D02*
X698Y1422D01*
X714Y1422D02*
X728Y1422D01*
X747Y1422D02*
X754Y1422D01*
X801Y1422D02*
X809Y1422D01*
X827Y1422D02*
X838Y1422D01*
X856Y1422D02*
X864Y1422D01*
X885Y1422D02*
X893Y1422D01*
X911Y1422D02*
X918Y1422D01*
X933Y1422D02*
X948Y1422D01*
X1021Y1422D02*
X1028Y1422D01*
X1052Y1422D02*
X1059Y1422D01*
X1076Y1422D02*
X1083Y1422D01*
X1107Y1422D02*
X1114Y1422D01*
X1131Y1422D02*
X1138Y1422D01*
X1162Y1422D02*
X1169Y1422D01*
X42Y1421D02*
X53Y1421D01*
X61Y1421D02*
X68Y1421D01*
X86Y1421D02*
X93Y1421D01*
X116Y1421D02*
X122Y1421D01*
X196Y1421D02*
X203Y1421D01*
X226Y1421D02*
X233Y1421D01*
X278Y1421D02*
X287Y1421D01*
X361Y1421D02*
X369Y1421D01*
X390Y1421D02*
X397Y1421D01*
X417Y1421D02*
X423Y1421D01*
X441Y1421D02*
X453Y1421D01*
X472Y1421D02*
X478Y1421D01*
X496Y1421D02*
X508Y1421D01*
X526Y1421D02*
X533Y1421D01*
X556Y1421D02*
X563Y1421D01*
X585Y1421D02*
X591Y1421D01*
X636Y1421D02*
X646Y1421D01*
X666Y1421D02*
X673Y1421D01*
X692Y1421D02*
X698Y1421D01*
X716Y1421D02*
X728Y1421D01*
X747Y1421D02*
X754Y1421D01*
X801Y1421D02*
X808Y1421D01*
X828Y1421D02*
X838Y1421D01*
X856Y1421D02*
X863Y1421D01*
X886Y1421D02*
X893Y1421D01*
X911Y1421D02*
X918Y1421D01*
X934Y1421D02*
X948Y1421D01*
X1021Y1421D02*
X1028Y1421D01*
X1052Y1421D02*
X1059Y1421D01*
X1076Y1421D02*
X1083Y1421D01*
X1107Y1421D02*
X1114Y1421D01*
X1131Y1421D02*
X1138Y1421D01*
X1162Y1421D02*
X1169Y1421D01*
X44Y1420D02*
X54Y1420D01*
X61Y1420D02*
X68Y1420D01*
X86Y1420D02*
X93Y1420D01*
X116Y1420D02*
X122Y1420D01*
X196Y1420D02*
X203Y1420D01*
X226Y1420D02*
X233Y1420D01*
X279Y1420D02*
X287Y1420D01*
X362Y1420D02*
X369Y1420D01*
X389Y1420D02*
X397Y1420D01*
X417Y1420D02*
X423Y1420D01*
X442Y1420D02*
X453Y1420D01*
X472Y1420D02*
X478Y1420D01*
X497Y1420D02*
X508Y1420D01*
X526Y1420D02*
X533Y1420D01*
X556Y1420D02*
X563Y1420D01*
X585Y1420D02*
X591Y1420D01*
X636Y1420D02*
X645Y1420D01*
X666Y1420D02*
X673Y1420D01*
X692Y1420D02*
X698Y1420D01*
X718Y1420D02*
X728Y1420D01*
X747Y1420D02*
X754Y1420D01*
X801Y1420D02*
X808Y1420D01*
X829Y1420D02*
X838Y1420D01*
X856Y1420D02*
X863Y1420D01*
X886Y1420D02*
X893Y1420D01*
X911Y1420D02*
X918Y1420D01*
X935Y1420D02*
X948Y1420D01*
X1021Y1420D02*
X1028Y1420D01*
X1039Y1420D02*
X1041Y1420D01*
X1052Y1420D02*
X1059Y1420D01*
X1076Y1420D02*
X1083Y1420D01*
X1094Y1420D02*
X1096Y1420D01*
X1107Y1420D02*
X1114Y1420D01*
X1131Y1420D02*
X1138Y1420D01*
X1149Y1420D02*
X1151Y1420D01*
X1162Y1420D02*
X1169Y1420D01*
X45Y1419D02*
X56Y1419D01*
X61Y1419D02*
X68Y1419D01*
X86Y1419D02*
X93Y1419D01*
X116Y1419D02*
X122Y1419D01*
X196Y1419D02*
X203Y1419D01*
X226Y1419D02*
X233Y1419D01*
X280Y1419D02*
X287Y1419D01*
X362Y1419D02*
X370Y1419D01*
X389Y1419D02*
X396Y1419D01*
X417Y1419D02*
X423Y1419D01*
X444Y1419D02*
X453Y1419D01*
X472Y1419D02*
X478Y1419D01*
X499Y1419D02*
X508Y1419D01*
X526Y1419D02*
X533Y1419D01*
X556Y1419D02*
X563Y1419D01*
X585Y1419D02*
X591Y1419D01*
X636Y1419D02*
X644Y1419D01*
X666Y1419D02*
X673Y1419D01*
X692Y1419D02*
X698Y1419D01*
X719Y1419D02*
X728Y1419D01*
X747Y1419D02*
X754Y1419D01*
X801Y1419D02*
X808Y1419D01*
X830Y1419D02*
X838Y1419D01*
X856Y1419D02*
X863Y1419D01*
X886Y1419D02*
X893Y1419D01*
X911Y1419D02*
X918Y1419D01*
X936Y1419D02*
X948Y1419D01*
X1021Y1419D02*
X1028Y1419D01*
X1037Y1419D02*
X1042Y1419D01*
X1052Y1419D02*
X1059Y1419D01*
X1076Y1419D02*
X1083Y1419D01*
X1092Y1419D02*
X1097Y1419D01*
X1107Y1419D02*
X1114Y1419D01*
X1131Y1419D02*
X1138Y1419D01*
X1147Y1419D02*
X1152Y1419D01*
X1162Y1419D02*
X1169Y1419D01*
X46Y1418D02*
X57Y1418D01*
X61Y1418D02*
X68Y1418D01*
X86Y1418D02*
X93Y1418D01*
X116Y1418D02*
X122Y1418D01*
X196Y1418D02*
X203Y1418D01*
X226Y1418D02*
X233Y1418D01*
X281Y1418D02*
X288Y1418D01*
X363Y1418D02*
X370Y1418D01*
X389Y1418D02*
X396Y1418D01*
X417Y1418D02*
X423Y1418D01*
X446Y1418D02*
X453Y1418D01*
X472Y1418D02*
X478Y1418D01*
X501Y1418D02*
X508Y1418D01*
X526Y1418D02*
X533Y1418D01*
X556Y1418D02*
X563Y1418D01*
X585Y1418D02*
X591Y1418D01*
X636Y1418D02*
X643Y1418D01*
X666Y1418D02*
X673Y1418D01*
X692Y1418D02*
X698Y1418D01*
X721Y1418D02*
X728Y1418D01*
X747Y1418D02*
X754Y1418D01*
X801Y1418D02*
X808Y1418D01*
X831Y1418D02*
X838Y1418D01*
X856Y1418D02*
X863Y1418D01*
X886Y1418D02*
X893Y1418D01*
X912Y1418D02*
X917Y1418D01*
X938Y1418D02*
X948Y1418D01*
X1021Y1418D02*
X1028Y1418D01*
X1037Y1418D02*
X1043Y1418D01*
X1052Y1418D02*
X1059Y1418D01*
X1076Y1418D02*
X1083Y1418D01*
X1092Y1418D02*
X1098Y1418D01*
X1107Y1418D02*
X1114Y1418D01*
X1131Y1418D02*
X1138Y1418D01*
X1147Y1418D02*
X1153Y1418D01*
X1162Y1418D02*
X1169Y1418D01*
X47Y1417D02*
X58Y1417D01*
X61Y1417D02*
X68Y1417D01*
X86Y1417D02*
X93Y1417D01*
X116Y1417D02*
X122Y1417D01*
X196Y1417D02*
X203Y1417D01*
X226Y1417D02*
X233Y1417D01*
X281Y1417D02*
X288Y1417D01*
X363Y1417D02*
X371Y1417D01*
X388Y1417D02*
X396Y1417D01*
X417Y1417D02*
X423Y1417D01*
X446Y1417D02*
X453Y1417D01*
X472Y1417D02*
X478Y1417D01*
X501Y1417D02*
X508Y1417D01*
X526Y1417D02*
X533Y1417D01*
X556Y1417D02*
X563Y1417D01*
X585Y1417D02*
X591Y1417D01*
X636Y1417D02*
X643Y1417D01*
X666Y1417D02*
X673Y1417D01*
X692Y1417D02*
X698Y1417D01*
X721Y1417D02*
X728Y1417D01*
X747Y1417D02*
X754Y1417D01*
X756Y1417D02*
X774Y1417D01*
X801Y1417D02*
X808Y1417D01*
X831Y1417D02*
X838Y1417D01*
X856Y1417D02*
X863Y1417D01*
X886Y1417D02*
X893Y1417D01*
X912Y1417D02*
X917Y1417D01*
X939Y1417D02*
X948Y1417D01*
X1021Y1417D02*
X1028Y1417D01*
X1036Y1417D02*
X1043Y1417D01*
X1052Y1417D02*
X1059Y1417D01*
X1076Y1417D02*
X1083Y1417D01*
X1091Y1417D02*
X1098Y1417D01*
X1107Y1417D02*
X1114Y1417D01*
X1131Y1417D02*
X1138Y1417D01*
X1146Y1417D02*
X1153Y1417D01*
X1162Y1417D02*
X1169Y1417D01*
X48Y1416D02*
X59Y1416D01*
X61Y1416D02*
X68Y1416D01*
X86Y1416D02*
X93Y1416D01*
X116Y1416D02*
X122Y1416D01*
X196Y1416D02*
X203Y1416D01*
X226Y1416D02*
X233Y1416D01*
X281Y1416D02*
X288Y1416D01*
X364Y1416D02*
X371Y1416D01*
X388Y1416D02*
X395Y1416D01*
X417Y1416D02*
X423Y1416D01*
X446Y1416D02*
X453Y1416D01*
X472Y1416D02*
X478Y1416D01*
X501Y1416D02*
X508Y1416D01*
X526Y1416D02*
X533Y1416D01*
X556Y1416D02*
X563Y1416D01*
X585Y1416D02*
X591Y1416D01*
X636Y1416D02*
X643Y1416D01*
X666Y1416D02*
X673Y1416D01*
X692Y1416D02*
X698Y1416D01*
X721Y1416D02*
X728Y1416D01*
X747Y1416D02*
X777Y1416D01*
X801Y1416D02*
X808Y1416D01*
X831Y1416D02*
X838Y1416D01*
X856Y1416D02*
X863Y1416D01*
X886Y1416D02*
X893Y1416D01*
X940Y1416D02*
X948Y1416D01*
X1021Y1416D02*
X1028Y1416D01*
X1036Y1416D02*
X1043Y1416D01*
X1052Y1416D02*
X1059Y1416D01*
X1076Y1416D02*
X1083Y1416D01*
X1091Y1416D02*
X1098Y1416D01*
X1107Y1416D02*
X1114Y1416D01*
X1131Y1416D02*
X1138Y1416D01*
X1146Y1416D02*
X1153Y1416D01*
X1162Y1416D02*
X1169Y1416D01*
X49Y1415D02*
X68Y1415D01*
X86Y1415D02*
X93Y1415D01*
X116Y1415D02*
X122Y1415D01*
X196Y1415D02*
X203Y1415D01*
X226Y1415D02*
X233Y1415D01*
X281Y1415D02*
X288Y1415D01*
X364Y1415D02*
X372Y1415D01*
X387Y1415D02*
X395Y1415D01*
X417Y1415D02*
X423Y1415D01*
X446Y1415D02*
X453Y1415D01*
X472Y1415D02*
X478Y1415D01*
X501Y1415D02*
X508Y1415D01*
X526Y1415D02*
X533Y1415D01*
X556Y1415D02*
X563Y1415D01*
X585Y1415D02*
X591Y1415D01*
X636Y1415D02*
X643Y1415D01*
X666Y1415D02*
X673Y1415D01*
X692Y1415D02*
X698Y1415D01*
X721Y1415D02*
X728Y1415D01*
X747Y1415D02*
X778Y1415D01*
X801Y1415D02*
X808Y1415D01*
X831Y1415D02*
X838Y1415D01*
X856Y1415D02*
X863Y1415D01*
X886Y1415D02*
X893Y1415D01*
X941Y1415D02*
X948Y1415D01*
X1021Y1415D02*
X1028Y1415D01*
X1036Y1415D02*
X1043Y1415D01*
X1052Y1415D02*
X1059Y1415D01*
X1076Y1415D02*
X1083Y1415D01*
X1091Y1415D02*
X1098Y1415D01*
X1107Y1415D02*
X1114Y1415D01*
X1131Y1415D02*
X1138Y1415D01*
X1146Y1415D02*
X1153Y1415D01*
X1162Y1415D02*
X1169Y1415D01*
X51Y1414D02*
X68Y1414D01*
X86Y1414D02*
X93Y1414D01*
X116Y1414D02*
X122Y1414D01*
X196Y1414D02*
X203Y1414D01*
X226Y1414D02*
X233Y1414D01*
X281Y1414D02*
X288Y1414D01*
X365Y1414D02*
X372Y1414D01*
X387Y1414D02*
X394Y1414D01*
X417Y1414D02*
X423Y1414D01*
X446Y1414D02*
X453Y1414D01*
X472Y1414D02*
X478Y1414D01*
X501Y1414D02*
X508Y1414D01*
X526Y1414D02*
X533Y1414D01*
X556Y1414D02*
X563Y1414D01*
X585Y1414D02*
X591Y1414D01*
X636Y1414D02*
X643Y1414D01*
X666Y1414D02*
X673Y1414D01*
X692Y1414D02*
X698Y1414D01*
X721Y1414D02*
X728Y1414D01*
X747Y1414D02*
X779Y1414D01*
X801Y1414D02*
X808Y1414D01*
X831Y1414D02*
X838Y1414D01*
X856Y1414D02*
X863Y1414D01*
X886Y1414D02*
X893Y1414D01*
X941Y1414D02*
X948Y1414D01*
X1021Y1414D02*
X1028Y1414D01*
X1036Y1414D02*
X1043Y1414D01*
X1052Y1414D02*
X1059Y1414D01*
X1076Y1414D02*
X1083Y1414D01*
X1091Y1414D02*
X1098Y1414D01*
X1107Y1414D02*
X1114Y1414D01*
X1131Y1414D02*
X1138Y1414D01*
X1146Y1414D02*
X1153Y1414D01*
X1162Y1414D02*
X1169Y1414D01*
X51Y1413D02*
X68Y1413D01*
X86Y1413D02*
X93Y1413D01*
X116Y1413D02*
X122Y1413D01*
X154Y1413D02*
X165Y1413D01*
X196Y1413D02*
X203Y1413D01*
X226Y1413D02*
X233Y1413D01*
X281Y1413D02*
X288Y1413D01*
X319Y1413D02*
X330Y1413D01*
X365Y1413D02*
X372Y1413D01*
X386Y1413D02*
X394Y1413D01*
X417Y1413D02*
X423Y1413D01*
X446Y1413D02*
X453Y1413D01*
X472Y1413D02*
X478Y1413D01*
X501Y1413D02*
X508Y1413D01*
X526Y1413D02*
X563Y1413D01*
X585Y1413D02*
X591Y1413D01*
X636Y1413D02*
X643Y1413D01*
X666Y1413D02*
X673Y1413D01*
X692Y1413D02*
X698Y1413D01*
X721Y1413D02*
X728Y1413D01*
X747Y1413D02*
X780Y1413D01*
X801Y1413D02*
X808Y1413D01*
X831Y1413D02*
X838Y1413D01*
X856Y1413D02*
X863Y1413D01*
X886Y1413D02*
X893Y1413D01*
X941Y1413D02*
X948Y1413D01*
X979Y1413D02*
X990Y1413D01*
X1021Y1413D02*
X1028Y1413D01*
X1036Y1413D02*
X1043Y1413D01*
X1052Y1413D02*
X1059Y1413D01*
X1076Y1413D02*
X1083Y1413D01*
X1091Y1413D02*
X1098Y1413D01*
X1107Y1413D02*
X1114Y1413D01*
X1131Y1413D02*
X1138Y1413D01*
X1146Y1413D02*
X1153Y1413D01*
X1162Y1413D02*
X1169Y1413D01*
X50Y1412D02*
X68Y1412D01*
X86Y1412D02*
X93Y1412D01*
X116Y1412D02*
X122Y1412D01*
X153Y1412D02*
X166Y1412D01*
X196Y1412D02*
X203Y1412D01*
X226Y1412D02*
X233Y1412D01*
X281Y1412D02*
X288Y1412D01*
X318Y1412D02*
X331Y1412D01*
X365Y1412D02*
X373Y1412D01*
X386Y1412D02*
X393Y1412D01*
X417Y1412D02*
X423Y1412D01*
X446Y1412D02*
X453Y1412D01*
X472Y1412D02*
X478Y1412D01*
X501Y1412D02*
X508Y1412D01*
X526Y1412D02*
X563Y1412D01*
X585Y1412D02*
X591Y1412D01*
X636Y1412D02*
X643Y1412D01*
X666Y1412D02*
X673Y1412D01*
X692Y1412D02*
X698Y1412D01*
X721Y1412D02*
X728Y1412D01*
X747Y1412D02*
X781Y1412D01*
X801Y1412D02*
X808Y1412D01*
X831Y1412D02*
X838Y1412D01*
X856Y1412D02*
X863Y1412D01*
X886Y1412D02*
X893Y1412D01*
X941Y1412D02*
X948Y1412D01*
X978Y1412D02*
X991Y1412D01*
X1021Y1412D02*
X1028Y1412D01*
X1036Y1412D02*
X1043Y1412D01*
X1052Y1412D02*
X1059Y1412D01*
X1076Y1412D02*
X1083Y1412D01*
X1091Y1412D02*
X1098Y1412D01*
X1107Y1412D02*
X1114Y1412D01*
X1131Y1412D02*
X1138Y1412D01*
X1146Y1412D02*
X1153Y1412D01*
X1162Y1412D02*
X1169Y1412D01*
X49Y1411D02*
X68Y1411D01*
X86Y1411D02*
X93Y1411D01*
X116Y1411D02*
X122Y1411D01*
X152Y1411D02*
X166Y1411D01*
X196Y1411D02*
X203Y1411D01*
X226Y1411D02*
X233Y1411D01*
X281Y1411D02*
X288Y1411D01*
X317Y1411D02*
X331Y1411D01*
X366Y1411D02*
X373Y1411D01*
X386Y1411D02*
X393Y1411D01*
X417Y1411D02*
X423Y1411D01*
X446Y1411D02*
X453Y1411D01*
X472Y1411D02*
X478Y1411D01*
X501Y1411D02*
X508Y1411D01*
X526Y1411D02*
X563Y1411D01*
X585Y1411D02*
X591Y1411D01*
X636Y1411D02*
X643Y1411D01*
X666Y1411D02*
X673Y1411D01*
X692Y1411D02*
X698Y1411D01*
X721Y1411D02*
X728Y1411D01*
X747Y1411D02*
X782Y1411D01*
X801Y1411D02*
X808Y1411D01*
X831Y1411D02*
X838Y1411D01*
X856Y1411D02*
X863Y1411D01*
X886Y1411D02*
X893Y1411D01*
X941Y1411D02*
X948Y1411D01*
X978Y1411D02*
X992Y1411D01*
X1021Y1411D02*
X1028Y1411D01*
X1036Y1411D02*
X1043Y1411D01*
X1052Y1411D02*
X1059Y1411D01*
X1076Y1411D02*
X1083Y1411D01*
X1091Y1411D02*
X1098Y1411D01*
X1107Y1411D02*
X1114Y1411D01*
X1131Y1411D02*
X1138Y1411D01*
X1146Y1411D02*
X1153Y1411D01*
X1162Y1411D02*
X1169Y1411D01*
X48Y1410D02*
X68Y1410D01*
X86Y1410D02*
X93Y1410D01*
X116Y1410D02*
X122Y1410D01*
X152Y1410D02*
X166Y1410D01*
X196Y1410D02*
X203Y1410D01*
X226Y1410D02*
X233Y1410D01*
X281Y1410D02*
X288Y1410D01*
X317Y1410D02*
X332Y1410D01*
X366Y1410D02*
X374Y1410D01*
X385Y1410D02*
X392Y1410D01*
X417Y1410D02*
X423Y1410D01*
X446Y1410D02*
X453Y1410D01*
X472Y1410D02*
X478Y1410D01*
X501Y1410D02*
X508Y1410D01*
X526Y1410D02*
X563Y1410D01*
X585Y1410D02*
X591Y1410D01*
X636Y1410D02*
X643Y1410D01*
X666Y1410D02*
X673Y1410D01*
X692Y1410D02*
X698Y1410D01*
X721Y1410D02*
X728Y1410D01*
X747Y1410D02*
X782Y1410D01*
X801Y1410D02*
X808Y1410D01*
X831Y1410D02*
X838Y1410D01*
X856Y1410D02*
X863Y1410D01*
X886Y1410D02*
X893Y1410D01*
X941Y1410D02*
X948Y1410D01*
X978Y1410D02*
X992Y1410D01*
X1021Y1410D02*
X1028Y1410D01*
X1036Y1410D02*
X1043Y1410D01*
X1052Y1410D02*
X1059Y1410D01*
X1076Y1410D02*
X1083Y1410D01*
X1091Y1410D02*
X1098Y1410D01*
X1107Y1410D02*
X1114Y1410D01*
X1131Y1410D02*
X1138Y1410D01*
X1146Y1410D02*
X1153Y1410D01*
X1162Y1410D02*
X1169Y1410D01*
X46Y1409D02*
X68Y1409D01*
X86Y1409D02*
X93Y1409D01*
X116Y1409D02*
X122Y1409D01*
X152Y1409D02*
X166Y1409D01*
X196Y1409D02*
X203Y1409D01*
X226Y1409D02*
X233Y1409D01*
X281Y1409D02*
X288Y1409D01*
X317Y1409D02*
X332Y1409D01*
X367Y1409D02*
X374Y1409D01*
X385Y1409D02*
X392Y1409D01*
X417Y1409D02*
X423Y1409D01*
X446Y1409D02*
X453Y1409D01*
X472Y1409D02*
X478Y1409D01*
X501Y1409D02*
X508Y1409D01*
X526Y1409D02*
X563Y1409D01*
X585Y1409D02*
X591Y1409D01*
X636Y1409D02*
X643Y1409D01*
X666Y1409D02*
X673Y1409D01*
X692Y1409D02*
X698Y1409D01*
X721Y1409D02*
X728Y1409D01*
X747Y1409D02*
X755Y1409D01*
X774Y1409D02*
X782Y1409D01*
X801Y1409D02*
X808Y1409D01*
X831Y1409D02*
X838Y1409D01*
X856Y1409D02*
X863Y1409D01*
X886Y1409D02*
X893Y1409D01*
X941Y1409D02*
X948Y1409D01*
X978Y1409D02*
X992Y1409D01*
X1021Y1409D02*
X1028Y1409D01*
X1036Y1409D02*
X1043Y1409D01*
X1052Y1409D02*
X1059Y1409D01*
X1076Y1409D02*
X1083Y1409D01*
X1091Y1409D02*
X1098Y1409D01*
X1107Y1409D02*
X1114Y1409D01*
X1131Y1409D02*
X1138Y1409D01*
X1146Y1409D02*
X1153Y1409D01*
X1162Y1409D02*
X1169Y1409D01*
X45Y1408D02*
X56Y1408D01*
X58Y1408D02*
X68Y1408D01*
X86Y1408D02*
X93Y1408D01*
X116Y1408D02*
X122Y1408D01*
X152Y1408D02*
X166Y1408D01*
X196Y1408D02*
X203Y1408D01*
X226Y1408D02*
X233Y1408D01*
X281Y1408D02*
X288Y1408D01*
X317Y1408D02*
X332Y1408D01*
X367Y1408D02*
X375Y1408D01*
X384Y1408D02*
X392Y1408D01*
X417Y1408D02*
X423Y1408D01*
X446Y1408D02*
X453Y1408D01*
X472Y1408D02*
X478Y1408D01*
X501Y1408D02*
X508Y1408D01*
X527Y1408D02*
X563Y1408D01*
X585Y1408D02*
X591Y1408D01*
X636Y1408D02*
X643Y1408D01*
X666Y1408D02*
X673Y1408D01*
X692Y1408D02*
X698Y1408D01*
X721Y1408D02*
X728Y1408D01*
X747Y1408D02*
X754Y1408D01*
X775Y1408D02*
X783Y1408D01*
X801Y1408D02*
X808Y1408D01*
X831Y1408D02*
X838Y1408D01*
X856Y1408D02*
X863Y1408D01*
X886Y1408D02*
X893Y1408D01*
X941Y1408D02*
X948Y1408D01*
X978Y1408D02*
X992Y1408D01*
X1021Y1408D02*
X1028Y1408D01*
X1036Y1408D02*
X1043Y1408D01*
X1052Y1408D02*
X1059Y1408D01*
X1076Y1408D02*
X1083Y1408D01*
X1091Y1408D02*
X1098Y1408D01*
X1107Y1408D02*
X1114Y1408D01*
X1131Y1408D02*
X1138Y1408D01*
X1146Y1408D02*
X1153Y1408D01*
X1162Y1408D02*
X1169Y1408D01*
X44Y1407D02*
X55Y1407D01*
X59Y1407D02*
X68Y1407D01*
X86Y1407D02*
X93Y1407D01*
X116Y1407D02*
X122Y1407D01*
X152Y1407D02*
X166Y1407D01*
X196Y1407D02*
X203Y1407D01*
X226Y1407D02*
X233Y1407D01*
X281Y1407D02*
X288Y1407D01*
X317Y1407D02*
X332Y1407D01*
X368Y1407D02*
X375Y1407D01*
X384Y1407D02*
X391Y1407D01*
X417Y1407D02*
X423Y1407D01*
X446Y1407D02*
X453Y1407D01*
X472Y1407D02*
X478Y1407D01*
X501Y1407D02*
X508Y1407D01*
X528Y1407D02*
X563Y1407D01*
X585Y1407D02*
X591Y1407D01*
X636Y1407D02*
X643Y1407D01*
X666Y1407D02*
X673Y1407D01*
X692Y1407D02*
X698Y1407D01*
X721Y1407D02*
X728Y1407D01*
X747Y1407D02*
X753Y1407D01*
X776Y1407D02*
X783Y1407D01*
X801Y1407D02*
X808Y1407D01*
X831Y1407D02*
X838Y1407D01*
X856Y1407D02*
X863Y1407D01*
X886Y1407D02*
X893Y1407D01*
X941Y1407D02*
X948Y1407D01*
X978Y1407D02*
X992Y1407D01*
X1021Y1407D02*
X1028Y1407D01*
X1036Y1407D02*
X1044Y1407D01*
X1052Y1407D02*
X1059Y1407D01*
X1076Y1407D02*
X1083Y1407D01*
X1091Y1407D02*
X1099Y1407D01*
X1107Y1407D02*
X1114Y1407D01*
X1131Y1407D02*
X1138Y1407D01*
X1146Y1407D02*
X1154Y1407D01*
X1162Y1407D02*
X1169Y1407D01*
X43Y1406D02*
X54Y1406D01*
X60Y1406D02*
X68Y1406D01*
X86Y1406D02*
X93Y1406D01*
X116Y1406D02*
X122Y1406D01*
X152Y1406D02*
X166Y1406D01*
X196Y1406D02*
X203Y1406D01*
X226Y1406D02*
X233Y1406D01*
X281Y1406D02*
X288Y1406D01*
X317Y1406D02*
X332Y1406D01*
X368Y1406D02*
X376Y1406D01*
X383Y1406D02*
X391Y1406D01*
X417Y1406D02*
X423Y1406D01*
X446Y1406D02*
X453Y1406D01*
X472Y1406D02*
X478Y1406D01*
X501Y1406D02*
X508Y1406D01*
X556Y1406D02*
X563Y1406D01*
X585Y1406D02*
X591Y1406D01*
X636Y1406D02*
X643Y1406D01*
X666Y1406D02*
X673Y1406D01*
X692Y1406D02*
X698Y1406D01*
X721Y1406D02*
X728Y1406D01*
X747Y1406D02*
X753Y1406D01*
X776Y1406D02*
X783Y1406D01*
X801Y1406D02*
X808Y1406D01*
X831Y1406D02*
X838Y1406D01*
X856Y1406D02*
X863Y1406D01*
X886Y1406D02*
X893Y1406D01*
X941Y1406D02*
X948Y1406D01*
X978Y1406D02*
X992Y1406D01*
X1021Y1406D02*
X1028Y1406D01*
X1035Y1406D02*
X1044Y1406D01*
X1051Y1406D02*
X1058Y1406D01*
X1076Y1406D02*
X1083Y1406D01*
X1090Y1406D02*
X1099Y1406D01*
X1106Y1406D02*
X1113Y1406D01*
X1131Y1406D02*
X1138Y1406D01*
X1145Y1406D02*
X1154Y1406D01*
X1161Y1406D02*
X1168Y1406D01*
X42Y1405D02*
X53Y1405D01*
X61Y1405D02*
X68Y1405D01*
X86Y1405D02*
X94Y1405D01*
X116Y1405D02*
X122Y1405D01*
X152Y1405D02*
X166Y1405D01*
X196Y1405D02*
X203Y1405D01*
X226Y1405D02*
X233Y1405D01*
X280Y1405D02*
X288Y1405D01*
X317Y1405D02*
X332Y1405D01*
X368Y1405D02*
X376Y1405D01*
X383Y1405D02*
X390Y1405D01*
X417Y1405D02*
X423Y1405D01*
X446Y1405D02*
X453Y1405D01*
X472Y1405D02*
X478Y1405D01*
X501Y1405D02*
X508Y1405D01*
X556Y1405D02*
X563Y1405D01*
X585Y1405D02*
X591Y1405D01*
X636Y1405D02*
X644Y1405D01*
X666Y1405D02*
X673Y1405D01*
X692Y1405D02*
X698Y1405D01*
X721Y1405D02*
X728Y1405D01*
X747Y1405D02*
X753Y1405D01*
X776Y1405D02*
X783Y1405D01*
X801Y1405D02*
X808Y1405D01*
X831Y1405D02*
X838Y1405D01*
X856Y1405D02*
X863Y1405D01*
X886Y1405D02*
X893Y1405D01*
X941Y1405D02*
X948Y1405D01*
X978Y1405D02*
X992Y1405D01*
X1021Y1405D02*
X1028Y1405D01*
X1035Y1405D02*
X1045Y1405D01*
X1051Y1405D02*
X1058Y1405D01*
X1076Y1405D02*
X1083Y1405D01*
X1090Y1405D02*
X1100Y1405D01*
X1106Y1405D02*
X1113Y1405D01*
X1131Y1405D02*
X1138Y1405D01*
X1145Y1405D02*
X1155Y1405D01*
X1161Y1405D02*
X1168Y1405D01*
X41Y1404D02*
X51Y1404D01*
X61Y1404D02*
X68Y1404D01*
X86Y1404D02*
X95Y1404D01*
X116Y1404D02*
X122Y1404D01*
X152Y1404D02*
X166Y1404D01*
X196Y1404D02*
X203Y1404D01*
X226Y1404D02*
X233Y1404D01*
X280Y1404D02*
X287Y1404D01*
X317Y1404D02*
X332Y1404D01*
X369Y1404D02*
X376Y1404D01*
X382Y1404D02*
X390Y1404D01*
X417Y1404D02*
X423Y1404D01*
X446Y1404D02*
X453Y1404D01*
X472Y1404D02*
X478Y1404D01*
X501Y1404D02*
X508Y1404D01*
X556Y1404D02*
X563Y1404D01*
X585Y1404D02*
X591Y1404D01*
X636Y1404D02*
X644Y1404D01*
X666Y1404D02*
X673Y1404D01*
X692Y1404D02*
X698Y1404D01*
X721Y1404D02*
X728Y1404D01*
X747Y1404D02*
X753Y1404D01*
X776Y1404D02*
X783Y1404D01*
X801Y1404D02*
X808Y1404D01*
X830Y1404D02*
X838Y1404D01*
X856Y1404D02*
X863Y1404D01*
X886Y1404D02*
X893Y1404D01*
X941Y1404D02*
X948Y1404D01*
X978Y1404D02*
X992Y1404D01*
X1021Y1404D02*
X1029Y1404D01*
X1034Y1404D02*
X1045Y1404D01*
X1051Y1404D02*
X1058Y1404D01*
X1076Y1404D02*
X1084Y1404D01*
X1089Y1404D02*
X1100Y1404D01*
X1106Y1404D02*
X1113Y1404D01*
X1131Y1404D02*
X1139Y1404D01*
X1144Y1404D02*
X1155Y1404D01*
X1161Y1404D02*
X1168Y1404D01*
X39Y1403D02*
X50Y1403D01*
X61Y1403D02*
X68Y1403D01*
X86Y1403D02*
X97Y1403D01*
X116Y1403D02*
X122Y1403D01*
X152Y1403D02*
X166Y1403D01*
X196Y1403D02*
X203Y1403D01*
X226Y1403D02*
X233Y1403D01*
X278Y1403D02*
X287Y1403D01*
X317Y1403D02*
X331Y1403D01*
X369Y1403D02*
X377Y1403D01*
X382Y1403D02*
X389Y1403D01*
X417Y1403D02*
X423Y1403D01*
X446Y1403D02*
X453Y1403D01*
X472Y1403D02*
X478Y1403D01*
X501Y1403D02*
X508Y1403D01*
X556Y1403D02*
X563Y1403D01*
X585Y1403D02*
X591Y1403D01*
X636Y1403D02*
X646Y1403D01*
X666Y1403D02*
X673Y1403D01*
X692Y1403D02*
X698Y1403D01*
X721Y1403D02*
X728Y1403D01*
X747Y1403D02*
X753Y1403D01*
X776Y1403D02*
X783Y1403D01*
X801Y1403D02*
X808Y1403D01*
X829Y1403D02*
X838Y1403D01*
X856Y1403D02*
X863Y1403D01*
X886Y1403D02*
X893Y1403D01*
X941Y1403D02*
X948Y1403D01*
X978Y1403D02*
X992Y1403D01*
X1022Y1403D02*
X1029Y1403D01*
X1034Y1403D02*
X1046Y1403D01*
X1050Y1403D02*
X1057Y1403D01*
X1077Y1403D02*
X1084Y1403D01*
X1089Y1403D02*
X1101Y1403D01*
X1105Y1403D02*
X1113Y1403D01*
X1132Y1403D02*
X1139Y1403D01*
X1144Y1403D02*
X1156Y1403D01*
X1160Y1403D02*
X1168Y1403D01*
X38Y1402D02*
X49Y1402D01*
X61Y1402D02*
X68Y1402D01*
X86Y1402D02*
X98Y1402D01*
X116Y1402D02*
X122Y1402D01*
X153Y1402D02*
X166Y1402D01*
X196Y1402D02*
X203Y1402D01*
X225Y1402D02*
X233Y1402D01*
X277Y1402D02*
X287Y1402D01*
X318Y1402D02*
X331Y1402D01*
X370Y1402D02*
X377Y1402D01*
X382Y1402D02*
X389Y1402D01*
X417Y1402D02*
X423Y1402D01*
X446Y1402D02*
X453Y1402D01*
X472Y1402D02*
X478Y1402D01*
X501Y1402D02*
X508Y1402D01*
X556Y1402D02*
X563Y1402D01*
X585Y1402D02*
X591Y1402D01*
X636Y1402D02*
X647Y1402D01*
X666Y1402D02*
X673Y1402D01*
X692Y1402D02*
X698Y1402D01*
X721Y1402D02*
X728Y1402D01*
X747Y1402D02*
X754Y1402D01*
X776Y1402D02*
X783Y1402D01*
X801Y1402D02*
X808Y1402D01*
X827Y1402D02*
X838Y1402D01*
X856Y1402D02*
X863Y1402D01*
X886Y1402D02*
X893Y1402D01*
X941Y1402D02*
X948Y1402D01*
X978Y1402D02*
X991Y1402D01*
X1022Y1402D02*
X1029Y1402D01*
X1033Y1402D02*
X1046Y1402D01*
X1050Y1402D02*
X1057Y1402D01*
X1077Y1402D02*
X1084Y1402D01*
X1088Y1402D02*
X1101Y1402D01*
X1105Y1402D02*
X1112Y1402D01*
X1132Y1402D02*
X1139Y1402D01*
X1143Y1402D02*
X1156Y1402D01*
X1160Y1402D02*
X1167Y1402D01*
X37Y1401D02*
X48Y1401D01*
X61Y1401D02*
X68Y1401D01*
X86Y1401D02*
X100Y1401D01*
X116Y1401D02*
X122Y1401D01*
X153Y1401D02*
X165Y1401D01*
X196Y1401D02*
X204Y1401D01*
X225Y1401D02*
X232Y1401D01*
X276Y1401D02*
X286Y1401D01*
X318Y1401D02*
X330Y1401D01*
X370Y1401D02*
X378Y1401D01*
X381Y1401D02*
X389Y1401D01*
X417Y1401D02*
X423Y1401D01*
X446Y1401D02*
X453Y1401D01*
X472Y1401D02*
X478Y1401D01*
X501Y1401D02*
X508Y1401D01*
X555Y1401D02*
X563Y1401D01*
X585Y1401D02*
X591Y1401D01*
X636Y1401D02*
X648Y1401D01*
X665Y1401D02*
X673Y1401D01*
X692Y1401D02*
X698Y1401D01*
X721Y1401D02*
X728Y1401D01*
X747Y1401D02*
X756Y1401D01*
X776Y1401D02*
X783Y1401D01*
X801Y1401D02*
X809Y1401D01*
X826Y1401D02*
X838Y1401D01*
X856Y1401D02*
X864Y1401D01*
X885Y1401D02*
X893Y1401D01*
X941Y1401D02*
X948Y1401D01*
X979Y1401D02*
X991Y1401D01*
X1022Y1401D02*
X1030Y1401D01*
X1032Y1401D02*
X1047Y1401D01*
X1050Y1401D02*
X1057Y1401D01*
X1077Y1401D02*
X1085Y1401D01*
X1087Y1401D02*
X1102Y1401D01*
X1105Y1401D02*
X1112Y1401D01*
X1132Y1401D02*
X1140Y1401D01*
X1142Y1401D02*
X1157Y1401D01*
X1160Y1401D02*
X1167Y1401D01*
X36Y1400D02*
X47Y1400D01*
X61Y1400D02*
X68Y1400D01*
X86Y1400D02*
X101Y1400D01*
X115Y1400D02*
X122Y1400D01*
X155Y1400D02*
X164Y1400D01*
X197Y1400D02*
X205Y1400D01*
X224Y1400D02*
X232Y1400D01*
X275Y1400D02*
X285Y1400D01*
X320Y1400D02*
X329Y1400D01*
X371Y1400D02*
X388Y1400D01*
X417Y1400D02*
X423Y1400D01*
X446Y1400D02*
X453Y1400D01*
X472Y1400D02*
X478Y1400D01*
X501Y1400D02*
X508Y1400D01*
X554Y1400D02*
X562Y1400D01*
X585Y1400D02*
X591Y1400D01*
X636Y1400D02*
X649Y1400D01*
X664Y1400D02*
X672Y1400D01*
X692Y1400D02*
X698Y1400D01*
X721Y1400D02*
X728Y1400D01*
X747Y1400D02*
X758Y1400D01*
X776Y1400D02*
X783Y1400D01*
X802Y1400D02*
X810Y1400D01*
X825Y1400D02*
X838Y1400D01*
X857Y1400D02*
X865Y1400D01*
X884Y1400D02*
X892Y1400D01*
X941Y1400D02*
X948Y1400D01*
X980Y1400D02*
X989Y1400D01*
X1023Y1400D02*
X1030Y1400D01*
X1032Y1400D02*
X1057Y1400D01*
X1078Y1400D02*
X1085Y1400D01*
X1087Y1400D02*
X1112Y1400D01*
X1133Y1400D02*
X1140Y1400D01*
X1142Y1400D02*
X1167Y1400D01*
X35Y1399D02*
X46Y1399D01*
X61Y1399D02*
X68Y1399D01*
X86Y1399D02*
X103Y1399D01*
X115Y1399D02*
X122Y1399D01*
X197Y1399D02*
X206Y1399D01*
X222Y1399D02*
X232Y1399D01*
X274Y1399D02*
X284Y1399D01*
X371Y1399D02*
X388Y1399D01*
X417Y1399D02*
X423Y1399D01*
X446Y1399D02*
X453Y1399D01*
X472Y1399D02*
X478Y1399D01*
X501Y1399D02*
X508Y1399D01*
X553Y1399D02*
X562Y1399D01*
X585Y1399D02*
X591Y1399D01*
X636Y1399D02*
X650Y1399D01*
X663Y1399D02*
X672Y1399D01*
X692Y1399D02*
X698Y1399D01*
X721Y1399D02*
X728Y1399D01*
X747Y1399D02*
X759Y1399D01*
X775Y1399D02*
X783Y1399D01*
X802Y1399D02*
X811Y1399D01*
X824Y1399D02*
X838Y1399D01*
X857Y1399D02*
X866Y1399D01*
X883Y1399D02*
X892Y1399D01*
X941Y1399D02*
X948Y1399D01*
X1023Y1399D02*
X1056Y1399D01*
X1078Y1399D02*
X1111Y1399D01*
X1133Y1399D02*
X1166Y1399D01*
X33Y1398D02*
X44Y1398D01*
X61Y1398D02*
X68Y1398D01*
X86Y1398D02*
X105Y1398D01*
X113Y1398D02*
X122Y1398D01*
X198Y1398D02*
X208Y1398D01*
X221Y1398D02*
X231Y1398D01*
X272Y1398D02*
X283Y1398D01*
X372Y1398D02*
X387Y1398D01*
X417Y1398D02*
X423Y1398D01*
X446Y1398D02*
X453Y1398D01*
X472Y1398D02*
X478Y1398D01*
X501Y1398D02*
X508Y1398D01*
X551Y1398D02*
X561Y1398D01*
X585Y1398D02*
X591Y1398D01*
X636Y1398D02*
X652Y1398D01*
X661Y1398D02*
X671Y1398D01*
X692Y1398D02*
X698Y1398D01*
X721Y1398D02*
X728Y1398D01*
X747Y1398D02*
X761Y1398D01*
X774Y1398D02*
X782Y1398D01*
X803Y1398D02*
X813Y1398D01*
X822Y1398D02*
X838Y1398D01*
X858Y1398D02*
X868Y1398D01*
X881Y1398D02*
X891Y1398D01*
X941Y1398D02*
X948Y1398D01*
X1023Y1398D02*
X1038Y1398D01*
X1041Y1398D02*
X1056Y1398D01*
X1078Y1398D02*
X1093Y1398D01*
X1096Y1398D02*
X1111Y1398D01*
X1133Y1398D02*
X1148Y1398D01*
X1151Y1398D02*
X1166Y1398D01*
X32Y1397D02*
X43Y1397D01*
X61Y1397D02*
X68Y1397D01*
X86Y1397D02*
X121Y1397D01*
X198Y1397D02*
X231Y1397D01*
X253Y1397D02*
X282Y1397D01*
X372Y1397D02*
X387Y1397D01*
X417Y1397D02*
X423Y1397D01*
X446Y1397D02*
X453Y1397D01*
X472Y1397D02*
X478Y1397D01*
X501Y1397D02*
X508Y1397D01*
X528Y1397D02*
X561Y1397D01*
X585Y1397D02*
X591Y1397D01*
X636Y1397D02*
X671Y1397D01*
X692Y1397D02*
X698Y1397D01*
X721Y1397D02*
X728Y1397D01*
X747Y1397D02*
X782Y1397D01*
X804Y1397D02*
X838Y1397D01*
X859Y1397D02*
X891Y1397D01*
X941Y1397D02*
X948Y1397D01*
X1024Y1397D02*
X1038Y1397D01*
X1041Y1397D02*
X1056Y1397D01*
X1079Y1397D02*
X1093Y1397D01*
X1097Y1397D02*
X1111Y1397D01*
X1134Y1397D02*
X1148Y1397D01*
X1152Y1397D02*
X1166Y1397D01*
X31Y1396D02*
X42Y1396D01*
X61Y1396D02*
X68Y1396D01*
X86Y1396D02*
X121Y1396D01*
X199Y1396D02*
X230Y1396D01*
X252Y1396D02*
X281Y1396D01*
X372Y1396D02*
X386Y1396D01*
X417Y1396D02*
X423Y1396D01*
X446Y1396D02*
X453Y1396D01*
X472Y1396D02*
X478Y1396D01*
X501Y1396D02*
X508Y1396D01*
X527Y1396D02*
X560Y1396D01*
X585Y1396D02*
X591Y1396D01*
X636Y1396D02*
X670Y1396D01*
X692Y1396D02*
X698Y1396D01*
X721Y1396D02*
X728Y1396D01*
X747Y1396D02*
X782Y1396D01*
X804Y1396D02*
X838Y1396D01*
X859Y1396D02*
X890Y1396D01*
X941Y1396D02*
X948Y1396D01*
X1024Y1396D02*
X1037Y1396D01*
X1042Y1396D02*
X1055Y1396D01*
X1079Y1396D02*
X1092Y1396D01*
X1097Y1396D02*
X1110Y1396D01*
X1134Y1396D02*
X1147Y1396D01*
X1152Y1396D02*
X1166Y1396D01*
X31Y1395D02*
X41Y1395D01*
X61Y1395D02*
X68Y1395D01*
X86Y1395D02*
X93Y1395D01*
X96Y1395D02*
X120Y1395D01*
X200Y1395D02*
X229Y1395D01*
X251Y1395D02*
X280Y1395D01*
X373Y1395D02*
X386Y1395D01*
X417Y1395D02*
X423Y1395D01*
X446Y1395D02*
X453Y1395D01*
X472Y1395D02*
X478Y1395D01*
X501Y1395D02*
X508Y1395D01*
X526Y1395D02*
X559Y1395D01*
X585Y1395D02*
X591Y1395D01*
X636Y1395D02*
X669Y1395D01*
X692Y1395D02*
X698Y1395D01*
X721Y1395D02*
X728Y1395D01*
X747Y1395D02*
X781Y1395D01*
X805Y1395D02*
X838Y1395D01*
X860Y1395D02*
X889Y1395D01*
X941Y1395D02*
X948Y1395D01*
X1024Y1395D02*
X1037Y1395D01*
X1043Y1395D02*
X1055Y1395D01*
X1079Y1395D02*
X1092Y1395D01*
X1098Y1395D02*
X1110Y1395D01*
X1134Y1395D02*
X1147Y1395D01*
X1153Y1395D02*
X1165Y1395D01*
X31Y1394D02*
X40Y1394D01*
X61Y1394D02*
X68Y1394D01*
X86Y1394D02*
X92Y1394D01*
X98Y1394D02*
X119Y1394D01*
X201Y1394D02*
X227Y1394D01*
X251Y1394D02*
X279Y1394D01*
X373Y1394D02*
X385Y1394D01*
X417Y1394D02*
X423Y1394D01*
X446Y1394D02*
X453Y1394D01*
X472Y1394D02*
X478Y1394D01*
X501Y1394D02*
X508Y1394D01*
X526Y1394D02*
X558Y1394D01*
X585Y1394D02*
X591Y1394D01*
X636Y1394D02*
X643Y1394D01*
X645Y1394D02*
X668Y1394D01*
X692Y1394D02*
X698Y1394D01*
X721Y1394D02*
X728Y1394D01*
X747Y1394D02*
X780Y1394D01*
X807Y1394D02*
X829Y1394D01*
X831Y1394D02*
X838Y1394D01*
X862Y1394D02*
X888Y1394D01*
X941Y1394D02*
X948Y1394D01*
X1024Y1394D02*
X1036Y1394D01*
X1043Y1394D02*
X1055Y1394D01*
X1080Y1394D02*
X1091Y1394D01*
X1098Y1394D02*
X1110Y1394D01*
X1135Y1394D02*
X1146Y1394D01*
X1153Y1394D02*
X1165Y1394D01*
X31Y1393D02*
X39Y1393D01*
X61Y1393D02*
X68Y1393D01*
X86Y1393D02*
X92Y1393D01*
X99Y1393D02*
X118Y1393D01*
X202Y1393D02*
X226Y1393D01*
X251Y1393D02*
X277Y1393D01*
X374Y1393D02*
X381Y1393D01*
X417Y1393D02*
X423Y1393D01*
X446Y1393D02*
X453Y1393D01*
X472Y1393D02*
X478Y1393D01*
X501Y1393D02*
X508Y1393D01*
X526Y1393D02*
X556Y1393D01*
X585Y1393D02*
X591Y1393D01*
X636Y1393D02*
X643Y1393D01*
X646Y1393D02*
X666Y1393D01*
X692Y1393D02*
X698Y1393D01*
X721Y1393D02*
X728Y1393D01*
X747Y1393D02*
X753Y1393D01*
X755Y1393D02*
X779Y1393D01*
X808Y1393D02*
X828Y1393D01*
X832Y1393D02*
X838Y1393D01*
X863Y1393D02*
X886Y1393D01*
X942Y1393D02*
X948Y1393D01*
X1025Y1393D02*
X1035Y1393D01*
X1044Y1393D02*
X1055Y1393D01*
X1080Y1393D02*
X1091Y1393D01*
X1099Y1393D02*
X1110Y1393D01*
X1135Y1393D02*
X1146Y1393D01*
X1154Y1393D02*
X1165Y1393D01*
X31Y1392D02*
X37Y1392D01*
X62Y1392D02*
X67Y1392D01*
X86Y1392D02*
X92Y1392D01*
X101Y1392D02*
X117Y1392D01*
X204Y1392D02*
X225Y1392D01*
X251Y1392D02*
X276Y1392D01*
X374Y1392D02*
X382Y1392D01*
X417Y1392D02*
X423Y1392D01*
X447Y1392D02*
X452Y1392D01*
X472Y1392D02*
X478Y1392D01*
X502Y1392D02*
X507Y1392D01*
X527Y1392D02*
X555Y1392D01*
X585Y1392D02*
X591Y1392D01*
X637Y1392D02*
X642Y1392D01*
X648Y1392D02*
X665Y1392D01*
X692Y1392D02*
X698Y1392D01*
X722Y1392D02*
X727Y1392D01*
X747Y1392D02*
X752Y1392D01*
X757Y1392D02*
X778Y1392D01*
X809Y1392D02*
X826Y1392D01*
X832Y1392D02*
X837Y1392D01*
X864Y1392D02*
X885Y1392D01*
X942Y1392D02*
X947Y1392D01*
X1025Y1392D02*
X1035Y1392D01*
X1045Y1392D02*
X1054Y1392D01*
X1080Y1392D02*
X1090Y1392D01*
X1100Y1392D02*
X1109Y1392D01*
X1135Y1392D02*
X1145Y1392D01*
X1155Y1392D02*
X1164Y1392D01*
X32Y1391D02*
X36Y1391D01*
X62Y1391D02*
X66Y1391D01*
X87Y1391D02*
X91Y1391D01*
X103Y1391D02*
X115Y1391D01*
X206Y1391D02*
X223Y1391D01*
X252Y1391D02*
X274Y1391D01*
X375Y1391D02*
X382Y1391D01*
X418Y1391D02*
X422Y1391D01*
X448Y1391D02*
X451Y1391D01*
X473Y1391D02*
X477Y1391D01*
X503Y1391D02*
X506Y1391D01*
X527Y1391D02*
X553Y1391D01*
X585Y1391D02*
X591Y1391D01*
X638Y1391D02*
X641Y1391D01*
X650Y1391D02*
X663Y1391D01*
X693Y1391D02*
X697Y1391D01*
X723Y1391D02*
X727Y1391D01*
X748Y1391D02*
X751Y1391D01*
X759Y1391D02*
X776Y1391D01*
X811Y1391D02*
X824Y1391D01*
X833Y1391D02*
X837Y1391D01*
X866Y1391D02*
X883Y1391D01*
X943Y1391D02*
X947Y1391D01*
X1026Y1391D02*
X1034Y1391D01*
X1045Y1391D02*
X1053Y1391D01*
X1081Y1391D02*
X1089Y1391D01*
X1101Y1391D02*
X1108Y1391D01*
X1136Y1391D02*
X1144Y1391D01*
X1156Y1391D02*
X1163Y1391D01*
X375Y1390D02*
X383Y1390D01*
X585Y1390D02*
X591Y1390D01*
X375Y1389D02*
X383Y1389D01*
X585Y1389D02*
X591Y1389D01*
X376Y1388D02*
X383Y1388D01*
X585Y1388D02*
X591Y1388D01*
X611Y1388D02*
X611Y1388D01*
X376Y1387D02*
X384Y1387D01*
X585Y1387D02*
X591Y1387D01*
X609Y1387D02*
X613Y1387D01*
X377Y1386D02*
X384Y1386D01*
X585Y1386D02*
X591Y1386D01*
X608Y1386D02*
X614Y1386D01*
X377Y1385D02*
X385Y1385D01*
X585Y1385D02*
X591Y1385D01*
X608Y1385D02*
X614Y1385D01*
X378Y1384D02*
X385Y1384D01*
X585Y1384D02*
X592Y1384D01*
X607Y1384D02*
X614Y1384D01*
X378Y1383D02*
X386Y1383D01*
X585Y1383D02*
X592Y1383D01*
X607Y1383D02*
X614Y1383D01*
X379Y1382D02*
X386Y1382D01*
X585Y1382D02*
X594Y1382D01*
X605Y1382D02*
X614Y1382D01*
X379Y1381D02*
X396Y1381D01*
X586Y1381D02*
X613Y1381D01*
X379Y1380D02*
X397Y1380D01*
X586Y1380D02*
X613Y1380D01*
X380Y1379D02*
X398Y1379D01*
X587Y1379D02*
X612Y1379D01*
X380Y1378D02*
X398Y1378D01*
X588Y1378D02*
X612Y1378D01*
X381Y1377D02*
X398Y1377D01*
X589Y1377D02*
X611Y1377D01*
X381Y1376D02*
X397Y1376D01*
X590Y1376D02*
X609Y1376D01*
X382Y1375D02*
X397Y1375D01*
X592Y1375D02*
X607Y1375D01*
X384Y1374D02*
X394Y1374D01*
X596Y1374D02*
X603Y1374D01*
D02*
G04 End of Copper0*
M02*