; NON-PLATED HOLES START AT T1
; THROUGH (PLATED) HOLES START AT T100
M48
INCH
T100C0.046111
T101C0.015748
T102C0.030556
T103C0.023622
T104C0.035000
T105C0.040000
%
T100
X001576Y011351
X001576Y008351
X001576Y009351
X001576Y010351
T101
X008744Y001552
T102
X001858Y002092
X001859Y003090
X001859Y001091
T103
X004238Y007510
X005793Y007478
X007349Y012088
X008155Y007431
X005781Y012068
X004261Y012077
X008804Y007461
X010486Y004235
X006564Y007430
X006380Y005552
X006601Y012057
X003410Y012042
X005012Y012059
X009486Y004235
X011486Y004235
X008380Y005552
X008156Y012090
X007380Y005552
X008935Y012098
X005002Y007523
X007383Y007457
T104
X007993Y003042
X007993Y004042
T105
X011310Y001002
X010310Y001002
X006321Y002996
X006321Y004096
T00
M30
