G04 MADE WITH FRITZING*
G04 WWW.FRITZING.ORG*
G04 DOUBLE SIDED*
G04 HOLES PLATED*
G04 CONTOUR ON CENTER OF CONTOUR VECTOR*
%ASAXBY*%
%FSLAX23Y23*%
%MOIN*%
%OFA0B0*%
%SFA1.0B1.0*%
%ADD10C,0.013889*%
%ADD11R,0.001000X0.001000*%
%LNSILK0*%
G90*
G70*
G54D10*
X337Y688D02*
X34Y688D01*
D02*
X34Y688D02*
X34Y1282D01*
D02*
X337Y1282D02*
X223Y1282D01*
D02*
X147Y1282D02*
X34Y1282D01*
G54D11*
X0Y1492D02*
X1203Y1492D01*
X0Y1491D02*
X1203Y1491D01*
X0Y1490D02*
X1203Y1490D01*
X0Y1489D02*
X1203Y1489D01*
X0Y1488D02*
X1203Y1488D01*
X0Y1487D02*
X1203Y1487D01*
X0Y1486D02*
X1203Y1486D01*
X0Y1485D02*
X1203Y1485D01*
X0Y1484D02*
X7Y1484D01*
X1196Y1484D02*
X1203Y1484D01*
X0Y1483D02*
X7Y1483D01*
X1196Y1483D02*
X1203Y1483D01*
X0Y1482D02*
X7Y1482D01*
X1196Y1482D02*
X1203Y1482D01*
X0Y1481D02*
X7Y1481D01*
X1196Y1481D02*
X1203Y1481D01*
X0Y1480D02*
X7Y1480D01*
X1196Y1480D02*
X1203Y1480D01*
X0Y1479D02*
X7Y1479D01*
X1196Y1479D02*
X1203Y1479D01*
X0Y1478D02*
X7Y1478D01*
X1196Y1478D02*
X1203Y1478D01*
X0Y1477D02*
X7Y1477D01*
X1196Y1477D02*
X1203Y1477D01*
X0Y1476D02*
X7Y1476D01*
X1196Y1476D02*
X1203Y1476D01*
X0Y1475D02*
X7Y1475D01*
X1196Y1475D02*
X1203Y1475D01*
X0Y1474D02*
X7Y1474D01*
X1196Y1474D02*
X1203Y1474D01*
X0Y1473D02*
X7Y1473D01*
X1196Y1473D02*
X1203Y1473D01*
X0Y1472D02*
X7Y1472D01*
X1196Y1472D02*
X1203Y1472D01*
X0Y1471D02*
X7Y1471D01*
X1196Y1471D02*
X1203Y1471D01*
X0Y1470D02*
X7Y1470D01*
X1196Y1470D02*
X1203Y1470D01*
X0Y1469D02*
X7Y1469D01*
X1196Y1469D02*
X1203Y1469D01*
X0Y1468D02*
X7Y1468D01*
X1196Y1468D02*
X1203Y1468D01*
X0Y1467D02*
X7Y1467D01*
X1196Y1467D02*
X1203Y1467D01*
X0Y1466D02*
X7Y1466D01*
X1196Y1466D02*
X1203Y1466D01*
X0Y1465D02*
X7Y1465D01*
X1196Y1465D02*
X1203Y1465D01*
X0Y1464D02*
X7Y1464D01*
X1196Y1464D02*
X1203Y1464D01*
X0Y1463D02*
X7Y1463D01*
X1196Y1463D02*
X1203Y1463D01*
X0Y1462D02*
X7Y1462D01*
X1196Y1462D02*
X1203Y1462D01*
X0Y1461D02*
X7Y1461D01*
X1196Y1461D02*
X1203Y1461D01*
X0Y1460D02*
X7Y1460D01*
X1196Y1460D02*
X1203Y1460D01*
X0Y1459D02*
X7Y1459D01*
X1196Y1459D02*
X1203Y1459D01*
X0Y1458D02*
X7Y1458D01*
X1196Y1458D02*
X1203Y1458D01*
X0Y1457D02*
X7Y1457D01*
X1196Y1457D02*
X1203Y1457D01*
X0Y1456D02*
X7Y1456D01*
X1196Y1456D02*
X1203Y1456D01*
X0Y1455D02*
X7Y1455D01*
X1196Y1455D02*
X1203Y1455D01*
X0Y1454D02*
X7Y1454D01*
X1196Y1454D02*
X1203Y1454D01*
X0Y1453D02*
X7Y1453D01*
X1196Y1453D02*
X1203Y1453D01*
X0Y1452D02*
X7Y1452D01*
X1196Y1452D02*
X1203Y1452D01*
X0Y1451D02*
X7Y1451D01*
X1196Y1451D02*
X1203Y1451D01*
X0Y1450D02*
X7Y1450D01*
X1196Y1450D02*
X1203Y1450D01*
X0Y1449D02*
X7Y1449D01*
X1196Y1449D02*
X1203Y1449D01*
X0Y1448D02*
X7Y1448D01*
X1196Y1448D02*
X1203Y1448D01*
X0Y1447D02*
X7Y1447D01*
X1196Y1447D02*
X1203Y1447D01*
X0Y1446D02*
X7Y1446D01*
X1196Y1446D02*
X1203Y1446D01*
X0Y1445D02*
X7Y1445D01*
X1196Y1445D02*
X1203Y1445D01*
X0Y1444D02*
X7Y1444D01*
X1196Y1444D02*
X1203Y1444D01*
X0Y1443D02*
X7Y1443D01*
X1196Y1443D02*
X1203Y1443D01*
X0Y1442D02*
X7Y1442D01*
X1196Y1442D02*
X1203Y1442D01*
X0Y1441D02*
X7Y1441D01*
X1196Y1441D02*
X1203Y1441D01*
X0Y1440D02*
X7Y1440D01*
X1196Y1440D02*
X1203Y1440D01*
X0Y1439D02*
X7Y1439D01*
X1196Y1439D02*
X1203Y1439D01*
X0Y1438D02*
X7Y1438D01*
X1196Y1438D02*
X1203Y1438D01*
X0Y1437D02*
X7Y1437D01*
X1196Y1437D02*
X1203Y1437D01*
X0Y1436D02*
X7Y1436D01*
X1196Y1436D02*
X1203Y1436D01*
X0Y1435D02*
X7Y1435D01*
X1196Y1435D02*
X1203Y1435D01*
X0Y1434D02*
X7Y1434D01*
X1196Y1434D02*
X1203Y1434D01*
X0Y1433D02*
X7Y1433D01*
X1196Y1433D02*
X1203Y1433D01*
X0Y1432D02*
X7Y1432D01*
X1196Y1432D02*
X1203Y1432D01*
X0Y1431D02*
X7Y1431D01*
X1196Y1431D02*
X1203Y1431D01*
X0Y1430D02*
X7Y1430D01*
X1196Y1430D02*
X1203Y1430D01*
X0Y1429D02*
X7Y1429D01*
X1196Y1429D02*
X1203Y1429D01*
X0Y1428D02*
X7Y1428D01*
X1196Y1428D02*
X1203Y1428D01*
X0Y1427D02*
X7Y1427D01*
X1196Y1427D02*
X1203Y1427D01*
X0Y1426D02*
X7Y1426D01*
X1196Y1426D02*
X1203Y1426D01*
X0Y1425D02*
X7Y1425D01*
X1196Y1425D02*
X1203Y1425D01*
X0Y1424D02*
X7Y1424D01*
X1196Y1424D02*
X1203Y1424D01*
X0Y1423D02*
X7Y1423D01*
X1196Y1423D02*
X1203Y1423D01*
X0Y1422D02*
X7Y1422D01*
X1196Y1422D02*
X1203Y1422D01*
X0Y1421D02*
X7Y1421D01*
X1196Y1421D02*
X1203Y1421D01*
X0Y1420D02*
X7Y1420D01*
X1196Y1420D02*
X1203Y1420D01*
X0Y1419D02*
X7Y1419D01*
X1196Y1419D02*
X1203Y1419D01*
X0Y1418D02*
X7Y1418D01*
X1196Y1418D02*
X1203Y1418D01*
X0Y1417D02*
X7Y1417D01*
X1196Y1417D02*
X1203Y1417D01*
X0Y1416D02*
X7Y1416D01*
X1196Y1416D02*
X1203Y1416D01*
X0Y1415D02*
X7Y1415D01*
X1196Y1415D02*
X1203Y1415D01*
X0Y1414D02*
X7Y1414D01*
X1196Y1414D02*
X1203Y1414D01*
X0Y1413D02*
X7Y1413D01*
X1196Y1413D02*
X1203Y1413D01*
X0Y1412D02*
X7Y1412D01*
X1196Y1412D02*
X1203Y1412D01*
X0Y1411D02*
X7Y1411D01*
X1196Y1411D02*
X1203Y1411D01*
X0Y1410D02*
X7Y1410D01*
X1196Y1410D02*
X1203Y1410D01*
X0Y1409D02*
X7Y1409D01*
X1196Y1409D02*
X1203Y1409D01*
X0Y1408D02*
X7Y1408D01*
X1196Y1408D02*
X1203Y1408D01*
X0Y1407D02*
X7Y1407D01*
X1196Y1407D02*
X1203Y1407D01*
X0Y1406D02*
X7Y1406D01*
X1196Y1406D02*
X1203Y1406D01*
X0Y1405D02*
X7Y1405D01*
X1196Y1405D02*
X1203Y1405D01*
X0Y1404D02*
X7Y1404D01*
X1196Y1404D02*
X1203Y1404D01*
X0Y1403D02*
X7Y1403D01*
X1196Y1403D02*
X1203Y1403D01*
X0Y1402D02*
X7Y1402D01*
X1196Y1402D02*
X1203Y1402D01*
X0Y1401D02*
X7Y1401D01*
X1196Y1401D02*
X1203Y1401D01*
X0Y1400D02*
X7Y1400D01*
X1196Y1400D02*
X1203Y1400D01*
X0Y1399D02*
X7Y1399D01*
X1196Y1399D02*
X1203Y1399D01*
X0Y1398D02*
X7Y1398D01*
X1196Y1398D02*
X1203Y1398D01*
X0Y1397D02*
X7Y1397D01*
X1196Y1397D02*
X1203Y1397D01*
X0Y1396D02*
X7Y1396D01*
X1196Y1396D02*
X1203Y1396D01*
X0Y1395D02*
X7Y1395D01*
X1196Y1395D02*
X1203Y1395D01*
X0Y1394D02*
X7Y1394D01*
X1196Y1394D02*
X1203Y1394D01*
X0Y1393D02*
X7Y1393D01*
X1196Y1393D02*
X1203Y1393D01*
X0Y1392D02*
X7Y1392D01*
X1196Y1392D02*
X1203Y1392D01*
X0Y1391D02*
X7Y1391D01*
X1196Y1391D02*
X1203Y1391D01*
X0Y1390D02*
X7Y1390D01*
X1196Y1390D02*
X1203Y1390D01*
X0Y1389D02*
X7Y1389D01*
X1196Y1389D02*
X1203Y1389D01*
X0Y1388D02*
X7Y1388D01*
X1196Y1388D02*
X1203Y1388D01*
X0Y1387D02*
X7Y1387D01*
X1196Y1387D02*
X1203Y1387D01*
X0Y1386D02*
X7Y1386D01*
X1196Y1386D02*
X1203Y1386D01*
X0Y1385D02*
X7Y1385D01*
X1196Y1385D02*
X1203Y1385D01*
X0Y1384D02*
X7Y1384D01*
X1196Y1384D02*
X1203Y1384D01*
X0Y1383D02*
X7Y1383D01*
X1196Y1383D02*
X1203Y1383D01*
X0Y1382D02*
X7Y1382D01*
X1196Y1382D02*
X1203Y1382D01*
X0Y1381D02*
X7Y1381D01*
X1196Y1381D02*
X1203Y1381D01*
X0Y1380D02*
X7Y1380D01*
X1196Y1380D02*
X1203Y1380D01*
X0Y1379D02*
X7Y1379D01*
X1196Y1379D02*
X1203Y1379D01*
X0Y1378D02*
X7Y1378D01*
X1196Y1378D02*
X1203Y1378D01*
X0Y1377D02*
X7Y1377D01*
X1196Y1377D02*
X1203Y1377D01*
X0Y1376D02*
X7Y1376D01*
X1196Y1376D02*
X1203Y1376D01*
X0Y1375D02*
X7Y1375D01*
X1196Y1375D02*
X1203Y1375D01*
X0Y1374D02*
X7Y1374D01*
X1196Y1374D02*
X1203Y1374D01*
X0Y1373D02*
X7Y1373D01*
X1196Y1373D02*
X1203Y1373D01*
X0Y1372D02*
X7Y1372D01*
X1196Y1372D02*
X1203Y1372D01*
X0Y1371D02*
X7Y1371D01*
X1196Y1371D02*
X1203Y1371D01*
X0Y1370D02*
X7Y1370D01*
X1196Y1370D02*
X1203Y1370D01*
X0Y1369D02*
X7Y1369D01*
X1196Y1369D02*
X1203Y1369D01*
X0Y1368D02*
X7Y1368D01*
X1196Y1368D02*
X1203Y1368D01*
X0Y1367D02*
X7Y1367D01*
X1196Y1367D02*
X1203Y1367D01*
X0Y1366D02*
X7Y1366D01*
X1196Y1366D02*
X1203Y1366D01*
X0Y1365D02*
X7Y1365D01*
X1196Y1365D02*
X1203Y1365D01*
X0Y1364D02*
X7Y1364D01*
X1196Y1364D02*
X1203Y1364D01*
X0Y1363D02*
X7Y1363D01*
X1196Y1363D02*
X1203Y1363D01*
X0Y1362D02*
X7Y1362D01*
X1196Y1362D02*
X1203Y1362D01*
X0Y1361D02*
X7Y1361D01*
X1196Y1361D02*
X1203Y1361D01*
X0Y1360D02*
X7Y1360D01*
X1196Y1360D02*
X1203Y1360D01*
X0Y1359D02*
X7Y1359D01*
X1196Y1359D02*
X1203Y1359D01*
X0Y1358D02*
X7Y1358D01*
X1196Y1358D02*
X1203Y1358D01*
X0Y1357D02*
X7Y1357D01*
X1196Y1357D02*
X1203Y1357D01*
X0Y1356D02*
X7Y1356D01*
X1196Y1356D02*
X1203Y1356D01*
X0Y1355D02*
X7Y1355D01*
X1196Y1355D02*
X1203Y1355D01*
X0Y1354D02*
X7Y1354D01*
X1196Y1354D02*
X1203Y1354D01*
X0Y1353D02*
X7Y1353D01*
X1196Y1353D02*
X1203Y1353D01*
X0Y1352D02*
X7Y1352D01*
X1196Y1352D02*
X1203Y1352D01*
X0Y1351D02*
X7Y1351D01*
X1196Y1351D02*
X1203Y1351D01*
X0Y1350D02*
X7Y1350D01*
X1196Y1350D02*
X1203Y1350D01*
X0Y1349D02*
X7Y1349D01*
X1196Y1349D02*
X1203Y1349D01*
X0Y1348D02*
X7Y1348D01*
X1196Y1348D02*
X1203Y1348D01*
X0Y1347D02*
X7Y1347D01*
X1196Y1347D02*
X1203Y1347D01*
X0Y1346D02*
X7Y1346D01*
X1196Y1346D02*
X1203Y1346D01*
X0Y1345D02*
X7Y1345D01*
X1196Y1345D02*
X1203Y1345D01*
X0Y1344D02*
X7Y1344D01*
X1196Y1344D02*
X1203Y1344D01*
X0Y1343D02*
X7Y1343D01*
X1196Y1343D02*
X1203Y1343D01*
X0Y1342D02*
X7Y1342D01*
X1196Y1342D02*
X1203Y1342D01*
X0Y1341D02*
X7Y1341D01*
X1196Y1341D02*
X1203Y1341D01*
X0Y1340D02*
X7Y1340D01*
X1196Y1340D02*
X1203Y1340D01*
X0Y1339D02*
X7Y1339D01*
X1196Y1339D02*
X1203Y1339D01*
X0Y1338D02*
X7Y1338D01*
X1196Y1338D02*
X1203Y1338D01*
X0Y1337D02*
X7Y1337D01*
X1196Y1337D02*
X1203Y1337D01*
X0Y1336D02*
X7Y1336D01*
X1196Y1336D02*
X1203Y1336D01*
X0Y1335D02*
X7Y1335D01*
X1196Y1335D02*
X1203Y1335D01*
X0Y1334D02*
X7Y1334D01*
X1196Y1334D02*
X1203Y1334D01*
X0Y1333D02*
X7Y1333D01*
X1196Y1333D02*
X1203Y1333D01*
X0Y1332D02*
X7Y1332D01*
X1196Y1332D02*
X1203Y1332D01*
X0Y1331D02*
X7Y1331D01*
X1196Y1331D02*
X1203Y1331D01*
X0Y1330D02*
X7Y1330D01*
X1196Y1330D02*
X1203Y1330D01*
X0Y1329D02*
X7Y1329D01*
X1196Y1329D02*
X1203Y1329D01*
X0Y1328D02*
X7Y1328D01*
X1196Y1328D02*
X1203Y1328D01*
X0Y1327D02*
X7Y1327D01*
X1196Y1327D02*
X1203Y1327D01*
X0Y1326D02*
X7Y1326D01*
X1196Y1326D02*
X1203Y1326D01*
X0Y1325D02*
X7Y1325D01*
X1196Y1325D02*
X1203Y1325D01*
X0Y1324D02*
X7Y1324D01*
X1196Y1324D02*
X1203Y1324D01*
X0Y1323D02*
X7Y1323D01*
X1196Y1323D02*
X1203Y1323D01*
X0Y1322D02*
X7Y1322D01*
X1196Y1322D02*
X1203Y1322D01*
X0Y1321D02*
X7Y1321D01*
X1196Y1321D02*
X1203Y1321D01*
X0Y1320D02*
X7Y1320D01*
X1196Y1320D02*
X1203Y1320D01*
X0Y1319D02*
X7Y1319D01*
X1196Y1319D02*
X1203Y1319D01*
X0Y1318D02*
X7Y1318D01*
X1196Y1318D02*
X1203Y1318D01*
X0Y1317D02*
X7Y1317D01*
X1196Y1317D02*
X1203Y1317D01*
X0Y1316D02*
X7Y1316D01*
X1196Y1316D02*
X1203Y1316D01*
X0Y1315D02*
X7Y1315D01*
X1196Y1315D02*
X1203Y1315D01*
X0Y1314D02*
X7Y1314D01*
X1196Y1314D02*
X1203Y1314D01*
X0Y1313D02*
X7Y1313D01*
X1196Y1313D02*
X1203Y1313D01*
X0Y1312D02*
X7Y1312D01*
X1196Y1312D02*
X1203Y1312D01*
X0Y1311D02*
X7Y1311D01*
X1196Y1311D02*
X1203Y1311D01*
X0Y1310D02*
X7Y1310D01*
X1196Y1310D02*
X1203Y1310D01*
X0Y1309D02*
X7Y1309D01*
X1196Y1309D02*
X1203Y1309D01*
X0Y1308D02*
X7Y1308D01*
X1196Y1308D02*
X1203Y1308D01*
X0Y1307D02*
X7Y1307D01*
X1196Y1307D02*
X1203Y1307D01*
X0Y1306D02*
X7Y1306D01*
X1196Y1306D02*
X1203Y1306D01*
X0Y1305D02*
X7Y1305D01*
X1196Y1305D02*
X1203Y1305D01*
X0Y1304D02*
X7Y1304D01*
X1196Y1304D02*
X1203Y1304D01*
X0Y1303D02*
X7Y1303D01*
X1196Y1303D02*
X1203Y1303D01*
X0Y1302D02*
X7Y1302D01*
X1196Y1302D02*
X1203Y1302D01*
X0Y1301D02*
X7Y1301D01*
X1196Y1301D02*
X1203Y1301D01*
X0Y1300D02*
X7Y1300D01*
X1196Y1300D02*
X1203Y1300D01*
X0Y1299D02*
X7Y1299D01*
X1196Y1299D02*
X1203Y1299D01*
X0Y1298D02*
X7Y1298D01*
X1196Y1298D02*
X1203Y1298D01*
X0Y1297D02*
X7Y1297D01*
X1196Y1297D02*
X1203Y1297D01*
X0Y1296D02*
X7Y1296D01*
X1196Y1296D02*
X1203Y1296D01*
X0Y1295D02*
X7Y1295D01*
X1196Y1295D02*
X1203Y1295D01*
X0Y1294D02*
X7Y1294D01*
X1196Y1294D02*
X1203Y1294D01*
X0Y1293D02*
X7Y1293D01*
X1196Y1293D02*
X1203Y1293D01*
X0Y1292D02*
X7Y1292D01*
X1196Y1292D02*
X1203Y1292D01*
X0Y1291D02*
X7Y1291D01*
X1196Y1291D02*
X1203Y1291D01*
X0Y1290D02*
X7Y1290D01*
X1196Y1290D02*
X1203Y1290D01*
X0Y1289D02*
X7Y1289D01*
X1196Y1289D02*
X1203Y1289D01*
X0Y1288D02*
X7Y1288D01*
X1196Y1288D02*
X1203Y1288D01*
X0Y1287D02*
X7Y1287D01*
X1196Y1287D02*
X1203Y1287D01*
X0Y1286D02*
X7Y1286D01*
X1196Y1286D02*
X1203Y1286D01*
X0Y1285D02*
X7Y1285D01*
X1196Y1285D02*
X1203Y1285D01*
X0Y1284D02*
X7Y1284D01*
X1196Y1284D02*
X1203Y1284D01*
X0Y1283D02*
X7Y1283D01*
X330Y1283D02*
X343Y1283D01*
X1196Y1283D02*
X1203Y1283D01*
X0Y1282D02*
X7Y1282D01*
X330Y1282D02*
X343Y1282D01*
X1196Y1282D02*
X1203Y1282D01*
X0Y1281D02*
X7Y1281D01*
X330Y1281D02*
X343Y1281D01*
X1196Y1281D02*
X1203Y1281D01*
X0Y1280D02*
X7Y1280D01*
X330Y1280D02*
X343Y1280D01*
X1196Y1280D02*
X1203Y1280D01*
X0Y1279D02*
X7Y1279D01*
X330Y1279D02*
X343Y1279D01*
X1196Y1279D02*
X1203Y1279D01*
X0Y1278D02*
X7Y1278D01*
X330Y1278D02*
X343Y1278D01*
X1196Y1278D02*
X1203Y1278D01*
X0Y1277D02*
X7Y1277D01*
X330Y1277D02*
X343Y1277D01*
X1196Y1277D02*
X1203Y1277D01*
X0Y1276D02*
X7Y1276D01*
X330Y1276D02*
X343Y1276D01*
X1196Y1276D02*
X1203Y1276D01*
X0Y1275D02*
X7Y1275D01*
X330Y1275D02*
X343Y1275D01*
X1196Y1275D02*
X1203Y1275D01*
X0Y1274D02*
X7Y1274D01*
X330Y1274D02*
X343Y1274D01*
X1196Y1274D02*
X1203Y1274D01*
X0Y1273D02*
X7Y1273D01*
X330Y1273D02*
X343Y1273D01*
X1196Y1273D02*
X1203Y1273D01*
X0Y1272D02*
X7Y1272D01*
X330Y1272D02*
X343Y1272D01*
X1196Y1272D02*
X1203Y1272D01*
X0Y1271D02*
X7Y1271D01*
X330Y1271D02*
X343Y1271D01*
X1196Y1271D02*
X1203Y1271D01*
X0Y1270D02*
X7Y1270D01*
X330Y1270D02*
X343Y1270D01*
X1196Y1270D02*
X1203Y1270D01*
X0Y1269D02*
X7Y1269D01*
X330Y1269D02*
X343Y1269D01*
X1196Y1269D02*
X1203Y1269D01*
X0Y1268D02*
X7Y1268D01*
X330Y1268D02*
X343Y1268D01*
X1196Y1268D02*
X1203Y1268D01*
X0Y1267D02*
X7Y1267D01*
X330Y1267D02*
X343Y1267D01*
X1196Y1267D02*
X1203Y1267D01*
X0Y1266D02*
X7Y1266D01*
X330Y1266D02*
X343Y1266D01*
X1196Y1266D02*
X1203Y1266D01*
X0Y1265D02*
X7Y1265D01*
X330Y1265D02*
X343Y1265D01*
X1196Y1265D02*
X1203Y1265D01*
X0Y1264D02*
X7Y1264D01*
X330Y1264D02*
X343Y1264D01*
X1196Y1264D02*
X1203Y1264D01*
X0Y1263D02*
X7Y1263D01*
X330Y1263D02*
X343Y1263D01*
X1196Y1263D02*
X1203Y1263D01*
X0Y1262D02*
X7Y1262D01*
X330Y1262D02*
X343Y1262D01*
X1196Y1262D02*
X1203Y1262D01*
X0Y1261D02*
X7Y1261D01*
X330Y1261D02*
X343Y1261D01*
X1196Y1261D02*
X1203Y1261D01*
X0Y1260D02*
X7Y1260D01*
X330Y1260D02*
X343Y1260D01*
X1196Y1260D02*
X1203Y1260D01*
X0Y1259D02*
X7Y1259D01*
X330Y1259D02*
X343Y1259D01*
X1196Y1259D02*
X1203Y1259D01*
X0Y1258D02*
X7Y1258D01*
X330Y1258D02*
X343Y1258D01*
X1196Y1258D02*
X1203Y1258D01*
X0Y1257D02*
X7Y1257D01*
X330Y1257D02*
X343Y1257D01*
X1196Y1257D02*
X1203Y1257D01*
X0Y1256D02*
X7Y1256D01*
X330Y1256D02*
X343Y1256D01*
X1196Y1256D02*
X1203Y1256D01*
X0Y1255D02*
X7Y1255D01*
X330Y1255D02*
X343Y1255D01*
X1196Y1255D02*
X1203Y1255D01*
X0Y1254D02*
X7Y1254D01*
X330Y1254D02*
X343Y1254D01*
X1196Y1254D02*
X1203Y1254D01*
X0Y1253D02*
X7Y1253D01*
X330Y1253D02*
X343Y1253D01*
X1196Y1253D02*
X1203Y1253D01*
X0Y1252D02*
X7Y1252D01*
X330Y1252D02*
X343Y1252D01*
X1196Y1252D02*
X1203Y1252D01*
X0Y1251D02*
X7Y1251D01*
X330Y1251D02*
X343Y1251D01*
X1196Y1251D02*
X1203Y1251D01*
X0Y1250D02*
X7Y1250D01*
X330Y1250D02*
X343Y1250D01*
X1196Y1250D02*
X1203Y1250D01*
X0Y1249D02*
X7Y1249D01*
X330Y1249D02*
X343Y1249D01*
X1196Y1249D02*
X1203Y1249D01*
X0Y1248D02*
X7Y1248D01*
X330Y1248D02*
X343Y1248D01*
X1196Y1248D02*
X1203Y1248D01*
X0Y1247D02*
X7Y1247D01*
X330Y1247D02*
X343Y1247D01*
X1196Y1247D02*
X1203Y1247D01*
X0Y1246D02*
X7Y1246D01*
X330Y1246D02*
X343Y1246D01*
X1196Y1246D02*
X1203Y1246D01*
X0Y1245D02*
X7Y1245D01*
X330Y1245D02*
X343Y1245D01*
X1196Y1245D02*
X1203Y1245D01*
X0Y1244D02*
X7Y1244D01*
X330Y1244D02*
X343Y1244D01*
X1196Y1244D02*
X1203Y1244D01*
X0Y1243D02*
X7Y1243D01*
X330Y1243D02*
X343Y1243D01*
X1196Y1243D02*
X1203Y1243D01*
X0Y1242D02*
X7Y1242D01*
X330Y1242D02*
X343Y1242D01*
X1196Y1242D02*
X1203Y1242D01*
X0Y1241D02*
X7Y1241D01*
X330Y1241D02*
X343Y1241D01*
X1196Y1241D02*
X1203Y1241D01*
X0Y1240D02*
X7Y1240D01*
X330Y1240D02*
X343Y1240D01*
X1196Y1240D02*
X1203Y1240D01*
X0Y1239D02*
X7Y1239D01*
X330Y1239D02*
X343Y1239D01*
X1196Y1239D02*
X1203Y1239D01*
X0Y1238D02*
X7Y1238D01*
X330Y1238D02*
X343Y1238D01*
X1196Y1238D02*
X1203Y1238D01*
X0Y1237D02*
X7Y1237D01*
X330Y1237D02*
X343Y1237D01*
X1196Y1237D02*
X1203Y1237D01*
X0Y1236D02*
X7Y1236D01*
X330Y1236D02*
X343Y1236D01*
X1196Y1236D02*
X1203Y1236D01*
X0Y1235D02*
X7Y1235D01*
X330Y1235D02*
X343Y1235D01*
X1196Y1235D02*
X1203Y1235D01*
X0Y1234D02*
X7Y1234D01*
X330Y1234D02*
X343Y1234D01*
X1196Y1234D02*
X1203Y1234D01*
X0Y1233D02*
X7Y1233D01*
X330Y1233D02*
X334Y1233D01*
X1196Y1233D02*
X1203Y1233D01*
X0Y1232D02*
X7Y1232D01*
X330Y1232D02*
X331Y1232D01*
X1196Y1232D02*
X1203Y1232D01*
X0Y1231D02*
X7Y1231D01*
X1196Y1231D02*
X1203Y1231D01*
X0Y1230D02*
X7Y1230D01*
X1196Y1230D02*
X1203Y1230D01*
X0Y1229D02*
X7Y1229D01*
X1196Y1229D02*
X1203Y1229D01*
X0Y1228D02*
X7Y1228D01*
X1196Y1228D02*
X1203Y1228D01*
X0Y1227D02*
X7Y1227D01*
X1196Y1227D02*
X1203Y1227D01*
X0Y1226D02*
X7Y1226D01*
X1196Y1226D02*
X1203Y1226D01*
X0Y1225D02*
X7Y1225D01*
X1196Y1225D02*
X1203Y1225D01*
X0Y1224D02*
X7Y1224D01*
X362Y1224D02*
X362Y1224D01*
X1196Y1224D02*
X1203Y1224D01*
X0Y1223D02*
X7Y1223D01*
X1196Y1223D02*
X1203Y1223D01*
X0Y1222D02*
X7Y1222D01*
X1196Y1222D02*
X1203Y1222D01*
X0Y1221D02*
X7Y1221D01*
X1196Y1221D02*
X1203Y1221D01*
X0Y1220D02*
X7Y1220D01*
X1196Y1220D02*
X1203Y1220D01*
X0Y1219D02*
X7Y1219D01*
X1196Y1219D02*
X1203Y1219D01*
X0Y1218D02*
X7Y1218D01*
X1196Y1218D02*
X1203Y1218D01*
X0Y1217D02*
X7Y1217D01*
X1196Y1217D02*
X1203Y1217D01*
X0Y1216D02*
X7Y1216D01*
X1196Y1216D02*
X1203Y1216D01*
X0Y1215D02*
X7Y1215D01*
X1196Y1215D02*
X1203Y1215D01*
X0Y1214D02*
X7Y1214D01*
X1196Y1214D02*
X1203Y1214D01*
X0Y1213D02*
X7Y1213D01*
X1196Y1213D02*
X1203Y1213D01*
X0Y1212D02*
X7Y1212D01*
X369Y1212D02*
X371Y1212D01*
X1196Y1212D02*
X1203Y1212D01*
X0Y1211D02*
X7Y1211D01*
X369Y1211D02*
X373Y1211D01*
X1196Y1211D02*
X1203Y1211D01*
X0Y1210D02*
X7Y1210D01*
X369Y1210D02*
X373Y1210D01*
X1196Y1210D02*
X1203Y1210D01*
X0Y1209D02*
X7Y1209D01*
X369Y1209D02*
X372Y1209D01*
X1196Y1209D02*
X1203Y1209D01*
X0Y1208D02*
X7Y1208D01*
X370Y1208D02*
X371Y1208D01*
X1196Y1208D02*
X1203Y1208D01*
X0Y1207D02*
X7Y1207D01*
X1196Y1207D02*
X1203Y1207D01*
X0Y1206D02*
X7Y1206D01*
X1196Y1206D02*
X1203Y1206D01*
X0Y1205D02*
X7Y1205D01*
X1196Y1205D02*
X1203Y1205D01*
X0Y1204D02*
X7Y1204D01*
X1196Y1204D02*
X1203Y1204D01*
X0Y1203D02*
X7Y1203D01*
X1196Y1203D02*
X1203Y1203D01*
X0Y1202D02*
X7Y1202D01*
X1196Y1202D02*
X1203Y1202D01*
X0Y1201D02*
X7Y1201D01*
X1196Y1201D02*
X1203Y1201D01*
X0Y1200D02*
X7Y1200D01*
X1196Y1200D02*
X1203Y1200D01*
X0Y1199D02*
X7Y1199D01*
X1196Y1199D02*
X1203Y1199D01*
X0Y1198D02*
X7Y1198D01*
X1196Y1198D02*
X1203Y1198D01*
X0Y1197D02*
X7Y1197D01*
X1196Y1197D02*
X1203Y1197D01*
X0Y1196D02*
X7Y1196D01*
X1196Y1196D02*
X1203Y1196D01*
X0Y1195D02*
X7Y1195D01*
X368Y1195D02*
X372Y1195D01*
X1196Y1195D02*
X1203Y1195D01*
X0Y1194D02*
X7Y1194D01*
X367Y1194D02*
X373Y1194D01*
X1196Y1194D02*
X1203Y1194D01*
X0Y1193D02*
X7Y1193D01*
X367Y1193D02*
X373Y1193D01*
X1196Y1193D02*
X1203Y1193D01*
X0Y1192D02*
X7Y1192D01*
X366Y1192D02*
X372Y1192D01*
X1196Y1192D02*
X1203Y1192D01*
X0Y1191D02*
X7Y1191D01*
X1196Y1191D02*
X1203Y1191D01*
X0Y1190D02*
X7Y1190D01*
X1196Y1190D02*
X1203Y1190D01*
X0Y1189D02*
X7Y1189D01*
X1196Y1189D02*
X1203Y1189D01*
X0Y1188D02*
X7Y1188D01*
X364Y1188D02*
X364Y1188D01*
X1196Y1188D02*
X1203Y1188D01*
X0Y1187D02*
X7Y1187D01*
X363Y1187D02*
X365Y1187D01*
X1196Y1187D02*
X1203Y1187D01*
X0Y1186D02*
X7Y1186D01*
X362Y1186D02*
X366Y1186D01*
X1196Y1186D02*
X1203Y1186D01*
X0Y1185D02*
X7Y1185D01*
X362Y1185D02*
X366Y1185D01*
X1196Y1185D02*
X1203Y1185D01*
X0Y1184D02*
X7Y1184D01*
X363Y1184D02*
X367Y1184D01*
X1196Y1184D02*
X1203Y1184D01*
X0Y1183D02*
X7Y1183D01*
X364Y1183D02*
X368Y1183D01*
X1196Y1183D02*
X1203Y1183D01*
X0Y1182D02*
X7Y1182D01*
X364Y1182D02*
X369Y1182D01*
X1196Y1182D02*
X1203Y1182D01*
X0Y1181D02*
X7Y1181D01*
X356Y1181D02*
X356Y1181D01*
X365Y1181D02*
X370Y1181D01*
X1196Y1181D02*
X1203Y1181D01*
X0Y1180D02*
X7Y1180D01*
X354Y1180D02*
X355Y1180D01*
X366Y1180D02*
X371Y1180D01*
X1196Y1180D02*
X1203Y1180D01*
X0Y1179D02*
X7Y1179D01*
X352Y1179D02*
X354Y1179D01*
X367Y1179D02*
X372Y1179D01*
X1196Y1179D02*
X1203Y1179D01*
X0Y1178D02*
X7Y1178D01*
X330Y1178D02*
X331Y1178D01*
X350Y1178D02*
X353Y1178D01*
X368Y1178D02*
X372Y1178D01*
X1196Y1178D02*
X1203Y1178D01*
X0Y1177D02*
X7Y1177D01*
X330Y1177D02*
X335Y1177D01*
X351Y1177D02*
X352Y1177D01*
X369Y1177D02*
X373Y1177D01*
X1196Y1177D02*
X1203Y1177D01*
X0Y1176D02*
X7Y1176D01*
X330Y1176D02*
X343Y1176D01*
X370Y1176D02*
X373Y1176D01*
X1196Y1176D02*
X1203Y1176D01*
X0Y1175D02*
X7Y1175D01*
X330Y1175D02*
X343Y1175D01*
X371Y1175D02*
X372Y1175D01*
X1196Y1175D02*
X1203Y1175D01*
X0Y1174D02*
X7Y1174D01*
X202Y1174D02*
X229Y1174D01*
X330Y1174D02*
X343Y1174D01*
X1196Y1174D02*
X1203Y1174D01*
X0Y1173D02*
X7Y1173D01*
X201Y1173D02*
X231Y1173D01*
X330Y1173D02*
X343Y1173D01*
X1196Y1173D02*
X1203Y1173D01*
X0Y1172D02*
X7Y1172D01*
X200Y1172D02*
X232Y1172D01*
X330Y1172D02*
X343Y1172D01*
X1196Y1172D02*
X1203Y1172D01*
X0Y1171D02*
X7Y1171D01*
X199Y1171D02*
X232Y1171D01*
X330Y1171D02*
X343Y1171D01*
X1196Y1171D02*
X1203Y1171D01*
X0Y1170D02*
X7Y1170D01*
X199Y1170D02*
X232Y1170D01*
X330Y1170D02*
X343Y1170D01*
X1196Y1170D02*
X1203Y1170D01*
X0Y1169D02*
X7Y1169D01*
X199Y1169D02*
X233Y1169D01*
X330Y1169D02*
X343Y1169D01*
X1196Y1169D02*
X1203Y1169D01*
X0Y1168D02*
X7Y1168D01*
X199Y1168D02*
X232Y1168D01*
X330Y1168D02*
X343Y1168D01*
X1196Y1168D02*
X1203Y1168D01*
X0Y1167D02*
X7Y1167D01*
X199Y1167D02*
X232Y1167D01*
X330Y1167D02*
X343Y1167D01*
X1196Y1167D02*
X1203Y1167D01*
X0Y1166D02*
X7Y1166D01*
X199Y1166D02*
X231Y1166D01*
X330Y1166D02*
X343Y1166D01*
X1196Y1166D02*
X1203Y1166D01*
X0Y1165D02*
X7Y1165D01*
X199Y1165D02*
X230Y1165D01*
X330Y1165D02*
X345Y1165D01*
X1196Y1165D02*
X1203Y1165D01*
X0Y1164D02*
X7Y1164D01*
X199Y1164D02*
X208Y1164D01*
X330Y1164D02*
X346Y1164D01*
X1196Y1164D02*
X1203Y1164D01*
X0Y1163D02*
X7Y1163D01*
X199Y1163D02*
X208Y1163D01*
X330Y1163D02*
X346Y1163D01*
X1196Y1163D02*
X1203Y1163D01*
X0Y1162D02*
X7Y1162D01*
X199Y1162D02*
X208Y1162D01*
X330Y1162D02*
X346Y1162D01*
X1196Y1162D02*
X1203Y1162D01*
X0Y1161D02*
X7Y1161D01*
X199Y1161D02*
X208Y1161D01*
X330Y1161D02*
X345Y1161D01*
X1196Y1161D02*
X1203Y1161D01*
X0Y1160D02*
X7Y1160D01*
X199Y1160D02*
X208Y1160D01*
X330Y1160D02*
X345Y1160D01*
X1196Y1160D02*
X1203Y1160D01*
X0Y1159D02*
X7Y1159D01*
X199Y1159D02*
X208Y1159D01*
X330Y1159D02*
X345Y1159D01*
X1196Y1159D02*
X1203Y1159D01*
X0Y1158D02*
X7Y1158D01*
X199Y1158D02*
X208Y1158D01*
X330Y1158D02*
X345Y1158D01*
X1196Y1158D02*
X1203Y1158D01*
X0Y1157D02*
X7Y1157D01*
X199Y1157D02*
X208Y1157D01*
X330Y1157D02*
X345Y1157D01*
X361Y1157D02*
X371Y1157D01*
X1196Y1157D02*
X1203Y1157D01*
X0Y1156D02*
X7Y1156D01*
X199Y1156D02*
X208Y1156D01*
X330Y1156D02*
X345Y1156D01*
X359Y1156D02*
X372Y1156D01*
X1196Y1156D02*
X1203Y1156D01*
X0Y1155D02*
X7Y1155D01*
X199Y1155D02*
X208Y1155D01*
X330Y1155D02*
X345Y1155D01*
X358Y1155D02*
X373Y1155D01*
X1196Y1155D02*
X1203Y1155D01*
X0Y1154D02*
X7Y1154D01*
X199Y1154D02*
X274Y1154D01*
X330Y1154D02*
X345Y1154D01*
X357Y1154D02*
X372Y1154D01*
X1196Y1154D02*
X1203Y1154D01*
X0Y1153D02*
X7Y1153D01*
X199Y1153D02*
X274Y1153D01*
X330Y1153D02*
X345Y1153D01*
X357Y1153D02*
X371Y1153D01*
X1196Y1153D02*
X1203Y1153D01*
X0Y1152D02*
X7Y1152D01*
X199Y1152D02*
X274Y1152D01*
X330Y1152D02*
X345Y1152D01*
X356Y1152D02*
X360Y1152D01*
X1196Y1152D02*
X1203Y1152D01*
X0Y1151D02*
X7Y1151D01*
X199Y1151D02*
X274Y1151D01*
X330Y1151D02*
X345Y1151D01*
X355Y1151D02*
X359Y1151D01*
X1196Y1151D02*
X1203Y1151D01*
X0Y1150D02*
X7Y1150D01*
X199Y1150D02*
X274Y1150D01*
X330Y1150D02*
X345Y1150D01*
X354Y1150D02*
X359Y1150D01*
X1196Y1150D02*
X1203Y1150D01*
X0Y1149D02*
X7Y1149D01*
X199Y1149D02*
X274Y1149D01*
X330Y1149D02*
X414Y1149D01*
X1196Y1149D02*
X1203Y1149D01*
X0Y1148D02*
X7Y1148D01*
X199Y1148D02*
X274Y1148D01*
X330Y1148D02*
X414Y1148D01*
X1196Y1148D02*
X1203Y1148D01*
X0Y1147D02*
X7Y1147D01*
X199Y1147D02*
X274Y1147D01*
X330Y1147D02*
X414Y1147D01*
X1196Y1147D02*
X1203Y1147D01*
X0Y1146D02*
X7Y1146D01*
X199Y1146D02*
X274Y1146D01*
X330Y1146D02*
X342Y1146D01*
X412Y1146D02*
X414Y1146D01*
X1196Y1146D02*
X1203Y1146D01*
X0Y1145D02*
X7Y1145D01*
X199Y1145D02*
X208Y1145D01*
X265Y1145D02*
X274Y1145D01*
X330Y1145D02*
X342Y1145D01*
X412Y1145D02*
X414Y1145D01*
X1196Y1145D02*
X1203Y1145D01*
X0Y1144D02*
X7Y1144D01*
X199Y1144D02*
X208Y1144D01*
X265Y1144D02*
X274Y1144D01*
X330Y1144D02*
X342Y1144D01*
X412Y1144D02*
X414Y1144D01*
X1196Y1144D02*
X1203Y1144D01*
X0Y1143D02*
X7Y1143D01*
X199Y1143D02*
X208Y1143D01*
X265Y1143D02*
X274Y1143D01*
X330Y1143D02*
X342Y1143D01*
X412Y1143D02*
X414Y1143D01*
X1196Y1143D02*
X1203Y1143D01*
X0Y1142D02*
X7Y1142D01*
X199Y1142D02*
X208Y1142D01*
X265Y1142D02*
X274Y1142D01*
X330Y1142D02*
X342Y1142D01*
X412Y1142D02*
X414Y1142D01*
X1196Y1142D02*
X1203Y1142D01*
X0Y1141D02*
X7Y1141D01*
X199Y1141D02*
X208Y1141D01*
X265Y1141D02*
X274Y1141D01*
X330Y1141D02*
X342Y1141D01*
X412Y1141D02*
X414Y1141D01*
X1196Y1141D02*
X1203Y1141D01*
X0Y1140D02*
X7Y1140D01*
X199Y1140D02*
X208Y1140D01*
X265Y1140D02*
X274Y1140D01*
X330Y1140D02*
X342Y1140D01*
X412Y1140D02*
X414Y1140D01*
X1196Y1140D02*
X1203Y1140D01*
X0Y1139D02*
X7Y1139D01*
X199Y1139D02*
X208Y1139D01*
X265Y1139D02*
X274Y1139D01*
X330Y1139D02*
X342Y1139D01*
X412Y1139D02*
X414Y1139D01*
X1196Y1139D02*
X1203Y1139D01*
X0Y1138D02*
X7Y1138D01*
X199Y1138D02*
X208Y1138D01*
X265Y1138D02*
X274Y1138D01*
X330Y1138D02*
X342Y1138D01*
X412Y1138D02*
X414Y1138D01*
X1196Y1138D02*
X1203Y1138D01*
X0Y1137D02*
X7Y1137D01*
X200Y1137D02*
X208Y1137D01*
X265Y1137D02*
X274Y1137D01*
X330Y1137D02*
X342Y1137D01*
X412Y1137D02*
X414Y1137D01*
X1196Y1137D02*
X1203Y1137D01*
X0Y1136D02*
X7Y1136D01*
X200Y1136D02*
X208Y1136D01*
X265Y1136D02*
X274Y1136D01*
X330Y1136D02*
X342Y1136D01*
X412Y1136D02*
X414Y1136D01*
X1196Y1136D02*
X1203Y1136D01*
X0Y1135D02*
X7Y1135D01*
X200Y1135D02*
X208Y1135D01*
X265Y1135D02*
X274Y1135D01*
X330Y1135D02*
X342Y1135D01*
X412Y1135D02*
X414Y1135D01*
X1196Y1135D02*
X1203Y1135D01*
X0Y1134D02*
X7Y1134D01*
X199Y1134D02*
X208Y1134D01*
X265Y1134D02*
X274Y1134D01*
X330Y1134D02*
X342Y1134D01*
X412Y1134D02*
X414Y1134D01*
X1196Y1134D02*
X1203Y1134D01*
X0Y1133D02*
X7Y1133D01*
X199Y1133D02*
X208Y1133D01*
X265Y1133D02*
X274Y1133D01*
X330Y1133D02*
X342Y1133D01*
X412Y1133D02*
X414Y1133D01*
X1196Y1133D02*
X1203Y1133D01*
X0Y1132D02*
X7Y1132D01*
X199Y1132D02*
X208Y1132D01*
X265Y1132D02*
X274Y1132D01*
X330Y1132D02*
X342Y1132D01*
X412Y1132D02*
X414Y1132D01*
X1196Y1132D02*
X1203Y1132D01*
X0Y1131D02*
X7Y1131D01*
X199Y1131D02*
X208Y1131D01*
X265Y1131D02*
X274Y1131D01*
X330Y1131D02*
X342Y1131D01*
X412Y1131D02*
X414Y1131D01*
X1196Y1131D02*
X1203Y1131D01*
X0Y1130D02*
X7Y1130D01*
X199Y1130D02*
X208Y1130D01*
X265Y1130D02*
X274Y1130D01*
X330Y1130D02*
X342Y1130D01*
X412Y1130D02*
X414Y1130D01*
X1196Y1130D02*
X1203Y1130D01*
X0Y1129D02*
X7Y1129D01*
X199Y1129D02*
X207Y1129D01*
X265Y1129D02*
X273Y1129D01*
X330Y1129D02*
X342Y1129D01*
X412Y1129D02*
X414Y1129D01*
X1196Y1129D02*
X1203Y1129D01*
X0Y1128D02*
X7Y1128D01*
X200Y1128D02*
X207Y1128D01*
X266Y1128D02*
X273Y1128D01*
X330Y1128D02*
X342Y1128D01*
X412Y1128D02*
X414Y1128D01*
X1196Y1128D02*
X1203Y1128D01*
X0Y1127D02*
X7Y1127D01*
X201Y1127D02*
X206Y1127D01*
X267Y1127D02*
X272Y1127D01*
X330Y1127D02*
X342Y1127D01*
X412Y1127D02*
X414Y1127D01*
X1196Y1127D02*
X1203Y1127D01*
X0Y1126D02*
X7Y1126D01*
X203Y1126D02*
X204Y1126D01*
X269Y1126D02*
X270Y1126D01*
X330Y1126D02*
X342Y1126D01*
X412Y1126D02*
X414Y1126D01*
X1196Y1126D02*
X1203Y1126D01*
X0Y1125D02*
X7Y1125D01*
X330Y1125D02*
X342Y1125D01*
X412Y1125D02*
X414Y1125D01*
X1196Y1125D02*
X1203Y1125D01*
X0Y1124D02*
X7Y1124D01*
X330Y1124D02*
X342Y1124D01*
X412Y1124D02*
X414Y1124D01*
X1196Y1124D02*
X1203Y1124D01*
X0Y1123D02*
X7Y1123D01*
X330Y1123D02*
X342Y1123D01*
X412Y1123D02*
X414Y1123D01*
X1196Y1123D02*
X1203Y1123D01*
X0Y1122D02*
X7Y1122D01*
X330Y1122D02*
X342Y1122D01*
X412Y1122D02*
X414Y1122D01*
X1196Y1122D02*
X1203Y1122D01*
X0Y1121D02*
X7Y1121D01*
X330Y1121D02*
X342Y1121D01*
X412Y1121D02*
X414Y1121D01*
X1196Y1121D02*
X1203Y1121D01*
X0Y1120D02*
X7Y1120D01*
X330Y1120D02*
X342Y1120D01*
X412Y1120D02*
X414Y1120D01*
X1196Y1120D02*
X1203Y1120D01*
X0Y1119D02*
X7Y1119D01*
X330Y1119D02*
X342Y1119D01*
X412Y1119D02*
X414Y1119D01*
X1196Y1119D02*
X1203Y1119D01*
X0Y1118D02*
X7Y1118D01*
X330Y1118D02*
X342Y1118D01*
X412Y1118D02*
X414Y1118D01*
X1196Y1118D02*
X1203Y1118D01*
X0Y1117D02*
X7Y1117D01*
X330Y1117D02*
X342Y1117D01*
X412Y1117D02*
X414Y1117D01*
X1196Y1117D02*
X1203Y1117D01*
X0Y1116D02*
X7Y1116D01*
X330Y1116D02*
X342Y1116D01*
X412Y1116D02*
X414Y1116D01*
X1196Y1116D02*
X1203Y1116D01*
X0Y1115D02*
X7Y1115D01*
X330Y1115D02*
X342Y1115D01*
X412Y1115D02*
X414Y1115D01*
X1196Y1115D02*
X1203Y1115D01*
X0Y1114D02*
X7Y1114D01*
X330Y1114D02*
X342Y1114D01*
X412Y1114D02*
X414Y1114D01*
X1196Y1114D02*
X1203Y1114D01*
X0Y1113D02*
X7Y1113D01*
X330Y1113D02*
X342Y1113D01*
X412Y1113D02*
X414Y1113D01*
X1196Y1113D02*
X1203Y1113D01*
X0Y1112D02*
X7Y1112D01*
X330Y1112D02*
X342Y1112D01*
X412Y1112D02*
X414Y1112D01*
X1196Y1112D02*
X1203Y1112D01*
X0Y1111D02*
X7Y1111D01*
X330Y1111D02*
X342Y1111D01*
X412Y1111D02*
X414Y1111D01*
X1196Y1111D02*
X1203Y1111D01*
X0Y1110D02*
X7Y1110D01*
X330Y1110D02*
X342Y1110D01*
X412Y1110D02*
X414Y1110D01*
X1196Y1110D02*
X1203Y1110D01*
X0Y1109D02*
X7Y1109D01*
X330Y1109D02*
X342Y1109D01*
X412Y1109D02*
X414Y1109D01*
X1196Y1109D02*
X1203Y1109D01*
X0Y1108D02*
X7Y1108D01*
X330Y1108D02*
X342Y1108D01*
X412Y1108D02*
X414Y1108D01*
X1196Y1108D02*
X1203Y1108D01*
X0Y1107D02*
X7Y1107D01*
X330Y1107D02*
X342Y1107D01*
X412Y1107D02*
X414Y1107D01*
X1196Y1107D02*
X1203Y1107D01*
X0Y1106D02*
X7Y1106D01*
X330Y1106D02*
X342Y1106D01*
X412Y1106D02*
X414Y1106D01*
X1196Y1106D02*
X1203Y1106D01*
X0Y1105D02*
X7Y1105D01*
X330Y1105D02*
X342Y1105D01*
X412Y1105D02*
X414Y1105D01*
X1196Y1105D02*
X1203Y1105D01*
X0Y1104D02*
X7Y1104D01*
X204Y1104D02*
X228Y1104D01*
X330Y1104D02*
X342Y1104D01*
X412Y1104D02*
X414Y1104D01*
X1196Y1104D02*
X1203Y1104D01*
X0Y1103D02*
X7Y1103D01*
X201Y1103D02*
X231Y1103D01*
X330Y1103D02*
X342Y1103D01*
X412Y1103D02*
X414Y1103D01*
X1196Y1103D02*
X1203Y1103D01*
X0Y1102D02*
X7Y1102D01*
X200Y1102D02*
X232Y1102D01*
X330Y1102D02*
X342Y1102D01*
X412Y1102D02*
X414Y1102D01*
X1196Y1102D02*
X1203Y1102D01*
X0Y1101D02*
X7Y1101D01*
X199Y1101D02*
X232Y1101D01*
X330Y1101D02*
X342Y1101D01*
X412Y1101D02*
X414Y1101D01*
X1196Y1101D02*
X1203Y1101D01*
X0Y1100D02*
X7Y1100D01*
X199Y1100D02*
X232Y1100D01*
X330Y1100D02*
X342Y1100D01*
X412Y1100D02*
X414Y1100D01*
X1196Y1100D02*
X1203Y1100D01*
X0Y1099D02*
X7Y1099D01*
X199Y1099D02*
X233Y1099D01*
X330Y1099D02*
X342Y1099D01*
X412Y1099D02*
X414Y1099D01*
X1196Y1099D02*
X1203Y1099D01*
X0Y1098D02*
X7Y1098D01*
X199Y1098D02*
X232Y1098D01*
X330Y1098D02*
X342Y1098D01*
X412Y1098D02*
X414Y1098D01*
X1196Y1098D02*
X1203Y1098D01*
X0Y1097D02*
X7Y1097D01*
X199Y1097D02*
X232Y1097D01*
X330Y1097D02*
X342Y1097D01*
X412Y1097D02*
X414Y1097D01*
X1196Y1097D02*
X1203Y1097D01*
X0Y1096D02*
X7Y1096D01*
X199Y1096D02*
X231Y1096D01*
X330Y1096D02*
X342Y1096D01*
X412Y1096D02*
X414Y1096D01*
X1196Y1096D02*
X1203Y1096D01*
X0Y1095D02*
X7Y1095D01*
X199Y1095D02*
X230Y1095D01*
X330Y1095D02*
X342Y1095D01*
X412Y1095D02*
X414Y1095D01*
X1196Y1095D02*
X1203Y1095D01*
X0Y1094D02*
X7Y1094D01*
X199Y1094D02*
X208Y1094D01*
X330Y1094D02*
X342Y1094D01*
X412Y1094D02*
X414Y1094D01*
X1196Y1094D02*
X1203Y1094D01*
X0Y1093D02*
X7Y1093D01*
X199Y1093D02*
X208Y1093D01*
X330Y1093D02*
X342Y1093D01*
X412Y1093D02*
X414Y1093D01*
X1196Y1093D02*
X1203Y1093D01*
X0Y1092D02*
X7Y1092D01*
X199Y1092D02*
X208Y1092D01*
X330Y1092D02*
X342Y1092D01*
X412Y1092D02*
X414Y1092D01*
X1196Y1092D02*
X1203Y1092D01*
X0Y1091D02*
X7Y1091D01*
X199Y1091D02*
X208Y1091D01*
X330Y1091D02*
X342Y1091D01*
X412Y1091D02*
X414Y1091D01*
X1196Y1091D02*
X1203Y1091D01*
X0Y1090D02*
X7Y1090D01*
X199Y1090D02*
X208Y1090D01*
X330Y1090D02*
X342Y1090D01*
X412Y1090D02*
X414Y1090D01*
X1196Y1090D02*
X1203Y1090D01*
X0Y1089D02*
X7Y1089D01*
X199Y1089D02*
X208Y1089D01*
X330Y1089D02*
X342Y1089D01*
X412Y1089D02*
X414Y1089D01*
X1196Y1089D02*
X1203Y1089D01*
X0Y1088D02*
X7Y1088D01*
X199Y1088D02*
X208Y1088D01*
X330Y1088D02*
X342Y1088D01*
X412Y1088D02*
X414Y1088D01*
X1196Y1088D02*
X1203Y1088D01*
X0Y1087D02*
X7Y1087D01*
X199Y1087D02*
X208Y1087D01*
X330Y1087D02*
X342Y1087D01*
X412Y1087D02*
X414Y1087D01*
X1196Y1087D02*
X1203Y1087D01*
X0Y1086D02*
X7Y1086D01*
X199Y1086D02*
X208Y1086D01*
X330Y1086D02*
X342Y1086D01*
X412Y1086D02*
X414Y1086D01*
X1196Y1086D02*
X1203Y1086D01*
X0Y1085D02*
X7Y1085D01*
X199Y1085D02*
X208Y1085D01*
X330Y1085D02*
X342Y1085D01*
X412Y1085D02*
X414Y1085D01*
X1196Y1085D02*
X1203Y1085D01*
X0Y1084D02*
X7Y1084D01*
X199Y1084D02*
X274Y1084D01*
X330Y1084D02*
X342Y1084D01*
X412Y1084D02*
X414Y1084D01*
X1196Y1084D02*
X1203Y1084D01*
X0Y1083D02*
X7Y1083D01*
X199Y1083D02*
X274Y1083D01*
X330Y1083D02*
X342Y1083D01*
X412Y1083D02*
X414Y1083D01*
X1196Y1083D02*
X1203Y1083D01*
X0Y1082D02*
X7Y1082D01*
X199Y1082D02*
X274Y1082D01*
X330Y1082D02*
X342Y1082D01*
X412Y1082D02*
X414Y1082D01*
X1196Y1082D02*
X1203Y1082D01*
X0Y1081D02*
X7Y1081D01*
X199Y1081D02*
X274Y1081D01*
X330Y1081D02*
X343Y1081D01*
X411Y1081D02*
X414Y1081D01*
X1196Y1081D02*
X1203Y1081D01*
X0Y1080D02*
X7Y1080D01*
X199Y1080D02*
X274Y1080D01*
X330Y1080D02*
X343Y1080D01*
X411Y1080D02*
X414Y1080D01*
X1196Y1080D02*
X1203Y1080D01*
X0Y1079D02*
X7Y1079D01*
X199Y1079D02*
X274Y1079D01*
X330Y1079D02*
X343Y1079D01*
X411Y1079D02*
X414Y1079D01*
X1196Y1079D02*
X1203Y1079D01*
X0Y1078D02*
X7Y1078D01*
X199Y1078D02*
X274Y1078D01*
X330Y1078D02*
X343Y1078D01*
X411Y1078D02*
X414Y1078D01*
X1196Y1078D02*
X1203Y1078D01*
X0Y1077D02*
X7Y1077D01*
X199Y1077D02*
X274Y1077D01*
X330Y1077D02*
X343Y1077D01*
X411Y1077D02*
X414Y1077D01*
X1196Y1077D02*
X1203Y1077D01*
X0Y1076D02*
X7Y1076D01*
X199Y1076D02*
X274Y1076D01*
X330Y1076D02*
X343Y1076D01*
X411Y1076D02*
X414Y1076D01*
X1196Y1076D02*
X1203Y1076D01*
X0Y1075D02*
X7Y1075D01*
X199Y1075D02*
X274Y1075D01*
X330Y1075D02*
X343Y1075D01*
X411Y1075D02*
X414Y1075D01*
X1196Y1075D02*
X1203Y1075D01*
X0Y1074D02*
X7Y1074D01*
X199Y1074D02*
X208Y1074D01*
X265Y1074D02*
X274Y1074D01*
X330Y1074D02*
X343Y1074D01*
X411Y1074D02*
X414Y1074D01*
X1196Y1074D02*
X1203Y1074D01*
X0Y1073D02*
X7Y1073D01*
X199Y1073D02*
X208Y1073D01*
X265Y1073D02*
X274Y1073D01*
X330Y1073D02*
X343Y1073D01*
X411Y1073D02*
X414Y1073D01*
X1196Y1073D02*
X1203Y1073D01*
X0Y1072D02*
X7Y1072D01*
X199Y1072D02*
X208Y1072D01*
X265Y1072D02*
X274Y1072D01*
X330Y1072D02*
X343Y1072D01*
X411Y1072D02*
X414Y1072D01*
X1196Y1072D02*
X1203Y1072D01*
X0Y1071D02*
X7Y1071D01*
X199Y1071D02*
X208Y1071D01*
X265Y1071D02*
X274Y1071D01*
X330Y1071D02*
X343Y1071D01*
X411Y1071D02*
X414Y1071D01*
X1196Y1071D02*
X1203Y1071D01*
X0Y1070D02*
X7Y1070D01*
X199Y1070D02*
X208Y1070D01*
X265Y1070D02*
X274Y1070D01*
X330Y1070D02*
X343Y1070D01*
X411Y1070D02*
X414Y1070D01*
X1196Y1070D02*
X1203Y1070D01*
X0Y1069D02*
X7Y1069D01*
X199Y1069D02*
X208Y1069D01*
X265Y1069D02*
X274Y1069D01*
X330Y1069D02*
X343Y1069D01*
X411Y1069D02*
X414Y1069D01*
X1196Y1069D02*
X1203Y1069D01*
X0Y1068D02*
X7Y1068D01*
X199Y1068D02*
X208Y1068D01*
X265Y1068D02*
X274Y1068D01*
X330Y1068D02*
X343Y1068D01*
X411Y1068D02*
X414Y1068D01*
X1196Y1068D02*
X1203Y1068D01*
X0Y1067D02*
X7Y1067D01*
X199Y1067D02*
X208Y1067D01*
X265Y1067D02*
X274Y1067D01*
X330Y1067D02*
X343Y1067D01*
X411Y1067D02*
X414Y1067D01*
X1196Y1067D02*
X1203Y1067D01*
X0Y1066D02*
X7Y1066D01*
X199Y1066D02*
X208Y1066D01*
X265Y1066D02*
X274Y1066D01*
X330Y1066D02*
X342Y1066D01*
X412Y1066D02*
X414Y1066D01*
X1196Y1066D02*
X1203Y1066D01*
X0Y1065D02*
X7Y1065D01*
X199Y1065D02*
X208Y1065D01*
X265Y1065D02*
X274Y1065D01*
X330Y1065D02*
X342Y1065D01*
X412Y1065D02*
X414Y1065D01*
X1196Y1065D02*
X1203Y1065D01*
X0Y1064D02*
X7Y1064D01*
X199Y1064D02*
X208Y1064D01*
X265Y1064D02*
X274Y1064D01*
X330Y1064D02*
X342Y1064D01*
X412Y1064D02*
X414Y1064D01*
X1196Y1064D02*
X1203Y1064D01*
X0Y1063D02*
X7Y1063D01*
X199Y1063D02*
X208Y1063D01*
X265Y1063D02*
X274Y1063D01*
X330Y1063D02*
X342Y1063D01*
X412Y1063D02*
X414Y1063D01*
X1196Y1063D02*
X1203Y1063D01*
X0Y1062D02*
X7Y1062D01*
X199Y1062D02*
X208Y1062D01*
X265Y1062D02*
X274Y1062D01*
X330Y1062D02*
X342Y1062D01*
X412Y1062D02*
X414Y1062D01*
X1196Y1062D02*
X1203Y1062D01*
X0Y1061D02*
X7Y1061D01*
X199Y1061D02*
X208Y1061D01*
X265Y1061D02*
X274Y1061D01*
X330Y1061D02*
X342Y1061D01*
X412Y1061D02*
X414Y1061D01*
X1196Y1061D02*
X1203Y1061D01*
X0Y1060D02*
X7Y1060D01*
X199Y1060D02*
X208Y1060D01*
X265Y1060D02*
X274Y1060D01*
X330Y1060D02*
X342Y1060D01*
X412Y1060D02*
X414Y1060D01*
X1196Y1060D02*
X1203Y1060D01*
X0Y1059D02*
X7Y1059D01*
X199Y1059D02*
X208Y1059D01*
X265Y1059D02*
X274Y1059D01*
X330Y1059D02*
X342Y1059D01*
X412Y1059D02*
X414Y1059D01*
X1196Y1059D02*
X1203Y1059D01*
X0Y1058D02*
X7Y1058D01*
X200Y1058D02*
X207Y1058D01*
X266Y1058D02*
X273Y1058D01*
X330Y1058D02*
X342Y1058D01*
X412Y1058D02*
X414Y1058D01*
X1196Y1058D02*
X1203Y1058D01*
X0Y1057D02*
X7Y1057D01*
X201Y1057D02*
X206Y1057D01*
X267Y1057D02*
X272Y1057D01*
X330Y1057D02*
X342Y1057D01*
X412Y1057D02*
X414Y1057D01*
X1196Y1057D02*
X1203Y1057D01*
X0Y1056D02*
X7Y1056D01*
X202Y1056D02*
X205Y1056D01*
X268Y1056D02*
X271Y1056D01*
X330Y1056D02*
X342Y1056D01*
X412Y1056D02*
X414Y1056D01*
X1196Y1056D02*
X1203Y1056D01*
X0Y1055D02*
X7Y1055D01*
X330Y1055D02*
X342Y1055D01*
X412Y1055D02*
X414Y1055D01*
X1196Y1055D02*
X1203Y1055D01*
X0Y1054D02*
X7Y1054D01*
X330Y1054D02*
X342Y1054D01*
X412Y1054D02*
X414Y1054D01*
X1196Y1054D02*
X1203Y1054D01*
X0Y1053D02*
X7Y1053D01*
X330Y1053D02*
X342Y1053D01*
X412Y1053D02*
X414Y1053D01*
X1196Y1053D02*
X1203Y1053D01*
X0Y1052D02*
X7Y1052D01*
X330Y1052D02*
X342Y1052D01*
X412Y1052D02*
X414Y1052D01*
X1196Y1052D02*
X1203Y1052D01*
X0Y1051D02*
X7Y1051D01*
X330Y1051D02*
X342Y1051D01*
X412Y1051D02*
X414Y1051D01*
X1196Y1051D02*
X1203Y1051D01*
X0Y1050D02*
X7Y1050D01*
X330Y1050D02*
X342Y1050D01*
X412Y1050D02*
X414Y1050D01*
X1196Y1050D02*
X1203Y1050D01*
X0Y1049D02*
X7Y1049D01*
X330Y1049D02*
X342Y1049D01*
X412Y1049D02*
X414Y1049D01*
X1196Y1049D02*
X1203Y1049D01*
X0Y1048D02*
X7Y1048D01*
X330Y1048D02*
X342Y1048D01*
X412Y1048D02*
X414Y1048D01*
X1196Y1048D02*
X1203Y1048D01*
X0Y1047D02*
X7Y1047D01*
X330Y1047D02*
X342Y1047D01*
X412Y1047D02*
X414Y1047D01*
X1196Y1047D02*
X1203Y1047D01*
X0Y1046D02*
X7Y1046D01*
X330Y1046D02*
X342Y1046D01*
X412Y1046D02*
X414Y1046D01*
X1196Y1046D02*
X1203Y1046D01*
X0Y1045D02*
X7Y1045D01*
X330Y1045D02*
X342Y1045D01*
X412Y1045D02*
X414Y1045D01*
X1196Y1045D02*
X1203Y1045D01*
X0Y1044D02*
X7Y1044D01*
X330Y1044D02*
X342Y1044D01*
X412Y1044D02*
X414Y1044D01*
X1196Y1044D02*
X1203Y1044D01*
X0Y1043D02*
X7Y1043D01*
X330Y1043D02*
X342Y1043D01*
X412Y1043D02*
X414Y1043D01*
X1196Y1043D02*
X1203Y1043D01*
X0Y1042D02*
X7Y1042D01*
X330Y1042D02*
X342Y1042D01*
X412Y1042D02*
X414Y1042D01*
X1196Y1042D02*
X1203Y1042D01*
X0Y1041D02*
X7Y1041D01*
X330Y1041D02*
X342Y1041D01*
X412Y1041D02*
X414Y1041D01*
X1196Y1041D02*
X1203Y1041D01*
X0Y1040D02*
X7Y1040D01*
X330Y1040D02*
X342Y1040D01*
X412Y1040D02*
X414Y1040D01*
X1196Y1040D02*
X1203Y1040D01*
X0Y1039D02*
X7Y1039D01*
X330Y1039D02*
X342Y1039D01*
X412Y1039D02*
X414Y1039D01*
X1196Y1039D02*
X1203Y1039D01*
X0Y1038D02*
X7Y1038D01*
X330Y1038D02*
X342Y1038D01*
X412Y1038D02*
X414Y1038D01*
X1196Y1038D02*
X1203Y1038D01*
X0Y1037D02*
X7Y1037D01*
X330Y1037D02*
X342Y1037D01*
X412Y1037D02*
X414Y1037D01*
X1196Y1037D02*
X1203Y1037D01*
X0Y1036D02*
X7Y1036D01*
X330Y1036D02*
X342Y1036D01*
X412Y1036D02*
X414Y1036D01*
X1196Y1036D02*
X1203Y1036D01*
X0Y1035D02*
X7Y1035D01*
X330Y1035D02*
X342Y1035D01*
X412Y1035D02*
X414Y1035D01*
X1196Y1035D02*
X1203Y1035D01*
X0Y1034D02*
X7Y1034D01*
X330Y1034D02*
X342Y1034D01*
X412Y1034D02*
X414Y1034D01*
X1196Y1034D02*
X1203Y1034D01*
X0Y1033D02*
X7Y1033D01*
X259Y1033D02*
X274Y1033D01*
X330Y1033D02*
X342Y1033D01*
X412Y1033D02*
X414Y1033D01*
X1196Y1033D02*
X1203Y1033D01*
X0Y1032D02*
X7Y1032D01*
X258Y1032D02*
X274Y1032D01*
X330Y1032D02*
X342Y1032D01*
X412Y1032D02*
X414Y1032D01*
X1196Y1032D02*
X1203Y1032D01*
X0Y1031D02*
X7Y1031D01*
X257Y1031D02*
X274Y1031D01*
X330Y1031D02*
X342Y1031D01*
X412Y1031D02*
X414Y1031D01*
X1196Y1031D02*
X1203Y1031D01*
X0Y1030D02*
X7Y1030D01*
X257Y1030D02*
X274Y1030D01*
X330Y1030D02*
X342Y1030D01*
X412Y1030D02*
X414Y1030D01*
X1196Y1030D02*
X1203Y1030D01*
X0Y1029D02*
X7Y1029D01*
X257Y1029D02*
X274Y1029D01*
X330Y1029D02*
X342Y1029D01*
X412Y1029D02*
X414Y1029D01*
X1196Y1029D02*
X1203Y1029D01*
X0Y1028D02*
X7Y1028D01*
X257Y1028D02*
X274Y1028D01*
X330Y1028D02*
X342Y1028D01*
X412Y1028D02*
X414Y1028D01*
X1196Y1028D02*
X1203Y1028D01*
X0Y1027D02*
X7Y1027D01*
X257Y1027D02*
X274Y1027D01*
X330Y1027D02*
X342Y1027D01*
X412Y1027D02*
X414Y1027D01*
X1196Y1027D02*
X1203Y1027D01*
X0Y1026D02*
X7Y1026D01*
X258Y1026D02*
X274Y1026D01*
X330Y1026D02*
X342Y1026D01*
X412Y1026D02*
X414Y1026D01*
X1196Y1026D02*
X1203Y1026D01*
X0Y1025D02*
X7Y1025D01*
X259Y1025D02*
X274Y1025D01*
X330Y1025D02*
X342Y1025D01*
X412Y1025D02*
X414Y1025D01*
X1196Y1025D02*
X1203Y1025D01*
X0Y1024D02*
X7Y1024D01*
X262Y1024D02*
X274Y1024D01*
X330Y1024D02*
X342Y1024D01*
X412Y1024D02*
X414Y1024D01*
X1196Y1024D02*
X1203Y1024D01*
X0Y1023D02*
X7Y1023D01*
X265Y1023D02*
X274Y1023D01*
X330Y1023D02*
X342Y1023D01*
X412Y1023D02*
X414Y1023D01*
X1196Y1023D02*
X1203Y1023D01*
X0Y1022D02*
X7Y1022D01*
X265Y1022D02*
X274Y1022D01*
X330Y1022D02*
X342Y1022D01*
X412Y1022D02*
X414Y1022D01*
X1196Y1022D02*
X1203Y1022D01*
X0Y1021D02*
X7Y1021D01*
X265Y1021D02*
X274Y1021D01*
X330Y1021D02*
X342Y1021D01*
X412Y1021D02*
X414Y1021D01*
X1196Y1021D02*
X1203Y1021D01*
X0Y1020D02*
X7Y1020D01*
X265Y1020D02*
X274Y1020D01*
X330Y1020D02*
X342Y1020D01*
X412Y1020D02*
X414Y1020D01*
X1196Y1020D02*
X1203Y1020D01*
X0Y1019D02*
X7Y1019D01*
X265Y1019D02*
X274Y1019D01*
X330Y1019D02*
X342Y1019D01*
X412Y1019D02*
X414Y1019D01*
X1196Y1019D02*
X1203Y1019D01*
X0Y1018D02*
X7Y1018D01*
X265Y1018D02*
X274Y1018D01*
X330Y1018D02*
X342Y1018D01*
X412Y1018D02*
X414Y1018D01*
X1196Y1018D02*
X1203Y1018D01*
X0Y1017D02*
X7Y1017D01*
X265Y1017D02*
X274Y1017D01*
X330Y1017D02*
X342Y1017D01*
X412Y1017D02*
X414Y1017D01*
X1196Y1017D02*
X1203Y1017D01*
X0Y1016D02*
X7Y1016D01*
X265Y1016D02*
X274Y1016D01*
X330Y1016D02*
X342Y1016D01*
X412Y1016D02*
X414Y1016D01*
X1196Y1016D02*
X1203Y1016D01*
X0Y1015D02*
X7Y1015D01*
X265Y1015D02*
X274Y1015D01*
X330Y1015D02*
X342Y1015D01*
X412Y1015D02*
X414Y1015D01*
X1196Y1015D02*
X1203Y1015D01*
X0Y1014D02*
X7Y1014D01*
X202Y1014D02*
X274Y1014D01*
X330Y1014D02*
X342Y1014D01*
X412Y1014D02*
X414Y1014D01*
X1196Y1014D02*
X1203Y1014D01*
X0Y1013D02*
X7Y1013D01*
X201Y1013D02*
X274Y1013D01*
X330Y1013D02*
X342Y1013D01*
X412Y1013D02*
X414Y1013D01*
X1196Y1013D02*
X1203Y1013D01*
X0Y1012D02*
X7Y1012D01*
X200Y1012D02*
X274Y1012D01*
X330Y1012D02*
X342Y1012D01*
X412Y1012D02*
X414Y1012D01*
X1196Y1012D02*
X1203Y1012D01*
X0Y1011D02*
X7Y1011D01*
X199Y1011D02*
X274Y1011D01*
X330Y1011D02*
X342Y1011D01*
X412Y1011D02*
X414Y1011D01*
X1196Y1011D02*
X1203Y1011D01*
X0Y1010D02*
X7Y1010D01*
X199Y1010D02*
X274Y1010D01*
X330Y1010D02*
X342Y1010D01*
X412Y1010D02*
X414Y1010D01*
X1196Y1010D02*
X1203Y1010D01*
X0Y1009D02*
X7Y1009D01*
X199Y1009D02*
X274Y1009D01*
X330Y1009D02*
X342Y1009D01*
X412Y1009D02*
X414Y1009D01*
X1196Y1009D02*
X1203Y1009D01*
X0Y1008D02*
X7Y1008D01*
X199Y1008D02*
X274Y1008D01*
X330Y1008D02*
X342Y1008D01*
X412Y1008D02*
X414Y1008D01*
X1196Y1008D02*
X1203Y1008D01*
X0Y1007D02*
X7Y1007D01*
X200Y1007D02*
X274Y1007D01*
X330Y1007D02*
X342Y1007D01*
X412Y1007D02*
X414Y1007D01*
X1196Y1007D02*
X1203Y1007D01*
X0Y1006D02*
X7Y1006D01*
X201Y1006D02*
X274Y1006D01*
X330Y1006D02*
X342Y1006D01*
X412Y1006D02*
X414Y1006D01*
X1196Y1006D02*
X1203Y1006D01*
X0Y1005D02*
X7Y1005D01*
X202Y1005D02*
X274Y1005D01*
X330Y1005D02*
X342Y1005D01*
X412Y1005D02*
X414Y1005D01*
X1196Y1005D02*
X1203Y1005D01*
X0Y1004D02*
X7Y1004D01*
X265Y1004D02*
X274Y1004D01*
X330Y1004D02*
X342Y1004D01*
X412Y1004D02*
X414Y1004D01*
X1196Y1004D02*
X1203Y1004D01*
X0Y1003D02*
X7Y1003D01*
X265Y1003D02*
X274Y1003D01*
X330Y1003D02*
X342Y1003D01*
X412Y1003D02*
X414Y1003D01*
X1196Y1003D02*
X1203Y1003D01*
X0Y1002D02*
X7Y1002D01*
X265Y1002D02*
X274Y1002D01*
X330Y1002D02*
X342Y1002D01*
X412Y1002D02*
X414Y1002D01*
X1196Y1002D02*
X1203Y1002D01*
X0Y1001D02*
X7Y1001D01*
X265Y1001D02*
X274Y1001D01*
X330Y1001D02*
X414Y1001D01*
X1196Y1001D02*
X1203Y1001D01*
X0Y1000D02*
X7Y1000D01*
X265Y1000D02*
X274Y1000D01*
X330Y1000D02*
X414Y1000D01*
X1196Y1000D02*
X1203Y1000D01*
X0Y999D02*
X7Y999D01*
X265Y999D02*
X274Y999D01*
X330Y999D02*
X414Y999D01*
X1196Y999D02*
X1203Y999D01*
X0Y998D02*
X7Y998D01*
X265Y998D02*
X274Y998D01*
X330Y998D02*
X343Y998D01*
X1196Y998D02*
X1203Y998D01*
X0Y997D02*
X7Y997D01*
X265Y997D02*
X274Y997D01*
X330Y997D02*
X343Y997D01*
X1196Y997D02*
X1203Y997D01*
X0Y996D02*
X7Y996D01*
X265Y996D02*
X274Y996D01*
X330Y996D02*
X343Y996D01*
X1196Y996D02*
X1203Y996D01*
X0Y995D02*
X7Y995D01*
X261Y995D02*
X274Y995D01*
X330Y995D02*
X343Y995D01*
X1196Y995D02*
X1203Y995D01*
X0Y994D02*
X7Y994D01*
X259Y994D02*
X274Y994D01*
X330Y994D02*
X343Y994D01*
X1196Y994D02*
X1203Y994D01*
X0Y993D02*
X7Y993D01*
X258Y993D02*
X274Y993D01*
X330Y993D02*
X343Y993D01*
X1196Y993D02*
X1203Y993D01*
X0Y992D02*
X7Y992D01*
X257Y992D02*
X274Y992D01*
X330Y992D02*
X343Y992D01*
X1196Y992D02*
X1203Y992D01*
X0Y991D02*
X7Y991D01*
X257Y991D02*
X274Y991D01*
X330Y991D02*
X343Y991D01*
X1196Y991D02*
X1203Y991D01*
X0Y990D02*
X7Y990D01*
X257Y990D02*
X274Y990D01*
X330Y990D02*
X343Y990D01*
X1196Y990D02*
X1203Y990D01*
X0Y989D02*
X7Y989D01*
X257Y989D02*
X274Y989D01*
X330Y989D02*
X343Y989D01*
X1196Y989D02*
X1203Y989D01*
X0Y988D02*
X7Y988D01*
X257Y988D02*
X274Y988D01*
X330Y988D02*
X343Y988D01*
X1196Y988D02*
X1203Y988D01*
X0Y987D02*
X7Y987D01*
X258Y987D02*
X274Y987D01*
X330Y987D02*
X343Y987D01*
X1196Y987D02*
X1203Y987D01*
X0Y986D02*
X7Y986D01*
X259Y986D02*
X274Y986D01*
X330Y986D02*
X343Y986D01*
X1196Y986D02*
X1203Y986D01*
X0Y985D02*
X7Y985D01*
X330Y985D02*
X343Y985D01*
X1196Y985D02*
X1203Y985D01*
X0Y984D02*
X7Y984D01*
X330Y984D02*
X343Y984D01*
X1196Y984D02*
X1203Y984D01*
X0Y983D02*
X7Y983D01*
X330Y983D02*
X343Y983D01*
X1196Y983D02*
X1203Y983D01*
X0Y982D02*
X7Y982D01*
X330Y982D02*
X343Y982D01*
X1196Y982D02*
X1203Y982D01*
X0Y981D02*
X7Y981D01*
X330Y981D02*
X343Y981D01*
X1196Y981D02*
X1203Y981D01*
X0Y980D02*
X7Y980D01*
X330Y980D02*
X343Y980D01*
X1196Y980D02*
X1203Y980D01*
X0Y979D02*
X7Y979D01*
X330Y979D02*
X343Y979D01*
X1196Y979D02*
X1203Y979D01*
X0Y978D02*
X7Y978D01*
X330Y978D02*
X343Y978D01*
X1196Y978D02*
X1203Y978D01*
X0Y977D02*
X7Y977D01*
X330Y977D02*
X343Y977D01*
X1196Y977D02*
X1203Y977D01*
X0Y976D02*
X7Y976D01*
X330Y976D02*
X343Y976D01*
X1196Y976D02*
X1203Y976D01*
X0Y975D02*
X7Y975D01*
X330Y975D02*
X343Y975D01*
X1196Y975D02*
X1203Y975D01*
X0Y974D02*
X7Y974D01*
X330Y974D02*
X343Y974D01*
X1196Y974D02*
X1203Y974D01*
X0Y973D02*
X7Y973D01*
X330Y973D02*
X343Y973D01*
X1196Y973D02*
X1203Y973D01*
X0Y972D02*
X7Y972D01*
X330Y972D02*
X343Y972D01*
X1196Y972D02*
X1203Y972D01*
X0Y971D02*
X7Y971D01*
X330Y971D02*
X343Y971D01*
X1196Y971D02*
X1203Y971D01*
X0Y970D02*
X7Y970D01*
X330Y970D02*
X343Y970D01*
X1196Y970D02*
X1203Y970D01*
X0Y969D02*
X7Y969D01*
X330Y969D02*
X343Y969D01*
X1196Y969D02*
X1203Y969D01*
X0Y968D02*
X7Y968D01*
X330Y968D02*
X343Y968D01*
X1196Y968D02*
X1203Y968D01*
X0Y967D02*
X7Y967D01*
X330Y967D02*
X343Y967D01*
X1196Y967D02*
X1203Y967D01*
X0Y966D02*
X7Y966D01*
X330Y966D02*
X343Y966D01*
X1196Y966D02*
X1203Y966D01*
X0Y965D02*
X7Y965D01*
X330Y965D02*
X343Y965D01*
X1196Y965D02*
X1203Y965D01*
X0Y964D02*
X7Y964D01*
X330Y964D02*
X343Y964D01*
X1196Y964D02*
X1203Y964D01*
X0Y963D02*
X7Y963D01*
X202Y963D02*
X271Y963D01*
X330Y963D02*
X343Y963D01*
X1196Y963D02*
X1203Y963D01*
X0Y962D02*
X7Y962D01*
X200Y962D02*
X272Y962D01*
X330Y962D02*
X343Y962D01*
X1196Y962D02*
X1203Y962D01*
X0Y961D02*
X7Y961D01*
X200Y961D02*
X273Y961D01*
X330Y961D02*
X343Y961D01*
X1196Y961D02*
X1203Y961D01*
X0Y960D02*
X7Y960D01*
X199Y960D02*
X274Y960D01*
X330Y960D02*
X343Y960D01*
X1196Y960D02*
X1203Y960D01*
X0Y959D02*
X7Y959D01*
X199Y959D02*
X274Y959D01*
X330Y959D02*
X343Y959D01*
X1196Y959D02*
X1203Y959D01*
X0Y958D02*
X7Y958D01*
X199Y958D02*
X274Y958D01*
X330Y958D02*
X343Y958D01*
X1196Y958D02*
X1203Y958D01*
X0Y957D02*
X7Y957D01*
X199Y957D02*
X274Y957D01*
X330Y957D02*
X343Y957D01*
X1196Y957D02*
X1203Y957D01*
X0Y956D02*
X7Y956D01*
X200Y956D02*
X273Y956D01*
X330Y956D02*
X343Y956D01*
X1196Y956D02*
X1203Y956D01*
X0Y955D02*
X7Y955D01*
X201Y955D02*
X272Y955D01*
X330Y955D02*
X343Y955D01*
X1196Y955D02*
X1203Y955D01*
X0Y954D02*
X7Y954D01*
X202Y954D02*
X270Y954D01*
X330Y954D02*
X343Y954D01*
X1196Y954D02*
X1203Y954D01*
X0Y953D02*
X7Y953D01*
X232Y953D02*
X241Y953D01*
X330Y953D02*
X343Y953D01*
X1196Y953D02*
X1203Y953D01*
X0Y952D02*
X7Y952D01*
X232Y952D02*
X241Y952D01*
X330Y952D02*
X343Y952D01*
X1196Y952D02*
X1203Y952D01*
X0Y951D02*
X7Y951D01*
X232Y951D02*
X241Y951D01*
X330Y951D02*
X343Y951D01*
X1196Y951D02*
X1203Y951D01*
X0Y950D02*
X7Y950D01*
X232Y950D02*
X241Y950D01*
X330Y950D02*
X343Y950D01*
X1196Y950D02*
X1203Y950D01*
X0Y949D02*
X7Y949D01*
X232Y949D02*
X241Y949D01*
X330Y949D02*
X343Y949D01*
X1196Y949D02*
X1203Y949D01*
X0Y948D02*
X7Y948D01*
X232Y948D02*
X241Y948D01*
X330Y948D02*
X343Y948D01*
X1196Y948D02*
X1203Y948D01*
X0Y947D02*
X7Y947D01*
X232Y947D02*
X241Y947D01*
X330Y947D02*
X343Y947D01*
X1196Y947D02*
X1203Y947D01*
X0Y946D02*
X7Y946D01*
X232Y946D02*
X241Y946D01*
X330Y946D02*
X343Y946D01*
X1196Y946D02*
X1203Y946D01*
X0Y945D02*
X7Y945D01*
X232Y945D02*
X241Y945D01*
X330Y945D02*
X343Y945D01*
X1196Y945D02*
X1203Y945D01*
X0Y944D02*
X7Y944D01*
X232Y944D02*
X241Y944D01*
X330Y944D02*
X343Y944D01*
X1196Y944D02*
X1203Y944D01*
X0Y943D02*
X7Y943D01*
X232Y943D02*
X241Y943D01*
X330Y943D02*
X343Y943D01*
X1196Y943D02*
X1203Y943D01*
X0Y942D02*
X7Y942D01*
X232Y942D02*
X241Y942D01*
X330Y942D02*
X343Y942D01*
X1196Y942D02*
X1203Y942D01*
X0Y941D02*
X7Y941D01*
X232Y941D02*
X241Y941D01*
X330Y941D02*
X343Y941D01*
X1196Y941D02*
X1203Y941D01*
X0Y940D02*
X7Y940D01*
X232Y940D02*
X241Y940D01*
X330Y940D02*
X343Y940D01*
X1196Y940D02*
X1203Y940D01*
X0Y939D02*
X7Y939D01*
X232Y939D02*
X241Y939D01*
X330Y939D02*
X343Y939D01*
X1196Y939D02*
X1203Y939D01*
X0Y938D02*
X7Y938D01*
X232Y938D02*
X241Y938D01*
X330Y938D02*
X343Y938D01*
X1196Y938D02*
X1203Y938D01*
X0Y937D02*
X7Y937D01*
X232Y937D02*
X241Y937D01*
X330Y937D02*
X343Y937D01*
X1196Y937D02*
X1203Y937D01*
X0Y936D02*
X7Y936D01*
X232Y936D02*
X241Y936D01*
X330Y936D02*
X343Y936D01*
X1196Y936D02*
X1203Y936D01*
X0Y935D02*
X7Y935D01*
X232Y935D02*
X241Y935D01*
X330Y935D02*
X343Y935D01*
X1196Y935D02*
X1203Y935D01*
X0Y934D02*
X7Y934D01*
X232Y934D02*
X241Y934D01*
X330Y934D02*
X343Y934D01*
X1196Y934D02*
X1203Y934D01*
X0Y933D02*
X7Y933D01*
X232Y933D02*
X241Y933D01*
X330Y933D02*
X343Y933D01*
X1196Y933D02*
X1203Y933D01*
X0Y932D02*
X7Y932D01*
X232Y932D02*
X241Y932D01*
X330Y932D02*
X343Y932D01*
X1196Y932D02*
X1203Y932D01*
X0Y931D02*
X7Y931D01*
X232Y931D02*
X241Y931D01*
X330Y931D02*
X343Y931D01*
X1196Y931D02*
X1203Y931D01*
X0Y930D02*
X7Y930D01*
X232Y930D02*
X241Y930D01*
X330Y930D02*
X343Y930D01*
X1196Y930D02*
X1203Y930D01*
X0Y929D02*
X7Y929D01*
X232Y929D02*
X241Y929D01*
X330Y929D02*
X343Y929D01*
X1196Y929D02*
X1203Y929D01*
X0Y928D02*
X7Y928D01*
X232Y928D02*
X241Y928D01*
X330Y928D02*
X343Y928D01*
X1196Y928D02*
X1203Y928D01*
X0Y927D02*
X7Y927D01*
X232Y927D02*
X241Y927D01*
X330Y927D02*
X343Y927D01*
X1196Y927D02*
X1203Y927D01*
X0Y926D02*
X7Y926D01*
X232Y926D02*
X241Y926D01*
X330Y926D02*
X343Y926D01*
X1196Y926D02*
X1203Y926D01*
X0Y925D02*
X7Y925D01*
X232Y925D02*
X241Y925D01*
X330Y925D02*
X343Y925D01*
X1196Y925D02*
X1203Y925D01*
X0Y924D02*
X7Y924D01*
X201Y924D02*
X272Y924D01*
X330Y924D02*
X343Y924D01*
X1196Y924D02*
X1203Y924D01*
X0Y923D02*
X7Y923D01*
X200Y923D02*
X273Y923D01*
X330Y923D02*
X343Y923D01*
X1196Y923D02*
X1203Y923D01*
X0Y922D02*
X7Y922D01*
X199Y922D02*
X273Y922D01*
X330Y922D02*
X343Y922D01*
X1196Y922D02*
X1203Y922D01*
X0Y921D02*
X7Y921D01*
X199Y921D02*
X274Y921D01*
X330Y921D02*
X343Y921D01*
X1196Y921D02*
X1203Y921D01*
X0Y920D02*
X7Y920D01*
X199Y920D02*
X274Y920D01*
X330Y920D02*
X343Y920D01*
X1196Y920D02*
X1203Y920D01*
X0Y919D02*
X7Y919D01*
X199Y919D02*
X274Y919D01*
X330Y919D02*
X343Y919D01*
X1196Y919D02*
X1203Y919D01*
X0Y918D02*
X7Y918D01*
X199Y918D02*
X273Y918D01*
X330Y918D02*
X343Y918D01*
X1196Y918D02*
X1203Y918D01*
X0Y917D02*
X7Y917D01*
X200Y917D02*
X273Y917D01*
X330Y917D02*
X343Y917D01*
X1196Y917D02*
X1203Y917D01*
X0Y916D02*
X7Y916D01*
X201Y916D02*
X272Y916D01*
X330Y916D02*
X343Y916D01*
X1196Y916D02*
X1203Y916D01*
X0Y915D02*
X7Y915D01*
X330Y915D02*
X343Y915D01*
X1196Y915D02*
X1203Y915D01*
X0Y914D02*
X7Y914D01*
X330Y914D02*
X343Y914D01*
X1196Y914D02*
X1203Y914D01*
X0Y913D02*
X7Y913D01*
X330Y913D02*
X343Y913D01*
X1196Y913D02*
X1203Y913D01*
X0Y912D02*
X7Y912D01*
X330Y912D02*
X343Y912D01*
X1196Y912D02*
X1203Y912D01*
X0Y911D02*
X7Y911D01*
X330Y911D02*
X343Y911D01*
X1196Y911D02*
X1203Y911D01*
X0Y910D02*
X7Y910D01*
X330Y910D02*
X343Y910D01*
X1196Y910D02*
X1203Y910D01*
X0Y909D02*
X7Y909D01*
X330Y909D02*
X343Y909D01*
X1196Y909D02*
X1203Y909D01*
X0Y908D02*
X7Y908D01*
X330Y908D02*
X343Y908D01*
X1196Y908D02*
X1203Y908D01*
X0Y907D02*
X7Y907D01*
X330Y907D02*
X343Y907D01*
X1196Y907D02*
X1203Y907D01*
X0Y906D02*
X7Y906D01*
X330Y906D02*
X343Y906D01*
X1196Y906D02*
X1203Y906D01*
X0Y905D02*
X7Y905D01*
X330Y905D02*
X343Y905D01*
X1196Y905D02*
X1203Y905D01*
X0Y904D02*
X7Y904D01*
X330Y904D02*
X343Y904D01*
X1196Y904D02*
X1203Y904D01*
X0Y903D02*
X7Y903D01*
X330Y903D02*
X343Y903D01*
X1196Y903D02*
X1203Y903D01*
X0Y902D02*
X7Y902D01*
X330Y902D02*
X343Y902D01*
X1196Y902D02*
X1203Y902D01*
X0Y901D02*
X7Y901D01*
X330Y901D02*
X343Y901D01*
X1196Y901D02*
X1203Y901D01*
X0Y900D02*
X7Y900D01*
X330Y900D02*
X343Y900D01*
X1196Y900D02*
X1203Y900D01*
X0Y899D02*
X7Y899D01*
X330Y899D02*
X343Y899D01*
X1196Y899D02*
X1203Y899D01*
X0Y898D02*
X7Y898D01*
X330Y898D02*
X343Y898D01*
X1196Y898D02*
X1203Y898D01*
X0Y897D02*
X7Y897D01*
X330Y897D02*
X343Y897D01*
X1196Y897D02*
X1203Y897D01*
X0Y896D02*
X7Y896D01*
X330Y896D02*
X343Y896D01*
X1196Y896D02*
X1203Y896D01*
X0Y895D02*
X7Y895D01*
X330Y895D02*
X343Y895D01*
X1196Y895D02*
X1203Y895D01*
X0Y894D02*
X7Y894D01*
X330Y894D02*
X343Y894D01*
X1196Y894D02*
X1203Y894D01*
X0Y893D02*
X7Y893D01*
X234Y893D02*
X239Y893D01*
X330Y893D02*
X343Y893D01*
X1196Y893D02*
X1203Y893D01*
X0Y892D02*
X7Y892D01*
X230Y892D02*
X243Y892D01*
X330Y892D02*
X343Y892D01*
X1196Y892D02*
X1203Y892D01*
X0Y891D02*
X7Y891D01*
X227Y891D02*
X246Y891D01*
X330Y891D02*
X343Y891D01*
X1196Y891D02*
X1203Y891D01*
X0Y890D02*
X7Y890D01*
X225Y890D02*
X248Y890D01*
X330Y890D02*
X343Y890D01*
X1196Y890D02*
X1203Y890D01*
X0Y889D02*
X7Y889D01*
X223Y889D02*
X250Y889D01*
X330Y889D02*
X343Y889D01*
X1196Y889D02*
X1203Y889D01*
X0Y888D02*
X7Y888D01*
X221Y888D02*
X252Y888D01*
X330Y888D02*
X343Y888D01*
X1196Y888D02*
X1203Y888D01*
X0Y887D02*
X7Y887D01*
X219Y887D02*
X254Y887D01*
X330Y887D02*
X343Y887D01*
X1196Y887D02*
X1203Y887D01*
X0Y886D02*
X7Y886D01*
X217Y886D02*
X256Y886D01*
X330Y886D02*
X343Y886D01*
X1196Y886D02*
X1203Y886D01*
X0Y885D02*
X7Y885D01*
X215Y885D02*
X258Y885D01*
X330Y885D02*
X343Y885D01*
X1196Y885D02*
X1203Y885D01*
X0Y884D02*
X7Y884D01*
X213Y884D02*
X260Y884D01*
X330Y884D02*
X343Y884D01*
X1196Y884D02*
X1203Y884D01*
X0Y883D02*
X7Y883D01*
X211Y883D02*
X233Y883D01*
X240Y883D02*
X262Y883D01*
X330Y883D02*
X343Y883D01*
X1196Y883D02*
X1203Y883D01*
X0Y882D02*
X7Y882D01*
X209Y882D02*
X230Y882D01*
X243Y882D02*
X264Y882D01*
X330Y882D02*
X343Y882D01*
X1196Y882D02*
X1203Y882D01*
X0Y881D02*
X7Y881D01*
X207Y881D02*
X228Y881D01*
X245Y881D02*
X266Y881D01*
X330Y881D02*
X343Y881D01*
X1196Y881D02*
X1203Y881D01*
X0Y880D02*
X7Y880D01*
X205Y880D02*
X226Y880D01*
X247Y880D02*
X267Y880D01*
X330Y880D02*
X343Y880D01*
X1196Y880D02*
X1203Y880D01*
X0Y879D02*
X7Y879D01*
X204Y879D02*
X224Y879D01*
X249Y879D02*
X269Y879D01*
X330Y879D02*
X343Y879D01*
X1196Y879D02*
X1203Y879D01*
X0Y878D02*
X7Y878D01*
X203Y878D02*
X222Y878D01*
X251Y878D02*
X270Y878D01*
X330Y878D02*
X343Y878D01*
X1196Y878D02*
X1203Y878D01*
X0Y877D02*
X7Y877D01*
X202Y877D02*
X220Y877D01*
X253Y877D02*
X270Y877D01*
X330Y877D02*
X343Y877D01*
X1196Y877D02*
X1203Y877D01*
X0Y876D02*
X7Y876D01*
X201Y876D02*
X218Y876D01*
X255Y876D02*
X271Y876D01*
X330Y876D02*
X343Y876D01*
X1196Y876D02*
X1203Y876D01*
X0Y875D02*
X7Y875D01*
X201Y875D02*
X216Y875D01*
X257Y875D02*
X272Y875D01*
X330Y875D02*
X343Y875D01*
X1196Y875D02*
X1203Y875D01*
X0Y874D02*
X7Y874D01*
X200Y874D02*
X214Y874D01*
X259Y874D02*
X272Y874D01*
X330Y874D02*
X343Y874D01*
X1196Y874D02*
X1203Y874D01*
X0Y873D02*
X7Y873D01*
X200Y873D02*
X212Y873D01*
X261Y873D02*
X273Y873D01*
X330Y873D02*
X343Y873D01*
X1196Y873D02*
X1203Y873D01*
X0Y872D02*
X7Y872D01*
X200Y872D02*
X210Y872D01*
X262Y872D02*
X273Y872D01*
X330Y872D02*
X343Y872D01*
X1196Y872D02*
X1203Y872D01*
X0Y871D02*
X7Y871D01*
X199Y871D02*
X209Y871D01*
X264Y871D02*
X273Y871D01*
X330Y871D02*
X343Y871D01*
X1196Y871D02*
X1203Y871D01*
X0Y870D02*
X7Y870D01*
X199Y870D02*
X208Y870D01*
X265Y870D02*
X274Y870D01*
X330Y870D02*
X343Y870D01*
X1196Y870D02*
X1203Y870D01*
X0Y869D02*
X7Y869D01*
X199Y869D02*
X208Y869D01*
X265Y869D02*
X274Y869D01*
X330Y869D02*
X343Y869D01*
X1196Y869D02*
X1203Y869D01*
X0Y868D02*
X7Y868D01*
X199Y868D02*
X208Y868D01*
X265Y868D02*
X274Y868D01*
X330Y868D02*
X343Y868D01*
X1196Y868D02*
X1203Y868D01*
X0Y867D02*
X7Y867D01*
X199Y867D02*
X208Y867D01*
X265Y867D02*
X274Y867D01*
X330Y867D02*
X343Y867D01*
X1196Y867D02*
X1203Y867D01*
X0Y866D02*
X7Y866D01*
X199Y866D02*
X208Y866D01*
X265Y866D02*
X274Y866D01*
X330Y866D02*
X343Y866D01*
X1196Y866D02*
X1203Y866D01*
X0Y865D02*
X7Y865D01*
X199Y865D02*
X208Y865D01*
X265Y865D02*
X274Y865D01*
X330Y865D02*
X343Y865D01*
X1196Y865D02*
X1203Y865D01*
X0Y864D02*
X7Y864D01*
X199Y864D02*
X274Y864D01*
X330Y864D02*
X343Y864D01*
X1196Y864D02*
X1203Y864D01*
X0Y863D02*
X7Y863D01*
X199Y863D02*
X274Y863D01*
X330Y863D02*
X343Y863D01*
X1196Y863D02*
X1203Y863D01*
X0Y862D02*
X7Y862D01*
X199Y862D02*
X274Y862D01*
X330Y862D02*
X343Y862D01*
X1196Y862D02*
X1203Y862D01*
X0Y861D02*
X7Y861D01*
X199Y861D02*
X274Y861D01*
X330Y861D02*
X343Y861D01*
X1196Y861D02*
X1203Y861D01*
X0Y860D02*
X7Y860D01*
X199Y860D02*
X274Y860D01*
X330Y860D02*
X343Y860D01*
X1196Y860D02*
X1203Y860D01*
X0Y859D02*
X7Y859D01*
X199Y859D02*
X274Y859D01*
X330Y859D02*
X343Y859D01*
X1196Y859D02*
X1203Y859D01*
X0Y858D02*
X7Y858D01*
X199Y858D02*
X274Y858D01*
X330Y858D02*
X343Y858D01*
X1196Y858D02*
X1203Y858D01*
X0Y857D02*
X7Y857D01*
X199Y857D02*
X274Y857D01*
X330Y857D02*
X343Y857D01*
X1196Y857D02*
X1203Y857D01*
X0Y856D02*
X7Y856D01*
X199Y856D02*
X274Y856D01*
X330Y856D02*
X343Y856D01*
X1196Y856D02*
X1203Y856D01*
X0Y855D02*
X7Y855D01*
X199Y855D02*
X274Y855D01*
X330Y855D02*
X343Y855D01*
X1196Y855D02*
X1203Y855D01*
X0Y854D02*
X7Y854D01*
X199Y854D02*
X208Y854D01*
X265Y854D02*
X274Y854D01*
X330Y854D02*
X343Y854D01*
X1196Y854D02*
X1203Y854D01*
X0Y853D02*
X7Y853D01*
X199Y853D02*
X208Y853D01*
X265Y853D02*
X274Y853D01*
X330Y853D02*
X343Y853D01*
X1196Y853D02*
X1203Y853D01*
X0Y852D02*
X7Y852D01*
X199Y852D02*
X208Y852D01*
X265Y852D02*
X274Y852D01*
X330Y852D02*
X343Y852D01*
X1196Y852D02*
X1203Y852D01*
X0Y851D02*
X7Y851D01*
X199Y851D02*
X208Y851D01*
X265Y851D02*
X274Y851D01*
X330Y851D02*
X343Y851D01*
X1196Y851D02*
X1203Y851D01*
X0Y850D02*
X7Y850D01*
X199Y850D02*
X208Y850D01*
X265Y850D02*
X274Y850D01*
X330Y850D02*
X343Y850D01*
X1196Y850D02*
X1203Y850D01*
X0Y849D02*
X7Y849D01*
X199Y849D02*
X208Y849D01*
X265Y849D02*
X274Y849D01*
X330Y849D02*
X343Y849D01*
X1196Y849D02*
X1203Y849D01*
X0Y848D02*
X7Y848D01*
X199Y848D02*
X207Y848D01*
X265Y848D02*
X273Y848D01*
X330Y848D02*
X343Y848D01*
X1196Y848D02*
X1203Y848D01*
X0Y847D02*
X7Y847D01*
X200Y847D02*
X207Y847D01*
X266Y847D02*
X273Y847D01*
X330Y847D02*
X343Y847D01*
X1196Y847D02*
X1203Y847D01*
X0Y846D02*
X7Y846D01*
X201Y846D02*
X206Y846D01*
X267Y846D02*
X272Y846D01*
X330Y846D02*
X343Y846D01*
X1196Y846D02*
X1203Y846D01*
X0Y845D02*
X7Y845D01*
X203Y845D02*
X204Y845D01*
X269Y845D02*
X270Y845D01*
X330Y845D02*
X343Y845D01*
X1196Y845D02*
X1203Y845D01*
X0Y844D02*
X7Y844D01*
X330Y844D02*
X343Y844D01*
X1196Y844D02*
X1203Y844D01*
X0Y843D02*
X7Y843D01*
X330Y843D02*
X343Y843D01*
X1196Y843D02*
X1203Y843D01*
X0Y842D02*
X7Y842D01*
X330Y842D02*
X343Y842D01*
X1196Y842D02*
X1203Y842D01*
X0Y841D02*
X7Y841D01*
X330Y841D02*
X343Y841D01*
X1196Y841D02*
X1203Y841D01*
X0Y840D02*
X7Y840D01*
X330Y840D02*
X343Y840D01*
X1196Y840D02*
X1203Y840D01*
X0Y839D02*
X7Y839D01*
X330Y839D02*
X343Y839D01*
X1196Y839D02*
X1203Y839D01*
X0Y838D02*
X7Y838D01*
X330Y838D02*
X343Y838D01*
X1196Y838D02*
X1203Y838D01*
X0Y837D02*
X7Y837D01*
X330Y837D02*
X343Y837D01*
X1196Y837D02*
X1203Y837D01*
X0Y836D02*
X7Y836D01*
X330Y836D02*
X343Y836D01*
X1196Y836D02*
X1203Y836D01*
X0Y835D02*
X7Y835D01*
X330Y835D02*
X343Y835D01*
X1196Y835D02*
X1203Y835D01*
X0Y834D02*
X7Y834D01*
X330Y834D02*
X343Y834D01*
X1196Y834D02*
X1203Y834D01*
X0Y833D02*
X7Y833D01*
X330Y833D02*
X343Y833D01*
X1196Y833D02*
X1203Y833D01*
X0Y832D02*
X7Y832D01*
X330Y832D02*
X343Y832D01*
X1196Y832D02*
X1203Y832D01*
X0Y831D02*
X7Y831D01*
X330Y831D02*
X343Y831D01*
X1196Y831D02*
X1203Y831D01*
X0Y830D02*
X7Y830D01*
X330Y830D02*
X343Y830D01*
X1196Y830D02*
X1203Y830D01*
X0Y829D02*
X7Y829D01*
X330Y829D02*
X343Y829D01*
X1196Y829D02*
X1203Y829D01*
X0Y828D02*
X7Y828D01*
X330Y828D02*
X343Y828D01*
X1196Y828D02*
X1203Y828D01*
X0Y827D02*
X7Y827D01*
X330Y827D02*
X343Y827D01*
X1196Y827D02*
X1203Y827D01*
X0Y826D02*
X7Y826D01*
X330Y826D02*
X343Y826D01*
X1196Y826D02*
X1203Y826D01*
X0Y825D02*
X7Y825D01*
X330Y825D02*
X343Y825D01*
X1196Y825D02*
X1203Y825D01*
X0Y824D02*
X7Y824D01*
X330Y824D02*
X343Y824D01*
X1196Y824D02*
X1203Y824D01*
X0Y823D02*
X7Y823D01*
X330Y823D02*
X343Y823D01*
X1196Y823D02*
X1203Y823D01*
X0Y822D02*
X7Y822D01*
X330Y822D02*
X343Y822D01*
X1196Y822D02*
X1203Y822D01*
X0Y821D02*
X7Y821D01*
X330Y821D02*
X343Y821D01*
X1196Y821D02*
X1203Y821D01*
X0Y820D02*
X7Y820D01*
X330Y820D02*
X343Y820D01*
X1196Y820D02*
X1203Y820D01*
X0Y819D02*
X7Y819D01*
X330Y819D02*
X343Y819D01*
X1196Y819D02*
X1203Y819D01*
X0Y818D02*
X7Y818D01*
X330Y818D02*
X343Y818D01*
X1196Y818D02*
X1203Y818D01*
X0Y817D02*
X7Y817D01*
X330Y817D02*
X343Y817D01*
X1196Y817D02*
X1203Y817D01*
X0Y816D02*
X7Y816D01*
X330Y816D02*
X343Y816D01*
X1196Y816D02*
X1203Y816D01*
X0Y815D02*
X7Y815D01*
X330Y815D02*
X343Y815D01*
X1196Y815D02*
X1203Y815D01*
X0Y814D02*
X7Y814D01*
X330Y814D02*
X343Y814D01*
X1196Y814D02*
X1203Y814D01*
X0Y813D02*
X7Y813D01*
X330Y813D02*
X343Y813D01*
X1196Y813D02*
X1203Y813D01*
X0Y812D02*
X7Y812D01*
X330Y812D02*
X343Y812D01*
X1196Y812D02*
X1203Y812D01*
X0Y811D02*
X7Y811D01*
X330Y811D02*
X343Y811D01*
X1196Y811D02*
X1203Y811D01*
X0Y810D02*
X7Y810D01*
X330Y810D02*
X343Y810D01*
X1196Y810D02*
X1203Y810D01*
X0Y809D02*
X7Y809D01*
X330Y809D02*
X343Y809D01*
X1196Y809D02*
X1203Y809D01*
X0Y808D02*
X7Y808D01*
X330Y808D02*
X343Y808D01*
X1196Y808D02*
X1203Y808D01*
X0Y807D02*
X7Y807D01*
X330Y807D02*
X343Y807D01*
X1196Y807D02*
X1203Y807D01*
X0Y806D02*
X7Y806D01*
X330Y806D02*
X343Y806D01*
X1196Y806D02*
X1203Y806D01*
X0Y805D02*
X7Y805D01*
X330Y805D02*
X343Y805D01*
X1196Y805D02*
X1203Y805D01*
X0Y804D02*
X7Y804D01*
X330Y804D02*
X343Y804D01*
X1196Y804D02*
X1203Y804D01*
X0Y803D02*
X7Y803D01*
X330Y803D02*
X343Y803D01*
X1196Y803D02*
X1203Y803D01*
X0Y802D02*
X7Y802D01*
X330Y802D02*
X343Y802D01*
X1196Y802D02*
X1203Y802D01*
X0Y801D02*
X7Y801D01*
X330Y801D02*
X343Y801D01*
X1196Y801D02*
X1203Y801D01*
X0Y800D02*
X7Y800D01*
X330Y800D02*
X343Y800D01*
X1196Y800D02*
X1203Y800D01*
X0Y799D02*
X7Y799D01*
X330Y799D02*
X343Y799D01*
X1196Y799D02*
X1203Y799D01*
X0Y798D02*
X7Y798D01*
X330Y798D02*
X343Y798D01*
X1196Y798D02*
X1203Y798D01*
X0Y797D02*
X7Y797D01*
X330Y797D02*
X343Y797D01*
X1196Y797D02*
X1203Y797D01*
X0Y796D02*
X7Y796D01*
X330Y796D02*
X343Y796D01*
X1196Y796D02*
X1203Y796D01*
X0Y795D02*
X7Y795D01*
X330Y795D02*
X343Y795D01*
X1196Y795D02*
X1203Y795D01*
X0Y794D02*
X7Y794D01*
X330Y794D02*
X343Y794D01*
X1196Y794D02*
X1203Y794D01*
X0Y793D02*
X7Y793D01*
X330Y793D02*
X343Y793D01*
X1196Y793D02*
X1203Y793D01*
X0Y792D02*
X7Y792D01*
X330Y792D02*
X343Y792D01*
X1196Y792D02*
X1203Y792D01*
X0Y791D02*
X7Y791D01*
X330Y791D02*
X343Y791D01*
X1196Y791D02*
X1203Y791D01*
X0Y790D02*
X7Y790D01*
X330Y790D02*
X343Y790D01*
X1196Y790D02*
X1203Y790D01*
X0Y789D02*
X7Y789D01*
X330Y789D02*
X343Y789D01*
X1196Y789D02*
X1203Y789D01*
X0Y788D02*
X7Y788D01*
X330Y788D02*
X343Y788D01*
X1196Y788D02*
X1203Y788D01*
X0Y787D02*
X7Y787D01*
X330Y787D02*
X343Y787D01*
X1196Y787D02*
X1203Y787D01*
X0Y786D02*
X7Y786D01*
X330Y786D02*
X343Y786D01*
X1196Y786D02*
X1203Y786D01*
X0Y785D02*
X7Y785D01*
X330Y785D02*
X343Y785D01*
X1196Y785D02*
X1203Y785D01*
X0Y784D02*
X7Y784D01*
X330Y784D02*
X343Y784D01*
X1196Y784D02*
X1203Y784D01*
X0Y783D02*
X7Y783D01*
X330Y783D02*
X343Y783D01*
X1196Y783D02*
X1203Y783D01*
X0Y782D02*
X7Y782D01*
X330Y782D02*
X343Y782D01*
X1196Y782D02*
X1203Y782D01*
X0Y781D02*
X7Y781D01*
X330Y781D02*
X343Y781D01*
X1196Y781D02*
X1203Y781D01*
X0Y780D02*
X7Y780D01*
X330Y780D02*
X343Y780D01*
X1196Y780D02*
X1203Y780D01*
X0Y779D02*
X7Y779D01*
X330Y779D02*
X343Y779D01*
X1196Y779D02*
X1203Y779D01*
X0Y778D02*
X7Y778D01*
X330Y778D02*
X343Y778D01*
X1196Y778D02*
X1203Y778D01*
X0Y777D02*
X7Y777D01*
X330Y777D02*
X343Y777D01*
X1196Y777D02*
X1203Y777D01*
X0Y776D02*
X7Y776D01*
X330Y776D02*
X343Y776D01*
X1196Y776D02*
X1203Y776D01*
X0Y775D02*
X7Y775D01*
X330Y775D02*
X343Y775D01*
X1196Y775D02*
X1203Y775D01*
X0Y774D02*
X7Y774D01*
X330Y774D02*
X343Y774D01*
X1196Y774D02*
X1203Y774D01*
X0Y773D02*
X7Y773D01*
X330Y773D02*
X343Y773D01*
X1196Y773D02*
X1203Y773D01*
X0Y772D02*
X7Y772D01*
X330Y772D02*
X343Y772D01*
X1196Y772D02*
X1203Y772D01*
X0Y771D02*
X7Y771D01*
X330Y771D02*
X343Y771D01*
X1196Y771D02*
X1203Y771D01*
X0Y770D02*
X7Y770D01*
X330Y770D02*
X343Y770D01*
X1196Y770D02*
X1203Y770D01*
X0Y769D02*
X7Y769D01*
X330Y769D02*
X343Y769D01*
X1196Y769D02*
X1203Y769D01*
X0Y768D02*
X7Y768D01*
X330Y768D02*
X343Y768D01*
X1196Y768D02*
X1203Y768D01*
X0Y767D02*
X7Y767D01*
X330Y767D02*
X343Y767D01*
X1196Y767D02*
X1203Y767D01*
X0Y766D02*
X7Y766D01*
X330Y766D02*
X343Y766D01*
X1196Y766D02*
X1203Y766D01*
X0Y765D02*
X7Y765D01*
X330Y765D02*
X343Y765D01*
X1196Y765D02*
X1203Y765D01*
X0Y764D02*
X7Y764D01*
X330Y764D02*
X343Y764D01*
X1196Y764D02*
X1203Y764D01*
X0Y763D02*
X7Y763D01*
X330Y763D02*
X343Y763D01*
X1196Y763D02*
X1203Y763D01*
X0Y762D02*
X7Y762D01*
X330Y762D02*
X343Y762D01*
X1196Y762D02*
X1203Y762D01*
X0Y761D02*
X7Y761D01*
X330Y761D02*
X343Y761D01*
X1196Y761D02*
X1203Y761D01*
X0Y760D02*
X7Y760D01*
X330Y760D02*
X343Y760D01*
X1196Y760D02*
X1203Y760D01*
X0Y759D02*
X7Y759D01*
X330Y759D02*
X343Y759D01*
X1196Y759D02*
X1203Y759D01*
X0Y758D02*
X7Y758D01*
X330Y758D02*
X343Y758D01*
X1196Y758D02*
X1203Y758D01*
X0Y757D02*
X7Y757D01*
X330Y757D02*
X343Y757D01*
X1196Y757D02*
X1203Y757D01*
X0Y756D02*
X7Y756D01*
X330Y756D02*
X343Y756D01*
X1196Y756D02*
X1203Y756D01*
X0Y755D02*
X7Y755D01*
X330Y755D02*
X343Y755D01*
X1196Y755D02*
X1203Y755D01*
X0Y754D02*
X7Y754D01*
X330Y754D02*
X343Y754D01*
X1196Y754D02*
X1203Y754D01*
X0Y753D02*
X7Y753D01*
X330Y753D02*
X343Y753D01*
X1196Y753D02*
X1203Y753D01*
X0Y752D02*
X7Y752D01*
X330Y752D02*
X343Y752D01*
X1196Y752D02*
X1203Y752D01*
X0Y751D02*
X7Y751D01*
X330Y751D02*
X343Y751D01*
X1196Y751D02*
X1203Y751D01*
X0Y750D02*
X7Y750D01*
X330Y750D02*
X343Y750D01*
X1196Y750D02*
X1203Y750D01*
X0Y749D02*
X7Y749D01*
X330Y749D02*
X343Y749D01*
X1196Y749D02*
X1203Y749D01*
X0Y748D02*
X7Y748D01*
X330Y748D02*
X343Y748D01*
X1196Y748D02*
X1203Y748D01*
X0Y747D02*
X7Y747D01*
X330Y747D02*
X343Y747D01*
X1196Y747D02*
X1203Y747D01*
X0Y746D02*
X7Y746D01*
X330Y746D02*
X343Y746D01*
X1196Y746D02*
X1203Y746D01*
X0Y745D02*
X7Y745D01*
X330Y745D02*
X343Y745D01*
X1196Y745D02*
X1203Y745D01*
X0Y744D02*
X7Y744D01*
X330Y744D02*
X343Y744D01*
X1196Y744D02*
X1203Y744D01*
X0Y743D02*
X7Y743D01*
X330Y743D02*
X343Y743D01*
X1196Y743D02*
X1203Y743D01*
X0Y742D02*
X7Y742D01*
X330Y742D02*
X343Y742D01*
X1196Y742D02*
X1203Y742D01*
X0Y741D02*
X7Y741D01*
X330Y741D02*
X343Y741D01*
X1196Y741D02*
X1203Y741D01*
X0Y740D02*
X7Y740D01*
X330Y740D02*
X343Y740D01*
X1196Y740D02*
X1203Y740D01*
X0Y739D02*
X7Y739D01*
X330Y739D02*
X343Y739D01*
X1196Y739D02*
X1203Y739D01*
X0Y738D02*
X7Y738D01*
X330Y738D02*
X343Y738D01*
X1196Y738D02*
X1203Y738D01*
X0Y737D02*
X7Y737D01*
X330Y737D02*
X343Y737D01*
X1196Y737D02*
X1203Y737D01*
X0Y736D02*
X7Y736D01*
X330Y736D02*
X343Y736D01*
X1196Y736D02*
X1203Y736D01*
X0Y735D02*
X7Y735D01*
X330Y735D02*
X343Y735D01*
X1196Y735D02*
X1203Y735D01*
X0Y734D02*
X7Y734D01*
X330Y734D02*
X343Y734D01*
X1196Y734D02*
X1203Y734D01*
X0Y733D02*
X7Y733D01*
X330Y733D02*
X343Y733D01*
X1196Y733D02*
X1203Y733D01*
X0Y732D02*
X7Y732D01*
X330Y732D02*
X343Y732D01*
X1196Y732D02*
X1203Y732D01*
X0Y731D02*
X7Y731D01*
X330Y731D02*
X343Y731D01*
X1196Y731D02*
X1203Y731D01*
X0Y730D02*
X7Y730D01*
X330Y730D02*
X343Y730D01*
X1196Y730D02*
X1203Y730D01*
X0Y729D02*
X7Y729D01*
X330Y729D02*
X343Y729D01*
X1196Y729D02*
X1203Y729D01*
X0Y728D02*
X7Y728D01*
X330Y728D02*
X343Y728D01*
X1196Y728D02*
X1203Y728D01*
X0Y727D02*
X7Y727D01*
X330Y727D02*
X343Y727D01*
X1196Y727D02*
X1203Y727D01*
X0Y726D02*
X7Y726D01*
X330Y726D02*
X343Y726D01*
X1196Y726D02*
X1203Y726D01*
X0Y725D02*
X7Y725D01*
X330Y725D02*
X343Y725D01*
X1196Y725D02*
X1203Y725D01*
X0Y724D02*
X7Y724D01*
X330Y724D02*
X343Y724D01*
X1196Y724D02*
X1203Y724D01*
X0Y723D02*
X7Y723D01*
X330Y723D02*
X343Y723D01*
X1196Y723D02*
X1203Y723D01*
X0Y722D02*
X7Y722D01*
X330Y722D02*
X343Y722D01*
X1196Y722D02*
X1203Y722D01*
X0Y721D02*
X7Y721D01*
X330Y721D02*
X343Y721D01*
X1196Y721D02*
X1203Y721D01*
X0Y720D02*
X7Y720D01*
X330Y720D02*
X343Y720D01*
X1196Y720D02*
X1203Y720D01*
X0Y719D02*
X7Y719D01*
X330Y719D02*
X343Y719D01*
X1196Y719D02*
X1203Y719D01*
X0Y718D02*
X7Y718D01*
X330Y718D02*
X343Y718D01*
X1196Y718D02*
X1203Y718D01*
X0Y717D02*
X7Y717D01*
X330Y717D02*
X343Y717D01*
X1196Y717D02*
X1203Y717D01*
X0Y716D02*
X7Y716D01*
X330Y716D02*
X343Y716D01*
X1196Y716D02*
X1203Y716D01*
X0Y715D02*
X7Y715D01*
X330Y715D02*
X343Y715D01*
X1196Y715D02*
X1203Y715D01*
X0Y714D02*
X7Y714D01*
X330Y714D02*
X343Y714D01*
X1196Y714D02*
X1203Y714D01*
X0Y713D02*
X7Y713D01*
X330Y713D02*
X343Y713D01*
X1196Y713D02*
X1203Y713D01*
X0Y712D02*
X7Y712D01*
X330Y712D02*
X343Y712D01*
X1196Y712D02*
X1203Y712D01*
X0Y711D02*
X7Y711D01*
X330Y711D02*
X343Y711D01*
X1196Y711D02*
X1203Y711D01*
X0Y710D02*
X7Y710D01*
X330Y710D02*
X343Y710D01*
X1196Y710D02*
X1203Y710D01*
X0Y709D02*
X7Y709D01*
X330Y709D02*
X343Y709D01*
X1196Y709D02*
X1203Y709D01*
X0Y708D02*
X7Y708D01*
X330Y708D02*
X343Y708D01*
X1196Y708D02*
X1203Y708D01*
X0Y707D02*
X7Y707D01*
X330Y707D02*
X343Y707D01*
X1196Y707D02*
X1203Y707D01*
X0Y706D02*
X7Y706D01*
X330Y706D02*
X343Y706D01*
X1196Y706D02*
X1203Y706D01*
X0Y705D02*
X7Y705D01*
X330Y705D02*
X343Y705D01*
X1196Y705D02*
X1203Y705D01*
X0Y704D02*
X7Y704D01*
X330Y704D02*
X343Y704D01*
X1196Y704D02*
X1203Y704D01*
X0Y703D02*
X7Y703D01*
X330Y703D02*
X343Y703D01*
X1196Y703D02*
X1203Y703D01*
X0Y702D02*
X7Y702D01*
X330Y702D02*
X343Y702D01*
X1196Y702D02*
X1203Y702D01*
X0Y701D02*
X7Y701D01*
X330Y701D02*
X343Y701D01*
X1196Y701D02*
X1203Y701D01*
X0Y700D02*
X7Y700D01*
X330Y700D02*
X343Y700D01*
X1196Y700D02*
X1203Y700D01*
X0Y699D02*
X7Y699D01*
X330Y699D02*
X343Y699D01*
X1196Y699D02*
X1203Y699D01*
X0Y698D02*
X7Y698D01*
X330Y698D02*
X343Y698D01*
X1196Y698D02*
X1203Y698D01*
X0Y697D02*
X7Y697D01*
X330Y697D02*
X343Y697D01*
X1196Y697D02*
X1203Y697D01*
X0Y696D02*
X7Y696D01*
X330Y696D02*
X343Y696D01*
X1196Y696D02*
X1203Y696D01*
X0Y695D02*
X7Y695D01*
X330Y695D02*
X343Y695D01*
X1196Y695D02*
X1203Y695D01*
X0Y694D02*
X7Y694D01*
X330Y694D02*
X343Y694D01*
X1196Y694D02*
X1203Y694D01*
X0Y693D02*
X7Y693D01*
X330Y693D02*
X343Y693D01*
X1196Y693D02*
X1203Y693D01*
X0Y692D02*
X7Y692D01*
X330Y692D02*
X343Y692D01*
X1196Y692D02*
X1203Y692D01*
X0Y691D02*
X7Y691D01*
X330Y691D02*
X343Y691D01*
X1196Y691D02*
X1203Y691D01*
X0Y690D02*
X7Y690D01*
X330Y690D02*
X343Y690D01*
X1196Y690D02*
X1203Y690D01*
X0Y689D02*
X7Y689D01*
X1196Y689D02*
X1203Y689D01*
X0Y688D02*
X7Y688D01*
X1196Y688D02*
X1203Y688D01*
X0Y687D02*
X7Y687D01*
X1196Y687D02*
X1203Y687D01*
X0Y686D02*
X7Y686D01*
X1196Y686D02*
X1203Y686D01*
X0Y685D02*
X7Y685D01*
X1196Y685D02*
X1203Y685D01*
X0Y684D02*
X7Y684D01*
X1196Y684D02*
X1203Y684D01*
X0Y683D02*
X7Y683D01*
X1196Y683D02*
X1203Y683D01*
X0Y682D02*
X7Y682D01*
X1196Y682D02*
X1203Y682D01*
X0Y681D02*
X7Y681D01*
X1196Y681D02*
X1203Y681D01*
X0Y680D02*
X7Y680D01*
X1196Y680D02*
X1203Y680D01*
X0Y679D02*
X7Y679D01*
X1196Y679D02*
X1203Y679D01*
X0Y678D02*
X7Y678D01*
X1196Y678D02*
X1203Y678D01*
X0Y677D02*
X7Y677D01*
X1196Y677D02*
X1203Y677D01*
X0Y676D02*
X7Y676D01*
X1196Y676D02*
X1203Y676D01*
X0Y675D02*
X7Y675D01*
X1196Y675D02*
X1203Y675D01*
X0Y674D02*
X7Y674D01*
X1196Y674D02*
X1203Y674D01*
X0Y673D02*
X7Y673D01*
X1196Y673D02*
X1203Y673D01*
X0Y672D02*
X7Y672D01*
X1196Y672D02*
X1203Y672D01*
X0Y671D02*
X7Y671D01*
X1196Y671D02*
X1203Y671D01*
X0Y670D02*
X7Y670D01*
X1196Y670D02*
X1203Y670D01*
X0Y669D02*
X7Y669D01*
X1196Y669D02*
X1203Y669D01*
X0Y668D02*
X7Y668D01*
X1196Y668D02*
X1203Y668D01*
X0Y667D02*
X7Y667D01*
X1196Y667D02*
X1203Y667D01*
X0Y666D02*
X7Y666D01*
X1196Y666D02*
X1203Y666D01*
X0Y665D02*
X7Y665D01*
X1196Y665D02*
X1203Y665D01*
X0Y664D02*
X7Y664D01*
X1196Y664D02*
X1203Y664D01*
X0Y663D02*
X7Y663D01*
X1196Y663D02*
X1203Y663D01*
X0Y662D02*
X7Y662D01*
X1196Y662D02*
X1203Y662D01*
X0Y661D02*
X7Y661D01*
X1196Y661D02*
X1203Y661D01*
X0Y660D02*
X7Y660D01*
X1196Y660D02*
X1203Y660D01*
X0Y659D02*
X7Y659D01*
X1196Y659D02*
X1203Y659D01*
X0Y658D02*
X7Y658D01*
X207Y658D02*
X227Y658D01*
X255Y658D02*
X257Y658D01*
X284Y658D02*
X286Y658D01*
X1196Y658D02*
X1203Y658D01*
X0Y657D02*
X7Y657D01*
X207Y657D02*
X227Y657D01*
X254Y657D02*
X257Y657D01*
X283Y657D02*
X286Y657D01*
X1196Y657D02*
X1203Y657D01*
X0Y656D02*
X7Y656D01*
X207Y656D02*
X227Y656D01*
X254Y656D02*
X257Y656D01*
X283Y656D02*
X286Y656D01*
X1196Y656D02*
X1203Y656D01*
X0Y655D02*
X7Y655D01*
X207Y655D02*
X227Y655D01*
X254Y655D02*
X257Y655D01*
X272Y655D02*
X273Y655D01*
X283Y655D02*
X286Y655D01*
X1196Y655D02*
X1203Y655D01*
X0Y654D02*
X7Y654D01*
X207Y654D02*
X211Y654D01*
X224Y654D02*
X227Y654D01*
X254Y654D02*
X257Y654D01*
X271Y654D02*
X274Y654D01*
X283Y654D02*
X286Y654D01*
X1196Y654D02*
X1203Y654D01*
X0Y653D02*
X7Y653D01*
X207Y653D02*
X211Y653D01*
X226Y653D02*
X226Y653D01*
X254Y653D02*
X257Y653D01*
X271Y653D02*
X274Y653D01*
X283Y653D02*
X286Y653D01*
X1196Y653D02*
X1203Y653D01*
X0Y652D02*
X7Y652D01*
X207Y652D02*
X211Y652D01*
X254Y652D02*
X257Y652D01*
X271Y652D02*
X274Y652D01*
X283Y652D02*
X286Y652D01*
X1196Y652D02*
X1203Y652D01*
X0Y651D02*
X7Y651D01*
X207Y651D02*
X211Y651D01*
X254Y651D02*
X257Y651D01*
X271Y651D02*
X274Y651D01*
X283Y651D02*
X286Y651D01*
X1196Y651D02*
X1203Y651D01*
X0Y650D02*
X7Y650D01*
X207Y650D02*
X211Y650D01*
X254Y650D02*
X257Y650D01*
X271Y650D02*
X274Y650D01*
X283Y650D02*
X286Y650D01*
X1196Y650D02*
X1203Y650D01*
X0Y649D02*
X7Y649D01*
X207Y649D02*
X211Y649D01*
X240Y649D02*
X243Y649D01*
X254Y649D02*
X257Y649D01*
X271Y649D02*
X274Y649D01*
X283Y649D02*
X286Y649D01*
X1196Y649D02*
X1203Y649D01*
X0Y648D02*
X7Y648D01*
X207Y648D02*
X211Y648D01*
X240Y648D02*
X244Y648D01*
X254Y648D02*
X257Y648D01*
X271Y648D02*
X274Y648D01*
X283Y648D02*
X286Y648D01*
X1196Y648D02*
X1203Y648D01*
X0Y647D02*
X7Y647D01*
X207Y647D02*
X211Y647D01*
X240Y647D02*
X245Y647D01*
X254Y647D02*
X257Y647D01*
X271Y647D02*
X274Y647D01*
X283Y647D02*
X286Y647D01*
X1196Y647D02*
X1203Y647D01*
X0Y646D02*
X7Y646D01*
X207Y646D02*
X212Y646D01*
X241Y646D02*
X246Y646D01*
X254Y646D02*
X257Y646D01*
X271Y646D02*
X274Y646D01*
X283Y646D02*
X286Y646D01*
X1196Y646D02*
X1203Y646D01*
X0Y645D02*
X7Y645D01*
X208Y645D02*
X213Y645D01*
X242Y645D02*
X247Y645D01*
X254Y645D02*
X257Y645D01*
X271Y645D02*
X274Y645D01*
X283Y645D02*
X286Y645D01*
X1196Y645D02*
X1203Y645D01*
X0Y644D02*
X7Y644D01*
X209Y644D02*
X214Y644D01*
X243Y644D02*
X249Y644D01*
X254Y644D02*
X257Y644D01*
X271Y644D02*
X274Y644D01*
X283Y644D02*
X286Y644D01*
X1196Y644D02*
X1203Y644D01*
X0Y643D02*
X7Y643D01*
X210Y643D02*
X215Y643D01*
X244Y643D02*
X250Y643D01*
X254Y643D02*
X257Y643D01*
X271Y643D02*
X274Y643D01*
X283Y643D02*
X286Y643D01*
X1196Y643D02*
X1203Y643D01*
X0Y642D02*
X7Y642D01*
X211Y642D02*
X217Y642D01*
X245Y642D02*
X251Y642D01*
X254Y642D02*
X257Y642D01*
X271Y642D02*
X274Y642D01*
X283Y642D02*
X286Y642D01*
X1196Y642D02*
X1203Y642D01*
X0Y641D02*
X7Y641D01*
X212Y641D02*
X218Y641D01*
X247Y641D02*
X252Y641D01*
X254Y641D02*
X257Y641D01*
X270Y641D02*
X286Y641D01*
X1196Y641D02*
X1203Y641D01*
X0Y640D02*
X7Y640D01*
X213Y640D02*
X219Y640D01*
X248Y640D02*
X257Y640D01*
X269Y640D02*
X286Y640D01*
X1196Y640D02*
X1203Y640D01*
X0Y639D02*
X7Y639D01*
X178Y639D02*
X328Y639D01*
X1196Y639D02*
X1203Y639D01*
X0Y638D02*
X7Y638D01*
X178Y638D02*
X328Y638D01*
X1196Y638D02*
X1203Y638D01*
X0Y637D02*
X7Y637D01*
X178Y637D02*
X328Y637D01*
X1196Y637D02*
X1203Y637D01*
X0Y636D02*
X7Y636D01*
X178Y636D02*
X180Y636D01*
X246Y636D02*
X260Y636D01*
X327Y636D02*
X328Y636D01*
X1196Y636D02*
X1203Y636D01*
X0Y635D02*
X7Y635D01*
X178Y635D02*
X180Y635D01*
X246Y635D02*
X250Y635D01*
X254Y635D02*
X257Y635D01*
X327Y635D02*
X328Y635D01*
X1196Y635D02*
X1203Y635D01*
X0Y634D02*
X7Y634D01*
X178Y634D02*
X180Y634D01*
X246Y634D02*
X248Y634D01*
X254Y634D02*
X257Y634D01*
X327Y634D02*
X328Y634D01*
X1196Y634D02*
X1203Y634D01*
X0Y633D02*
X7Y633D01*
X178Y633D02*
X180Y633D01*
X246Y633D02*
X247Y633D01*
X254Y633D02*
X257Y633D01*
X327Y633D02*
X328Y633D01*
X1196Y633D02*
X1203Y633D01*
X0Y632D02*
X7Y632D01*
X178Y632D02*
X180Y632D01*
X246Y632D02*
X246Y632D01*
X254Y632D02*
X257Y632D01*
X327Y632D02*
X328Y632D01*
X1196Y632D02*
X1203Y632D01*
X0Y631D02*
X7Y631D01*
X178Y631D02*
X180Y631D01*
X254Y631D02*
X257Y631D01*
X327Y631D02*
X328Y631D01*
X1196Y631D02*
X1203Y631D01*
X0Y630D02*
X7Y630D01*
X178Y630D02*
X180Y630D01*
X254Y630D02*
X257Y630D01*
X327Y630D02*
X328Y630D01*
X1196Y630D02*
X1203Y630D01*
X0Y629D02*
X7Y629D01*
X178Y629D02*
X180Y629D01*
X254Y629D02*
X257Y629D01*
X327Y629D02*
X328Y629D01*
X1196Y629D02*
X1203Y629D01*
X0Y628D02*
X7Y628D01*
X178Y628D02*
X180Y628D01*
X254Y628D02*
X257Y628D01*
X327Y628D02*
X328Y628D01*
X1196Y628D02*
X1203Y628D01*
X0Y627D02*
X7Y627D01*
X178Y627D02*
X180Y627D01*
X255Y627D02*
X257Y627D01*
X327Y627D02*
X328Y627D01*
X1196Y627D02*
X1203Y627D01*
X0Y626D02*
X7Y626D01*
X178Y626D02*
X180Y626D01*
X327Y626D02*
X328Y626D01*
X1196Y626D02*
X1203Y626D01*
X0Y625D02*
X7Y625D01*
X178Y625D02*
X180Y625D01*
X327Y625D02*
X328Y625D01*
X1196Y625D02*
X1203Y625D01*
X0Y624D02*
X7Y624D01*
X178Y624D02*
X180Y624D01*
X327Y624D02*
X328Y624D01*
X1196Y624D02*
X1203Y624D01*
X0Y623D02*
X7Y623D01*
X178Y623D02*
X180Y623D01*
X327Y623D02*
X328Y623D01*
X1196Y623D02*
X1203Y623D01*
X0Y622D02*
X7Y622D01*
X178Y622D02*
X180Y622D01*
X327Y622D02*
X328Y622D01*
X1196Y622D02*
X1203Y622D01*
X0Y621D02*
X7Y621D01*
X178Y621D02*
X180Y621D01*
X327Y621D02*
X328Y621D01*
X1196Y621D02*
X1203Y621D01*
X0Y620D02*
X7Y620D01*
X178Y620D02*
X180Y620D01*
X327Y620D02*
X328Y620D01*
X1196Y620D02*
X1203Y620D01*
X0Y619D02*
X7Y619D01*
X178Y619D02*
X180Y619D01*
X327Y619D02*
X328Y619D01*
X1196Y619D02*
X1203Y619D01*
X0Y618D02*
X7Y618D01*
X178Y618D02*
X180Y618D01*
X327Y618D02*
X328Y618D01*
X1196Y618D02*
X1203Y618D01*
X0Y617D02*
X7Y617D01*
X178Y617D02*
X180Y617D01*
X327Y617D02*
X328Y617D01*
X1196Y617D02*
X1203Y617D01*
X0Y616D02*
X7Y616D01*
X178Y616D02*
X180Y616D01*
X327Y616D02*
X328Y616D01*
X1196Y616D02*
X1203Y616D01*
X0Y615D02*
X7Y615D01*
X178Y615D02*
X180Y615D01*
X327Y615D02*
X328Y615D01*
X1196Y615D02*
X1203Y615D01*
X0Y614D02*
X7Y614D01*
X178Y614D02*
X180Y614D01*
X327Y614D02*
X328Y614D01*
X1196Y614D02*
X1203Y614D01*
X0Y613D02*
X7Y613D01*
X178Y613D02*
X180Y613D01*
X327Y613D02*
X328Y613D01*
X1196Y613D02*
X1203Y613D01*
X0Y612D02*
X7Y612D01*
X178Y612D02*
X180Y612D01*
X327Y612D02*
X328Y612D01*
X1196Y612D02*
X1203Y612D01*
X0Y611D02*
X7Y611D01*
X178Y611D02*
X180Y611D01*
X327Y611D02*
X328Y611D01*
X1196Y611D02*
X1203Y611D01*
X0Y610D02*
X7Y610D01*
X178Y610D02*
X180Y610D01*
X327Y610D02*
X328Y610D01*
X1196Y610D02*
X1203Y610D01*
X0Y609D02*
X7Y609D01*
X178Y609D02*
X180Y609D01*
X327Y609D02*
X328Y609D01*
X1196Y609D02*
X1203Y609D01*
X0Y608D02*
X7Y608D01*
X178Y608D02*
X180Y608D01*
X327Y608D02*
X328Y608D01*
X1196Y608D02*
X1203Y608D01*
X0Y607D02*
X7Y607D01*
X178Y607D02*
X180Y607D01*
X327Y607D02*
X328Y607D01*
X1196Y607D02*
X1203Y607D01*
X0Y606D02*
X7Y606D01*
X178Y606D02*
X180Y606D01*
X327Y606D02*
X328Y606D01*
X1196Y606D02*
X1203Y606D01*
X0Y605D02*
X7Y605D01*
X178Y605D02*
X180Y605D01*
X327Y605D02*
X328Y605D01*
X1196Y605D02*
X1203Y605D01*
X0Y604D02*
X7Y604D01*
X178Y604D02*
X180Y604D01*
X327Y604D02*
X328Y604D01*
X1196Y604D02*
X1203Y604D01*
X0Y603D02*
X7Y603D01*
X178Y603D02*
X180Y603D01*
X327Y603D02*
X328Y603D01*
X1196Y603D02*
X1203Y603D01*
X0Y602D02*
X7Y602D01*
X178Y602D02*
X180Y602D01*
X327Y602D02*
X328Y602D01*
X1196Y602D02*
X1203Y602D01*
X0Y601D02*
X7Y601D01*
X178Y601D02*
X180Y601D01*
X327Y601D02*
X328Y601D01*
X1196Y601D02*
X1203Y601D01*
X0Y600D02*
X7Y600D01*
X178Y600D02*
X180Y600D01*
X327Y600D02*
X328Y600D01*
X1196Y600D02*
X1203Y600D01*
X0Y599D02*
X7Y599D01*
X178Y599D02*
X180Y599D01*
X327Y599D02*
X328Y599D01*
X1196Y599D02*
X1203Y599D01*
X0Y598D02*
X7Y598D01*
X178Y598D02*
X180Y598D01*
X327Y598D02*
X328Y598D01*
X1196Y598D02*
X1203Y598D01*
X0Y597D02*
X7Y597D01*
X178Y597D02*
X180Y597D01*
X327Y597D02*
X328Y597D01*
X1196Y597D02*
X1203Y597D01*
X0Y596D02*
X7Y596D01*
X178Y596D02*
X180Y596D01*
X327Y596D02*
X328Y596D01*
X1196Y596D02*
X1203Y596D01*
X0Y595D02*
X7Y595D01*
X178Y595D02*
X180Y595D01*
X327Y595D02*
X328Y595D01*
X1196Y595D02*
X1203Y595D01*
X0Y594D02*
X7Y594D01*
X178Y594D02*
X180Y594D01*
X327Y594D02*
X328Y594D01*
X1196Y594D02*
X1203Y594D01*
X0Y593D02*
X7Y593D01*
X178Y593D02*
X180Y593D01*
X327Y593D02*
X328Y593D01*
X1196Y593D02*
X1203Y593D01*
X0Y592D02*
X7Y592D01*
X178Y592D02*
X180Y592D01*
X327Y592D02*
X328Y592D01*
X1196Y592D02*
X1203Y592D01*
X0Y591D02*
X7Y591D01*
X178Y591D02*
X180Y591D01*
X327Y591D02*
X328Y591D01*
X1196Y591D02*
X1203Y591D01*
X0Y590D02*
X7Y590D01*
X178Y590D02*
X180Y590D01*
X327Y590D02*
X328Y590D01*
X1196Y590D02*
X1203Y590D01*
X0Y589D02*
X7Y589D01*
X178Y589D02*
X180Y589D01*
X327Y589D02*
X328Y589D01*
X1196Y589D02*
X1203Y589D01*
X0Y588D02*
X7Y588D01*
X178Y588D02*
X180Y588D01*
X327Y588D02*
X328Y588D01*
X1196Y588D02*
X1203Y588D01*
X0Y587D02*
X7Y587D01*
X178Y587D02*
X180Y587D01*
X327Y587D02*
X328Y587D01*
X1196Y587D02*
X1203Y587D01*
X0Y586D02*
X7Y586D01*
X178Y586D02*
X180Y586D01*
X327Y586D02*
X328Y586D01*
X1196Y586D02*
X1203Y586D01*
X0Y585D02*
X7Y585D01*
X178Y585D02*
X180Y585D01*
X327Y585D02*
X328Y585D01*
X1196Y585D02*
X1203Y585D01*
X0Y584D02*
X7Y584D01*
X178Y584D02*
X180Y584D01*
X327Y584D02*
X328Y584D01*
X1196Y584D02*
X1203Y584D01*
X0Y583D02*
X7Y583D01*
X178Y583D02*
X180Y583D01*
X327Y583D02*
X328Y583D01*
X1196Y583D02*
X1203Y583D01*
X0Y582D02*
X7Y582D01*
X178Y582D02*
X180Y582D01*
X327Y582D02*
X328Y582D01*
X1196Y582D02*
X1203Y582D01*
X0Y581D02*
X7Y581D01*
X178Y581D02*
X180Y581D01*
X327Y581D02*
X328Y581D01*
X1196Y581D02*
X1203Y581D01*
X0Y580D02*
X7Y580D01*
X178Y580D02*
X180Y580D01*
X327Y580D02*
X328Y580D01*
X1196Y580D02*
X1203Y580D01*
X0Y579D02*
X7Y579D01*
X178Y579D02*
X180Y579D01*
X327Y579D02*
X328Y579D01*
X1196Y579D02*
X1203Y579D01*
X0Y578D02*
X7Y578D01*
X178Y578D02*
X180Y578D01*
X327Y578D02*
X328Y578D01*
X1196Y578D02*
X1203Y578D01*
X0Y577D02*
X7Y577D01*
X178Y577D02*
X180Y577D01*
X327Y577D02*
X328Y577D01*
X1196Y577D02*
X1203Y577D01*
X0Y576D02*
X7Y576D01*
X178Y576D02*
X180Y576D01*
X327Y576D02*
X328Y576D01*
X1196Y576D02*
X1203Y576D01*
X0Y575D02*
X7Y575D01*
X178Y575D02*
X180Y575D01*
X327Y575D02*
X328Y575D01*
X1196Y575D02*
X1203Y575D01*
X0Y574D02*
X7Y574D01*
X178Y574D02*
X180Y574D01*
X327Y574D02*
X328Y574D01*
X1196Y574D02*
X1203Y574D01*
X0Y573D02*
X7Y573D01*
X178Y573D02*
X180Y573D01*
X327Y573D02*
X328Y573D01*
X1196Y573D02*
X1203Y573D01*
X0Y572D02*
X7Y572D01*
X178Y572D02*
X180Y572D01*
X327Y572D02*
X328Y572D01*
X1196Y572D02*
X1203Y572D01*
X0Y571D02*
X7Y571D01*
X178Y571D02*
X180Y571D01*
X327Y571D02*
X328Y571D01*
X1196Y571D02*
X1203Y571D01*
X0Y570D02*
X7Y570D01*
X178Y570D02*
X180Y570D01*
X327Y570D02*
X328Y570D01*
X1196Y570D02*
X1203Y570D01*
X0Y569D02*
X7Y569D01*
X178Y569D02*
X180Y569D01*
X327Y569D02*
X328Y569D01*
X1196Y569D02*
X1203Y569D01*
X0Y568D02*
X7Y568D01*
X178Y568D02*
X180Y568D01*
X246Y568D02*
X260Y568D01*
X326Y568D02*
X328Y568D01*
X1196Y568D02*
X1203Y568D01*
X0Y567D02*
X7Y567D01*
X178Y567D02*
X328Y567D01*
X1196Y567D02*
X1203Y567D01*
X0Y566D02*
X7Y566D01*
X178Y566D02*
X328Y566D01*
X1196Y566D02*
X1203Y566D01*
X0Y565D02*
X7Y565D01*
X178Y565D02*
X328Y565D01*
X1196Y565D02*
X1203Y565D01*
X0Y564D02*
X7Y564D01*
X1196Y564D02*
X1203Y564D01*
X0Y563D02*
X7Y563D01*
X1196Y563D02*
X1203Y563D01*
X0Y562D02*
X7Y562D01*
X1196Y562D02*
X1203Y562D01*
X0Y561D02*
X7Y561D01*
X1196Y561D02*
X1203Y561D01*
X0Y560D02*
X7Y560D01*
X1196Y560D02*
X1203Y560D01*
X0Y559D02*
X7Y559D01*
X1196Y559D02*
X1203Y559D01*
X0Y558D02*
X7Y558D01*
X1196Y558D02*
X1203Y558D01*
X0Y557D02*
X7Y557D01*
X1196Y557D02*
X1203Y557D01*
X0Y556D02*
X7Y556D01*
X1196Y556D02*
X1203Y556D01*
X0Y555D02*
X7Y555D01*
X1196Y555D02*
X1203Y555D01*
X0Y554D02*
X7Y554D01*
X1196Y554D02*
X1203Y554D01*
X0Y553D02*
X7Y553D01*
X1196Y553D02*
X1203Y553D01*
X0Y552D02*
X7Y552D01*
X1196Y552D02*
X1203Y552D01*
X0Y551D02*
X7Y551D01*
X1196Y551D02*
X1203Y551D01*
X0Y550D02*
X7Y550D01*
X1196Y550D02*
X1203Y550D01*
X0Y549D02*
X7Y549D01*
X1196Y549D02*
X1203Y549D01*
X0Y548D02*
X7Y548D01*
X1196Y548D02*
X1203Y548D01*
X0Y547D02*
X7Y547D01*
X1196Y547D02*
X1203Y547D01*
X0Y546D02*
X7Y546D01*
X1196Y546D02*
X1203Y546D01*
X0Y545D02*
X7Y545D01*
X1196Y545D02*
X1203Y545D01*
X0Y544D02*
X7Y544D01*
X1196Y544D02*
X1203Y544D01*
X0Y543D02*
X7Y543D01*
X1196Y543D02*
X1203Y543D01*
X0Y542D02*
X7Y542D01*
X1196Y542D02*
X1203Y542D01*
X0Y541D02*
X7Y541D01*
X1196Y541D02*
X1203Y541D01*
X0Y540D02*
X7Y540D01*
X1196Y540D02*
X1203Y540D01*
X0Y539D02*
X7Y539D01*
X1196Y539D02*
X1203Y539D01*
X0Y538D02*
X7Y538D01*
X1196Y538D02*
X1203Y538D01*
X0Y537D02*
X7Y537D01*
X1196Y537D02*
X1203Y537D01*
X0Y536D02*
X7Y536D01*
X1196Y536D02*
X1203Y536D01*
X0Y535D02*
X7Y535D01*
X1196Y535D02*
X1203Y535D01*
X0Y534D02*
X7Y534D01*
X1196Y534D02*
X1203Y534D01*
X0Y533D02*
X7Y533D01*
X1196Y533D02*
X1203Y533D01*
X0Y532D02*
X7Y532D01*
X1196Y532D02*
X1203Y532D01*
X0Y531D02*
X7Y531D01*
X1196Y531D02*
X1203Y531D01*
X0Y530D02*
X7Y530D01*
X1196Y530D02*
X1203Y530D01*
X0Y529D02*
X7Y529D01*
X1196Y529D02*
X1203Y529D01*
X0Y528D02*
X7Y528D01*
X1196Y528D02*
X1203Y528D01*
X0Y527D02*
X7Y527D01*
X1196Y527D02*
X1203Y527D01*
X0Y526D02*
X7Y526D01*
X1196Y526D02*
X1203Y526D01*
X0Y525D02*
X7Y525D01*
X1196Y525D02*
X1203Y525D01*
X0Y524D02*
X7Y524D01*
X1196Y524D02*
X1203Y524D01*
X0Y523D02*
X7Y523D01*
X1196Y523D02*
X1203Y523D01*
X0Y522D02*
X7Y522D01*
X1196Y522D02*
X1203Y522D01*
X0Y521D02*
X7Y521D01*
X1196Y521D02*
X1203Y521D01*
X0Y520D02*
X7Y520D01*
X1196Y520D02*
X1203Y520D01*
X0Y519D02*
X7Y519D01*
X1196Y519D02*
X1203Y519D01*
X0Y518D02*
X7Y518D01*
X1196Y518D02*
X1203Y518D01*
X0Y517D02*
X7Y517D01*
X1196Y517D02*
X1203Y517D01*
X0Y516D02*
X7Y516D01*
X1196Y516D02*
X1203Y516D01*
X0Y515D02*
X7Y515D01*
X1196Y515D02*
X1203Y515D01*
X0Y514D02*
X7Y514D01*
X1196Y514D02*
X1203Y514D01*
X0Y513D02*
X7Y513D01*
X1196Y513D02*
X1203Y513D01*
X0Y512D02*
X7Y512D01*
X1196Y512D02*
X1203Y512D01*
X0Y511D02*
X7Y511D01*
X1196Y511D02*
X1203Y511D01*
X0Y510D02*
X7Y510D01*
X1196Y510D02*
X1203Y510D01*
X0Y509D02*
X7Y509D01*
X1196Y509D02*
X1203Y509D01*
X0Y508D02*
X7Y508D01*
X1196Y508D02*
X1203Y508D01*
X0Y507D02*
X7Y507D01*
X1196Y507D02*
X1203Y507D01*
X0Y506D02*
X7Y506D01*
X1196Y506D02*
X1203Y506D01*
X0Y505D02*
X7Y505D01*
X1196Y505D02*
X1203Y505D01*
X0Y504D02*
X7Y504D01*
X1196Y504D02*
X1203Y504D01*
X0Y503D02*
X7Y503D01*
X1196Y503D02*
X1203Y503D01*
X0Y502D02*
X7Y502D01*
X1196Y502D02*
X1203Y502D01*
X0Y501D02*
X7Y501D01*
X1196Y501D02*
X1203Y501D01*
X0Y500D02*
X7Y500D01*
X1196Y500D02*
X1203Y500D01*
X0Y499D02*
X7Y499D01*
X1196Y499D02*
X1203Y499D01*
X0Y498D02*
X7Y498D01*
X1196Y498D02*
X1203Y498D01*
X0Y497D02*
X7Y497D01*
X1196Y497D02*
X1203Y497D01*
X0Y496D02*
X7Y496D01*
X1196Y496D02*
X1203Y496D01*
X0Y495D02*
X7Y495D01*
X1196Y495D02*
X1203Y495D01*
X0Y494D02*
X7Y494D01*
X1196Y494D02*
X1203Y494D01*
X0Y493D02*
X7Y493D01*
X1196Y493D02*
X1203Y493D01*
X0Y492D02*
X7Y492D01*
X1196Y492D02*
X1203Y492D01*
X0Y491D02*
X7Y491D01*
X1196Y491D02*
X1203Y491D01*
X0Y490D02*
X7Y490D01*
X1196Y490D02*
X1203Y490D01*
X0Y489D02*
X7Y489D01*
X1196Y489D02*
X1203Y489D01*
X0Y488D02*
X7Y488D01*
X1196Y488D02*
X1203Y488D01*
X0Y487D02*
X7Y487D01*
X1196Y487D02*
X1203Y487D01*
X0Y486D02*
X7Y486D01*
X1196Y486D02*
X1203Y486D01*
X0Y485D02*
X7Y485D01*
X1196Y485D02*
X1203Y485D01*
X0Y484D02*
X7Y484D01*
X1196Y484D02*
X1203Y484D01*
X0Y483D02*
X7Y483D01*
X1196Y483D02*
X1203Y483D01*
X0Y482D02*
X7Y482D01*
X1196Y482D02*
X1203Y482D01*
X0Y481D02*
X7Y481D01*
X1196Y481D02*
X1203Y481D01*
X0Y480D02*
X7Y480D01*
X1196Y480D02*
X1203Y480D01*
X0Y479D02*
X7Y479D01*
X1196Y479D02*
X1203Y479D01*
X0Y478D02*
X7Y478D01*
X1196Y478D02*
X1203Y478D01*
X0Y477D02*
X7Y477D01*
X1196Y477D02*
X1203Y477D01*
X0Y476D02*
X7Y476D01*
X1196Y476D02*
X1203Y476D01*
X0Y475D02*
X7Y475D01*
X1196Y475D02*
X1203Y475D01*
X0Y474D02*
X7Y474D01*
X1196Y474D02*
X1203Y474D01*
X0Y473D02*
X7Y473D01*
X1196Y473D02*
X1203Y473D01*
X0Y472D02*
X7Y472D01*
X1196Y472D02*
X1203Y472D01*
X0Y471D02*
X7Y471D01*
X1196Y471D02*
X1203Y471D01*
X0Y470D02*
X7Y470D01*
X1196Y470D02*
X1203Y470D01*
X0Y469D02*
X7Y469D01*
X1196Y469D02*
X1203Y469D01*
X0Y468D02*
X7Y468D01*
X1196Y468D02*
X1203Y468D01*
X0Y467D02*
X7Y467D01*
X1196Y467D02*
X1203Y467D01*
X0Y466D02*
X7Y466D01*
X1196Y466D02*
X1203Y466D01*
X0Y465D02*
X7Y465D01*
X1196Y465D02*
X1203Y465D01*
X0Y464D02*
X7Y464D01*
X1196Y464D02*
X1203Y464D01*
X0Y463D02*
X7Y463D01*
X1196Y463D02*
X1203Y463D01*
X0Y462D02*
X7Y462D01*
X1196Y462D02*
X1203Y462D01*
X0Y461D02*
X7Y461D01*
X1196Y461D02*
X1203Y461D01*
X0Y460D02*
X7Y460D01*
X1196Y460D02*
X1203Y460D01*
X0Y459D02*
X7Y459D01*
X1196Y459D02*
X1203Y459D01*
X0Y458D02*
X7Y458D01*
X1196Y458D02*
X1203Y458D01*
X0Y457D02*
X7Y457D01*
X1196Y457D02*
X1203Y457D01*
X0Y456D02*
X7Y456D01*
X1196Y456D02*
X1203Y456D01*
X0Y455D02*
X7Y455D01*
X1196Y455D02*
X1203Y455D01*
X0Y454D02*
X7Y454D01*
X1196Y454D02*
X1203Y454D01*
X0Y453D02*
X7Y453D01*
X1196Y453D02*
X1203Y453D01*
X0Y452D02*
X7Y452D01*
X1196Y452D02*
X1203Y452D01*
X0Y451D02*
X7Y451D01*
X1196Y451D02*
X1203Y451D01*
X0Y450D02*
X7Y450D01*
X1196Y450D02*
X1203Y450D01*
X0Y449D02*
X7Y449D01*
X1196Y449D02*
X1203Y449D01*
X0Y448D02*
X7Y448D01*
X1196Y448D02*
X1203Y448D01*
X0Y447D02*
X7Y447D01*
X1196Y447D02*
X1203Y447D01*
X0Y446D02*
X7Y446D01*
X1196Y446D02*
X1203Y446D01*
X0Y445D02*
X7Y445D01*
X1196Y445D02*
X1203Y445D01*
X0Y444D02*
X7Y444D01*
X1196Y444D02*
X1203Y444D01*
X0Y443D02*
X7Y443D01*
X1196Y443D02*
X1203Y443D01*
X0Y442D02*
X7Y442D01*
X1196Y442D02*
X1203Y442D01*
X0Y441D02*
X7Y441D01*
X1196Y441D02*
X1203Y441D01*
X0Y440D02*
X7Y440D01*
X1196Y440D02*
X1203Y440D01*
X0Y439D02*
X7Y439D01*
X1196Y439D02*
X1203Y439D01*
X0Y438D02*
X7Y438D01*
X1196Y438D02*
X1203Y438D01*
X0Y437D02*
X7Y437D01*
X1196Y437D02*
X1203Y437D01*
X0Y436D02*
X7Y436D01*
X1196Y436D02*
X1203Y436D01*
X0Y435D02*
X7Y435D01*
X1196Y435D02*
X1203Y435D01*
X0Y434D02*
X7Y434D01*
X1196Y434D02*
X1203Y434D01*
X0Y433D02*
X7Y433D01*
X1196Y433D02*
X1203Y433D01*
X0Y432D02*
X7Y432D01*
X1196Y432D02*
X1203Y432D01*
X0Y431D02*
X7Y431D01*
X1196Y431D02*
X1203Y431D01*
X0Y430D02*
X7Y430D01*
X1196Y430D02*
X1203Y430D01*
X0Y429D02*
X7Y429D01*
X1196Y429D02*
X1203Y429D01*
X0Y428D02*
X7Y428D01*
X1196Y428D02*
X1203Y428D01*
X0Y427D02*
X7Y427D01*
X1196Y427D02*
X1203Y427D01*
X0Y426D02*
X7Y426D01*
X1196Y426D02*
X1203Y426D01*
X0Y425D02*
X7Y425D01*
X1196Y425D02*
X1203Y425D01*
X0Y424D02*
X7Y424D01*
X1196Y424D02*
X1203Y424D01*
X0Y423D02*
X7Y423D01*
X1196Y423D02*
X1203Y423D01*
X0Y422D02*
X7Y422D01*
X1196Y422D02*
X1203Y422D01*
X0Y421D02*
X7Y421D01*
X1196Y421D02*
X1203Y421D01*
X0Y420D02*
X7Y420D01*
X1196Y420D02*
X1203Y420D01*
X0Y419D02*
X7Y419D01*
X1196Y419D02*
X1203Y419D01*
X0Y418D02*
X7Y418D01*
X1196Y418D02*
X1203Y418D01*
X0Y417D02*
X7Y417D01*
X1196Y417D02*
X1203Y417D01*
X0Y416D02*
X7Y416D01*
X1196Y416D02*
X1203Y416D01*
X0Y415D02*
X7Y415D01*
X1196Y415D02*
X1203Y415D01*
X0Y414D02*
X7Y414D01*
X1196Y414D02*
X1203Y414D01*
X0Y413D02*
X7Y413D01*
X1196Y413D02*
X1203Y413D01*
X0Y412D02*
X7Y412D01*
X1196Y412D02*
X1203Y412D01*
X0Y411D02*
X7Y411D01*
X1196Y411D02*
X1203Y411D01*
X0Y410D02*
X7Y410D01*
X1196Y410D02*
X1203Y410D01*
X0Y409D02*
X7Y409D01*
X1196Y409D02*
X1203Y409D01*
X0Y408D02*
X7Y408D01*
X1196Y408D02*
X1203Y408D01*
X0Y407D02*
X7Y407D01*
X1196Y407D02*
X1203Y407D01*
X0Y406D02*
X7Y406D01*
X1196Y406D02*
X1203Y406D01*
X0Y405D02*
X7Y405D01*
X1196Y405D02*
X1203Y405D01*
X0Y404D02*
X7Y404D01*
X1196Y404D02*
X1203Y404D01*
X0Y403D02*
X7Y403D01*
X1196Y403D02*
X1203Y403D01*
X0Y402D02*
X7Y402D01*
X1196Y402D02*
X1203Y402D01*
X0Y401D02*
X7Y401D01*
X1196Y401D02*
X1203Y401D01*
X0Y400D02*
X7Y400D01*
X1196Y400D02*
X1203Y400D01*
X0Y399D02*
X7Y399D01*
X1196Y399D02*
X1203Y399D01*
X0Y398D02*
X7Y398D01*
X1196Y398D02*
X1203Y398D01*
X0Y397D02*
X7Y397D01*
X1196Y397D02*
X1203Y397D01*
X0Y396D02*
X7Y396D01*
X1196Y396D02*
X1203Y396D01*
X0Y395D02*
X7Y395D01*
X1196Y395D02*
X1203Y395D01*
X0Y394D02*
X7Y394D01*
X1196Y394D02*
X1203Y394D01*
X0Y393D02*
X7Y393D01*
X1196Y393D02*
X1203Y393D01*
X0Y392D02*
X7Y392D01*
X1196Y392D02*
X1203Y392D01*
X0Y391D02*
X7Y391D01*
X1196Y391D02*
X1203Y391D01*
X0Y390D02*
X7Y390D01*
X1196Y390D02*
X1203Y390D01*
X0Y389D02*
X7Y389D01*
X1196Y389D02*
X1203Y389D01*
X0Y388D02*
X7Y388D01*
X1196Y388D02*
X1203Y388D01*
X0Y387D02*
X7Y387D01*
X1196Y387D02*
X1203Y387D01*
X0Y386D02*
X7Y386D01*
X1196Y386D02*
X1203Y386D01*
X0Y385D02*
X7Y385D01*
X1196Y385D02*
X1203Y385D01*
X0Y384D02*
X7Y384D01*
X1196Y384D02*
X1203Y384D01*
X0Y383D02*
X7Y383D01*
X1196Y383D02*
X1203Y383D01*
X0Y382D02*
X7Y382D01*
X1196Y382D02*
X1203Y382D01*
X0Y381D02*
X7Y381D01*
X1196Y381D02*
X1203Y381D01*
X0Y380D02*
X7Y380D01*
X1196Y380D02*
X1203Y380D01*
X0Y379D02*
X7Y379D01*
X1196Y379D02*
X1203Y379D01*
X0Y378D02*
X7Y378D01*
X1196Y378D02*
X1203Y378D01*
X0Y377D02*
X7Y377D01*
X1196Y377D02*
X1203Y377D01*
X0Y376D02*
X7Y376D01*
X1196Y376D02*
X1203Y376D01*
X0Y375D02*
X7Y375D01*
X1196Y375D02*
X1203Y375D01*
X0Y374D02*
X7Y374D01*
X1196Y374D02*
X1203Y374D01*
X0Y373D02*
X7Y373D01*
X1196Y373D02*
X1203Y373D01*
X0Y372D02*
X7Y372D01*
X1196Y372D02*
X1203Y372D01*
X0Y371D02*
X7Y371D01*
X1196Y371D02*
X1203Y371D01*
X0Y370D02*
X7Y370D01*
X1196Y370D02*
X1203Y370D01*
X0Y369D02*
X7Y369D01*
X1196Y369D02*
X1203Y369D01*
X0Y368D02*
X7Y368D01*
X1196Y368D02*
X1203Y368D01*
X0Y367D02*
X7Y367D01*
X1196Y367D02*
X1203Y367D01*
X0Y366D02*
X7Y366D01*
X1196Y366D02*
X1203Y366D01*
X0Y365D02*
X7Y365D01*
X1196Y365D02*
X1203Y365D01*
X0Y364D02*
X7Y364D01*
X1196Y364D02*
X1203Y364D01*
X0Y363D02*
X7Y363D01*
X1196Y363D02*
X1203Y363D01*
X0Y362D02*
X7Y362D01*
X1196Y362D02*
X1203Y362D01*
X0Y361D02*
X7Y361D01*
X1196Y361D02*
X1203Y361D01*
X0Y360D02*
X7Y360D01*
X1196Y360D02*
X1203Y360D01*
X0Y359D02*
X7Y359D01*
X1196Y359D02*
X1203Y359D01*
X0Y358D02*
X7Y358D01*
X1196Y358D02*
X1203Y358D01*
X0Y357D02*
X7Y357D01*
X1196Y357D02*
X1203Y357D01*
X0Y356D02*
X7Y356D01*
X1196Y356D02*
X1203Y356D01*
X0Y355D02*
X7Y355D01*
X1196Y355D02*
X1203Y355D01*
X0Y354D02*
X7Y354D01*
X1196Y354D02*
X1203Y354D01*
X0Y353D02*
X7Y353D01*
X1196Y353D02*
X1203Y353D01*
X0Y352D02*
X7Y352D01*
X1196Y352D02*
X1203Y352D01*
X0Y351D02*
X7Y351D01*
X1196Y351D02*
X1203Y351D01*
X0Y350D02*
X7Y350D01*
X1196Y350D02*
X1203Y350D01*
X0Y349D02*
X7Y349D01*
X1196Y349D02*
X1203Y349D01*
X0Y348D02*
X7Y348D01*
X1196Y348D02*
X1203Y348D01*
X0Y347D02*
X7Y347D01*
X1196Y347D02*
X1203Y347D01*
X0Y346D02*
X7Y346D01*
X1196Y346D02*
X1203Y346D01*
X0Y345D02*
X7Y345D01*
X1196Y345D02*
X1203Y345D01*
X0Y344D02*
X7Y344D01*
X1196Y344D02*
X1203Y344D01*
X0Y343D02*
X7Y343D01*
X1196Y343D02*
X1203Y343D01*
X0Y342D02*
X7Y342D01*
X1196Y342D02*
X1203Y342D01*
X0Y341D02*
X7Y341D01*
X1196Y341D02*
X1203Y341D01*
X0Y340D02*
X7Y340D01*
X1196Y340D02*
X1203Y340D01*
X0Y339D02*
X7Y339D01*
X1196Y339D02*
X1203Y339D01*
X0Y338D02*
X7Y338D01*
X1196Y338D02*
X1203Y338D01*
X0Y337D02*
X7Y337D01*
X1196Y337D02*
X1203Y337D01*
X0Y336D02*
X7Y336D01*
X1196Y336D02*
X1203Y336D01*
X0Y335D02*
X7Y335D01*
X1196Y335D02*
X1203Y335D01*
X0Y334D02*
X7Y334D01*
X1196Y334D02*
X1203Y334D01*
X0Y333D02*
X7Y333D01*
X1196Y333D02*
X1203Y333D01*
X0Y332D02*
X7Y332D01*
X1196Y332D02*
X1203Y332D01*
X0Y331D02*
X7Y331D01*
X1196Y331D02*
X1203Y331D01*
X0Y330D02*
X7Y330D01*
X1196Y330D02*
X1203Y330D01*
X0Y329D02*
X7Y329D01*
X1196Y329D02*
X1203Y329D01*
X0Y328D02*
X7Y328D01*
X1196Y328D02*
X1203Y328D01*
X0Y327D02*
X7Y327D01*
X1196Y327D02*
X1203Y327D01*
X0Y326D02*
X7Y326D01*
X1196Y326D02*
X1203Y326D01*
X0Y325D02*
X7Y325D01*
X1196Y325D02*
X1203Y325D01*
X0Y324D02*
X7Y324D01*
X1196Y324D02*
X1203Y324D01*
X0Y323D02*
X7Y323D01*
X1196Y323D02*
X1203Y323D01*
X0Y322D02*
X7Y322D01*
X1196Y322D02*
X1203Y322D01*
X0Y321D02*
X7Y321D01*
X1196Y321D02*
X1203Y321D01*
X0Y320D02*
X7Y320D01*
X1196Y320D02*
X1203Y320D01*
X0Y319D02*
X7Y319D01*
X1196Y319D02*
X1203Y319D01*
X0Y318D02*
X7Y318D01*
X1196Y318D02*
X1203Y318D01*
X0Y317D02*
X7Y317D01*
X1196Y317D02*
X1203Y317D01*
X0Y316D02*
X7Y316D01*
X1196Y316D02*
X1203Y316D01*
X0Y315D02*
X7Y315D01*
X1196Y315D02*
X1203Y315D01*
X0Y314D02*
X7Y314D01*
X1196Y314D02*
X1203Y314D01*
X0Y313D02*
X7Y313D01*
X1196Y313D02*
X1203Y313D01*
X0Y312D02*
X7Y312D01*
X1196Y312D02*
X1203Y312D01*
X0Y311D02*
X7Y311D01*
X1196Y311D02*
X1203Y311D01*
X0Y310D02*
X7Y310D01*
X1196Y310D02*
X1203Y310D01*
X0Y309D02*
X7Y309D01*
X1196Y309D02*
X1203Y309D01*
X0Y308D02*
X7Y308D01*
X1196Y308D02*
X1203Y308D01*
X0Y307D02*
X7Y307D01*
X1196Y307D02*
X1203Y307D01*
X0Y306D02*
X7Y306D01*
X1196Y306D02*
X1203Y306D01*
X0Y305D02*
X7Y305D01*
X1196Y305D02*
X1203Y305D01*
X0Y304D02*
X7Y304D01*
X1196Y304D02*
X1203Y304D01*
X0Y303D02*
X7Y303D01*
X1196Y303D02*
X1203Y303D01*
X0Y302D02*
X7Y302D01*
X1196Y302D02*
X1203Y302D01*
X0Y301D02*
X7Y301D01*
X1196Y301D02*
X1203Y301D01*
X0Y300D02*
X7Y300D01*
X1196Y300D02*
X1203Y300D01*
X0Y299D02*
X7Y299D01*
X1196Y299D02*
X1203Y299D01*
X0Y298D02*
X7Y298D01*
X1196Y298D02*
X1203Y298D01*
X0Y297D02*
X7Y297D01*
X261Y297D02*
X263Y297D01*
X1196Y297D02*
X1203Y297D01*
X0Y296D02*
X7Y296D01*
X253Y296D02*
X270Y296D01*
X1196Y296D02*
X1203Y296D01*
X0Y295D02*
X7Y295D01*
X251Y295D02*
X272Y295D01*
X1196Y295D02*
X1203Y295D01*
X0Y294D02*
X7Y294D01*
X249Y294D02*
X274Y294D01*
X1196Y294D02*
X1203Y294D01*
X0Y293D02*
X7Y293D01*
X248Y293D02*
X260Y293D01*
X263Y293D02*
X275Y293D01*
X1196Y293D02*
X1203Y293D01*
X0Y292D02*
X7Y292D01*
X247Y292D02*
X253Y292D01*
X271Y292D02*
X276Y292D01*
X1196Y292D02*
X1203Y292D01*
X0Y291D02*
X7Y291D01*
X247Y291D02*
X250Y291D01*
X273Y291D02*
X277Y291D01*
X1196Y291D02*
X1203Y291D01*
X0Y290D02*
X7Y290D01*
X246Y290D02*
X249Y290D01*
X274Y290D02*
X277Y290D01*
X1196Y290D02*
X1203Y290D01*
X0Y289D02*
X7Y289D01*
X246Y289D02*
X249Y289D01*
X275Y289D02*
X277Y289D01*
X1196Y289D02*
X1203Y289D01*
X0Y288D02*
X7Y288D01*
X246Y288D02*
X248Y288D01*
X275Y288D02*
X277Y288D01*
X1196Y288D02*
X1203Y288D01*
X0Y287D02*
X7Y287D01*
X246Y287D02*
X248Y287D01*
X275Y287D02*
X278Y287D01*
X1196Y287D02*
X1203Y287D01*
X0Y286D02*
X7Y286D01*
X246Y286D02*
X248Y286D01*
X275Y286D02*
X278Y286D01*
X1196Y286D02*
X1203Y286D01*
X0Y285D02*
X7Y285D01*
X246Y285D02*
X249Y285D01*
X275Y285D02*
X277Y285D01*
X1196Y285D02*
X1203Y285D01*
X0Y284D02*
X7Y284D01*
X246Y284D02*
X249Y284D01*
X274Y284D02*
X277Y284D01*
X1196Y284D02*
X1203Y284D01*
X0Y283D02*
X7Y283D01*
X247Y283D02*
X250Y283D01*
X273Y283D02*
X277Y283D01*
X1196Y283D02*
X1203Y283D01*
X0Y282D02*
X7Y282D01*
X155Y282D02*
X157Y282D01*
X214Y282D02*
X216Y282D01*
X247Y282D02*
X252Y282D01*
X271Y282D02*
X276Y282D01*
X1196Y282D02*
X1203Y282D01*
X0Y281D02*
X7Y281D01*
X152Y281D02*
X158Y281D01*
X213Y281D02*
X218Y281D01*
X248Y281D02*
X258Y281D01*
X266Y281D02*
X276Y281D01*
X1196Y281D02*
X1203Y281D01*
X0Y280D02*
X7Y280D01*
X151Y280D02*
X160Y280D01*
X211Y280D02*
X220Y280D01*
X249Y280D02*
X274Y280D01*
X1196Y280D02*
X1203Y280D01*
X0Y279D02*
X7Y279D01*
X149Y279D02*
X161Y279D01*
X210Y279D02*
X222Y279D01*
X251Y279D02*
X273Y279D01*
X1196Y279D02*
X1203Y279D01*
X0Y278D02*
X7Y278D01*
X147Y278D02*
X160Y278D01*
X211Y278D02*
X224Y278D01*
X253Y278D02*
X271Y278D01*
X1196Y278D02*
X1203Y278D01*
X0Y277D02*
X7Y277D01*
X145Y277D02*
X157Y277D01*
X213Y277D02*
X226Y277D01*
X258Y277D02*
X265Y277D01*
X1196Y277D02*
X1203Y277D01*
X0Y276D02*
X7Y276D01*
X144Y276D02*
X155Y276D01*
X216Y276D02*
X227Y276D01*
X1196Y276D02*
X1203Y276D01*
X0Y275D02*
X7Y275D01*
X142Y275D02*
X153Y275D01*
X218Y275D02*
X229Y275D01*
X1196Y275D02*
X1203Y275D01*
X0Y274D02*
X7Y274D01*
X141Y274D02*
X151Y274D01*
X220Y274D02*
X230Y274D01*
X1196Y274D02*
X1203Y274D01*
X0Y273D02*
X7Y273D01*
X139Y273D02*
X149Y273D01*
X222Y273D02*
X232Y273D01*
X1196Y273D02*
X1203Y273D01*
X0Y272D02*
X7Y272D01*
X138Y272D02*
X148Y272D01*
X223Y272D02*
X233Y272D01*
X247Y272D02*
X249Y272D01*
X1196Y272D02*
X1203Y272D01*
X0Y271D02*
X7Y271D01*
X137Y271D02*
X146Y271D01*
X225Y271D02*
X234Y271D01*
X246Y271D02*
X249Y271D01*
X1196Y271D02*
X1203Y271D01*
X0Y270D02*
X7Y270D01*
X135Y270D02*
X145Y270D01*
X226Y270D02*
X236Y270D01*
X246Y270D02*
X249Y270D01*
X266Y270D02*
X273Y270D01*
X1196Y270D02*
X1203Y270D01*
X0Y269D02*
X7Y269D01*
X134Y269D02*
X143Y269D01*
X228Y269D02*
X237Y269D01*
X246Y269D02*
X249Y269D01*
X264Y269D02*
X275Y269D01*
X1196Y269D02*
X1203Y269D01*
X0Y268D02*
X7Y268D01*
X133Y268D02*
X142Y268D01*
X229Y268D02*
X238Y268D01*
X246Y268D02*
X249Y268D01*
X262Y268D02*
X276Y268D01*
X1196Y268D02*
X1203Y268D01*
X0Y267D02*
X7Y267D01*
X132Y267D02*
X141Y267D01*
X230Y267D02*
X238Y267D01*
X246Y267D02*
X249Y267D01*
X261Y267D02*
X276Y267D01*
X1196Y267D02*
X1203Y267D01*
X0Y266D02*
X7Y266D01*
X131Y266D02*
X139Y266D01*
X232Y266D02*
X238Y266D01*
X246Y266D02*
X249Y266D01*
X260Y266D02*
X265Y266D01*
X273Y266D02*
X277Y266D01*
X1196Y266D02*
X1203Y266D01*
X0Y265D02*
X7Y265D01*
X130Y265D02*
X138Y265D01*
X233Y265D02*
X238Y265D01*
X246Y265D02*
X249Y265D01*
X259Y265D02*
X263Y265D01*
X274Y265D02*
X277Y265D01*
X1196Y265D02*
X1203Y265D01*
X0Y264D02*
X7Y264D01*
X129Y264D02*
X137Y264D01*
X233Y264D02*
X238Y264D01*
X246Y264D02*
X249Y264D01*
X258Y264D02*
X262Y264D01*
X275Y264D02*
X277Y264D01*
X1196Y264D02*
X1203Y264D01*
X0Y263D02*
X7Y263D01*
X128Y263D02*
X136Y263D01*
X233Y263D02*
X238Y263D01*
X246Y263D02*
X249Y263D01*
X256Y263D02*
X261Y263D01*
X275Y263D02*
X277Y263D01*
X1196Y263D02*
X1203Y263D01*
X0Y262D02*
X7Y262D01*
X127Y262D02*
X135Y262D01*
X233Y262D02*
X238Y262D01*
X246Y262D02*
X249Y262D01*
X255Y262D02*
X259Y262D01*
X275Y262D02*
X278Y262D01*
X1196Y262D02*
X1203Y262D01*
X0Y261D02*
X7Y261D01*
X126Y261D02*
X134Y261D01*
X233Y261D02*
X238Y261D01*
X246Y261D02*
X249Y261D01*
X254Y261D02*
X258Y261D01*
X275Y261D02*
X277Y261D01*
X1196Y261D02*
X1203Y261D01*
X0Y260D02*
X7Y260D01*
X126Y260D02*
X133Y260D01*
X233Y260D02*
X238Y260D01*
X246Y260D02*
X249Y260D01*
X253Y260D02*
X257Y260D01*
X275Y260D02*
X277Y260D01*
X1196Y260D02*
X1203Y260D01*
X0Y259D02*
X7Y259D01*
X125Y259D02*
X132Y259D01*
X233Y259D02*
X238Y259D01*
X246Y259D02*
X249Y259D01*
X252Y259D02*
X256Y259D01*
X275Y259D02*
X277Y259D01*
X1196Y259D02*
X1203Y259D01*
X0Y258D02*
X7Y258D01*
X124Y258D02*
X131Y258D01*
X233Y258D02*
X238Y258D01*
X246Y258D02*
X249Y258D01*
X251Y258D02*
X255Y258D01*
X274Y258D02*
X277Y258D01*
X1196Y258D02*
X1203Y258D01*
X0Y257D02*
X7Y257D01*
X123Y257D02*
X130Y257D01*
X233Y257D02*
X238Y257D01*
X246Y257D02*
X254Y257D01*
X274Y257D02*
X277Y257D01*
X1196Y257D02*
X1203Y257D01*
X0Y256D02*
X7Y256D01*
X122Y256D02*
X129Y256D01*
X233Y256D02*
X238Y256D01*
X246Y256D02*
X253Y256D01*
X273Y256D02*
X276Y256D01*
X1196Y256D02*
X1203Y256D01*
X0Y255D02*
X7Y255D01*
X122Y255D02*
X129Y255D01*
X233Y255D02*
X238Y255D01*
X246Y255D02*
X252Y255D01*
X272Y255D02*
X276Y255D01*
X1196Y255D02*
X1203Y255D01*
X0Y254D02*
X7Y254D01*
X121Y254D02*
X128Y254D01*
X233Y254D02*
X238Y254D01*
X246Y254D02*
X251Y254D01*
X273Y254D02*
X275Y254D01*
X1196Y254D02*
X1203Y254D01*
X0Y253D02*
X7Y253D01*
X121Y253D02*
X127Y253D01*
X233Y253D02*
X238Y253D01*
X246Y253D02*
X250Y253D01*
X274Y253D02*
X274Y253D01*
X1196Y253D02*
X1203Y253D01*
X0Y252D02*
X7Y252D01*
X120Y252D02*
X126Y252D01*
X233Y252D02*
X238Y252D01*
X1196Y252D02*
X1203Y252D01*
X0Y251D02*
X7Y251D01*
X119Y251D02*
X126Y251D01*
X233Y251D02*
X238Y251D01*
X1196Y251D02*
X1203Y251D01*
X0Y250D02*
X7Y250D01*
X119Y250D02*
X125Y250D01*
X233Y250D02*
X238Y250D01*
X1196Y250D02*
X1203Y250D01*
X0Y249D02*
X7Y249D01*
X118Y249D02*
X124Y249D01*
X233Y249D02*
X238Y249D01*
X1196Y249D02*
X1203Y249D01*
X0Y248D02*
X7Y248D01*
X118Y248D02*
X124Y248D01*
X233Y248D02*
X238Y248D01*
X1196Y248D02*
X1203Y248D01*
X0Y247D02*
X7Y247D01*
X35Y247D02*
X53Y247D01*
X77Y247D02*
X100Y247D01*
X117Y247D02*
X123Y247D01*
X136Y247D02*
X153Y247D01*
X233Y247D02*
X238Y247D01*
X252Y247D02*
X258Y247D01*
X1196Y247D02*
X1203Y247D01*
X0Y246D02*
X7Y246D01*
X35Y246D02*
X54Y246D01*
X75Y246D02*
X102Y246D01*
X116Y246D02*
X122Y246D01*
X134Y246D02*
X154Y246D01*
X233Y246D02*
X238Y246D01*
X250Y246D02*
X260Y246D01*
X267Y246D02*
X273Y246D01*
X1196Y246D02*
X1203Y246D01*
X0Y245D02*
X7Y245D01*
X35Y245D02*
X54Y245D01*
X74Y245D02*
X103Y245D01*
X116Y245D02*
X122Y245D01*
X133Y245D02*
X155Y245D01*
X233Y245D02*
X238Y245D01*
X249Y245D02*
X260Y245D01*
X265Y245D02*
X274Y245D01*
X1196Y245D02*
X1203Y245D01*
X0Y244D02*
X7Y244D01*
X35Y244D02*
X54Y244D01*
X73Y244D02*
X103Y244D01*
X115Y244D02*
X121Y244D01*
X132Y244D02*
X155Y244D01*
X233Y244D02*
X238Y244D01*
X248Y244D02*
X261Y244D01*
X265Y244D02*
X275Y244D01*
X1196Y244D02*
X1203Y244D01*
X0Y243D02*
X7Y243D01*
X35Y243D02*
X54Y243D01*
X72Y243D02*
X104Y243D01*
X115Y243D02*
X121Y243D01*
X131Y243D02*
X155Y243D01*
X233Y243D02*
X238Y243D01*
X248Y243D02*
X252Y243D01*
X258Y243D02*
X261Y243D01*
X264Y243D02*
X276Y243D01*
X1196Y243D02*
X1203Y243D01*
X0Y242D02*
X7Y242D01*
X35Y242D02*
X54Y242D01*
X72Y242D02*
X104Y242D01*
X115Y242D02*
X120Y242D01*
X130Y242D02*
X154Y242D01*
X233Y242D02*
X238Y242D01*
X247Y242D02*
X251Y242D01*
X260Y242D02*
X262Y242D01*
X264Y242D02*
X266Y242D01*
X273Y242D02*
X276Y242D01*
X1196Y242D02*
X1203Y242D01*
X0Y241D02*
X7Y241D01*
X35Y241D02*
X52Y241D01*
X71Y241D02*
X104Y241D01*
X114Y241D02*
X120Y241D01*
X130Y241D02*
X153Y241D01*
X233Y241D02*
X238Y241D01*
X247Y241D02*
X250Y241D01*
X260Y241D02*
X265Y241D01*
X274Y241D02*
X277Y241D01*
X1196Y241D02*
X1203Y241D01*
X0Y240D02*
X7Y240D01*
X35Y240D02*
X41Y240D01*
X71Y240D02*
X78Y240D01*
X99Y240D02*
X105Y240D01*
X114Y240D02*
X119Y240D01*
X129Y240D02*
X136Y240D01*
X142Y240D02*
X148Y240D01*
X233Y240D02*
X238Y240D01*
X247Y240D02*
X249Y240D01*
X261Y240D02*
X264Y240D01*
X274Y240D02*
X277Y240D01*
X1196Y240D02*
X1203Y240D01*
X0Y239D02*
X7Y239D01*
X35Y239D02*
X41Y239D01*
X71Y239D02*
X77Y239D01*
X98Y239D02*
X104Y239D01*
X113Y239D02*
X119Y239D01*
X129Y239D02*
X136Y239D01*
X142Y239D02*
X148Y239D01*
X233Y239D02*
X238Y239D01*
X246Y239D02*
X249Y239D01*
X261Y239D02*
X264Y239D01*
X274Y239D02*
X277Y239D01*
X1196Y239D02*
X1203Y239D01*
X0Y238D02*
X7Y238D01*
X35Y238D02*
X41Y238D01*
X71Y238D02*
X77Y238D01*
X97Y238D02*
X104Y238D01*
X113Y238D02*
X118Y238D01*
X128Y238D02*
X135Y238D01*
X142Y238D02*
X148Y238D01*
X233Y238D02*
X238Y238D01*
X246Y238D02*
X249Y238D01*
X261Y238D02*
X264Y238D01*
X274Y238D02*
X277Y238D01*
X1196Y238D02*
X1203Y238D01*
X0Y237D02*
X7Y237D01*
X35Y237D02*
X41Y237D01*
X71Y237D02*
X77Y237D01*
X97Y237D02*
X104Y237D01*
X113Y237D02*
X118Y237D01*
X128Y237D02*
X134Y237D01*
X142Y237D02*
X148Y237D01*
X233Y237D02*
X238Y237D01*
X246Y237D02*
X249Y237D01*
X261Y237D02*
X264Y237D01*
X275Y237D02*
X277Y237D01*
X1196Y237D02*
X1203Y237D01*
X0Y236D02*
X7Y236D01*
X35Y236D02*
X41Y236D01*
X72Y236D02*
X76Y236D01*
X96Y236D02*
X104Y236D01*
X112Y236D02*
X118Y236D01*
X127Y236D02*
X134Y236D01*
X142Y236D02*
X148Y236D01*
X233Y236D02*
X238Y236D01*
X246Y236D02*
X249Y236D01*
X261Y236D02*
X264Y236D01*
X275Y236D02*
X277Y236D01*
X1196Y236D02*
X1203Y236D01*
X0Y235D02*
X7Y235D01*
X35Y235D02*
X41Y235D01*
X73Y235D02*
X75Y235D01*
X95Y235D02*
X103Y235D01*
X112Y235D02*
X117Y235D01*
X127Y235D02*
X133Y235D01*
X142Y235D02*
X148Y235D01*
X233Y235D02*
X238Y235D01*
X246Y235D02*
X249Y235D01*
X261Y235D02*
X264Y235D01*
X275Y235D02*
X277Y235D01*
X1196Y235D02*
X1203Y235D01*
X0Y234D02*
X7Y234D01*
X35Y234D02*
X41Y234D01*
X94Y234D02*
X102Y234D01*
X112Y234D02*
X117Y234D01*
X126Y234D02*
X133Y234D01*
X142Y234D02*
X148Y234D01*
X233Y234D02*
X238Y234D01*
X246Y234D02*
X249Y234D01*
X261Y234D02*
X264Y234D01*
X275Y234D02*
X277Y234D01*
X1196Y234D02*
X1203Y234D01*
X0Y233D02*
X7Y233D01*
X35Y233D02*
X41Y233D01*
X94Y233D02*
X101Y233D01*
X111Y233D02*
X117Y233D01*
X126Y233D02*
X132Y233D01*
X142Y233D02*
X148Y233D01*
X233Y233D02*
X238Y233D01*
X246Y233D02*
X249Y233D01*
X261Y233D02*
X264Y233D01*
X275Y233D02*
X277Y233D01*
X1196Y233D02*
X1203Y233D01*
X0Y232D02*
X7Y232D01*
X35Y232D02*
X41Y232D01*
X93Y232D02*
X101Y232D01*
X111Y232D02*
X116Y232D01*
X125Y232D02*
X132Y232D01*
X142Y232D02*
X148Y232D01*
X233Y232D02*
X238Y232D01*
X246Y232D02*
X249Y232D01*
X261Y232D02*
X264Y232D01*
X275Y232D02*
X277Y232D01*
X1196Y232D02*
X1203Y232D01*
X0Y231D02*
X7Y231D01*
X35Y231D02*
X41Y231D01*
X92Y231D02*
X100Y231D01*
X111Y231D02*
X116Y231D01*
X125Y231D02*
X131Y231D01*
X142Y231D02*
X148Y231D01*
X233Y231D02*
X238Y231D01*
X246Y231D02*
X249Y231D01*
X261Y231D02*
X264Y231D01*
X274Y231D02*
X277Y231D01*
X1196Y231D02*
X1203Y231D01*
X0Y230D02*
X7Y230D01*
X35Y230D02*
X41Y230D01*
X91Y230D02*
X99Y230D01*
X110Y230D02*
X116Y230D01*
X124Y230D02*
X131Y230D01*
X142Y230D02*
X148Y230D01*
X233Y230D02*
X238Y230D01*
X246Y230D02*
X277Y230D01*
X1196Y230D02*
X1203Y230D01*
X0Y229D02*
X7Y229D01*
X35Y229D02*
X41Y229D01*
X90Y229D02*
X98Y229D01*
X110Y229D02*
X115Y229D01*
X124Y229D02*
X130Y229D01*
X142Y229D02*
X148Y229D01*
X233Y229D02*
X238Y229D01*
X246Y229D02*
X277Y229D01*
X1196Y229D02*
X1203Y229D01*
X0Y228D02*
X7Y228D01*
X35Y228D02*
X41Y228D01*
X90Y228D02*
X98Y228D01*
X110Y228D02*
X115Y228D01*
X123Y228D02*
X130Y228D01*
X142Y228D02*
X148Y228D01*
X233Y228D02*
X238Y228D01*
X246Y228D02*
X277Y228D01*
X1196Y228D02*
X1203Y228D01*
X0Y227D02*
X7Y227D01*
X35Y227D02*
X41Y227D01*
X89Y227D02*
X97Y227D01*
X110Y227D02*
X115Y227D01*
X123Y227D02*
X129Y227D01*
X142Y227D02*
X148Y227D01*
X233Y227D02*
X238Y227D01*
X247Y227D02*
X277Y227D01*
X1196Y227D02*
X1203Y227D01*
X0Y226D02*
X7Y226D01*
X35Y226D02*
X41Y226D01*
X88Y226D02*
X96Y226D01*
X110Y226D02*
X115Y226D01*
X122Y226D02*
X129Y226D01*
X142Y226D02*
X148Y226D01*
X233Y226D02*
X238Y226D01*
X1196Y226D02*
X1203Y226D01*
X0Y225D02*
X7Y225D01*
X35Y225D02*
X41Y225D01*
X87Y225D02*
X95Y225D01*
X109Y225D02*
X114Y225D01*
X122Y225D02*
X128Y225D01*
X142Y225D02*
X148Y225D01*
X233Y225D02*
X238Y225D01*
X1196Y225D02*
X1203Y225D01*
X0Y224D02*
X7Y224D01*
X35Y224D02*
X41Y224D01*
X87Y224D02*
X95Y224D01*
X109Y224D02*
X114Y224D01*
X122Y224D02*
X128Y224D01*
X142Y224D02*
X147Y224D01*
X233Y224D02*
X238Y224D01*
X1196Y224D02*
X1203Y224D01*
X0Y223D02*
X7Y223D01*
X35Y223D02*
X41Y223D01*
X86Y223D02*
X94Y223D01*
X109Y223D02*
X114Y223D01*
X121Y223D02*
X128Y223D01*
X142Y223D02*
X147Y223D01*
X233Y223D02*
X238Y223D01*
X1196Y223D02*
X1203Y223D01*
X0Y222D02*
X7Y222D01*
X35Y222D02*
X41Y222D01*
X85Y222D02*
X93Y222D01*
X109Y222D02*
X114Y222D01*
X121Y222D02*
X127Y222D01*
X142Y222D02*
X147Y222D01*
X233Y222D02*
X238Y222D01*
X1196Y222D02*
X1203Y222D01*
X0Y221D02*
X7Y221D01*
X35Y221D02*
X41Y221D01*
X84Y221D02*
X92Y221D01*
X109Y221D02*
X114Y221D01*
X121Y221D02*
X127Y221D01*
X142Y221D02*
X147Y221D01*
X233Y221D02*
X238Y221D01*
X1196Y221D02*
X1203Y221D01*
X0Y220D02*
X7Y220D01*
X35Y220D02*
X41Y220D01*
X83Y220D02*
X91Y220D01*
X109Y220D02*
X114Y220D01*
X121Y220D02*
X127Y220D01*
X142Y220D02*
X146Y220D01*
X233Y220D02*
X238Y220D01*
X252Y220D02*
X256Y220D01*
X1196Y220D02*
X1203Y220D01*
X0Y219D02*
X7Y219D01*
X35Y219D02*
X41Y219D01*
X83Y219D02*
X91Y219D01*
X109Y219D02*
X113Y219D01*
X121Y219D02*
X127Y219D01*
X142Y219D02*
X146Y219D01*
X233Y219D02*
X238Y219D01*
X250Y219D02*
X258Y219D01*
X269Y219D02*
X272Y219D01*
X1196Y219D02*
X1203Y219D01*
X0Y218D02*
X7Y218D01*
X23Y218D02*
X25Y218D01*
X35Y218D02*
X41Y218D01*
X82Y218D02*
X90Y218D01*
X108Y218D02*
X113Y218D01*
X121Y218D02*
X128Y218D01*
X142Y218D02*
X146Y218D01*
X233Y218D02*
X238Y218D01*
X249Y218D02*
X259Y218D01*
X267Y218D02*
X274Y218D01*
X1196Y218D02*
X1203Y218D01*
X0Y217D02*
X7Y217D01*
X22Y217D02*
X26Y217D01*
X35Y217D02*
X41Y217D01*
X81Y217D02*
X89Y217D01*
X108Y217D02*
X113Y217D01*
X122Y217D02*
X128Y217D01*
X142Y217D02*
X146Y217D01*
X233Y217D02*
X238Y217D01*
X248Y217D02*
X260Y217D01*
X266Y217D02*
X275Y217D01*
X1196Y217D02*
X1203Y217D01*
X0Y216D02*
X7Y216D01*
X21Y216D02*
X27Y216D01*
X35Y216D02*
X41Y216D01*
X80Y216D02*
X88Y216D01*
X108Y216D02*
X113Y216D01*
X122Y216D02*
X128Y216D01*
X142Y216D02*
X146Y216D01*
X233Y216D02*
X238Y216D01*
X247Y216D02*
X251Y216D01*
X257Y216D02*
X261Y216D01*
X265Y216D02*
X276Y216D01*
X1196Y216D02*
X1203Y216D01*
X0Y215D02*
X7Y215D01*
X21Y215D02*
X27Y215D01*
X35Y215D02*
X41Y215D01*
X80Y215D02*
X88Y215D01*
X108Y215D02*
X113Y215D01*
X122Y215D02*
X129Y215D01*
X142Y215D02*
X145Y215D01*
X233Y215D02*
X238Y215D01*
X247Y215D02*
X250Y215D01*
X258Y215D02*
X261Y215D01*
X264Y215D02*
X268Y215D01*
X273Y215D02*
X277Y215D01*
X1196Y215D02*
X1203Y215D01*
X0Y214D02*
X7Y214D01*
X21Y214D02*
X27Y214D01*
X35Y214D02*
X41Y214D01*
X79Y214D02*
X87Y214D01*
X108Y214D02*
X113Y214D01*
X123Y214D02*
X129Y214D01*
X142Y214D02*
X145Y214D01*
X233Y214D02*
X238Y214D01*
X246Y214D02*
X249Y214D01*
X259Y214D02*
X266Y214D01*
X274Y214D02*
X277Y214D01*
X1196Y214D02*
X1203Y214D01*
X0Y213D02*
X7Y213D01*
X21Y213D02*
X27Y213D01*
X35Y213D02*
X41Y213D01*
X78Y213D02*
X86Y213D01*
X108Y213D02*
X113Y213D01*
X123Y213D02*
X130Y213D01*
X142Y213D02*
X145Y213D01*
X233Y213D02*
X238Y213D01*
X246Y213D02*
X249Y213D01*
X260Y213D02*
X265Y213D01*
X275Y213D02*
X277Y213D01*
X1196Y213D02*
X1203Y213D01*
X0Y212D02*
X7Y212D01*
X21Y212D02*
X27Y212D01*
X35Y212D02*
X41Y212D01*
X77Y212D02*
X85Y212D01*
X108Y212D02*
X113Y212D01*
X124Y212D02*
X131Y212D01*
X142Y212D02*
X145Y212D01*
X233Y212D02*
X238Y212D01*
X246Y212D02*
X248Y212D01*
X260Y212D02*
X265Y212D01*
X275Y212D02*
X278Y212D01*
X1196Y212D02*
X1203Y212D01*
X0Y211D02*
X7Y211D01*
X21Y211D02*
X27Y211D01*
X35Y211D02*
X41Y211D01*
X76Y211D02*
X84Y211D01*
X108Y211D02*
X113Y211D01*
X124Y211D02*
X131Y211D01*
X142Y211D02*
X145Y211D01*
X233Y211D02*
X238Y211D01*
X246Y211D02*
X248Y211D01*
X261Y211D02*
X264Y211D01*
X275Y211D02*
X278Y211D01*
X1196Y211D02*
X1203Y211D01*
X0Y210D02*
X7Y210D01*
X21Y210D02*
X27Y210D01*
X35Y210D02*
X41Y210D01*
X76Y210D02*
X84Y210D01*
X108Y210D02*
X113Y210D01*
X125Y210D02*
X132Y210D01*
X142Y210D02*
X145Y210D01*
X233Y210D02*
X238Y210D01*
X246Y210D02*
X248Y210D01*
X261Y210D02*
X264Y210D01*
X275Y210D02*
X278Y210D01*
X1196Y210D02*
X1203Y210D01*
X0Y209D02*
X7Y209D01*
X21Y209D02*
X27Y209D01*
X35Y209D02*
X41Y209D01*
X75Y209D02*
X83Y209D01*
X108Y209D02*
X113Y209D01*
X125Y209D02*
X132Y209D01*
X142Y209D02*
X145Y209D01*
X233Y209D02*
X238Y209D01*
X246Y209D02*
X248Y209D01*
X261Y209D02*
X265Y209D01*
X275Y209D02*
X278Y209D01*
X1196Y209D02*
X1203Y209D01*
X0Y208D02*
X7Y208D01*
X21Y208D02*
X27Y208D01*
X35Y208D02*
X41Y208D01*
X74Y208D02*
X82Y208D01*
X108Y208D02*
X113Y208D01*
X126Y208D02*
X133Y208D01*
X142Y208D02*
X145Y208D01*
X233Y208D02*
X238Y208D01*
X246Y208D02*
X249Y208D01*
X260Y208D02*
X265Y208D01*
X275Y208D02*
X277Y208D01*
X1196Y208D02*
X1203Y208D01*
X0Y207D02*
X7Y207D01*
X21Y207D02*
X27Y207D01*
X35Y207D02*
X41Y207D01*
X73Y207D02*
X81Y207D01*
X108Y207D02*
X113Y207D01*
X126Y207D02*
X133Y207D01*
X142Y207D02*
X145Y207D01*
X233Y207D02*
X238Y207D01*
X246Y207D02*
X249Y207D01*
X260Y207D02*
X266Y207D01*
X274Y207D02*
X277Y207D01*
X1196Y207D02*
X1203Y207D01*
X0Y206D02*
X7Y206D01*
X21Y206D02*
X27Y206D01*
X35Y206D02*
X41Y206D01*
X73Y206D02*
X81Y206D01*
X100Y206D02*
X103Y206D01*
X108Y206D02*
X113Y206D01*
X127Y206D02*
X134Y206D01*
X142Y206D02*
X145Y206D01*
X233Y206D02*
X238Y206D01*
X247Y206D02*
X250Y206D01*
X259Y206D02*
X267Y206D01*
X273Y206D02*
X277Y206D01*
X1196Y206D02*
X1203Y206D01*
X0Y205D02*
X7Y205D01*
X21Y205D02*
X27Y205D01*
X35Y205D02*
X41Y205D01*
X72Y205D02*
X80Y205D01*
X99Y205D02*
X104Y205D01*
X108Y205D02*
X113Y205D01*
X127Y205D02*
X134Y205D01*
X142Y205D02*
X146Y205D01*
X233Y205D02*
X238Y205D01*
X247Y205D02*
X251Y205D01*
X257Y205D02*
X261Y205D01*
X264Y205D02*
X276Y205D01*
X1196Y205D02*
X1203Y205D01*
X0Y204D02*
X7Y204D01*
X21Y204D02*
X27Y204D01*
X35Y204D02*
X41Y204D01*
X72Y204D02*
X79Y204D01*
X99Y204D02*
X104Y204D01*
X108Y204D02*
X113Y204D01*
X128Y204D02*
X135Y204D01*
X142Y204D02*
X146Y204D01*
X233Y204D02*
X238Y204D01*
X248Y204D02*
X260Y204D01*
X265Y204D02*
X276Y204D01*
X1196Y204D02*
X1203Y204D01*
X0Y203D02*
X7Y203D01*
X21Y203D02*
X27Y203D01*
X35Y203D02*
X41Y203D01*
X71Y203D02*
X78Y203D01*
X99Y203D02*
X105Y203D01*
X109Y203D02*
X113Y203D01*
X128Y203D02*
X135Y203D01*
X142Y203D02*
X146Y203D01*
X233Y203D02*
X238Y203D01*
X248Y203D02*
X259Y203D01*
X266Y203D02*
X274Y203D01*
X1196Y203D02*
X1203Y203D01*
X0Y202D02*
X7Y202D01*
X21Y202D02*
X27Y202D01*
X35Y202D02*
X41Y202D01*
X71Y202D02*
X77Y202D01*
X98Y202D02*
X104Y202D01*
X109Y202D02*
X113Y202D01*
X129Y202D02*
X136Y202D01*
X142Y202D02*
X146Y202D01*
X233Y202D02*
X238Y202D01*
X249Y202D02*
X258Y202D01*
X268Y202D02*
X273Y202D01*
X1196Y202D02*
X1203Y202D01*
X0Y201D02*
X7Y201D01*
X21Y201D02*
X27Y201D01*
X35Y201D02*
X41Y201D01*
X71Y201D02*
X77Y201D01*
X97Y201D02*
X104Y201D01*
X109Y201D02*
X114Y201D01*
X129Y201D02*
X137Y201D01*
X142Y201D02*
X146Y201D01*
X233Y201D02*
X238Y201D01*
X251Y201D02*
X256Y201D01*
X1196Y201D02*
X1203Y201D01*
X0Y200D02*
X7Y200D01*
X21Y200D02*
X53Y200D01*
X71Y200D02*
X104Y200D01*
X109Y200D02*
X114Y200D01*
X130Y200D02*
X147Y200D01*
X233Y200D02*
X238Y200D01*
X1196Y200D02*
X1203Y200D01*
X0Y199D02*
X7Y199D01*
X21Y199D02*
X54Y199D01*
X71Y199D02*
X104Y199D01*
X109Y199D02*
X114Y199D01*
X130Y199D02*
X147Y199D01*
X233Y199D02*
X238Y199D01*
X1196Y199D02*
X1203Y199D01*
X0Y198D02*
X7Y198D01*
X21Y198D02*
X54Y198D01*
X72Y198D02*
X103Y198D01*
X109Y198D02*
X114Y198D01*
X131Y198D02*
X147Y198D01*
X233Y198D02*
X238Y198D01*
X1196Y198D02*
X1203Y198D01*
X0Y197D02*
X7Y197D01*
X21Y197D02*
X54Y197D01*
X72Y197D02*
X102Y197D01*
X109Y197D02*
X114Y197D01*
X132Y197D02*
X148Y197D01*
X233Y197D02*
X238Y197D01*
X1196Y197D02*
X1203Y197D01*
X0Y196D02*
X7Y196D01*
X21Y196D02*
X54Y196D01*
X73Y196D02*
X101Y196D01*
X110Y196D02*
X114Y196D01*
X133Y196D02*
X148Y196D01*
X233Y196D02*
X238Y196D01*
X1196Y196D02*
X1203Y196D01*
X0Y195D02*
X7Y195D01*
X22Y195D02*
X54Y195D01*
X74Y195D02*
X100Y195D01*
X110Y195D02*
X115Y195D01*
X134Y195D02*
X148Y195D01*
X233Y195D02*
X238Y195D01*
X1196Y195D02*
X1203Y195D01*
X0Y194D02*
X7Y194D01*
X23Y194D02*
X52Y194D01*
X76Y194D02*
X98Y194D01*
X110Y194D02*
X115Y194D01*
X136Y194D02*
X149Y194D01*
X233Y194D02*
X238Y194D01*
X1196Y194D02*
X1203Y194D01*
X0Y193D02*
X7Y193D01*
X110Y193D02*
X115Y193D01*
X233Y193D02*
X238Y193D01*
X1196Y193D02*
X1203Y193D01*
X0Y192D02*
X7Y192D01*
X110Y192D02*
X115Y192D01*
X233Y192D02*
X238Y192D01*
X1196Y192D02*
X1203Y192D01*
X0Y191D02*
X7Y191D01*
X111Y191D02*
X116Y191D01*
X233Y191D02*
X238Y191D01*
X1196Y191D02*
X1203Y191D01*
X0Y190D02*
X7Y190D01*
X111Y190D02*
X116Y190D01*
X233Y190D02*
X238Y190D01*
X1196Y190D02*
X1203Y190D01*
X0Y189D02*
X7Y189D01*
X111Y189D02*
X116Y189D01*
X233Y189D02*
X238Y189D01*
X247Y189D02*
X277Y189D01*
X1196Y189D02*
X1203Y189D01*
X0Y188D02*
X7Y188D01*
X111Y188D02*
X117Y188D01*
X233Y188D02*
X238Y188D01*
X246Y188D02*
X277Y188D01*
X1196Y188D02*
X1203Y188D01*
X0Y187D02*
X7Y187D01*
X112Y187D02*
X117Y187D01*
X233Y187D02*
X238Y187D01*
X246Y187D02*
X277Y187D01*
X1196Y187D02*
X1203Y187D01*
X0Y186D02*
X7Y186D01*
X112Y186D02*
X117Y186D01*
X233Y186D02*
X238Y186D01*
X246Y186D02*
X277Y186D01*
X1196Y186D02*
X1203Y186D01*
X0Y185D02*
X7Y185D01*
X112Y185D02*
X118Y185D01*
X233Y185D02*
X238Y185D01*
X273Y185D02*
X276Y185D01*
X1196Y185D02*
X1203Y185D01*
X0Y184D02*
X7Y184D01*
X113Y184D02*
X118Y184D01*
X233Y184D02*
X238Y184D01*
X273Y184D02*
X276Y184D01*
X1196Y184D02*
X1203Y184D01*
X0Y183D02*
X7Y183D01*
X113Y183D02*
X118Y183D01*
X233Y183D02*
X238Y183D01*
X272Y183D02*
X275Y183D01*
X1196Y183D02*
X1203Y183D01*
X0Y182D02*
X7Y182D01*
X113Y182D02*
X119Y182D01*
X233Y182D02*
X238Y182D01*
X271Y182D02*
X274Y182D01*
X1196Y182D02*
X1203Y182D01*
X0Y181D02*
X7Y181D01*
X114Y181D02*
X119Y181D01*
X233Y181D02*
X238Y181D01*
X270Y181D02*
X273Y181D01*
X1196Y181D02*
X1203Y181D01*
X0Y180D02*
X7Y180D01*
X114Y180D02*
X120Y180D01*
X233Y180D02*
X238Y180D01*
X269Y180D02*
X273Y180D01*
X1196Y180D02*
X1203Y180D01*
X0Y179D02*
X7Y179D01*
X115Y179D02*
X120Y179D01*
X233Y179D02*
X238Y179D01*
X270Y179D02*
X272Y179D01*
X1196Y179D02*
X1203Y179D01*
X0Y178D02*
X7Y178D01*
X115Y178D02*
X121Y178D01*
X233Y178D02*
X238Y178D01*
X271Y178D02*
X271Y178D01*
X1196Y178D02*
X1203Y178D01*
X0Y177D02*
X7Y177D01*
X116Y177D02*
X121Y177D01*
X233Y177D02*
X238Y177D01*
X1196Y177D02*
X1203Y177D01*
X0Y176D02*
X7Y176D01*
X116Y176D02*
X122Y176D01*
X233Y176D02*
X238Y176D01*
X1196Y176D02*
X1203Y176D01*
X0Y175D02*
X7Y175D01*
X117Y175D02*
X122Y175D01*
X233Y175D02*
X238Y175D01*
X1196Y175D02*
X1203Y175D01*
X0Y174D02*
X7Y174D01*
X117Y174D02*
X123Y174D01*
X233Y174D02*
X238Y174D01*
X1196Y174D02*
X1203Y174D01*
X0Y173D02*
X7Y173D01*
X118Y173D02*
X124Y173D01*
X233Y173D02*
X238Y173D01*
X1196Y173D02*
X1203Y173D01*
X0Y172D02*
X7Y172D01*
X118Y172D02*
X124Y172D01*
X233Y172D02*
X238Y172D01*
X1196Y172D02*
X1203Y172D01*
X0Y171D02*
X7Y171D01*
X119Y171D02*
X125Y171D01*
X233Y171D02*
X238Y171D01*
X251Y171D02*
X257Y171D01*
X1196Y171D02*
X1203Y171D01*
X0Y170D02*
X7Y170D01*
X119Y170D02*
X126Y170D01*
X233Y170D02*
X238Y170D01*
X250Y170D02*
X259Y170D01*
X274Y170D02*
X276Y170D01*
X1196Y170D02*
X1203Y170D01*
X0Y169D02*
X7Y169D01*
X120Y169D02*
X126Y169D01*
X233Y169D02*
X238Y169D01*
X249Y169D02*
X260Y169D01*
X274Y169D02*
X277Y169D01*
X1196Y169D02*
X1203Y169D01*
X0Y168D02*
X7Y168D01*
X121Y168D02*
X127Y168D01*
X233Y168D02*
X238Y168D01*
X248Y168D02*
X261Y168D01*
X274Y168D02*
X277Y168D01*
X1196Y168D02*
X1203Y168D01*
X0Y167D02*
X7Y167D01*
X121Y167D02*
X128Y167D01*
X233Y167D02*
X238Y167D01*
X247Y167D02*
X251Y167D01*
X257Y167D02*
X261Y167D01*
X274Y167D02*
X277Y167D01*
X1196Y167D02*
X1203Y167D01*
X0Y166D02*
X7Y166D01*
X122Y166D02*
X129Y166D01*
X233Y166D02*
X238Y166D01*
X247Y166D02*
X250Y166D01*
X258Y166D02*
X262Y166D01*
X275Y166D02*
X277Y166D01*
X1196Y166D02*
X1203Y166D01*
X0Y165D02*
X7Y165D01*
X123Y165D02*
X129Y165D01*
X233Y165D02*
X238Y165D01*
X246Y165D02*
X249Y165D01*
X259Y165D02*
X262Y165D01*
X275Y165D02*
X277Y165D01*
X1196Y165D02*
X1203Y165D01*
X0Y164D02*
X7Y164D01*
X123Y164D02*
X130Y164D01*
X233Y164D02*
X238Y164D01*
X246Y164D02*
X249Y164D01*
X260Y164D02*
X263Y164D01*
X275Y164D02*
X278Y164D01*
X1196Y164D02*
X1203Y164D01*
X0Y163D02*
X7Y163D01*
X124Y163D02*
X131Y163D01*
X233Y163D02*
X238Y163D01*
X246Y163D02*
X249Y163D01*
X260Y163D02*
X263Y163D01*
X275Y163D02*
X278Y163D01*
X1196Y163D02*
X1203Y163D01*
X0Y162D02*
X7Y162D01*
X125Y162D02*
X132Y162D01*
X233Y162D02*
X238Y162D01*
X246Y162D02*
X249Y162D01*
X260Y162D02*
X264Y162D01*
X275Y162D02*
X278Y162D01*
X1196Y162D02*
X1203Y162D01*
X0Y161D02*
X7Y161D01*
X126Y161D02*
X133Y161D01*
X233Y161D02*
X238Y161D01*
X246Y161D02*
X248Y161D01*
X261Y161D02*
X264Y161D01*
X275Y161D02*
X277Y161D01*
X1196Y161D02*
X1203Y161D01*
X0Y160D02*
X7Y160D01*
X127Y160D02*
X134Y160D01*
X233Y160D02*
X238Y160D01*
X246Y160D02*
X249Y160D01*
X261Y160D02*
X265Y160D01*
X274Y160D02*
X277Y160D01*
X1196Y160D02*
X1203Y160D01*
X0Y159D02*
X7Y159D01*
X127Y159D02*
X135Y159D01*
X233Y159D02*
X238Y159D01*
X246Y159D02*
X249Y159D01*
X262Y159D02*
X265Y159D01*
X274Y159D02*
X277Y159D01*
X1196Y159D02*
X1203Y159D01*
X0Y158D02*
X7Y158D01*
X128Y158D02*
X136Y158D01*
X233Y158D02*
X238Y158D01*
X246Y158D02*
X249Y158D01*
X262Y158D02*
X267Y158D01*
X273Y158D02*
X277Y158D01*
X1196Y158D02*
X1203Y158D01*
X0Y157D02*
X7Y157D01*
X129Y157D02*
X137Y157D01*
X233Y157D02*
X238Y157D01*
X246Y157D02*
X249Y157D01*
X263Y157D02*
X276Y157D01*
X1196Y157D02*
X1203Y157D01*
X0Y156D02*
X7Y156D01*
X130Y156D02*
X138Y156D01*
X233Y156D02*
X238Y156D01*
X246Y156D02*
X249Y156D01*
X264Y156D02*
X275Y156D01*
X1196Y156D02*
X1203Y156D01*
X0Y155D02*
X7Y155D01*
X131Y155D02*
X140Y155D01*
X231Y155D02*
X238Y155D01*
X247Y155D02*
X249Y155D01*
X265Y155D02*
X274Y155D01*
X1196Y155D02*
X1203Y155D01*
X0Y154D02*
X7Y154D01*
X132Y154D02*
X141Y154D01*
X230Y154D02*
X238Y154D01*
X247Y154D02*
X250Y154D01*
X267Y154D02*
X273Y154D01*
X1196Y154D02*
X1203Y154D01*
X0Y153D02*
X7Y153D01*
X133Y153D02*
X142Y153D01*
X229Y153D02*
X238Y153D01*
X248Y153D02*
X250Y153D01*
X1196Y153D02*
X1203Y153D01*
X0Y152D02*
X7Y152D01*
X134Y152D02*
X143Y152D01*
X228Y152D02*
X237Y152D01*
X1196Y152D02*
X1203Y152D01*
X0Y151D02*
X7Y151D01*
X136Y151D02*
X145Y151D01*
X226Y151D02*
X235Y151D01*
X1196Y151D02*
X1203Y151D01*
X0Y150D02*
X7Y150D01*
X137Y150D02*
X146Y150D01*
X225Y150D02*
X234Y150D01*
X1196Y150D02*
X1203Y150D01*
X0Y149D02*
X7Y149D01*
X138Y149D02*
X148Y149D01*
X223Y149D02*
X233Y149D01*
X1196Y149D02*
X1203Y149D01*
X0Y148D02*
X7Y148D01*
X139Y148D02*
X150Y148D01*
X221Y148D02*
X232Y148D01*
X1196Y148D02*
X1203Y148D01*
X0Y147D02*
X7Y147D01*
X141Y147D02*
X151Y147D01*
X219Y147D02*
X230Y147D01*
X256Y147D02*
X268Y147D01*
X1196Y147D02*
X1203Y147D01*
X0Y146D02*
X7Y146D01*
X142Y146D02*
X153Y146D01*
X218Y146D02*
X229Y146D01*
X254Y146D02*
X270Y146D01*
X1196Y146D02*
X1203Y146D01*
X0Y145D02*
X7Y145D01*
X144Y145D02*
X156Y145D01*
X215Y145D02*
X227Y145D01*
X252Y145D02*
X272Y145D01*
X1196Y145D02*
X1203Y145D01*
X0Y144D02*
X7Y144D01*
X145Y144D02*
X158Y144D01*
X213Y144D02*
X226Y144D01*
X251Y144D02*
X273Y144D01*
X1196Y144D02*
X1203Y144D01*
X0Y143D02*
X7Y143D01*
X147Y143D02*
X160Y143D01*
X211Y143D02*
X224Y143D01*
X250Y143D02*
X256Y143D01*
X268Y143D02*
X274Y143D01*
X1196Y143D02*
X1203Y143D01*
X0Y142D02*
X7Y142D01*
X149Y142D02*
X161Y142D01*
X210Y142D02*
X222Y142D01*
X249Y142D02*
X254Y142D01*
X270Y142D02*
X275Y142D01*
X1196Y142D02*
X1203Y142D01*
X0Y141D02*
X7Y141D01*
X151Y141D02*
X159Y141D01*
X211Y141D02*
X220Y141D01*
X248Y141D02*
X252Y141D01*
X271Y141D02*
X275Y141D01*
X1196Y141D02*
X1203Y141D01*
X0Y140D02*
X7Y140D01*
X153Y140D02*
X158Y140D01*
X213Y140D02*
X218Y140D01*
X248Y140D02*
X251Y140D01*
X272Y140D02*
X276Y140D01*
X1196Y140D02*
X1203Y140D01*
X0Y139D02*
X7Y139D01*
X155Y139D02*
X157Y139D01*
X214Y139D02*
X216Y139D01*
X247Y139D02*
X251Y139D01*
X273Y139D02*
X276Y139D01*
X1196Y139D02*
X1203Y139D01*
X0Y138D02*
X7Y138D01*
X247Y138D02*
X250Y138D01*
X274Y138D02*
X276Y138D01*
X1196Y138D02*
X1203Y138D01*
X0Y137D02*
X7Y137D01*
X247Y137D02*
X250Y137D01*
X274Y137D02*
X277Y137D01*
X1196Y137D02*
X1203Y137D01*
X0Y136D02*
X7Y136D01*
X247Y136D02*
X249Y136D01*
X274Y136D02*
X277Y136D01*
X1196Y136D02*
X1203Y136D01*
X0Y135D02*
X7Y135D01*
X247Y135D02*
X249Y135D01*
X275Y135D02*
X277Y135D01*
X1196Y135D02*
X1203Y135D01*
X0Y134D02*
X7Y134D01*
X246Y134D02*
X249Y134D01*
X275Y134D02*
X277Y134D01*
X1196Y134D02*
X1203Y134D01*
X0Y133D02*
X7Y133D01*
X246Y133D02*
X249Y133D01*
X275Y133D02*
X277Y133D01*
X1196Y133D02*
X1203Y133D01*
X0Y132D02*
X7Y132D01*
X246Y132D02*
X249Y132D01*
X275Y132D02*
X277Y132D01*
X1196Y132D02*
X1203Y132D01*
X0Y131D02*
X7Y131D01*
X246Y131D02*
X249Y131D01*
X275Y131D02*
X277Y131D01*
X1196Y131D02*
X1203Y131D01*
X0Y130D02*
X7Y130D01*
X246Y130D02*
X249Y130D01*
X275Y130D02*
X277Y130D01*
X1196Y130D02*
X1203Y130D01*
X0Y129D02*
X7Y129D01*
X246Y129D02*
X249Y129D01*
X275Y129D02*
X277Y129D01*
X1196Y129D02*
X1203Y129D01*
X0Y128D02*
X7Y128D01*
X246Y128D02*
X277Y128D01*
X1196Y128D02*
X1203Y128D01*
X0Y127D02*
X7Y127D01*
X246Y127D02*
X277Y127D01*
X1196Y127D02*
X1203Y127D01*
X0Y126D02*
X7Y126D01*
X246Y126D02*
X277Y126D01*
X1196Y126D02*
X1203Y126D01*
X0Y125D02*
X7Y125D01*
X246Y125D02*
X277Y125D01*
X1196Y125D02*
X1203Y125D01*
X0Y124D02*
X7Y124D01*
X1196Y124D02*
X1203Y124D01*
X0Y123D02*
X7Y123D01*
X1196Y123D02*
X1203Y123D01*
X0Y122D02*
X7Y122D01*
X1196Y122D02*
X1203Y122D01*
X0Y121D02*
X7Y121D01*
X1196Y121D02*
X1203Y121D01*
X0Y120D02*
X7Y120D01*
X1196Y120D02*
X1203Y120D01*
X0Y119D02*
X7Y119D01*
X1196Y119D02*
X1203Y119D01*
X0Y118D02*
X7Y118D01*
X1196Y118D02*
X1203Y118D01*
X0Y117D02*
X7Y117D01*
X1196Y117D02*
X1203Y117D01*
X0Y116D02*
X7Y116D01*
X1196Y116D02*
X1203Y116D01*
X0Y115D02*
X7Y115D01*
X1196Y115D02*
X1203Y115D01*
X0Y114D02*
X7Y114D01*
X1196Y114D02*
X1203Y114D01*
X0Y113D02*
X7Y113D01*
X1196Y113D02*
X1203Y113D01*
X0Y112D02*
X7Y112D01*
X1196Y112D02*
X1203Y112D01*
X0Y111D02*
X7Y111D01*
X1196Y111D02*
X1203Y111D01*
X0Y110D02*
X7Y110D01*
X1196Y110D02*
X1203Y110D01*
X0Y109D02*
X7Y109D01*
X1196Y109D02*
X1203Y109D01*
X0Y108D02*
X7Y108D01*
X1196Y108D02*
X1203Y108D01*
X0Y107D02*
X7Y107D01*
X1196Y107D02*
X1203Y107D01*
X0Y106D02*
X7Y106D01*
X1196Y106D02*
X1203Y106D01*
X0Y105D02*
X7Y105D01*
X1196Y105D02*
X1203Y105D01*
X0Y104D02*
X7Y104D01*
X1196Y104D02*
X1203Y104D01*
X0Y103D02*
X7Y103D01*
X1196Y103D02*
X1203Y103D01*
X0Y102D02*
X7Y102D01*
X1196Y102D02*
X1203Y102D01*
X0Y101D02*
X7Y101D01*
X1196Y101D02*
X1203Y101D01*
X0Y100D02*
X7Y100D01*
X1196Y100D02*
X1203Y100D01*
X0Y99D02*
X7Y99D01*
X1196Y99D02*
X1203Y99D01*
X0Y98D02*
X7Y98D01*
X1196Y98D02*
X1203Y98D01*
X0Y97D02*
X7Y97D01*
X1196Y97D02*
X1203Y97D01*
X0Y96D02*
X7Y96D01*
X1196Y96D02*
X1203Y96D01*
X0Y95D02*
X7Y95D01*
X1196Y95D02*
X1203Y95D01*
X0Y94D02*
X7Y94D01*
X1196Y94D02*
X1203Y94D01*
X0Y93D02*
X7Y93D01*
X1196Y93D02*
X1203Y93D01*
X0Y92D02*
X7Y92D01*
X1196Y92D02*
X1203Y92D01*
X0Y91D02*
X7Y91D01*
X1196Y91D02*
X1203Y91D01*
X0Y90D02*
X7Y90D01*
X1196Y90D02*
X1203Y90D01*
X0Y89D02*
X7Y89D01*
X1196Y89D02*
X1203Y89D01*
X0Y88D02*
X7Y88D01*
X1196Y88D02*
X1203Y88D01*
X0Y87D02*
X7Y87D01*
X1196Y87D02*
X1203Y87D01*
X0Y86D02*
X7Y86D01*
X1196Y86D02*
X1203Y86D01*
X0Y85D02*
X7Y85D01*
X1196Y85D02*
X1203Y85D01*
X0Y84D02*
X7Y84D01*
X1196Y84D02*
X1203Y84D01*
X0Y83D02*
X7Y83D01*
X1196Y83D02*
X1203Y83D01*
X0Y82D02*
X7Y82D01*
X1196Y82D02*
X1203Y82D01*
X0Y81D02*
X7Y81D01*
X1196Y81D02*
X1203Y81D01*
X0Y80D02*
X7Y80D01*
X1196Y80D02*
X1203Y80D01*
X0Y79D02*
X7Y79D01*
X1196Y79D02*
X1203Y79D01*
X0Y78D02*
X7Y78D01*
X1196Y78D02*
X1203Y78D01*
X0Y77D02*
X7Y77D01*
X1196Y77D02*
X1203Y77D01*
X0Y76D02*
X7Y76D01*
X1196Y76D02*
X1203Y76D01*
X0Y75D02*
X7Y75D01*
X1196Y75D02*
X1203Y75D01*
X0Y74D02*
X7Y74D01*
X1196Y74D02*
X1203Y74D01*
X0Y73D02*
X7Y73D01*
X1196Y73D02*
X1203Y73D01*
X0Y72D02*
X7Y72D01*
X1196Y72D02*
X1203Y72D01*
X0Y71D02*
X7Y71D01*
X1196Y71D02*
X1203Y71D01*
X0Y70D02*
X7Y70D01*
X1196Y70D02*
X1203Y70D01*
X0Y69D02*
X7Y69D01*
X1196Y69D02*
X1203Y69D01*
X0Y68D02*
X7Y68D01*
X1196Y68D02*
X1203Y68D01*
X0Y67D02*
X7Y67D01*
X1196Y67D02*
X1203Y67D01*
X0Y66D02*
X7Y66D01*
X1196Y66D02*
X1203Y66D01*
X0Y65D02*
X7Y65D01*
X1196Y65D02*
X1203Y65D01*
X0Y64D02*
X7Y64D01*
X1196Y64D02*
X1203Y64D01*
X0Y63D02*
X7Y63D01*
X1196Y63D02*
X1203Y63D01*
X0Y62D02*
X7Y62D01*
X1196Y62D02*
X1203Y62D01*
X0Y61D02*
X7Y61D01*
X1196Y61D02*
X1203Y61D01*
X0Y60D02*
X7Y60D01*
X1196Y60D02*
X1203Y60D01*
X0Y59D02*
X7Y59D01*
X1196Y59D02*
X1203Y59D01*
X0Y58D02*
X7Y58D01*
X1196Y58D02*
X1203Y58D01*
X0Y57D02*
X7Y57D01*
X1196Y57D02*
X1203Y57D01*
X0Y56D02*
X7Y56D01*
X1196Y56D02*
X1203Y56D01*
X0Y55D02*
X7Y55D01*
X1196Y55D02*
X1203Y55D01*
X0Y54D02*
X7Y54D01*
X1196Y54D02*
X1203Y54D01*
X0Y53D02*
X7Y53D01*
X1196Y53D02*
X1203Y53D01*
X0Y52D02*
X7Y52D01*
X1196Y52D02*
X1203Y52D01*
X0Y51D02*
X7Y51D01*
X1196Y51D02*
X1203Y51D01*
X0Y50D02*
X7Y50D01*
X1196Y50D02*
X1203Y50D01*
X0Y49D02*
X7Y49D01*
X1196Y49D02*
X1203Y49D01*
X0Y48D02*
X7Y48D01*
X1196Y48D02*
X1203Y48D01*
X0Y47D02*
X7Y47D01*
X1196Y47D02*
X1203Y47D01*
X0Y46D02*
X7Y46D01*
X1196Y46D02*
X1203Y46D01*
X0Y45D02*
X7Y45D01*
X1196Y45D02*
X1203Y45D01*
X0Y44D02*
X7Y44D01*
X1196Y44D02*
X1203Y44D01*
X0Y43D02*
X7Y43D01*
X1196Y43D02*
X1203Y43D01*
X0Y42D02*
X7Y42D01*
X1196Y42D02*
X1203Y42D01*
X0Y41D02*
X7Y41D01*
X1196Y41D02*
X1203Y41D01*
X0Y40D02*
X7Y40D01*
X1196Y40D02*
X1203Y40D01*
X0Y39D02*
X7Y39D01*
X1196Y39D02*
X1203Y39D01*
X0Y38D02*
X7Y38D01*
X1196Y38D02*
X1203Y38D01*
X0Y37D02*
X7Y37D01*
X1196Y37D02*
X1203Y37D01*
X0Y36D02*
X7Y36D01*
X1196Y36D02*
X1203Y36D01*
X0Y35D02*
X7Y35D01*
X1196Y35D02*
X1203Y35D01*
X0Y34D02*
X7Y34D01*
X1196Y34D02*
X1203Y34D01*
X0Y33D02*
X7Y33D01*
X1196Y33D02*
X1203Y33D01*
X0Y32D02*
X7Y32D01*
X1196Y32D02*
X1203Y32D01*
X0Y31D02*
X7Y31D01*
X1196Y31D02*
X1203Y31D01*
X0Y30D02*
X7Y30D01*
X1196Y30D02*
X1203Y30D01*
X0Y29D02*
X7Y29D01*
X1196Y29D02*
X1203Y29D01*
X0Y28D02*
X7Y28D01*
X1196Y28D02*
X1203Y28D01*
X0Y27D02*
X7Y27D01*
X1196Y27D02*
X1203Y27D01*
X0Y26D02*
X7Y26D01*
X1196Y26D02*
X1203Y26D01*
X0Y25D02*
X7Y25D01*
X1196Y25D02*
X1203Y25D01*
X0Y24D02*
X7Y24D01*
X1196Y24D02*
X1203Y24D01*
X0Y23D02*
X7Y23D01*
X1196Y23D02*
X1203Y23D01*
X0Y22D02*
X7Y22D01*
X1196Y22D02*
X1203Y22D01*
X0Y21D02*
X7Y21D01*
X1196Y21D02*
X1203Y21D01*
X0Y20D02*
X7Y20D01*
X1196Y20D02*
X1203Y20D01*
X0Y19D02*
X7Y19D01*
X1196Y19D02*
X1203Y19D01*
X0Y18D02*
X7Y18D01*
X1196Y18D02*
X1203Y18D01*
X0Y17D02*
X7Y17D01*
X1196Y17D02*
X1203Y17D01*
X0Y16D02*
X7Y16D01*
X1196Y16D02*
X1203Y16D01*
X0Y15D02*
X7Y15D01*
X1196Y15D02*
X1203Y15D01*
X0Y14D02*
X7Y14D01*
X1196Y14D02*
X1203Y14D01*
X0Y13D02*
X7Y13D01*
X1196Y13D02*
X1203Y13D01*
X0Y12D02*
X7Y12D01*
X1196Y12D02*
X1203Y12D01*
X0Y11D02*
X7Y11D01*
X1196Y11D02*
X1203Y11D01*
X0Y10D02*
X7Y10D01*
X1196Y10D02*
X1203Y10D01*
X0Y9D02*
X1203Y9D01*
X0Y8D02*
X1203Y8D01*
X0Y7D02*
X1203Y7D01*
X0Y6D02*
X1203Y6D01*
X0Y5D02*
X1203Y5D01*
X0Y4D02*
X1203Y4D01*
X0Y3D02*
X1203Y3D01*
X0Y2D02*
X1203Y2D01*
D02*
G04 End of Silk0*
M02*